<svg width="1903" height="27" viewBox="0 0 1903 27" fill="none" xmlns="http://www.w3.org/2000/svg">
<g clip-path="url(#clip0_6_311)">
<path d="M1141.6 7.39637C1143.79 7.64366 1150.06 7.39637 1151.64 6.19947C1154.5 4.04307 1148.92 4.03317 1148.47 2.03504C1149.39 2.678 1151.87 3.94415 1152.29 4.32003C1153.99 2.66811 1154.67 1.125 1156.33 0.234741H1141.38C1142.66 1.29316 1141.64 3.38032 1141.44 4.19144C1139.31 0.818354 1135.51 1.88666 1136.77 4.81462C1137.51 6.60503 1136.15 6.7534 1141.6 7.39637Z" fill="#002E48"/>
<path d="M757.287 3.38031H757.356C757.455 3.44955 757.455 3.43966 757.287 3.38031Z" fill="#002E48"/>
<path d="M784.281 2.53952C788.238 -0.606054 796.883 4.73549 798.535 3.19238C800.781 1.09533 793.956 1.70862 792.6 0.224854H774.528C774.479 0.313879 774.4 0.402905 774.35 0.491931C774.221 0.393013 774.063 0.313879 773.925 0.224854H770.789C772.115 1.75807 777.565 3.69686 778.702 4.18155C780.424 2.69779 780.453 1.3624 784.281 2.53952Z" fill="#002E48"/>
<path d="M813.927 2.21309C814.382 1.94601 823.107 5.26964 824.205 0.234741H812.334C809.565 0.234741 807.032 0.363334 807.082 0.571061C806.974 0.485959 806.898 0.367742 806.864 0.234741L796.577 0.234741C799.761 1.65123 803.132 2.60393 806.587 3.06378C814.877 3.84523 809.199 5.18062 813.927 2.21309Z" fill="#002E48"/>
<path d="M878.372 2.06472C879.889 2.12173 881.343 2.68204 882.507 3.65729C881.131 4.60172 879.564 5.23003 877.917 5.49715C877.917 5.49715 875.78 10.5222 879.262 10.6013C879.994 10.6013 885.82 8.48446 886.097 8.94937C886.112 9.33128 886.22 9.70369 886.414 10.0334C886.607 10.363 886.879 10.6397 887.205 10.8387C887.037 10.8387 889.391 10.8387 889.302 10.7793C889.144 9.46374 898.62 5.02235 896.869 4.41895C896.029 4.36949 895.188 4.32993 894.347 4.32003C891.221 1.78775 893.734 -0.625841 895.623 1.43164C896.666 1.18235 897.666 0.778952 898.591 0.234741L886.443 0.234741C885.85 1.22392 885.979 2.50984 887.304 4.19144C888.521 4.19144 893.18 4.32003 894.327 4.32003C893.457 5.99174 890.064 6.10055 887.403 4.32003C885.711 3.00443 883.605 1.35251 881.883 0.234741H873.159C874 0.976623 877.808 0.857921 878.372 2.06472Z" fill="#002E48"/>
<path d="M874.138 4.07274C871.517 1.3624 864.246 5.9225 860.201 3.78588C865.888 3.4001 869.103 1.90645 869.449 0.234741H858.024C853.177 1.62948 847.816 2.49006 849.438 3.84523C854.315 7.94041 868.905 4.01339 874.138 4.07274Z" fill="#002E48"/>
<path d="M830.13 3.25171C833.424 3.35063 836.718 3.42976 840.021 3.46933C840.244 4.21759 840.505 4.95386 840.803 5.67519C842.012 5.58081 843.214 5.41567 844.404 5.1806C844.354 5.1806 842.762 2.15372 842.574 1.84708C844.047 2.43069 845.719 1.44152 846.886 0.274292H829.734C828.794 0.618388 827.971 1.22207 827.36 2.01524C830.328 1.65914 829.882 3.20225 830.13 3.25171Z" fill="#002E48"/>
<path d="M814.6 6.60503C813.037 6.84243 799.831 7.88106 800.346 8.96916C800.993 9.22058 801.575 9.61639 802.047 10.1265C803.59 9.79017 816.172 8.79111 812.067 11.6103C815.243 11.7092 818.992 12.0257 822.246 12.2829C818.596 10.1463 826.074 7.39637 830.476 6.87211C828.646 6.28849 828.587 5.71477 830.258 5.13116C830.624 5.34878 830.951 5.53672 831.248 5.70488C831.478 5.11137 831.211 4.90365 830.446 5.0817H830.525C829.23 5.4378 829.121 4.85419 830.179 3.33086C830.337 3.27151 824.966 5.53672 825.402 5.30921C824.937 4.43873 823.67 4.7256 821.593 6.20936C819.654 7.73269 817.33 7.89096 814.6 6.60503Z" fill="#002E48"/>
<path d="M918.107 13.4996C927.455 13.1435 916.712 11.2245 916.435 10.8189C912.825 5.60599 910.362 1.34265 907.612 10.1859C906.662 11.3234 915.822 13.5886 918.107 13.4996Z" fill="#002E48"/>
<path d="M712.734 4.19147C716.009 3.69688 717.215 3.74634 716.384 4.33985C716.335 4.3992 716.384 4.33985 716.622 4.2706C718.768 3.14294 718.907 1.00633 721.498 0.313904H708.451L707.907 0.511739C710.716 1.62951 712.823 2.89565 712.734 4.19147Z" fill="#002E48"/>
<path d="M729.966 6.23907C731.37 4.65639 732.152 1.35255 727.186 0.887634C727.641 2.21313 727.236 4.96304 729.966 6.23907Z" fill="#002E48"/>
<path d="M893.763 14.0832C896.573 13.2622 897.186 12.0059 895.653 10.3243C893.387 11.5114 891.765 12.6687 893.763 14.0832Z" fill="#002E48"/>
<path d="M967.309 5.10149L967.437 5.03225C967.279 4.90365 967.21 4.89376 967.309 5.10149Z" fill="#002E48"/>
<path d="M864.949 9.58246C866.7 11.7883 870.399 8.88015 871.121 8.76145C873.238 8.39545 865.938 6.84245 864.949 9.58246Z" fill="#002E48"/>
<path d="M860.606 11.274C862.871 10.0078 862.585 10.5717 857.985 8.4746C857.876 8.42514 854.068 10.9278 860.606 11.274Z" fill="#002E48"/>
<path d="M843.306 12.817C843.764 12.3665 844.116 11.8191 844.335 11.2148C844.554 10.6106 844.635 9.96489 844.572 9.32526C836.47 9.96822 841.466 10.5716 843.306 12.817Z" fill="#002E48"/>
<path d="M865.305 12.9655C864.294 12.8662 863.277 13.0806 862.392 13.5797C861.507 14.0788 860.797 14.8383 860.359 15.7549L864.256 15.8143C864.375 15.6066 866.047 13.0941 865.305 12.9655Z" fill="#002E48"/>
<path d="M797.269 13.6777C795.756 13.8854 801.226 17.298 803.531 14.9834C803.155 14.8053 799.188 13.4106 797.269 13.6777Z" fill="#002E48"/>
<path d="M932.044 10.5024L933.34 9.13733C932.826 9.23625 930.264 9.21646 928.998 9.49343C929.502 10.1265 930.531 10.4826 932.044 10.5024Z" fill="#002E48"/>
<path d="M721.983 3.70676C720.722 3.72162 719.462 3.63894 718.214 3.45947C719.016 2.95499 717.304 3.92438 716.632 4.25081C718.739 5.40814 723.002 5.65544 721.983 3.70676Z" fill="#002E48"/>
<path d="M721.756 3.35065C721.841 3.46301 721.917 3.5821 721.983 3.70675C722.359 3.66718 722.28 3.54848 721.756 3.35065Z" fill="#002E48"/>
<path d="M805.935 13.4007C803.867 13.3117 803.64 14.3899 803.748 15.0922C804.292 14.9339 810.04 13.5688 805.935 13.4007Z" fill="#002E48"/>
<path d="M854.612 11.9763C851.644 12.273 852.97 13.648 854.266 14.5184C854.503 13.46 855.235 13.4897 854.612 11.9763Z" fill="#002E48"/>
<path d="M801.75 9.95837C801.266 10.4233 798.021 11.2047 800.998 12.0455C801.339 11.8315 801.598 11.5098 801.734 11.1315C801.87 10.7532 801.876 10.3403 801.75 9.95837Z" fill="#002E48"/>
<path d="M933.34 9.13732L941.115 7.80193C938.444 7.30734 934.992 7.80193 933.34 9.13732Z" fill="#002E48"/>
<path d="M924.833 1.49102C925.724 1.74821 926.594 1.98561 927.455 2.2428C928.998 1.62951 926.001 1.0459 924.833 1.49102Z" fill="#002E48"/>
<path d="M941.442 2.62858C941.273 1.63941 940.334 1.52071 938.632 2.15378C938.791 3.0836 939.74 3.2023 941.442 2.62858Z" fill="#002E48"/>
<path d="M961.888 3.43965C962.313 2.11416 961.126 1.56022 958.267 1.79762C959.415 2.70766 958.742 3.37041 961.888 3.43965Z" fill="#002E48"/>
<path d="M1017.11 4.47832C1016.82 3.40012 1015.85 3.28142 1014.25 4.11233C1014.85 5.32901 1015.8 5.45761 1017.11 4.47832Z" fill="#002E48"/>
<path d="M726.959 6.31817C725.267 5.20041 723.991 5.19052 722.943 6.31817C724.614 7.03038 725.97 7.04027 726.959 6.31817Z" fill="#002E48"/>
<path d="M844.176 5.24985C845.685 5.9738 847.33 6.36832 849.003 6.40719C848.182 5.36855 846.787 5.18061 844.176 5.24985Z" fill="#002E48"/>
<path d="M852.752 7.73268C854.859 7.50517 855.265 7.09961 853.88 6.5061C851.862 6.77648 851.486 7.18534 852.752 7.73268Z" fill="#002E48"/>
<path d="M849.488 9.40442C848.133 8.50428 847.678 7.7525 848.024 7.159L846.441 8.32622C847.143 8.56363 849.923 9.64183 849.488 9.40442Z" fill="#002E48"/>
<path d="M846.273 8.27675L846.154 8.22729C844.176 8.62296 843.642 8.98896 844.532 9.32528C846.332 8.97907 846.906 8.64275 846.273 8.3361H846.362C846.303 8.27675 846.233 8.25697 846.273 8.27675Z" fill="#002E48"/>
<path d="M848.024 7.159L849.013 6.41711C848.613 6.55237 848.266 6.81237 848.024 7.159Z" fill="#002E48"/>
<path d="M699.618 12.7577C698.213 12.3719 695.246 12.0455 695.246 13.4106C696.917 13.3215 697.996 13.8161 699.618 12.7577Z" fill="#002E48"/>
<path d="M922.974 13.7568C924.408 14.6767 925.615 14.6767 926.643 13.7568C926.188 12.4412 924.972 12.4412 922.974 13.7568Z" fill="#002E48"/>
<path d="M780.621 15.9429C781.779 15.4186 782.6 15.7648 783.233 14.4492C780.602 14.2118 778.821 14.5976 780.582 15.9231L780.394 15.8439L780.483 16.1803C780.78 16.1209 780.869 16.0616 780.621 15.9429Z" fill="#002E48"/>
<path d="M924.111 3.84527C924.022 3.06382 923.35 2.93522 922.133 3.45949C922.222 4.10245 922.895 4.19148 924.111 3.84527Z" fill="#002E48"/>
<path d="M930.402 5.00256C929.156 5.00256 928.424 5.24986 928.236 5.83347C926.782 6.16979 933.528 5.36856 930.402 5.00256Z" fill="#002E48"/>
<path d="M775.399 6.73364C775.399 6.73364 775.27 5.18064 775.29 5.18064C770.977 4.3893 774.805 6.50613 775.399 6.73364Z" fill="#002E48"/>
<path d="M921.925 6.27861C920.886 5.56641 920.016 5.61587 919.462 6.19948C920.284 6.1749 921.107 6.20133 921.925 6.27861Z" fill="#002E48"/>
<path d="M919.165 6.60502C919.245 6.45656 919.345 6.32003 919.462 6.19946C918.78 6.22914 918.671 6.36762 919.165 6.60502Z" fill="#002E48"/>
<path d="M918.275 8.22727C919.68 7.96019 919.897 7.39636 918.977 6.5061C918.681 7.04026 916.386 7.76236 918.275 8.22727Z" fill="#002E48"/>
<path d="M873.307 11.3531C873.663 11.3531 874.108 11.452 874.672 11.541C874.84 11.0465 874.316 10.9772 873.307 11.3531Z" fill="#002E48"/>
<path d="M873.307 11.3531C872.575 11.2739 872.318 11.3531 872.516 11.4619C870.676 12.6291 869.163 13.371 871.131 14.9339C873.96 14.2909 874.425 13.1435 872.526 11.4718C872.592 11.5162 872.662 11.5558 872.733 11.5905C872.941 11.4915 873.129 11.4223 873.307 11.3531Z" fill="#002E48"/>
<path d="M832.632 10.2947C832.8 9.95837 833.987 9.39454 832.771 9.21649C832.741 9.57259 832.692 9.93859 832.632 10.2947Z" fill="#002E48"/>
<path d="M831.198 5.65546C831.011 6.07516 830.768 6.46775 830.476 6.82268C831.881 6.41712 831.841 6.10059 831.198 5.65546Z" fill="#002E48"/>
<path d="M778.693 4.19147C778.426 4.19147 775.913 4.32006 775.29 5.09162C779.237 4.43876 778.752 5.96209 778.693 4.19147Z" fill="#002E48"/>
<path d="M984.767 11.0267C985.391 11.3234 986.607 13.1732 989.229 12.1543C988.338 11.2245 986.855 10.8387 984.767 11.0267Z" fill="#002E48"/>
<path d="M440.246 15.0724C443.352 14.0239 443.59 13.7766 440.978 12.5302C439.356 13.3018 439.109 14.1426 440.246 15.0724Z" fill="#002E48"/>
<path d="M1073.16 1.8372C1071.72 2.0825 1070.37 2.66939 1069.2 3.54848C1070.35 4.23101 1074.09 3.92436 1076.41 3.93426C1076.14 3.56631 1075.89 3.18322 1075.66 2.78681C1075.45 2.40486 1075.26 2.00821 1075.1 1.5998C1074.74 1.5998 1074.43 1.66905 1074.11 1.70861C1074.11 1.01619 1073.54 0.580952 1072.78 0.234741H1062.78C1062.06 0.873507 1061.29 1.45245 1060.48 1.9658C1064.7 2.20006 1068.94 2.1571 1073.16 1.8372Z" fill="#002E48"/>
<path d="M1207.59 3.53858C1208.16 3.57349 1208.73 3.54696 1209.29 3.45945L1207.94 2.47028C1207.19 2.97476 1206.95 3.32097 1207.2 3.45945L1205.4 4.31014C1207.33 4.60689 1208.04 4.34971 1207.59 3.53858Z" fill="#002E48"/>
<path d="M381.816 4.29038C382.014 3.59796 381.519 3.01435 380.302 2.53954C381.469 2.92532 380.876 2.61868 378.532 1.66907C371.855 2.21311 380.55 5.24988 381.816 4.29038Z" fill="#002E48"/>
<path d="M505.126 5.97195L504.068 4.87396C502.287 5.9027 502.634 6.25881 505.126 5.97195Z" fill="#002E48"/>
<path d="M547.107 14.7261L549.887 14.924C549.214 14.8448 547.829 14.3898 547.107 14.7261Z" fill="#002E48"/>
<path d="M457.25 3.34074C456.922 2.98889 456.572 2.65849 456.202 2.35156C455.341 2.91539 455.687 3.25171 457.25 3.34074Z" fill="#002E48"/>
<path d="M1901.6 26.7348V6.95125H1901.35C1900.37 6.79718 1899.43 6.47945 1898.57 6.01154C1897.26 6.90775 1895.9 7.71731 1894.48 8.43501C1894.21 7.53486 1895.41 6.36764 1897.07 5.20041C1895.74 4.33201 1894.31 3.6091 1892.82 3.04401C1890.04 2.17354 1887.32 2.47029 1884.61 2.83628C1884.79 3.42979 1884.4 4.21124 1881.84 3.94416C1882.03 3.6089 1882.28 3.31847 1882.59 3.09347C1879.62 3.45946 1876.66 3.56827 1873.62 1.88668C1870.45 0.0962689 1868.13 1.57014 1864.83 1.83722C1861.3 2.13397 1857.77 1.83722 1854.25 1.83722C1852.35 1.80424 1850.45 1.63233 1848.56 1.32285C1845.93 3.48914 1843.25 5.41803 1840.54 5.27955C1839.55 6.08078 1838.68 6.69407 1838.67 6.70396C1832.3 5.08171 1831.57 3.51881 1825.01 2.56921C1828.64 0.432588 1832.71 1.96581 1836.2 3.01434C1836.01 2.8165 1835.82 2.62856 1835.64 2.41094C1835.11 1.74527 1834.68 1.01365 1834.34 0.234753H1821.07C1820.85 0.531978 1820.61 0.809978 1820.34 1.06566C1819.22 2.30512 1817.69 3.10769 1816.03 3.33206C1814.37 3.55643 1812.69 3.18821 1811.27 2.29224C1810.21 1.70862 1809.2 0.907392 1808.16 0.234753H1806.69C1805.96 1.95065 1804.61 3.33239 1802.91 4.11232C1800.88 4.9729 1799.12 3.71665 1797.32 2.63845C1797.21 3.75622 1792.69 3.91448 1790.73 2.92531C1792.21 2.33449 1793.75 1.90661 1795.32 1.64927C1795.16 1.58945 1795 1.54312 1794.83 1.51079C1791.97 0.83815 1788.9 1.87678 1785.93 2.41094C1786.11 2.43007 1786.28 2.46651 1786.45 2.51975C1786.19 3.15282 1785.47 3.2913 1784.32 2.9352C1784.4 2.80235 1784.51 2.68797 1784.64 2.59888C1784.32 2.59888 1783.99 2.67802 1783.65 2.68791C1776.55 2.99455 1769.57 1.78776 1762.52 1.62949C1759.18 1.56025 1755.39 2.61867 1752.16 0.966743C1753.03 2.03505 1751.32 4.14199 1748.58 3.12314C1748.11 2.13397 1749.25 1.30306 1751.85 0.788691C1751.56 0.621713 1751.27 0.436723 1750.99 0.234753H1744.51C1744.02 1.36348 1743.13 2.27636 1742.02 2.80661C1739 4.077 1735.69 4.4646 1732.46 3.92438C1731.46 4.19705 1730.45 4.37915 1729.43 4.46842C1729.27 4.32005 1730.23 4.07275 1731.41 3.776C1726.86 2.98466 1722.35 1.1349 1717.79 0.234753H1708.82C1706.37 0.675578 1703.85 0.675578 1701.4 0.234753H1694.01C1693.74 0.922046 1693.4 1.58407 1693.02 2.2131C1689.76 7.67335 1683.44 5.97197 1679.73 3.20228C1678.77 2.4484 1678.08 1.40899 1677.75 0.234753H1677.62C1675.91 0.298944 1674.22 0.564572 1672.58 1.02609C1669.35 2.01527 1666.51 3.25174 1663.18 2.16364C1661.84 1.58964 1660.53 0.945794 1659.26 0.234753H1656.17C1655.71 0.455042 1655.28 0.734334 1654.88 1.06566C1654.37 1.57719 1653.7 1.89592 1652.98 1.96801C1652.26 2.0401 1651.53 1.86113 1650.93 1.46133H1650.41C1650.48 1.3822 1650.56 1.34263 1650.63 1.27339C1650.26 0.986949 1649.93 0.654555 1649.64 0.284212H1628.94C1633.37 3.87492 1615.9 3.25174 1613.79 0.946959C1613.59 1.68078 1613.22 2.35555 1612.7 2.91484C1612.18 3.47414 1611.54 3.9017 1610.83 4.16178C1607.8 5.04761 1604.61 5.17334 1601.53 4.52777C1597.88 3.85513 1594.89 4.72561 1591.29 5.51695C1588.43 6.10056 1586.26 5.51695 1583.78 3.03412C1582.65 1.88458 1581.31 0.964314 1579.83 0.323779H1573.58C1573.32 0.783059 1573.01 1.20835 1572.64 1.58992C1571.65 2.5791 1569.94 3.20228 1568.81 2.45051C1568.23 2.07987 1567.61 1.78404 1566.96 1.57014C1566.66 1.51118 1566.37 1.47153 1566.07 1.45144C1565.8 1.40473 1565.54 1.32843 1565.28 1.22393C1564.35 3.28141 1562.97 4.69593 1561.45 4.41896C1559.47 4.04308 1557.49 4.55745 1555.44 4.70582C1553.11 4.84161 1550.81 4.06495 1549.03 2.53953C1547.38 2.64834 1546.82 2.06473 1545.08 1.68884C1545.79 1.79765 1547.21 1.95592 1548.48 2.07462C1547.94 1.54997 1547.52 0.924732 1547.22 0.234753H1531.18C1530.89 0.929435 1530.41 1.52733 1529.79 1.95832C1529.17 2.38931 1528.45 2.63554 1527.7 2.66812C1524.26 2.66812 1520.97 1.22393 1517.62 0.234753H1514.29C1512.71 0.857934 1508.36 2.42083 1508.91 0.887609C1509.01 0.705794 1509.15 0.551082 1509.32 0.437197C1509.5 0.323312 1509.69 0.253775 1509.9 0.234753H1504.16C1502.25 0.590856 1500.35 0.966743 1498.4 1.22393C1496.93 1.35862 1495.45 1.2006 1494.04 0.759016C1494.09 1.06395 1494.2 1.35582 1494.36 1.61392C1494.53 1.87202 1494.75 2.09001 1495.02 2.2524C1495.28 2.4148 1495.57 2.51762 1495.88 2.55357C1496.18 2.58952 1496.49 2.55771 1496.78 2.4604H1496.85C1496.6 2.53953 1496.46 2.74726 1496.3 3.44957C1495.16 1.93613 1489.95 1.91635 1493.11 0.482047L1492.39 0.244645H1488.82C1487.6 1.51713 1486.01 2.37778 1484.27 2.70769C1484.99 2.82639 1485.73 2.98466 1486.5 3.15282C1483.84 3.31109 1481.02 3.43968 1479.28 2.85607C1480.1 2.62244 1480.94 2.49936 1481.8 2.49007C1481.2 2.32191 1480.61 2.11419 1480.03 1.88668C1479.37 1.53407 1478.63 1.36014 1477.88 1.3822C1478.87 1.68884 1479.2 2.14386 1478.93 2.72747C1478.62 2.62546 1478.34 2.44724 1478.11 2.20892C1477.88 1.97059 1477.72 1.67967 1477.63 1.36241C1477.56 1.36724 1477.48 1.36724 1477.41 1.36241C1475.08 2.76704 1472.78 4.11232 1470.1 4.02329C1469.37 3.98404 1468.68 3.72131 1468.12 3.27152C1465.85 3.09347 1463.7 2.19332 1461.36 1.51079C1458.76 0.759016 1456.62 1.40198 1454.03 2.01527C1451.68 2.5791 1449.28 3.00444 1446.99 1.6196C1446.46 1.22665 1445.99 0.760339 1445.59 0.234753H1441.18C1435.67 4.30026 1429.65 2.27245 1423.61 0.234753H1408.3C1407.94 0.436443 1407.53 0.549599 1407.12 0.565066C1406.7 0.580532 1406.29 0.497873 1405.91 0.323779L1407.2 0.234753H1405.04C1400.79 2.10429 1396.7 4.08264 1392.18 4.19145C1386.8 4.14296 1381.44 3.39142 1376.25 1.95592C1373.78 1.34263 1371.39 0.729341 1368.98 0.254537H1353.77C1351.05 0.600741 1348.3 0.600741 1345.59 0.254537H1338.92C1338.67 0.966743 1338.21 1.63938 1336.48 2.4604C1339.12 1.20414 1323.98 2.67802 1326.81 3.68697C1322.89 2.28509 1318.88 1.13207 1314.81 0.234753H1308.28C1307.94 1.68943 1307.1 2.98022 1305.91 3.88481C1306.59 4.06286 1306.35 4.38929 1305.19 4.87398C1303.78 4.80474 1303.21 4.63658 1303.51 4.38929C1299.05 4.30026 1294.61 3.8947 1290.14 3.55838C1289.63 4.2607 1288.67 4.54756 1286.88 3.63752C1286.7 3.5404 1286.53 3.42788 1286.37 3.3012C1285.29 3.24185 1284.21 3.16271 1283.13 3.12314C1280.01 2.91784 1276.93 2.35358 1273.94 1.44155C1272.95 2.58899 1270.73 1.94603 1270.17 0.452372L1269.46 0.264429H1262.02C1261.36 0.700563 1260.66 1.08737 1259.94 1.42176C1259.37 1.42655 1258.81 1.28702 1258.3 1.0162C1258.04 1.60366 1257.66 2.12771 1257.17 2.55272C1256.69 2.97774 1256.12 3.29374 1255.5 3.47925H1255.86C1262.78 2.49007 1262.99 9.2857 1253.33 5.96208C1250.68 5.05204 1249.87 3.86503 1252.81 3.5386C1250.41 3.49951 1248 3.32116 1245.61 3.00444C1245.26 3.40011 1244.15 3.80568 1241.93 4.42886C1241.54 3.72654 1241.77 3.11325 1242.59 2.5791C1241.32 2.38126 1240.04 2.16364 1238.77 1.94603C1238.07 2.15523 1237.4 2.46511 1236.79 2.86596C1235.89 2.10429 1235.89 1.67895 1236.79 1.58992C1233.82 1.08544 1230.94 0.600748 1228.01 0.254537H1219.19C1217.13 0.571073 1215.11 1.03599 1213.1 1.32285C1215.39 1.50773 1217.62 2.18232 1219.64 3.3012C1214.6 7.02049 1209.96 1.32285 1205.97 6.86223C1201.67 6.07089 1202.2 2.73737 1204.67 0.571073C1204.48 0.491939 1204.29 0.393021 1204.1 0.294104H1199.73L1198.41 1.93613C1196.79 2.3417 1193.88 1.98559 1192.66 2.61867C1194.37 1.62949 1194.79 0.917284 1194.44 0.294104H1188.11C1188.32 0.551289 1187.94 0.749124 1186.93 0.887609L1186.57 0.294104H1172.58C1171.41 1.48916 1169.99 2.4251 1168.44 3.04178C1166.88 3.65847 1165.21 3.94226 1163.53 3.87492C1162.79 3.98724 1162.04 3.86256 1161.37 3.51881C1160.2 3.17667 1159.11 2.5902 1158.17 1.79765C1157.51 3.11325 1159.55 4.53766 1158.89 6.10056C1157.47 9.57257 1150.5 10.1562 1154.8 14.3701C1151.33 14.8745 1142.16 12.9259 1140.95 14.103C1143.57 12.5005 1141.73 12.0554 1147.29 13.7766C1148.21 11.5311 1155.64 9.64181 1151.66 8.0888C1151.73 8.0888 1148.69 8.67242 1145.22 9.24614C1145.22 8.68231 1145.22 8.12837 1145.22 7.56454C1143.3 8.40534 1141.94 9.00874 1143.09 9.59235C1140.63 10.0174 1138.15 10.3014 1135.66 10.443C1135.92 10.5518 1138.62 11.8971 1138.04 12.0257C1136.45 12.3917 1130.37 9.93856 1130.37 8.99884C1130.86 10.3639 1134.43 8.26685 1134.26 7.81183C1134.09 7.35681 1129.86 7.35681 1129.84 6.75342C1129.78 4.77507 1135.83 6.98093 1136.34 6.03132C1136.59 5.56641 1135.64 3.58806 1134.45 4.47831L1134.93 3.81557C1128.78 2.82639 1122.62 1.27339 1116.38 1.0162C1116.13 1.10835 1115.89 1.22084 1115.66 1.35252C1116.39 0.917284 1111 1.53057 1110.97 1.53057C1109.13 2.04494 1111.15 4.30026 1109.34 4.58712C1107.53 4.87398 1106 2.43072 1105.66 0.294104H1100.56L1100.62 0.373238C1102.73 3.43968 1093.7 5.96208 1101.49 8.28664C1100.66 8.18145 1099.83 8.19811 1099.01 8.3361C1098.76 7.00071 1095.05 7.48541 1097.31 5.89283C1090.38 6.52591 1093.47 9.66159 1097.36 8.99884C1097.21 9.08311 1097.08 9.17559 1096.95 9.27581C1090.11 9.01863 1093.11 13.4007 1088.16 14.4096C1088.23 13.6974 1087.79 11.6399 1086.75 12.7083C1085.55 13.4501 1085.94 14.0239 1087.88 14.4195L1087.58 14.469C1080 18.0399 1087.52 10.4134 1084.61 9.94845C1088.21 8.18772 1097.26 4.15189 1090.31 1.92624C1092.27 1.8018 1094.18 1.22272 1095.88 0.234753H1084.9C1084.9 0.462264 1084.79 0.689774 1084.72 0.907392C1084.57 1.87796 1084.23 2.81082 1083.73 3.6573C1083.38 4.38649 1082.83 5.00055 1082.14 5.42792C1081.89 5.6767 1081.59 5.8703 1081.26 5.99634C1080.93 6.12238 1080.58 6.17809 1080.22 6.15991C1079.93 6.13016 1079.64 6.07049 1079.36 5.98186C1079.1 5.94521 1078.83 5.87885 1078.58 5.78403C1078.2 5.60248 1077.85 5.36585 1077.53 5.08171C1076.92 5.44387 1076.28 5.77403 1075.63 6.07089C1076.71 7.248 1076.34 8.85047 1071.53 8.39545C1067.99 8.06902 1065.94 4.83442 1063.3 3.69687C1061.87 3.07369 1058.63 2.99455 1056.18 2.41094C1054.97 2.5625 1053.75 2.51572 1052.56 2.27245C1051.63 2.04215 1050.8 1.51808 1050.2 0.7788C1050.26 1.13951 1050.22 1.51075 1050.06 1.84301C1049.91 2.17527 1049.66 2.45275 1049.34 2.63845C1053.36 3.23195 1052.79 9.167 1058.6 9.68137C1058.33 8.44491 1063.24 7.97999 1065.24 7.81183C1063.11 9.59235 1070.18 11.6498 1066.97 12.3917C1064 13.0446 1062.08 11.0959 1059.6 11.4025C1055.64 11.8378 1055.25 13.2424 1051.61 14.1228C1050.34 11.6202 1049.42 8.61307 1046.86 5.90273C1044.89 4.06262 1042.75 2.40707 1040.48 0.956851L1039.31 0.234753H1028.27C1026.11 0.739233 1023.91 1.3723 1023.57 2.8165C1023.91 2.72747 1032.77 1.09534 1030.88 1.62949C1031.27 3.09699 1032.16 4.38556 1033.39 5.27955C1030.01 3.07369 1018.24 1.66906 1022.86 5.76424C1021.87 4.77507 1028.62 4.24091 1026.95 6.35775C1023.98 10.0276 1024.32 6.35775 1017.79 7.26779C1018.39 8.17783 1020.87 8.79112 1020.49 9.74072C1019.98 11.0168 1017.7 10.3837 1016.92 11.3531C1016.93 11.1805 1016.95 11.0087 1016.98 10.8387C1016.32 10.3533 1015.52 10.0916 1014.7 10.0916C1013.88 10.0916 1013.08 10.3533 1012.41 10.8387C1010.93 10.1265 1007.93 10.1166 1006.21 9.2857C1016.66 7.79205 1006.29 7.84151 1006.21 5.43781C1006.15 3.35066 1014.47 4.20135 1013.14 0.907392C1010.03 0.907392 1005.96 2.8165 1002.49 2.38126C1003.58 1.32881 1004.93 0.587488 1006.4 0.234753H996.39C998.576 0.818367 1002.68 3.56827 997.834 4.19145C993.443 4.76518 994.234 1.52068 992.443 0.234753H991.385C988.319 1.22393 984.055 1.22393 982.294 0.234753H964.005C964.074 0.44248 964.361 0.689774 964.994 0.986526C969.178 2.96488 973.006 -0.200484 975.36 1.20414C977.408 2.44061 978.981 2.42083 982.73 3.98373C985.183 4.9729 989.051 5.96208 990.129 6.63472C988.239 6.21926 984.481 7.41616 983.482 7.62389C982.982 6.88526 982.322 6.2687 981.552 5.82002C980.781 5.37135 979.919 5.10209 979.03 5.03225C972.383 5.03225 970.256 12.5994 963.639 13.4007C967.853 13.7073 967.398 16.1506 973.036 15.7846C978.674 15.4186 973.115 15.2801 976.003 14.3008C976.27 14.2118 980.672 12.8171 980.732 12.639C981.562 9.82975 977.378 10.8684 977.378 10.7893C976.646 9.80008 984.431 10.9673 985.074 10.9574C985.697 10.4628 996.469 5.40814 998.764 7.72281C997.627 6.56547 991.959 13.2127 992.661 12.8467C990.178 14.1327 986.429 13.4996 984.748 15.2208C986.4 15.6164 978.625 14.8943 979.97 15.1317C979.982 15.492 980.088 15.8429 980.277 16.1499C980.466 16.4569 980.732 16.7094 981.048 16.8826H963.51C964.351 15.8934 966.586 15.1515 963.797 13.549C960.552 12.6291 947.11 17.2486 957.318 11.6696C959.069 10.6804 961.472 12.2137 963.609 11.2443C965.746 10.2749 968.09 7.86129 969.168 6.85233L969.059 6.75342C974.787 7.10952 972.502 2.07462 967.437 5.07182C967.923 5.51611 968.382 5.98843 968.812 6.48634L967.269 5.0916C965.548 4.4915 963.754 3.94086 961.888 3.43968C961.126 5.83348 955.953 5.74446 953.599 5.2202C951.996 3.66719 951.996 2.12408 953.648 0.590856C955.127 1.41952 956.813 1.80418 958.505 1.69873C958.672 1.49826 958.789 1.26125 958.848 1.00691C958.906 0.75257 958.904 0.488044 958.841 0.234753H950.107C949.118 1.44155 950.73 2.30213 948.89 3.63752C947.901 4.35961 945.359 3.07369 944.409 4.0134C943.392 5.0277 942.486 6.14863 941.709 7.35681C942.311 7.25743 942.919 7.19139 943.529 7.15898C943.697 8.89003 944.844 11.7488 943.252 13.4007C939.196 11.9565 937.366 9.93856 936.07 12.9555C933.311 19.3159 943.143 15.5769 948.732 16.0616C948.405 16.3385 948.039 16.5957 947.673 16.8529H934.745C931.985 16.1407 928.493 16.022 926.287 16.8529H915.209C915.397 15.2504 911.034 13.7271 909.363 15.1614C907.691 16.5957 908.373 16.7243 909.481 16.8529H902.775C903.032 15.8637 905.742 15.1218 904.753 14.1426C902.29 11.6103 900.331 13.3116 899.807 15.0427C899.743 15.0194 899.677 15.0029 899.609 14.9932C899.609 15.2208 899.609 15.3988 899.669 15.5373C899.669 15.5373 899.669 15.5966 899.669 15.6263C899.669 15.656 899.669 15.6263 899.669 15.5472C899.372 15.6461 898.927 15.7648 898.363 15.8934C898.795 15.7814 899.251 15.8056 899.669 15.9626C899.669 15.9626 899.669 15.9626 899.669 16.0319C898.025 15.8926 896.373 16.1788 894.871 16.8628H883.001C881.349 16.3583 880.33 15.9923 881.201 16.0813C888.758 16.843 889.945 13.3314 888.026 13.3215C886.414 13.6084 885.761 14.2217 886.048 15.1416C885.059 15.1416 881.567 12.3521 879.401 13.282C878.411 13.6875 877.729 15.013 877.106 15.2603C879.964 14.38 877.383 15.9033 875.572 16.9024H866.057C865.489 16.5334 864.898 16.203 864.286 15.9132C859.815 16.9024 855.472 17.1101 854.266 14.6075C852.333 14.2528 850.34 14.4131 848.489 15.0724C848.242 15.0724 847.391 15.1614 846.194 15.3098C846.569 15.4284 846.965 15.4685 847.356 15.4277C847.748 15.3868 848.126 15.2659 848.469 15.0724C847.665 15.767 846.801 16.3893 845.887 16.932H833.928C837.262 16.4572 842.979 15.6857 846.194 15.3098C844.923 14.8101 843.831 13.9421 843.058 12.8171C841.387 13.4303 832.177 15.2702 831.366 16.932H818.032C820.841 16.3385 823.641 14.8053 822.058 12.4115C821.376 13.8953 813.304 15.9824 813.472 16.5561C813.504 16.6423 813.554 16.7205 813.619 16.7854C813.683 16.8504 813.762 16.9004 813.848 16.932H798.486C796.097 16.3249 793.594 16.3249 791.206 16.932H780.72C780.623 16.718 780.544 16.4963 780.483 16.2693C779.754 16.3471 779.02 16.3735 778.287 16.3484C778.589 16.5866 778.922 16.7829 779.276 16.932H754.547C762.065 10.0968 751.48 16.1209 748.612 11.907C747.474 10.2452 753.795 10.3639 753.706 10.7299C753.389 12.2236 756.387 7.54476 754.23 8.94939C754.468 8.80101 749.502 8.19761 750.274 7.59422C753.073 5.61587 759.621 8.38556 762.599 5.88294C762.282 5.79392 758.533 4.05297 757.495 3.57817C757.712 3.31109 760.897 0.660099 760.343 1.17447C763.776 3.15282 764.092 3.68697 762.905 6.12034C766.793 7.98989 759.374 9.39451 761.263 12.0554C753.726 16.5265 789.039 14.6075 774.053 11.0662C776.487 9.08787 778.218 9.85943 781.541 10.7596C786.487 12.095 782.451 11.3036 782.531 13.2622C782.61 14.7756 795.054 12.1147 795.271 9.66159C795.459 7.86129 787.219 3.25174 784.014 2.73737C783.836 3.98373 781.858 4.92344 778.89 5.01247C780.986 5.40704 782.959 6.29171 784.647 7.59422C781.947 7.81183 777.328 6.8919 775.409 6.73363C773.586 7.28816 771.703 7.6203 769.8 7.72281C772.955 11.363 765.843 11.6795 765.843 10.2452C765.843 8.53393 768.296 7.20844 768.87 5.46749C768.87 5.40814 768.593 2.26256 768.296 0.27432H757.732C757.663 1.45144 757.574 2.62856 757.504 3.51881L757.356 3.44957C756.753 3.23195 751.916 1.47122 752.608 1.47122C747.504 1.28328 752.756 6.15991 745.199 3.52871C745.793 2.85607 746.515 3.776 746.267 2.18343C745.011 2.4604 744.625 2.85607 745.051 3.38033C743.908 3.87576 742.815 4.47857 741.786 5.18063C741.658 5.18063 735.278 6.0511 735.96 5.88294C735.278 6.0511 729.936 7.68324 728.611 7.86129C726.019 8.14815 718.808 6.97104 717.413 7.21833C709.628 8.55372 719.599 8.2075 722.755 10.0276C725.91 11.8477 721.647 15.1218 729.234 15.8934C729.055 16.1941 728.949 16.5332 728.927 16.8826H713.733C716.701 14.9042 710.529 13.1336 710.44 12.273C711.677 11.9361 712.941 11.7045 714.218 11.5806C713.981 11.8477 710.034 7.4953 709.688 7.00071C709.628 6.90179 713.714 4.03319 713.031 4.33983C704.049 5.64554 707.798 2.30213 699.618 5.20041C698.471 5.61587 698.045 7.0106 697.125 7.8514C697.65 7.20844 692.624 8.89993 691.022 9.30549C694.979 10.4727 699.925 8.47458 703.476 9.69127C706.503 10.6804 702.991 14.2415 707.126 14.4987C703.238 13.9546 700.508 15.4384 696.838 14.7163C694.217 14.1821 694.731 11.8675 690.844 11.3234C677.985 9.51322 689.855 20.9876 673.217 14.6965C679.528 14.1327 678.163 10.8288 685.087 11.1454C684.573 8.38556 684.711 6.19948 687.867 5.06193C692.407 6.50612 693.109 6.44677 696.67 5.43781C697.897 5.08171 700.33 1.857 700.934 0.27432H692.733C691.942 1.52068 691.675 2.82639 686.333 3.50892C683.445 3.88481 681.229 2.51975 678.529 2.65823C676.966 2.75715 675.314 5.73457 673.128 5.03225C669.399 3.78589 680.448 1.57014 680.557 1.47122C680.967 1.19184 681.252 0.761826 681.348 0.27432H676.125C675.027 2.64834 673.306 4.23102 671.179 3.71665C669.549 3.33223 667.897 3.04159 666.233 2.84618C665.867 4.31015 665.244 5.58619 663.948 5.86316C661.564 6.39731 658.379 3.52871 661.564 2.54942C661.57 2.52662 661.57 2.50298 661.564 2.48018C659.695 2.48018 657.815 2.48018 655.936 2.5791C656.371 4.11232 657.697 6.18959 656.074 6.59515C655.293 5.60597 654.017 4.03319 654.314 2.6978C653.255 2.78682 652.207 2.89563 651.148 3.02423C652.019 3.70676 651.148 4.0134 648.626 3.91448C648.448 4.08264 648.715 3.73643 649.071 3.2913C642.82 4.19145 636.568 5.64554 630.277 6.8919C632.127 7.67335 633.778 7.75248 632.671 9.66159C632.265 10.3738 626.597 13.4798 625.054 11.6399C623.817 10.1265 631.978 9.91878 630.297 8.29653C629.107 8.17393 627.932 7.94215 626.785 7.60411C625.38 7.86129 623.986 8.0888 622.591 8.30642C622.253 8.53159 621.868 8.67784 621.466 8.73435C621.063 8.79085 620.654 8.75616 620.266 8.63285C618.031 8.91971 615.805 9.13733 613.57 9.23625C608.198 9.45387 602.807 9.42419 597.416 9.23625C596.464 10.559 595.227 11.6509 593.796 12.4313C589.127 13.2226 590.828 10.7002 593.796 9.08787C583.093 8.45835 572.439 7.16666 561.895 5.2202C557.828 4.44464 553.714 3.94233 549.58 3.71665C549.748 4.24091 549.095 4.70582 547.602 4.94323C547.146 5.37846 547.789 4.32005 548.68 3.67708C545.285 3.56071 541.887 3.72946 538.521 4.18156C542.764 6.36764 546.029 8.66253 543.872 8.70209C540.974 8.70209 538.778 5.99175 536.226 4.52777H536.097C533.338 5.02236 530.588 5.51695 527.828 5.97197C527.973 6.03935 528.098 6.14476 528.189 6.27709C528.279 6.40941 528.332 6.56373 528.342 6.72374C530.182 6.83134 532.009 7.09944 533.802 7.52497C532.121 8.67242 526.997 7.08974 525.365 6.31818C524.059 6.47645 522.753 6.61493 521.408 6.69407C521.131 7.08974 520.419 7.32714 519.133 7.39638C519.396 7.13181 519.7 6.91137 520.033 6.74353C517.209 6.86234 514.38 6.64987 511.605 6.11045C510.804 5.94229 510.003 5.74446 509.202 5.52684C506.927 5.46749 505.097 5.67522 504.117 7.38649C502.347 4.00351 496.877 7.38649 498.558 9.92867C497.866 9.45386 496.214 9.13733 493.019 9.09776C487.786 9.02852 489.112 8.55371 487.618 10.7299C486.243 12.7083 491.644 10.9673 492.702 11.7191C494.394 13.0248 472.177 17.1991 472.127 16.665C471.781 12.9753 482.86 14.3701 483.641 11.0761C486.767 11.6399 488.014 11.3135 487.351 10.0869C486.07 9.91968 484.772 10.2067 483.681 10.8981C483.632 10.6804 475.916 6.1797 479.526 6.45666C485.976 6.96114 485.026 8.31631 490.803 5.79392C492.104 5.29818 493.279 4.52132 494.245 3.51881C495.037 7.20844 502.752 6.03132 501.832 3.13304L500.576 2.67802L494.344 3.40011C495.235 2.41094 495.482 1.69873 497.609 1.6196C496.194 1.08544 494.819 0.640315 493.444 0.234753H470.159C469.477 0.749124 470.624 0.709557 468.863 2.31202C479.151 3.66719 469.724 9.84953 469.566 13.282C465.302 11.6795 468.349 8.86036 467.488 7.18865C465.787 6.80288 463.996 6.48634 462.196 6.19948C460.683 5.36857 460.792 4.48821 462.493 3.56827C462.068 2.65823 462.335 1.41187 462.493 0.205078H460.455C459.08 0.373238 457.695 0.531506 456.311 0.679882C457.508 0.956013 458.563 1.65946 459.278 2.65823C458.546 2.97556 457.788 3.23036 457.013 3.4199C451.187 6.30829 451.919 1.83722 454.659 0.818367C450.887 1.17447 447.108 1.45474 443.323 1.65917C441.206 1.98317 439.059 2.06613 436.923 1.90646C432.907 2.01857 428.887 2.01857 424.865 1.90646C424.635 2.10835 424.417 2.32301 424.212 2.54942C422.689 4.27059 426.19 5.18063 421.294 6.75342C422.283 5.62576 421.056 3.64741 419.573 1.7383C416.823 1.62949 414.063 1.49101 411.323 1.29317C410.426 1.24328 409.578 0.866804 408.939 0.234753H405.19C402.681 2.01152 399.766 3.13046 396.713 3.48914C394.101 2.42083 394.556 1.33274 395.338 0.234753H389.274C389.779 2.31202 387.84 3.38033 391.895 5.68511C390.511 4.95312 385.96 8.74166 382.924 8.40534C381.549 8.25696 377.879 5.53673 376.692 5.00258C372.468 3.12314 366.8 1.7383 361.775 0.234753H360.628C360.766 2.2131 352.418 0.887609 350.993 0.234753H326.432C320.655 2.6978 314.898 5.4576 309.032 6.37753C309.113 6.48443 309.168 6.60789 309.195 6.73893C309.221 6.86996 309.219 7.00529 309.186 7.13507C309.154 7.26485 309.093 7.38582 309.009 7.4892C308.924 7.59258 308.817 7.67576 308.696 7.7327C307.855 7.60958 307.072 7.23352 306.451 6.6545C304.797 6.75609 303.138 6.66647 301.505 6.38742C293.858 5.05204 285.549 -1.95132 277.903 0.946959C272.621 2.92531 268.496 3.67708 263.956 0.234753H259.821C258.832 1.15469 255.696 2.2131 252.343 1.5009C252.88 1.14738 253.366 0.7213 253.787 0.234753H244.271C245.666 0.83815 247.239 1.3723 246.694 2.04494C246.15 2.71758 241.264 2.55931 241.511 2.56921C241.612 2.2425 241.645 1.89879 241.61 1.55878C241.574 1.21877 241.47 0.889516 241.303 0.590856C233.934 1.58003 226.466 1.94603 219.186 2.3417C198.413 3.46936 177.64 5.11139 156.798 5.56641C146.484 5.89238 136.159 5.38626 125.926 4.05297C122.129 3.49785 118.367 2.72168 114.659 1.72841C114.561 1.8176 114.447 1.88801 114.323 1.93613C114.183 1.83797 114.07 1.70504 113.997 1.55036C112.374 1.12501 110.752 0.679882 109.13 0.234753H85.5776C84.6973 1.3723 81.799 3.3012 80.8691 2.30213C81.522 1.22393 81.799 0.590856 82.0759 0.234753H56.7333C38.5918 4.7355 20.48 10.2353 2.388 4.19145V26.7348H1901.6ZM958.337 7.80194C961.828 8.86036 958.93 9.32527 959.741 9.78029C959.207 9.46376 957.446 7.0106 958.337 7.80194ZM948.059 13.737C949.691 12.639 945.636 7.99978 943.657 7.1392C944.251 7.0106 951.571 5.16085 950.186 7.26779C949.454 7.58432 948.702 7.87118 947.921 8.16794C946.724 9.52311 954.429 9.15711 952.867 9.20657C953.836 10.2551 952.619 14.1327 948.039 13.7271L948.059 13.737ZM790.652 10.443C790.385 11.1058 789.663 11.2344 788.495 10.8387C788.782 10.2056 789.494 10.1265 790.652 10.443ZM703.535 6.08078C702.071 6.71385 701.25 6.58526 701.072 5.74446C702.259 5.70489 704.999 5.58619 703.535 6.08078ZM489.893 0.719449C489.411 0.919574 488.892 1.01512 488.37 0.999773C487.848 0.984426 487.336 0.858538 486.866 0.630423C487.862 0.362306 488.915 0.393268 489.893 0.719449ZM475.827 10.2848C477.667 10.8849 477.479 11.4982 475.263 12.1246C474.294 11.5707 474.482 10.9673 475.827 10.2848ZM206.94 10.4925C205.555 11.9268 202.765 13.6579 202.043 14.6272C200.619 13.8458 202.736 9.87921 206.94 10.4925ZM215.615 16.0319C215.377 15.4977 215.615 15.0427 216.426 14.6371C216.726 14.9091 216.944 15.2602 217.055 15.6504C217.165 16.0406 217.163 16.4539 217.049 16.843H215.694C215.357 16.4473 215.169 16.0616 215.615 16.0616V16.0319ZM319.973 13.6677C320.836 13.4731 321.736 13.521 322.574 13.8062C321.709 13.9718 320.816 13.9243 319.973 13.6677ZM333.524 16.0616C334.998 16.1074 336.458 16.3673 337.857 16.8331H330.586C329.686 16.1901 329.993 15.745 333.524 16.0616ZM347.076 8.46469C344.722 7.47551 344.91 6.97104 347.64 6.85233C347.857 7.30735 348.105 7.76238 348.312 8.23718C347.912 8.36866 347.497 8.44845 347.076 8.47458V8.46469ZM343.653 16.843C343.864 16.6531 344.093 16.4841 344.336 16.3385C344.946 16.3968 345.539 16.5679 346.087 16.843H343.653ZM641.286 16.843H635.035C635.846 16.2099 641.069 15.8538 643.73 15.0922C642.957 15.727 642.144 16.3118 641.296 16.843H641.286ZM668.746 13.6183C668.881 13.2423 668.964 12.8496 668.993 12.4511C669.527 12.9259 668.696 14.1821 668.004 14.6569C667.025 14.1426 667.272 13.8062 668.756 13.6183H668.746ZM1073.66 16.2198C1074.94 15.8439 1075.64 15.9923 1075.74 16.665C1075.51 16.7429 1075.27 16.8024 1075.03 16.843H1074.32C1074.16 16.8119 1074.02 16.7368 1073.9 16.6264C1073.78 16.5161 1073.7 16.375 1073.66 16.2198ZM1121.86 12.55C1120.26 12.1444 1120.05 11.6993 1121.23 11.2047C1121.92 11.7685 1126.85 15.1614 1126.48 15.5373C1124.8 15.9448 1123.05 15.9005 1121.39 15.4087C1123.71 14.0832 1124.89 13.7766 1121.87 12.55H1121.86ZM1227.13 12.827C1233.95 13.4205 1232.27 15.2702 1232.17 16.843H1228.71C1227.87 15.6473 1227.33 14.2711 1227.14 12.827H1227.13ZM1200.17 16.843H1198.59C1198.99 16.7395 1199.39 16.6732 1199.8 16.6452C1200.13 16.6155 1200.21 16.7045 1200.18 16.843H1200.17ZM1312.06 15.2504C1313.71 14.9346 1315.39 14.8151 1317.07 14.8943C1316.62 16.1209 1313.57 15.6659 1312.06 15.2504ZM1320.96 12.6489C1321.58 13.094 1321.61 13.5589 1320.96 14.0436C1319.39 13.7172 1319.39 13.2523 1320.96 12.6489ZM1329.86 12.8962C1330.2 12.7273 1330.57 12.6336 1330.95 12.6217C1331.32 12.6097 1331.7 12.6798 1332.05 12.827C1331.75 13.0936 1331.37 13.2467 1330.97 13.2594C1330.57 13.272 1330.18 13.1435 1329.86 12.8962ZM1293.42 16.8529C1293.7 16.2693 1294.26 15.8637 1295.47 16.0022C1295.72 16.015 1295.95 16.1034 1296.15 16.2555C1296.35 16.4075 1296.49 16.616 1296.57 16.8529H1293.42ZM1540.9 15.9429C1541.56 15.6025 1542.28 15.4037 1543.02 15.3594C1543.76 15.3151 1544.5 15.4263 1545.19 15.6857C1544.18 16.6847 1542.74 16.754 1540.93 15.933L1540.9 15.9429ZM1782.1 16.8529H1780.45C1780.86 16.2955 1781.2 15.6828 1781.44 15.0328C1782.06 15.6362 1782.5 16.2693 1782.13 16.843L1782.1 16.8529ZM1900.36 15.4186L1898.61 16.3484C1897.06 15.0724 1897.5 14.5778 1900.39 15.4087L1900.36 15.4186ZM1896.02 11.0662C1897.06 11.5212 1896.88 11.8477 1895.41 12.0554C1893.69 11.6498 1893.94 11.3234 1896.04 11.0563L1896.02 11.0662ZM1888.27 12.6489C1895.83 13.2919 1894.66 17.2881 1890.94 15.933C1886.1 14.1722 1888.46 13.9546 1886.98 11.7488C1881.76 3.47925 1889.99 6.43688 1888.3 12.639L1888.27 12.6489ZM1875.16 4.83442C1874.96 5.03225 1876.55 5.36857 1874.71 6.20937C1873.41 6.78309 1872.6 6.81277 1872.26 6.27861C1876.92 6.30829 1873.5 6.1698 1875.19 4.82453L1875.16 4.83442ZM1865.84 9.13733C1862.16 9.52311 1862.03 9.83964 1859.17 9.22635C1861.3 6.50612 1862.76 6.95125 1865.84 9.13733ZM1852.77 13.826C1853.68 13.6974 1854.63 13.5886 1855.55 13.4699C1858.41 13.1732 1854.71 13.9447 1852.77 13.8161V13.826ZM1851.38 8.14815L1854.92 9.62202C1850.07 10.9574 1848.4 9.92867 1851.38 8.14815ZM1845.45 7.05017C1846.72 7.46562 1846.7 8.03934 1845.32 8.87025C1843.45 8.34599 1843.48 7.7327 1845.42 7.03039L1845.45 7.05017ZM1847.43 14.0436C1846.27 17.4563 1842.81 14.835 1842.48 14.192C1844.09 14.7327 1845.85 14.673 1847.42 14.0239L1847.43 14.0436ZM1832.85 9.09776C1830.53 8.6922 1829.1 7.9701 1828.5 6.94136C1830.82 7.0106 1834.34 7.62389 1832.84 9.02852L1832.85 9.09776ZM1818.68 9.70116C1819.27 9.47612 1819.9 9.37492 1820.53 9.40385C1821.17 9.43278 1821.78 9.59121 1822.35 9.86932C1821.13 10.1571 1819.85 10.0744 1818.67 9.63192L1818.68 9.70116ZM1821.48 3.02423C1821.72 3.68697 1821.34 4.2508 1820.32 4.72561C1816.8 4.12221 1821.39 2.9352 1821.48 3.02423ZM1818.16 6.25883C1819.45 7.18865 1820.51 7.43595 1821.32 6.95125C1819.75 8.27675 1818.79 9.02852 1818.27 9.45386C1817.1 8.40534 1817.05 7.33703 1818.18 6.25883H1818.16ZM1813.21 14.1722C1812.43 13.648 1812.81 13.3413 1814.29 13.2622C1815.18 13.8062 1814.83 14.0832 1813.24 14.1426L1813.21 14.1722ZM1810.37 6.71385C1814.09 6.71385 1814.01 14.5679 1808.39 10.1265H1808.44C1807.87 9.02852 1805.3 6.64461 1810.4 6.68417L1810.37 6.71385ZM1808.19 10.1265C1807.43 10.8684 1806.3 11.0168 1804.79 10.542C1805.89 10.2005 1807.04 10.0597 1808.19 10.1265ZM1805.87 12.4115C1809.12 13.8161 1806.86 15.834 1804.21 16.8727H1800.18C1802.16 15.479 1804.06 13.9799 1805.87 12.3818V12.4115ZM1799.28 6.6545C1798.79 6.99082 1798.29 7.33703 1797.8 7.64367C1797.5 7.63378 1798.02 6.49623 1799.28 6.62482V6.6545ZM1790.03 13.3908C1791.64 14.9735 1791.67 15.5175 1788.7 16.6946C1787.51 15.2999 1787.94 14.2019 1790.03 13.3611V13.3908ZM1782.41 9.82975C1782.71 10.2749 1779.06 12.8566 1778.25 10.908C1777.3 11.2594 1776.26 11.2872 1775.29 10.9871C1775.46 10.6804 1780.43 10.2452 1782.41 9.80008V9.82975ZM1770.26 10.1859C1771.09 10.6013 1771.04 11.0069 1770.17 11.3926C1769.36 10.9376 1769.39 10.5518 1770.26 10.1265V10.1859ZM1756.98 2.79672C1758.03 2.19332 1756.12 4.41896 1755.99 4.77507C1755.28 4.0134 1755.59 3.34076 1756.98 2.76704V2.79672ZM1758.51 10.6409L1753.23 8.8109C1757.57 5.99175 1758.17 10.5024 1758.51 10.6112V10.6409ZM1750.44 9.6517C1751.55 10.3936 1751.31 11.0464 1749.72 11.63C1748.39 12.1049 1750.09 10.0078 1750.44 9.6517ZM1745.02 12.3225C1746.33 12.827 1747 13.46 1747 14.2217C1747.04 13.9645 1743.02 13.2226 1745.02 12.3225ZM1744.47 5.10149L1746.83 4.9729C1746.57 5.38836 1743.09 8.72187 1744.2 9.08787C1742.76 8.64274 1744.86 4.19145 1744.47 5.10149ZM1735.22 8.14815C1738.07 6.98093 1738.35 9.95834 1736.95 10.7101C1734.96 10.0276 1734.35 9.13733 1735.22 8.14815ZM1736.98 10.8684C1737.35 11.8576 1736.59 12.4412 1734.59 12.5698C1734.64 11.8477 1735.42 11.2739 1736.98 10.8981V10.8684ZM1713.24 10.9277C1714.39 11.6202 1714.08 12.2829 1712.25 12.9061C1711.02 12.1939 1711.38 11.5212 1713.27 10.9574L1713.24 10.9277ZM1706.54 2.4604C1708.78 2.26256 1706.68 5.10149 1706.54 5.19052C1705.51 4.74313 1704.46 4.35022 1703.38 4.0134C1702.68 4.38929 1704.35 2.67802 1706.57 2.49007L1706.54 2.4604ZM1704.92 13.3413L1702.87 12.8072C1704.98 12.2928 1707.22 12.1049 1704.95 13.4106L1704.92 13.3413ZM1683.37 7.4953C1681.92 7.86129 1680.97 7.59422 1680.56 6.70396C1682.24 6.32807 1683.19 6.59515 1683.4 7.56454L1683.37 7.4953ZM1676.55 9.12744C1677.54 9.80997 1676.66 11.7586 1674.77 9.93856L1676.55 9.12744ZM1667.5 9.81986C1665.81 9.86088 1664.13 9.57884 1662.55 8.98895C1665.13 8.03934 1667.63 8.14815 1667.53 9.8891L1667.5 9.81986ZM1646.2 6.59515C1646.85 6.8919 1646.53 7.90086 1645.74 8.5735C1644.48 7.84151 1644.64 7.15898 1646.2 6.59515ZM1634.97 4.24091C1633.73 4.81463 1632.99 4.67615 1632.68 3.82546C1634.41 3.3012 1635.16 3.43968 1634.97 4.24091ZM1605.1 5.82359C1603.95 5.82359 1602.81 5.82359 1601.67 5.74446C1602.71 5.78403 1604.24 5.8137 1605.1 5.82359ZM1567.42 5.96208C1567.69 6.2984 1567.42 6.6545 1567.09 6.95125C1566.49 6.57537 1566.57 6.24894 1567.42 5.96208ZM1565.86 9.67148C1567.2 9.26592 1568.77 12.0356 1567.09 12.5401C1565.08 12.184 1563.64 10.3342 1565.86 9.67148ZM1559.13 6.85233C1559.97 7.36671 1559.7 7.70302 1558.32 7.84151C1557.43 7.26779 1557.7 6.94136 1559.13 6.85233ZM1548.9 8.43501C1542.74 7.96021 1544.41 6.2885 1543.32 4.47831C1548.03 3.96394 1548.66 6.95125 1548.9 8.43501ZM1542.23 13.9942C1541.55 14.1282 1540.86 14.2108 1540.17 14.2415C1540.82 13.9674 1541.53 13.8817 1542.23 13.9942ZM1527.86 3.02423C1529.38 3.23195 1529.46 3.63752 1528.06 4.24091C1525.72 4.07275 1525.66 3.66719 1527.86 3.02423ZM1529.06 11.1651C1530.36 11.6795 1527.27 14.0041 1526.65 13.9447C1525.94 13.3313 1525.3 12.6486 1524.73 11.907C1526.02 11.1143 1527.58 10.8488 1529.06 11.1651ZM1512.67 4.24091C1512.83 5.05204 1512.24 5.23009 1510.91 4.64647C1511.05 3.91448 1511.64 3.776 1512.67 4.24091ZM1499.01 2.08451C1498.41 2.29016 1497.78 2.3938 1497.14 2.39116C1497.74 2.30213 1498.37 2.2131 1499.01 2.08451ZM1492.09 5.65543C1491.39 5.94754 1490.63 6.09049 1489.88 6.07516C1489.12 6.05983 1488.37 5.88656 1487.68 5.56641C1489.83 4.54756 1491.72 5.65543 1492.09 5.65543ZM1486.85 8.4548C1489.71 9.44397 1488.63 12.639 1484.58 12.1939C1484.9 11.6498 1485.23 11.0959 1485.57 10.5518C1484.24 9.20657 1484.67 8.51415 1486.86 8.4548H1486.85ZM1480.34 4.95312C1482.32 5.30922 1482.56 5.80381 1481.17 6.4171C1479.54 6.01154 1479.28 5.51695 1480.35 4.95312H1480.34ZM1466.44 8.67242C1471.32 8.80101 1471.27 9.87921 1468.33 11.4619C1468.7 12.3126 1468.09 12.9259 1466.47 13.3116C1466.18 13.094 1466.98 9.80008 1466.45 8.67242H1466.44ZM1471.32 16.5166C1468.9 16.6056 1467.22 16.7639 1465.2 16.7935C1467.22 16.4549 1469.27 16.3619 1471.31 16.5166H1471.32ZM1461.17 12.8072C1461.33 12.2829 1462.06 11.996 1463.39 11.907C1464.28 11.5707 1462.91 12.8764 1461.18 12.8072H1461.17ZM1460.88 10.4134C1459.89 9.96824 1459.89 9.52311 1460.82 9.05819C1461.94 9.49343 1461.97 9.95834 1460.89 10.4134H1460.88ZM1461.61 3.3012C1459.63 4.23102 1458.34 4.11232 1458.64 5.54662C1457.18 5.26965 1456.48 4.77507 1456.53 4.06286C1456.62 2.51975 1459.78 2.82639 1461.62 3.3012H1461.61ZM1447.16 5.44771L1451.26 4.87398C1451.47 5.03311 1451.62 5.25033 1451.7 5.49716C1449.65 6.25883 1446.9 7.15898 1447.17 5.44771H1447.16ZM1446.27 11.086C1445.27 11.2231 1444.26 11.0431 1443.38 10.5716C1442.09 10.4628 1448.06 10.8189 1446.28 11.1157L1446.27 11.086ZM1447.13 16.843H1442.53C1442.02 16.1549 1441.58 15.4156 1441.22 14.6371H1441.44C1443.44 15.08 1445.36 15.8238 1447.14 16.843H1447.13ZM1441.38 1.94603C1440.22 2.48018 1439.68 2.35159 1439.74 1.58992C1440.98 1.00631 1441.56 1.12501 1441.39 1.94603H1441.38ZM1435.65 8.87025C1435.26 9.37473 1435.65 10.2947 1435.57 10.4727C1432.91 10.2551 1434.83 9.46376 1435.7 8.91971L1435.65 8.87025ZM1438.71 14.103C1436.52 14.2909 1433.76 14.469 1432.98 13.9744C1431.35 12.9457 1435.7 13.5985 1438.72 14.1524L1438.71 14.103ZM1426.71 3.20228C1429.25 3.75622 1424.97 5.49716 1424.3 5.80381C1424.53 4.46842 1425.67 2.96488 1426.71 3.20228ZM1424.28 5.94229C1424.75 6.3831 1425.06 6.97907 1425.14 7.62389C1424.39 7.39638 1424.17 6.71385 1424.28 5.9324V5.94229ZM1418.8 2.60877C1420.33 3.15282 1420.25 3.47925 1418.5 3.59795C1416.31 2.98466 1416.39 2.65823 1418.8 2.59888V2.60877ZM1406.54 11.8279C1403.86 15.1416 1400.36 9.20657 1400.33 9.15711C1400.95 9.26592 1405.89 12.639 1406.54 11.818V11.8279ZM1386.37 11.2542C1386.37 12.1939 1385.53 12.2433 1383.7 11.4421C1384.09 11.1779 1384.54 11.0205 1385.01 10.9858C1385.48 10.951 1385.95 11.0402 1386.37 11.2443V11.2542ZM1376.68 5.59608C1378.33 5.46876 1379.98 5.85581 1381.4 6.70396C1379.75 7.0106 1378.05 7.30735 1376.35 7.55465C1375.65 8.51442 1374.64 9.21077 1373.49 9.533C1374.76 8.72187 1375.03 6.30829 1376.68 5.58619V5.59608ZM1367.15 11.4817C1366.02 12.4708 1365.28 12.4708 1364.96 11.5509C1366.12 10.5716 1366.86 10.5518 1367.15 11.4718V11.4817ZM1357.43 14.647C1358.32 14.8647 1358.32 15.1812 1357.48 15.5868C1356.57 15.3592 1356.57 15.0724 1357.43 14.6371V14.647ZM1349 4.12221C1350.59 3.8947 1350.61 5.67522 1350.38 7.15898C1347.6 6.04121 1347.12 5.02236 1349 4.11232V4.12221ZM1350.35 7.32714C1350.24 7.90646 1350.1 8.47817 1349.92 9.03841C1347.41 9.84953 1343.77 10.7991 1343.77 11.818C1341.53 11.3234 1347.27 7.87118 1350.35 7.31725V7.32714ZM1342.77 2.9352C1344.68 3.08358 1345.28 3.46936 1344.5 4.08264C1342.39 4.02329 1341.8 3.64741 1342.77 2.92531V2.9352ZM1335.85 9.0483C1331.89 9.15711 1329.85 8.58339 1329.71 7.35681C1330.48 6.2885 1339.99 7.30735 1335.88 9.03841L1335.85 9.0483ZM1323.4 6.90179C1325.51 8.4548 1315.05 7.78216 1314.13 7.27768C1315.02 5.90273 1322.09 5.88294 1323.44 6.8919L1323.4 6.90179ZM1313.97 4.19145C1314.61 4.19145 1313.48 5.06193 1312.37 5.40814C1311.72 5.56641 1313.34 4.33983 1313.97 4.19145ZM1314.2 12.639C1313.23 13.3018 1312.42 14.1655 1311.82 15.1713L1309.61 14.4393C1310.39 13.094 1311.91 12.5104 1314.2 12.639ZM1306.05 10.8387C1304.94 11.2739 1304.21 11.1651 1303.84 10.5518C1303.99 10.4086 1304.18 10.3013 1304.38 10.2373C1304.58 10.1734 1304.8 10.1545 1305.01 10.1818C1305.22 10.2091 1305.42 10.282 1305.6 10.3954C1305.78 10.5089 1305.94 10.6601 1306.05 10.8387ZM1304.07 14.5481C1306.45 15.3098 1304.07 17.5156 1302.48 15.8538C1302.98 15.4285 1303.51 14.9834 1304.05 14.5481H1304.07ZM1297.08 12.3225C1295.27 11.5905 1295.89 8.19761 1296.19 9.35495C1298.66 10.3837 1298.95 11.3729 1297.06 12.3225H1297.08ZM1297.38 4.58712C1298.67 5.41803 1298.37 7.84151 1294.03 6.95125C1292.74 5.88294 1293.87 5.10149 1297.36 4.58712H1297.38ZM1285.6 6.08078C1286.74 5.90273 1287.92 5.75435 1289.12 5.64554C1291.95 5.73457 1285.16 13.2721 1282.39 11.5806C1283.3 12.1642 1286.19 6.38742 1285.58 6.08078H1285.6ZM1264.09 11.1948C1264.68 11.3828 1276.4 7.81183 1274.49 12.3126C1274.72 11.7685 1268.87 14.0239 1268.55 14.1821C1267.56 11.8773 1259.31 13.0446 1258.13 14.6866C1256.59 14.3008 1255.75 13.6974 1255.58 12.827C1255.19 8.21739 1261.8 10.5222 1264.07 11.1948H1264.09ZM1249.25 8.60317C1250.11 9.15711 1249.82 9.59235 1248.41 9.78029C1247.14 8.94938 1247.41 8.56361 1249.22 8.60317H1249.25ZM1241.45 9.07798C1244.57 7.72281 1248.01 11.3333 1244.42 11.6399C1241.82 11.5113 1240.84 10.6508 1241.42 9.07798H1241.45ZM1241.81 16.843H1238.56C1238.26 16.477 1238.56 16.0813 1240.48 15.4087C1241.55 15.8835 1241.98 16.3484 1241.82 16.843H1241.81ZM1240.12 13.094L1237.8 13.826C1237.53 13.811 1237.26 13.741 1237.02 13.6202C1236.78 13.4994 1236.57 13.3304 1236.39 13.1237C1236.89 12.6356 1237.56 12.3596 1238.25 12.3541C1238.95 12.3486 1239.62 12.6139 1240.12 13.094ZM1235.97 8.26685C1234.22 8.80625 1232.36 8.84054 1230.6 8.36577C1232.92 7.39638 1233.54 7.08974 1235.97 8.26685ZM1219.82 3.32098C1222.5 -0.635721 1225.92 3.75622 1228.81 5.17074C1228.97 4.04308 1230.05 3.19239 1232.05 2.53953C1232.98 3.13304 1229.45 5.79392 1230.07 8.2075C1226.37 7.21833 1222.58 4.98279 1219.84 3.32098H1219.82ZM1213.5 14.4591C1215.07 14.5679 1215.36 14.9141 1214.39 15.4483C1212.88 15.3988 1212.58 15.0724 1213.5 14.4789V14.4591ZM1211.59 8.8109C1211.4 8.64274 1208.04 11.9268 1207.86 11.8971L1205.64 11.0365C1203.97 12.1049 1210.17 7.68324 1211.59 8.83068V8.8109ZM1203.89 9.42419C1203.25 9.90679 1202.52 10.2453 1201.74 10.4161C1200.96 10.5869 1200.16 10.586 1199.38 10.4134C1199.29 10.3639 1200.16 6.66439 1203.89 9.44397V9.42419ZM1197.95 7.36671C1196.61 8.29653 1195.58 8.17783 1194.91 6.99082C1196.63 6.1698 1197.66 6.27861 1198 7.38649L1197.95 7.36671ZM1192.37 9.95834C1197.9 10.4331 1193.9 14.5778 1193.71 12.9259C1191.38 12.184 1190.93 11.1849 1192.37 9.95834ZM1184.67 13.282C1185.81 12.639 1186.34 12.7775 1186.31 13.7073C1185.08 14.2019 1184.53 14.0832 1184.64 13.282H1184.67ZM1173.03 10.1265C1177.27 12.2928 1176.6 11.7488 1173.43 13.5095C1170.9 11.8378 1170.17 12.184 1173.03 10.1265ZM1161.16 14.6767C1163.74 13.5293 1165.11 15.1812 1165.81 16.8133H1162.38C1161.78 16.0616 1160.91 14.8251 1161.18 14.7064L1161.16 14.6767ZM1150.41 15.4087C1151.46 15.6263 1150.41 16.3979 1150.18 16.8133H1150.03C1149.64 16.3682 1149.74 15.8934 1150.43 15.4384L1150.41 15.4087ZM1133.6 15.9033C1133.72 16.0185 1133.81 16.1623 1133.86 16.3214C1133.91 16.4805 1133.92 16.6498 1133.89 16.8133H1132.68C1132.87 16.4062 1133.22 16.0903 1133.64 15.933L1133.6 15.9033ZM1127.66 3.04401C1127.15 3.34405 1126.57 3.53485 1125.98 3.60461C1125.39 3.67436 1124.78 3.6216 1124.21 3.44957C1124.57 2.48018 1125.71 2.3417 1127.67 3.03412L1127.66 3.04401ZM1120.64 7.40627C1122.06 7.3724 1123.46 7.16308 1124.82 6.78309C1124.73 6.60504 1125.29 8.66252 1124.04 8.31631C1119.45 7.09963 1121.48 7.89097 1118.11 7.32714C1118.51 7.14022 1118.95 7.04916 1119.39 7.06118C1119.83 7.0732 1120.26 7.18797 1120.65 7.39638L1120.64 7.40627ZM1116.57 10.9772C1116.22 11.3109 1115.76 11.5122 1115.28 11.5465C1114.8 11.5808 1114.32 11.4459 1113.92 11.1651C1114.3 10.8843 1114.75 10.7166 1115.22 10.6815C1115.69 10.6465 1116.16 10.7456 1116.58 10.9673L1116.57 10.9772ZM1111.76 13.282C1113.6 13.9052 1114.38 14.7756 1114.11 15.8835C1111.14 17.8816 1110.5 14.3503 1111.77 13.2721L1111.76 13.282ZM1100.8 4.71572C1101.02 3.99362 1101.72 3.87492 1102.87 4.32994C1102.68 4.96301 1101.96 5.10149 1100.81 4.70582L1100.8 4.71572ZM1107.57 9.22635C1107.57 9.84953 1101.12 13.5194 1101.31 12.4313C1101.36 12.0356 1106.24 9.78029 1107.58 9.21646L1107.57 9.22635ZM1092.54 15.7747C1094 15.8538 1094.3 16.1407 1093.4 16.6551C1091.82 16.6254 1091.55 16.3385 1092.55 15.7648L1092.54 15.7747ZM1070.32 14.3107C1071.24 13.6084 1072.48 11.2344 1074.05 10.8882C1078.77 9.81986 1077.15 12.2928 1075.61 13.4699C1073.36 13.8262 1071.15 14.4163 1069.03 15.2306C1067.55 15.8656 1065.91 16.0413 1064.33 15.7351C1067.36 14.9042 1068.33 15.834 1070.33 14.3008L1070.32 14.3107ZM1046.58 16.3979C1047.23 16.4968 1047.43 16.6551 1047.32 16.8529H1037.94L1038.1 16.7144C1040.93 16.3878 1043.78 16.2787 1046.62 16.388L1046.58 16.3979ZM1042.46 5.87305C1042.21 6.86223 1041.1 7.46562 1040.05 8.27675C1039.3 7.67246 1038.6 7.01103 1037.96 6.2984C1039.4 5.75835 1040.97 5.60826 1042.5 5.86316L1042.46 5.87305ZM1030.84 9.73083C1035.79 9.48354 1037.35 10.3144 1043.88 12.639C1038.76 14.5085 1037.35 14.014 1035.09 10.8882C1030.8 13.3116 1030.8 9.72094 1030.88 9.72094L1030.84 9.73083ZM1029.85 13.0248C1033.81 14.2415 1034.8 15.3493 1032.82 16.3187C1030.39 16.4374 1028.56 15.9923 1027.4 15.0031C1027.37 14.0832 1028.21 13.371 1029.88 13.0149L1029.85 13.0248ZM1016.74 12.5401C1016.74 12.3521 1016.74 12.1741 1016.81 11.996C1024.18 11.996 1022.52 12.184 1021.08 14.0634C1019.26 16.388 1016.14 12.3521 1016.77 12.5302L1016.74 12.5401ZM1010.1 16.8529H1004.23C1006.5 15.2504 1010.57 14.7756 1010.13 16.843L1010.1 16.8529ZM995.817 14.5877C997.617 15.0724 1000.53 16.8925 995.569 16.6946C995.564 16.7473 995.564 16.8003 995.569 16.8529H995.431C995.625 16.1057 995.763 15.3453 995.846 14.5778L995.817 14.5877ZM745.061 3.34076L745.179 3.46936L745.001 3.40011L745.061 3.34076ZM745.674 7.22822C747.138 7.70303 747.158 8.2174 745.674 8.74166C744.754 8.34599 744.754 7.84151 745.674 7.22822ZM733.121 15.8538C733.121 15.0724 737.078 9.30549 739.254 9.91878C740.926 10.3342 740.006 12.8863 742.41 12.7874C742.932 12.6912 743.41 12.4313 743.775 12.0455C743.696 13.0347 745.1 13.6183 741.114 15.2999C747.613 15.2999 747.919 15.8736 746.614 16.8925H741.42C739.689 15.1515 738.631 13.8755 733.121 15.8538ZM695.068 16.843H693.633C693.366 16.7935 693.099 16.7342 692.812 16.6946C693.406 16.7144 694.177 16.7639 695.068 16.843ZM680.586 6.75342C685.037 7.16887 680.745 7.94043 681.15 8.06902C679.7 7.79659 678.232 7.628 676.758 7.56454C677.856 7.35681 678.598 6.57537 680.586 6.75342ZM674.651 7.26779C674.869 7.35533 675.094 7.4248 675.324 7.47551L672.851 7.35681C673.474 7.31725 674.038 7.27768 674.671 7.26779H674.651ZM671.407 7.46562C671.941 8.23718 675.086 10.4331 673.791 10.5321C671.595 10.6409 669.25 7.89097 664.443 8.39545C666.678 8.0888 669.013 7.70302 671.426 7.46562H671.407ZM665.956 16.5957C666.274 16.644 666.586 16.7269 666.886 16.843H654.828C654.97 16.7123 655.079 16.5495 655.145 16.3682C654.957 16.3682 654.155 16.6056 653.077 16.843H646.677C646.677 15.7648 651.9 15.379 652.316 15.1119C658.122 17.941 659.398 15.4977 665.976 16.5957H665.956ZM654.086 8.79112C654.007 8.79112 657.38 9.78029 658.904 10.1265C658.973 10.4035 659.893 11.0168 659.893 11.0464C651.366 10.8288 644.254 11.6696 651.277 6.64461C652.701 7.43595 653.76 8.66252 654.126 8.79112H654.086ZM642.592 6.00164C642.839 5.8137 647.182 6.78309 647.132 6.7732C647.677 6.31351 648.353 6.03814 649.064 5.98661C649.775 5.93507 650.484 6.11002 651.089 6.48634C648.537 6.88201 639.842 8.0888 642.592 6.00164ZM644.244 11.818C645.144 13.6776 647.726 13.7963 645.233 13.9447C644.837 12.9555 643.591 12.6291 642.008 12.6786C642.796 12.5187 643.552 12.2278 644.244 11.818ZM639.298 8.19761C639.344 8.49492 639.464 8.77583 639.648 9.01441C639.831 9.253 640.071 9.44156 640.347 9.56267C639.071 9.13733 637.933 8.70209 639.278 8.19761H639.298ZM638.428 11.3333C638.029 11.7686 637.717 12.2754 637.508 12.827C638.135 12.9019 638.765 12.9448 639.397 12.9555C636.815 13.3512 634.164 13.9447 633.215 13.3908C631.335 12.2038 637.092 11.2838 638.428 11.3333ZM628.318 16.843H625.113C623.108 16.4461 621.164 15.7807 619.336 14.8647C624.421 12.8566 627.339 14.0832 628.358 16.843H628.318ZM603.302 11.4817C607.911 11.1454 612.026 14.7163 610.968 16.843H607.763C610.009 13.8755 604.529 10.7695 600.72 14.8647C606.655 15.7846 603.46 16.5166 600.72 16.843H598.198C598.173 16.1505 598.287 15.4599 598.534 14.8124C598.781 14.1648 599.155 13.5735 599.635 13.0734C600.114 12.5733 600.69 12.1748 601.327 11.9013C601.963 11.6279 602.649 11.4852 603.342 11.4817H603.302ZM592.827 15.4977C594.637 15.9231 594.934 16.2198 593.667 16.4177C591.837 16.0616 591.57 15.745 592.866 15.4977H592.827ZM579.68 9.56267C581.995 7.95032 585.615 12.4708 584.864 11.6894C584.235 11.5814 583.593 11.5814 582.965 11.6894C580.462 11.3432 579.334 10.6607 579.72 9.56267H579.68ZM581.224 12.5302C584.547 13.0149 586.763 13.9447 587.861 15.3395C586.214 15.5305 584.617 16.027 583.152 16.8034H580.432C579.868 16.6452 579.176 16.4275 578.276 16.111C573.271 14.38 576.743 14.2118 581.263 12.5698L581.224 12.5302ZM571.5 14.8647C569.907 14.0832 569.126 13.1039 569.096 11.8971C575.12 9.48354 573.399 13.7963 571.54 14.9042L571.5 14.8647ZM568.236 10.3738C567.803 10.6003 567.311 10.6868 566.827 10.6212C566.343 10.5557 565.892 10.3413 565.535 10.0078C566.762 9.24614 567.652 9.37473 568.275 10.4134L568.236 10.3738ZM561.776 6.63472C559.076 7.05017 557.622 6.85233 557.404 6.00164C558.097 5.18063 563.112 6.86223 561.816 6.67428L561.776 6.63472ZM538.521 9.96824C537.977 10.8882 537.532 10.8684 537.304 9.89899C537.819 8.97906 538.224 8.99884 538.521 9.96824ZM540.598 13.2721C538.471 13.4897 550.727 13.3512 545.969 12.2829C547.267 12.4062 548.573 12.1736 549.748 11.6103C550.262 11.7092 551.103 15.8934 559.145 13.648C560.302 15.2109 560.134 16.2297 559.244 16.8034H553.23C551.937 16.435 550.728 15.8203 549.669 14.9932C549.263 16.6155 539.441 16.8133 536.632 15.8538C536.613 14.8647 536.938 13.8998 537.552 13.1237C536.859 13.3294 536.132 13.3898 535.416 13.3013C534.699 13.2128 534.008 12.9772 533.387 12.6093C536.543 12.2928 537.245 13.6183 540.568 13.2721H540.598ZM529.777 15.0031C528.204 16.5067 527.205 16.754 526.809 15.745C527.172 15.3461 527.644 15.063 528.166 14.931C528.689 14.7991 529.239 14.8242 529.747 15.0031H529.777ZM527.314 10.9772C526.779 11.6597 526.156 11.6004 525.503 10.7893C526.265 10.2056 526.859 10.2749 527.284 10.9772H527.314ZM517.303 12.7775C515.819 13.282 522.11 14.7558 514.899 15.567C515.123 15.702 515.311 15.8881 515.448 16.1099C515.586 16.3317 515.669 16.5829 515.691 16.843H514.781C513.712 15.8439 515.77 13.3018 517.273 12.7775H517.303ZM498.895 10.2452C499.187 10.5253 499.521 10.7588 499.884 10.9376C508.47 9.8891 497.975 14.8152 505.403 16.8727H501.526C500.467 16.111 501.011 14.4888 501.298 13.4798C496.679 13.4798 498.538 13.5688 494.71 14.9537C494.137 14.1327 499.518 11.729 498.865 10.2452H498.895ZM444.549 6.0511C445.675 7.43383 447.01 8.63201 448.506 9.60224C446.392 10.1245 444.188 10.1651 442.057 9.72094C441.977 8.41523 442.838 7.15898 444.549 6.0511ZM444.549 13.371C444.213 12.7083 444.638 12.0653 445.825 11.4718C447.626 12.1939 447.517 13.3413 444.549 13.371ZM432.185 11.6399C433.352 11.6399 436.586 11.4322 438.772 11.5113C441.473 11.6202 440.959 13.4897 444.49 13.4897C449.03 16.8826 454.669 11.9367 453.392 9.42419C460.465 8.9296 458.338 11.0563 461.791 12.9358C461.702 12.8764 448.189 16.4473 444.905 16.8925H444.213H440.593C438.792 15.5274 434.658 14.7954 432.501 15.8143C433.817 14.9438 434.282 15.6758 433.995 12.5599C425.755 13.4402 426.823 11.5212 432.224 11.6399H432.185ZM421.452 9.2857C423.777 8.40534 426.526 6.73363 429.801 7.30735C431.255 7.55465 421.749 12.2532 422.105 12.0653C421.234 12.461 418.781 8.99884 418.732 8.93949C419.642 9.03841 420.532 9.13733 421.452 9.2857ZM415.27 2.67802C415.923 3.11325 415.863 3.45946 415.082 3.72654C414.379 3.28141 414.459 2.9352 415.27 2.67802ZM411.679 5.64554C412.381 5.84338 414.844 6.98093 414.142 6.80288C411.906 7.03039 410.571 6.63472 411.679 5.60597V5.64554ZM409.414 9.74072C407.435 10.8486 404.596 10.9277 402.49 10.8981C403.756 10.4331 403.004 9.43408 409.414 9.70116V9.74072ZM405.744 6.1698C405.576 6.24894 404.686 7.64367 401.392 6.67428C402.751 6.04426 404.277 5.86742 405.744 6.1698ZM404.31 14.0832C404.557 14.4789 404.794 14.8745 405.042 15.2504C407.38 14.4804 409.858 14.2306 412.302 14.5184C411.867 14.9339 407.416 16.9122 406.278 16.4968C402.964 15.2504 396.485 15.3197 393.913 12.6093C391.342 9.89899 403.172 16.3682 404.31 14.0832ZM378.739 9.89899C384.14 11.363 383.685 14.746 377.849 15.4977C378.739 15.9725 378.66 16.3682 377.602 16.6551C377.473 15.6065 378.037 14.5382 374.773 15.2999C374.75 15.6513 374.62 15.9874 374.401 16.2631C374.181 16.5388 373.883 16.7411 373.546 16.843H371.568C368.828 16.2297 365.633 13.6579 367.957 12.5401C374.555 9.2956 382.736 18.4653 378.739 9.89899ZM361.459 5.23998C358.906 6.22915 356.157 5.71478 355.523 4.58712C358.155 3.94416 360.163 4.19145 361.459 5.23998ZM353.713 10.9277C353.605 11.086 364.189 7.40627 365.643 6.25883C366.324 6.44652 366.926 6.84945 367.359 7.40746C367.792 7.96547 368.033 8.64863 368.046 9.35495C366.319 8.57895 364.427 8.23928 362.537 8.36577C362.487 10.4727 359.005 14.9438 359.896 16.6056C359.93 16.6745 359.97 16.7407 360.014 16.8034H356.236C357.561 15.0724 358.451 14.469 353.634 14.1327C354.336 15.0031 353.496 16.0022 354.119 16.8034H350.815C351.639 14.7727 352.618 12.8083 353.743 10.9277H353.713ZM349.282 3.56827C348.421 4.81463 346.878 5.23998 344.672 4.86409C345.721 3.64741 347.264 3.20228 349.311 3.56827H349.282ZM345.83 14.0832C344.484 14.9834 343.564 15.0724 343.109 14.192C343.48 13.8622 343.954 13.671 344.45 13.6512C344.946 13.6314 345.434 13.784 345.83 14.0832ZM343.159 3.06379C342.377 3.70676 341.725 3.6573 341.27 2.91542C341.893 2.06473 342.536 2.11419 343.159 3.06379ZM342.407 8.63285C341.26 9.39451 339.657 9.50332 337.619 9.00874C338.326 8.55973 339.132 8.2907 339.966 8.22518C340.801 8.15965 341.639 8.29962 342.407 8.63285ZM341.537 5.86316L339.914 6.49623C339.002 6.33001 338.1 6.10869 337.214 5.83348C338.652 5.68545 340.101 5.6954 341.537 5.86316ZM337.491 9.06809H337.54C340.201 10.1067 343.09 11.6795 338.381 12.3917C333.93 13.0742 333.138 10.0276 330.794 10.3144C328.717 10.5716 329.874 12.7874 328.984 13.6183C327.451 12.9852 325.769 10.0375 327.065 9.25603C327.253 8.8109 335.137 9.13733 337.491 9.06809ZM323.722 4.04308C324.938 3.6573 330.933 6.4171 330.013 7.21833L324.147 6.22915C324.285 6.30829 321.832 4.6168 323.722 4.04308ZM324.097 10.4826C324.582 11.6399 324.097 12.7478 322.624 13.7766C321.407 12.7181 320.457 11.8773 319.725 11.2245C321.115 10.6747 322.604 10.4219 324.097 10.4826ZM319.557 5.32901C318.38 5.86316 317.777 5.72468 317.777 4.93333C319.102 4.33983 319.696 4.46842 319.557 5.32901ZM303.226 16.6847C303.444 16.5964 303.68 16.5646 303.914 16.5923C304.147 16.62 304.37 16.7062 304.561 16.843H302.969C303.031 16.7591 303.123 16.7024 303.226 16.6847ZM299.962 14.0832C300.387 14.8647 298.854 15.3098 298.824 15.2109C298.527 13.5787 300.506 15.1416 299.714 12.362C300.371 12.2871 301.032 12.2508 301.693 12.2532C302.415 13.1435 303.097 14.0832 299.962 14.0832ZM302.207 7.15898C301.851 7.71292 301.218 7.614 300.446 6.84244L298.072 6.48634C299.071 5.80381 300.318 6.87212 302.207 7.07984V7.15898ZM301.851 9.82975C303.087 11.3135 298.399 10.4925 297.825 10.1859C298.406 9.78275 299.079 9.53172 299.783 9.45569C300.486 9.37966 301.197 9.48106 301.851 9.75062V9.82975ZM293.621 5.08171C292.78 5.68511 292.236 5.71478 292.018 5.16085C292.483 4.40907 292.998 4.3794 293.621 5.08171ZM288.26 3.40011C288.804 4.02329 288.754 5.2202 286.4 5.06193C283.165 6.40721 287.627 3.83535 288.26 3.40011ZM286.835 15.5571L284.679 14.7756C285.678 12.9061 287.567 14.8152 286.815 15.5571H286.835ZM279.515 2.3318C280.702 2.53953 280.92 2.92531 280.158 3.43968C278.17 3.20228 277.962 2.80661 279.496 2.3318H279.515ZM274.312 4.6168C275.094 5.18063 274.777 5.49716 273.323 5.60597C272.611 5.05204 272.937 4.72561 274.312 4.6168ZM273.531 8.28664C275.796 7.51508 277.062 7.96021 277.606 8.28664C275.403 9.62409 272.929 10.4552 270.365 10.72C271.308 9.7716 272.372 8.95324 273.531 8.28664ZM266.27 6.04121C265.103 5.96666 263.989 5.52721 263.085 4.78496C264.519 4.38929 269.94 7.15898 266.27 6.04121ZM262.007 14.5481C263.57 14.5481 264.242 14.9438 263.985 15.7549C262.541 15.8143 261.809 15.4285 262.007 14.5481ZM250.582 3.47925C252.095 4.00351 251.848 4.46842 249.85 4.93333C248.91 4.38929 249.148 3.8947 250.582 3.47925ZM252.343 10.908C250.994 9.95367 249.466 9.28085 247.852 8.9296C257.279 7.32714 251.591 10.1265 252.343 10.908ZM236.219 1.47122C238.484 1.79765 238.811 2.30213 237.208 3.01434C235.19 2.62856 234.844 2.11419 236.219 1.47122ZM232.975 6.2885C232.065 6.76331 231.362 6.72374 230.848 6.1797C231.768 5.51695 232.49 5.55652 232.975 6.2885ZM226.12 3.68697C227.989 4.42886 227.791 5.00258 225.585 5.39825C223.884 4.76517 224.072 4.19145 226.12 3.68697ZM217.86 3.86503C215.994 5.34219 214.184 5.72467 212.429 5.01247C212.647 4.19145 216.515 3.35065 217.86 3.86503ZM207.464 8.61307C208.018 9.0483 207.672 9.71105 206.979 10.4529C205.604 9.533 205.772 8.91971 207.464 8.61307ZM204.872 5.32901C202.419 6.12035 201.42 5.23998 199.392 4.33983C198.235 4.70582 197.582 5.07182 196.563 4.56734C201.311 3.70676 200.391 3.14293 204.872 5.32901ZM198.245 16.7441C198.24 16.7769 198.24 16.8102 198.245 16.843H196.603C196.286 16.5364 195.999 16.1901 195.772 15.933C197.255 15.7055 198.136 15.9626 198.245 16.7441ZM191.914 12.1049C191.479 12.9654 190.776 13.005 189.807 12.2433C190.727 11.2245 191.429 11.1849 191.914 12.1049ZM190.925 14.9339C189.161 15.1003 187.428 15.5029 185.771 16.1308C184.554 15.3197 183.367 14.4987 182.18 13.6776C184.396 13.1633 189.342 14.0832 190.915 14.9735L190.925 14.9339ZM170.38 10.7893C169.193 11.7784 170.924 12.5895 165.948 11.1454C166.809 10.2155 168.263 10.1265 170.37 10.8288L170.38 10.7893ZM123.888 7.21833C122.593 7.32714 116.41 8.26686 116.272 7.36671C117.666 6.22915 122.553 4.99269 123.878 7.2579L123.888 7.21833ZM114.165 1.99548C113.277 2.16158 112.377 2.25093 111.474 2.26256C112.322 1.89736 113.262 1.80405 114.165 1.99548ZM111.445 9.05819C111.445 10.1562 111.88 10.2155 111.712 10.1859C110.957 9.9302 110.183 9.73504 109.397 9.60224C110.052 9.3708 110.723 9.18894 111.405 9.05819H111.445ZM107.241 6.35775C106.218 6.65118 105.147 6.73235 104.092 6.59626C103.038 6.46017 102.022 6.1097 101.108 5.56641C104.599 4.38929 103.195 4.32005 107.241 6.35775ZM92.8876 3.02423C95.776 3.3012 93.402 5.3389 92.1853 5.78403C92.1853 6.90179 91.6413 7.08974 90.4048 6.35775C93.5603 5.64554 92.9173 4.64647 92.8876 3.02423ZM87.9417 2.79672C86.6459 3.32098 85.9634 3.1726 85.8645 2.38126C87.002 1.72841 87.7043 1.87678 87.9417 2.79672ZM85.7062 11.8279C86.4283 13.3611 83.2234 16.6254 80.3053 14.924C81.7396 13.8458 83.0058 12.2433 85.7062 11.8279ZM66.8822 2.2131C69.1276 2.83628 69.0386 3.20228 66.6448 3.34076C66.4173 3.0539 65.2204 1.70862 66.8822 2.2131ZM66.8031 8.05913C64.5577 8.71198 62.0748 8.54382 60.5911 8.9296C62.596 8.28539 64.699 8.00074 66.8031 8.0888V8.05913ZM67.3768 14.6075C67.3768 14.6075 56.7926 14.2217 58.682 15.0724C52.4699 13.7667 68.8012 12.5994 67.3768 14.6371V14.6075ZM27.6021 13.5293C26.4942 13.9447 25.8809 13.8062 25.7127 13.1039C26.9294 12.6786 27.5724 12.8171 27.6021 13.5293ZM150.932 16.7639L151.259 16.843H151.19L150.932 16.7639Z" fill="#002E48"/>
</g>
<rect x="1.49609" y="24.2347" width="1901" height="2" stroke="#036CDB"/>
<defs>
<clipPath id="clip0_6_311">
<rect width="1900" height="26.5" fill="white" transform="translate(1.99609 0.234741)"/>
</clipPath>
</defs>
</svg>
