<svg width="1900" height="27" viewBox="0 0 1900 27" fill="none" xmlns="http://www.w3.org/2000/svg">
<path d="M1139.6 7.3064C1141.79 7.5537 1148.06 7.3064 1149.64 6.1095C1152.5 3.9531 1146.92 3.94321 1146.47 1.94507C1147.39 2.58804 1149.87 3.85418 1150.29 4.23007C1151.99 2.57815 1152.67 1.03503 1154.33 0.144775H1139.38C1140.66 1.20319 1139.64 3.29035 1139.44 4.10148C1137.31 0.728389 1133.51 1.7967 1134.77 4.72466C1135.51 6.51506 1134.15 6.66344 1139.6 7.3064Z" fill="white"/>
<path d="M755.287 3.29041H755.356C755.455 3.35965 755.455 3.34976 755.287 3.29041Z" fill="white"/>
<path d="M782.281 2.44956C786.238 -0.69602 794.884 4.64553 796.535 3.10241C798.781 1.00536 791.956 1.61865 790.6 0.134888H772.528C772.479 0.223913 772.4 0.312939 772.35 0.401965C772.222 0.303047 772.063 0.223913 771.925 0.134888H768.789C770.115 1.66811 775.565 3.60689 776.703 4.09159C778.424 2.60783 778.453 1.27244 782.281 2.44956Z" fill="white"/>
<path d="M811.927 2.12313C812.382 1.85605 821.107 5.17968 822.205 0.144775H810.335C807.565 0.144775 805.033 0.273368 805.082 0.481095C804.974 0.395993 804.898 0.277777 804.864 0.144775L794.577 0.144775C797.761 1.56127 801.133 2.51397 804.587 2.97382C812.877 3.75526 807.199 5.09065 811.927 2.12313Z" fill="white"/>
<path d="M876.372 1.97475C877.889 2.03177 879.343 2.59208 880.507 3.56732C879.131 4.51175 877.564 5.14007 875.917 5.40719C875.917 5.40719 873.78 10.4322 877.262 10.5113C877.994 10.5113 883.82 8.3945 884.097 8.85941C884.112 9.24131 884.22 9.61372 884.414 9.9434C884.607 10.2731 884.879 10.5497 885.205 10.7487C885.037 10.7487 887.391 10.7487 887.302 10.6894C887.144 9.37378 896.62 4.93238 894.869 4.32899C894.029 4.27953 893.188 4.23996 892.347 4.23007C889.221 1.69778 891.734 -0.715807 893.623 1.34168C894.666 1.09239 895.666 0.688987 896.591 0.144775L884.443 0.144775C883.85 1.13395 883.979 2.41988 885.304 4.10148C886.521 4.10148 891.18 4.23007 892.327 4.23007C891.457 5.90177 888.064 6.01058 885.403 4.23007C883.712 2.91447 881.605 1.26254 879.883 0.144775H871.159C872 0.886657 875.808 0.767956 876.372 1.97475Z" fill="white"/>
<path d="M872.138 3.98277C869.517 1.27244 862.246 5.83253 858.201 3.69591C863.888 3.31014 867.103 1.81648 867.449 0.144775H856.024C851.178 1.53951 845.816 2.40009 847.438 3.75526C852.315 7.85045 866.905 3.92342 872.138 3.98277Z" fill="white"/>
<path d="M828.13 3.16174C831.424 3.26066 834.718 3.33979 838.022 3.37936C838.244 4.12762 838.505 4.86389 838.803 5.58522C840.012 5.49085 841.214 5.3257 842.404 5.09063C842.354 5.09063 840.762 2.06376 840.574 1.75711C842.047 2.34073 843.719 1.35155 844.886 0.184326H827.734C826.794 0.528423 825.971 1.1321 825.36 1.92527C828.328 1.56917 827.882 3.11228 828.13 3.16174Z" fill="white"/>
<path d="M812.6 6.51506C811.037 6.75246 797.831 7.7911 798.346 8.87919C798.993 9.13061 799.575 9.52643 800.047 10.0365C801.59 9.70021 814.173 8.70114 810.067 11.5203C813.243 11.6192 816.992 11.9357 820.246 12.1929C816.596 10.0563 824.074 7.3064 828.476 6.78214C826.646 6.19853 826.587 5.6248 828.258 5.04119C828.624 5.25881 828.951 5.44675 829.248 5.61491C829.478 5.02141 829.211 4.81368 828.446 4.99173H828.525C827.23 5.34784 827.121 4.76422 828.179 3.24089C828.338 3.18154 822.966 5.44675 823.402 5.21924C822.937 4.34877 821.67 4.63563 819.593 6.11939C817.654 7.64272 815.33 7.80099 812.6 6.51506Z" fill="white"/>
<path d="M916.107 13.4096C925.455 13.0535 914.712 11.1345 914.435 10.7289C910.825 5.51596 908.362 1.25262 905.612 10.0958C904.662 11.2334 913.822 13.4986 916.107 13.4096Z" fill="white"/>
<path d="M710.734 4.10144C714.009 3.60686 715.215 3.65631 714.385 4.24982C714.335 4.30917 714.385 4.24982 714.622 4.18058C716.768 3.05292 716.907 0.916299 719.499 0.223877H706.451L705.907 0.421712C708.717 1.53948 710.823 2.80562 710.734 4.10144Z" fill="white"/>
<path d="M727.966 6.14904C729.37 4.56636 730.152 1.26252 725.186 0.797607C725.641 2.1231 725.236 4.87301 727.966 6.14904Z" fill="white"/>
<path d="M891.764 13.9932C894.573 13.1722 895.186 11.916 893.653 10.2344C891.388 11.4214 889.765 12.5787 891.764 13.9932Z" fill="white"/>
<path d="M965.309 5.01159L965.437 4.94234C965.279 4.81375 965.21 4.80386 965.309 5.01159Z" fill="white"/>
<path d="M862.949 9.49244C864.7 11.6983 868.399 8.79012 869.121 8.67142C871.238 8.30543 863.938 6.75242 862.949 9.49244Z" fill="white"/>
<path d="M858.606 11.184C860.871 9.91786 860.585 10.4817 855.985 8.38463C855.876 8.33518 852.068 10.8378 858.606 11.184Z" fill="white"/>
<path d="M841.306 12.7271C841.764 12.2766 842.116 11.7291 842.335 11.1249C842.554 10.5206 842.635 9.87499 842.572 9.23535C834.47 9.87832 839.466 10.4817 841.306 12.7271Z" fill="white"/>
<path d="M863.305 12.8755C862.294 12.7762 861.277 12.9907 860.392 13.4897C859.507 13.9888 858.797 14.7483 858.359 15.665L862.256 15.7243C862.375 15.5166 864.047 13.0041 863.305 12.8755Z" fill="white"/>
<path d="M795.269 13.5877C793.756 13.7954 799.226 17.2081 801.531 14.8934C801.155 14.7154 797.188 13.3206 795.269 13.5877Z" fill="white"/>
<path d="M930.044 10.4124L931.34 9.04736C930.826 9.14628 928.264 9.1265 926.998 9.40347C927.502 10.0365 928.531 10.3926 930.044 10.4124Z" fill="white"/>
<path d="M719.983 3.61674C718.722 3.63159 717.462 3.54891 716.214 3.36944C717.016 2.86496 715.304 3.83435 714.632 4.16078C716.739 5.31812 721.002 5.56541 719.983 3.61674Z" fill="white"/>
<path d="M719.756 3.26074C719.841 3.3731 719.917 3.49219 719.983 3.61685C720.359 3.57728 720.28 3.45858 719.756 3.26074Z" fill="white"/>
<path d="M803.935 13.3107C801.867 13.2217 801.64 14.2999 801.748 15.0022C802.293 14.8439 808.04 13.4789 803.935 13.3107Z" fill="white"/>
<path d="M852.612 11.8864C849.644 12.1831 850.97 13.5581 852.266 14.4285C852.503 13.3701 853.235 13.3998 852.612 11.8864Z" fill="white"/>
<path d="M799.75 9.86841C799.266 10.3333 796.021 11.1148 798.999 11.9556C799.339 11.7416 799.598 11.4198 799.734 11.0415C799.87 10.6633 799.876 10.2503 799.75 9.86841Z" fill="white"/>
<path d="M931.34 9.04741L939.115 7.71203C936.444 7.21744 932.992 7.71203 931.34 9.04741Z" fill="white"/>
<path d="M922.833 1.401C923.724 1.65818 924.594 1.89558 925.455 2.15277C926.998 1.53948 924.001 0.955868 922.833 1.401Z" fill="white"/>
<path d="M939.442 2.53856C939.274 1.54938 938.334 1.43068 936.632 2.06375C936.791 2.99358 937.74 3.11228 939.442 2.53856Z" fill="white"/>
<path d="M959.888 3.34969C960.313 2.02419 959.126 1.47026 956.268 1.70766C957.415 2.6177 956.742 3.28045 959.888 3.34969Z" fill="white"/>
<path d="M1015.11 4.38836C1014.82 3.31016 1013.85 3.19146 1012.25 4.02236C1012.85 5.23905 1013.8 5.36764 1015.11 4.38836Z" fill="white"/>
<path d="M724.959 6.22827C723.267 5.1105 721.991 5.10061 720.943 6.22827C722.614 6.94048 723.97 6.95037 724.959 6.22827Z" fill="white"/>
<path d="M842.176 5.15989C843.685 5.88384 845.33 6.27836 847.003 6.31722C846.182 5.27859 844.787 5.09065 842.176 5.15989Z" fill="white"/>
<path d="M850.752 7.64271C852.859 7.4152 853.265 7.00964 851.88 6.41614C849.862 6.68651 849.486 7.09537 850.752 7.64271Z" fill="white"/>
<path d="M847.488 9.3144C846.133 8.41425 845.678 7.66247 846.024 7.06897L844.441 8.2362C845.144 8.4736 847.923 9.5518 847.488 9.3144Z" fill="white"/>
<path d="M844.273 8.18679L844.154 8.13733C842.176 8.533 841.642 8.89899 842.532 9.23531C844.332 8.8891 844.906 8.55278 844.273 8.24614H844.362C844.303 8.18679 844.234 8.167 844.273 8.18679Z" fill="white"/>
<path d="M846.024 7.06903L847.013 6.32715C846.613 6.46241 846.266 6.7224 846.024 7.06903Z" fill="white"/>
<path d="M697.618 12.6677C696.213 12.2819 693.246 11.9555 693.246 13.3205C694.918 13.2315 695.996 13.7261 697.618 12.6677Z" fill="white"/>
<path d="M920.974 13.6668C922.408 14.5867 923.615 14.5867 924.644 13.6668C924.189 12.3512 922.972 12.3512 920.974 13.6668Z" fill="white"/>
<path d="M778.622 15.8529C779.779 15.3286 780.6 15.6748 781.233 14.3592C778.602 14.1218 776.821 14.5076 778.582 15.8331L778.394 15.754L778.483 16.0903C778.78 16.031 778.869 15.9716 778.622 15.8529Z" fill="white"/>
<path d="M922.111 3.75524C922.022 2.97379 921.35 2.8452 920.133 3.36946C920.222 4.01242 920.895 4.10145 922.111 3.75524Z" fill="white"/>
<path d="M928.402 4.9126C927.156 4.9126 926.424 5.15989 926.236 5.7435C924.782 6.07982 931.528 5.27859 928.402 4.9126Z" fill="white"/>
<path d="M773.399 6.64367C773.399 6.64367 773.27 5.09067 773.29 5.09067C768.977 4.29933 772.805 6.41616 773.399 6.64367Z" fill="white"/>
<path d="M919.925 6.18865C918.887 5.47644 918.016 5.5259 917.462 6.10951C918.284 6.08494 919.107 6.11137 919.925 6.18865Z" fill="white"/>
<path d="M917.166 6.51506C917.245 6.36659 917.345 6.23006 917.462 6.1095C916.78 6.13917 916.671 6.27766 917.166 6.51506Z" fill="white"/>
<path d="M916.275 8.1373C917.68 7.87022 917.897 7.3064 916.978 6.41614C916.681 6.95029 914.386 7.67239 916.275 8.1373Z" fill="white"/>
<path d="M871.307 11.2631C871.663 11.2631 872.108 11.362 872.672 11.4511C872.84 10.9565 872.316 10.8872 871.307 11.2631Z" fill="white"/>
<path d="M871.307 11.2632C870.575 11.184 870.318 11.2632 870.516 11.372C868.676 12.5392 867.163 13.2811 869.131 14.844C871.96 14.201 872.425 13.0536 870.526 11.3819C870.592 11.4262 870.662 11.4659 870.734 11.5006C870.941 11.4016 871.129 11.3324 871.307 11.2632Z" fill="white"/>
<path d="M830.632 10.2047C830.801 9.86835 831.988 9.30452 830.771 9.12646C830.741 9.48257 830.692 9.84856 830.632 10.2047Z" fill="white"/>
<path d="M829.198 5.56543C829.011 5.98513 828.768 6.37772 828.476 6.73266C829.881 6.32709 829.841 6.01056 829.198 5.56543Z" fill="white"/>
<path d="M776.693 4.10144C776.426 4.10144 773.913 4.23003 773.29 5.00159C777.237 4.34873 776.752 5.87206 776.693 4.10144Z" fill="white"/>
<path d="M982.768 10.9367C983.391 11.2334 984.607 13.0832 987.229 12.0643C986.339 11.1345 984.855 10.7487 982.768 10.9367Z" fill="white"/>
<path d="M438.246 14.9824C441.352 13.9338 441.59 13.6865 438.978 12.4402C437.356 13.2117 437.109 14.0525 438.246 14.9824Z" fill="white"/>
<path d="M1071.16 1.74724C1069.72 1.99254 1068.37 2.57943 1067.2 3.45851C1068.35 4.14104 1072.09 3.8344 1074.41 3.84429C1074.14 3.47635 1073.89 3.09325 1073.66 2.69685C1073.45 2.31489 1073.26 1.91824 1073.1 1.50984C1072.74 1.50984 1072.43 1.57908 1072.11 1.61865C1072.11 0.926224 1071.54 0.490987 1070.78 0.144775H1060.78C1060.06 0.783541 1059.29 1.36248 1058.48 1.87583C1062.7 2.11009 1066.94 2.06714 1071.16 1.74724Z" fill="white"/>
<path d="M1205.59 3.44868C1206.16 3.48359 1206.73 3.45706 1207.29 3.36955L1205.94 2.38037C1205.19 2.88485 1204.95 3.23106 1205.2 3.36955L1203.4 4.22024C1205.33 4.51699 1206.04 4.2598 1205.59 3.44868Z" fill="white"/>
<path d="M379.816 4.20042C380.014 3.50799 379.519 2.92438 378.302 2.44958C379.47 2.83535 378.876 2.52871 376.532 1.5791C369.855 2.12315 378.55 5.15992 379.816 4.20042Z" fill="white"/>
<path d="M503.126 5.88204L502.068 4.78406C500.287 5.8128 500.634 6.1689 503.126 5.88204Z" fill="white"/>
<path d="M545.107 14.6362L547.887 14.834C547.214 14.7549 545.829 14.2999 545.107 14.6362Z" fill="white"/>
<path d="M455.25 3.25077C454.922 2.89893 454.572 2.56852 454.202 2.2616C453.341 2.82543 453.687 3.16175 455.25 3.25077Z" fill="white"/>
<path d="M1899.6 26.6448V6.86129H1899.35C1898.37 6.70721 1897.43 6.38948 1896.57 5.92157C1895.26 6.81779 1893.9 7.62735 1892.48 8.34505C1892.21 7.4449 1893.41 6.27767 1895.07 5.11045C1893.74 4.24204 1892.31 3.51913 1890.82 2.95404C1888.04 2.08357 1885.32 2.38032 1882.61 2.74632C1882.79 3.33982 1882.4 4.12127 1879.84 3.85419C1880.03 3.51893 1880.28 3.22851 1880.59 3.0035C1877.62 3.3695 1874.66 3.47831 1871.62 1.79671C1868.45 0.00630303 1866.13 1.48017 1862.83 1.74725C1859.3 2.044 1855.77 1.74725 1852.25 1.74725C1850.35 1.71427 1848.45 1.54236 1846.56 1.23288C1843.93 3.39917 1841.25 5.32806 1838.54 5.18958C1837.55 5.99081 1836.68 6.6041 1836.67 6.61399C1830.3 4.99175 1829.57 3.42885 1823.01 2.47924C1826.64 0.342622 1830.71 1.87584 1834.2 2.92437C1834.01 2.72653 1833.82 2.53859 1833.64 2.32097C1833.11 1.6553 1832.68 0.923679 1832.34 0.144788H1819.07C1818.85 0.442012 1818.61 0.720013 1818.34 0.975695C1817.22 2.21516 1815.69 3.01773 1814.03 3.24209C1812.37 3.46646 1810.69 3.09825 1809.27 2.20227C1808.21 1.61866 1807.2 0.817427 1806.16 0.144788H1804.69C1803.96 1.86068 1802.61 3.24242 1800.91 4.02235C1798.88 4.88294 1797.12 3.62668 1795.32 2.54848C1795.21 3.66625 1790.69 3.82452 1788.73 2.83534C1790.21 2.24452 1791.75 1.81665 1793.32 1.55931C1793.16 1.49948 1793 1.45315 1792.83 1.42082C1789.97 0.748184 1786.9 1.78682 1783.93 2.32097C1784.11 2.3401 1784.28 2.37654 1784.45 2.42978C1784.19 3.06285 1783.47 3.20134 1782.32 2.84524C1782.4 2.71238 1782.51 2.59801 1782.64 2.50892C1782.32 2.50892 1781.99 2.58805 1781.66 2.59794C1774.55 2.90459 1767.57 1.69779 1760.52 1.53952C1757.18 1.47028 1753.39 2.5287 1750.16 0.876777C1751.03 1.94509 1749.32 4.05203 1746.58 3.03318C1746.11 2.044 1747.25 1.2131 1749.85 0.698726C1749.56 0.531747 1749.27 0.346758 1748.99 0.144788H1742.51C1742.02 1.27352 1741.13 2.1864 1740.02 2.71664C1737 3.98703 1733.69 4.37464 1730.46 3.83441C1729.46 4.10708 1728.45 4.28918 1727.43 4.37846C1727.27 4.23008 1728.23 3.98279 1729.41 3.68603C1724.86 2.89469 1720.35 1.04494 1715.79 0.144788H1706.82C1704.37 0.585612 1701.85 0.585612 1699.4 0.144788H1692.01C1691.74 0.83208 1691.4 1.4941 1691.02 2.12314C1687.76 7.58338 1681.44 5.882 1677.73 3.11231C1676.77 2.35844 1676.08 1.31902 1675.75 0.144788H1675.62C1673.91 0.208978 1672.22 0.474606 1670.58 0.936128C1667.35 1.9253 1664.51 3.16177 1661.18 2.07368C1659.84 1.49967 1658.53 0.855828 1657.26 0.144788H1654.17C1653.71 0.365076 1653.28 0.644368 1652.88 0.975695C1652.37 1.48722 1651.7 1.80595 1650.98 1.87804C1650.26 1.95013 1649.53 1.77116 1648.93 1.37136H1648.41C1648.48 1.29223 1648.56 1.25266 1648.63 1.18342C1648.26 0.896983 1647.93 0.564589 1647.64 0.194246H1626.94C1631.37 3.78495 1613.9 3.16177 1611.79 0.856994C1611.59 1.59082 1611.22 2.26558 1610.7 2.82488C1610.18 3.38417 1609.54 3.81173 1608.83 4.07181C1605.8 4.95765 1602.61 5.08337 1599.53 4.43781C1595.88 3.76517 1592.89 4.63564 1589.29 5.42698C1586.43 6.0106 1584.26 5.42698 1581.78 2.94415C1580.65 1.79461 1579.31 0.874348 1577.83 0.233813H1571.58C1571.32 0.693093 1571.01 1.11839 1570.64 1.49996C1569.65 2.48913 1567.94 3.11231 1566.81 2.36054C1566.23 1.9899 1565.61 1.69408 1564.96 1.48017C1564.66 1.42122 1564.37 1.38156 1564.07 1.36147C1563.8 1.31477 1563.54 1.23846 1563.28 1.13396C1562.35 3.19145 1560.97 4.60597 1559.45 4.329C1557.47 3.95311 1555.49 4.46748 1553.44 4.61586C1551.11 4.75164 1548.81 3.97498 1547.03 2.44957C1545.38 2.55837 1544.82 1.97476 1543.08 1.59887C1543.79 1.70768 1545.21 1.86595 1546.48 1.98465C1545.94 1.46001 1545.52 0.834767 1545.22 0.144788H1529.18C1528.89 0.839469 1528.41 1.43736 1527.79 1.86836C1527.17 2.29935 1526.45 2.54557 1525.7 2.57816C1522.26 2.57816 1518.97 1.13396 1515.62 0.144788H1512.29C1510.71 0.767968 1506.36 2.33086 1506.91 0.797643C1507.01 0.615829 1507.15 0.461117 1507.32 0.347232C1507.5 0.233347 1507.69 0.163809 1507.9 0.144788H1502.16C1500.25 0.500891 1498.35 0.876777 1496.4 1.13396C1494.93 1.26866 1493.45 1.11063 1492.04 0.66905C1492.09 0.973981 1492.2 1.26586 1492.36 1.52396C1492.53 1.78205 1492.75 2.00004 1493.02 2.16244C1493.28 2.32483 1493.57 2.42766 1493.88 2.4636C1494.18 2.49955 1494.49 2.46774 1494.78 2.37043H1494.85C1494.6 2.44957 1494.46 2.65729 1494.3 3.35961C1493.16 1.84617 1487.95 1.82639 1491.11 0.392081L1490.39 0.154679H1486.82C1485.6 1.42717 1484.01 2.28782 1482.27 2.61773C1482.99 2.73643 1483.73 2.89469 1484.5 3.06285C1481.84 3.22112 1479.02 3.34971 1477.28 2.7661C1478.1 2.53247 1478.94 2.40939 1479.8 2.40011C1479.2 2.23195 1478.61 2.02422 1478.03 1.79671C1477.37 1.4441 1476.63 1.27018 1475.88 1.29223C1476.87 1.59887 1477.2 2.0539 1476.93 2.63751C1476.62 2.53549 1476.34 2.35728 1476.11 2.11895C1475.88 1.88062 1475.72 1.5897 1475.63 1.27245C1475.56 1.27727 1475.48 1.27727 1475.41 1.27245C1473.08 2.67708 1470.78 4.02235 1468.1 3.93333C1467.37 3.89408 1466.68 3.63134 1466.12 3.18155C1463.85 3.0035 1461.7 2.10335 1459.36 1.42082C1456.76 0.66905 1454.62 1.31201 1452.03 1.9253C1449.68 2.48913 1447.28 2.91448 1444.99 1.52963C1444.46 1.13669 1443.99 0.670374 1443.59 0.144788H1439.18C1433.67 4.2103 1427.65 2.18249 1421.61 0.144788H1406.3C1405.94 0.346477 1405.53 0.459634 1405.12 0.4751C1404.7 0.490566 1404.29 0.407907 1403.91 0.233813L1405.2 0.144788H1403.04C1398.79 2.01433 1394.7 3.99268 1390.18 4.10149C1384.8 4.05299 1379.44 3.30146 1374.25 1.86595C1371.78 1.25266 1369.39 0.639375 1366.98 0.164571H1351.77C1349.05 0.510775 1346.3 0.510775 1343.59 0.164571H1336.92C1336.67 0.876777 1336.21 1.54942 1334.48 2.37043C1337.12 1.11418 1321.98 2.58805 1324.81 3.59701C1320.89 2.19513 1316.88 1.0421 1312.81 0.144788H1306.28C1305.94 1.59946 1305.1 2.89025 1303.91 3.79484C1304.59 3.97289 1304.35 4.29932 1303.19 4.78402C1301.78 4.71478 1301.21 4.54662 1301.51 4.29932C1297.05 4.2103 1292.61 3.80473 1288.14 3.46842C1287.63 4.17073 1286.67 4.45759 1284.88 3.54755C1284.7 3.45043 1284.53 3.33791 1284.37 3.21123C1283.29 3.15188 1282.21 3.07275 1281.13 3.03318C1278.01 2.82788 1274.93 2.26361 1271.94 1.35158C1270.95 2.49902 1268.73 1.85606 1268.17 0.362406L1267.46 0.174463H1260.02C1259.36 0.610597 1258.66 0.997406 1257.94 1.3318C1257.37 1.33658 1256.81 1.19706 1256.3 0.926236C1256.04 1.51369 1255.66 2.03775 1255.17 2.46276C1254.69 2.88777 1254.12 3.20378 1253.5 3.38928H1253.86C1260.79 2.40011 1260.99 9.19574 1251.33 5.87211C1248.68 4.96207 1247.87 3.77506 1250.81 3.44863C1248.41 3.40954 1246 3.23119 1243.61 2.91448C1243.26 3.31015 1242.15 3.71571 1239.93 4.33889C1239.54 3.63658 1239.77 3.02329 1240.59 2.48913C1239.32 2.2913 1238.04 2.07368 1236.77 1.85606C1236.07 2.06527 1235.4 2.37515 1234.79 2.77599C1233.89 2.01433 1233.89 1.58898 1234.79 1.49996C1231.82 0.995478 1228.94 0.510782 1226.01 0.164571H1217.19C1215.13 0.481107 1213.11 0.946019 1211.1 1.23288C1213.39 1.41776 1215.62 2.09235 1217.64 3.21123C1212.6 6.93053 1207.96 1.23288 1203.97 6.77226C1199.67 5.98092 1200.2 2.6474 1202.67 0.481107C1202.48 0.401973 1202.29 0.303056 1202.1 0.204138H1197.73L1196.41 1.84617C1194.79 2.25173 1191.88 1.89563 1190.66 2.5287C1192.37 1.53952 1192.79 0.827318 1192.44 0.204138H1186.11C1186.32 0.461324 1185.94 0.659159 1184.93 0.797643L1184.57 0.204138H1170.58C1169.41 1.3992 1167.99 2.33514 1166.44 2.95182C1164.88 3.5685 1163.21 3.85229 1161.53 3.78495C1160.79 3.89727 1160.04 3.7726 1159.37 3.42885C1158.2 3.0867 1157.11 2.50023 1156.17 1.70768C1155.51 3.02329 1157.55 4.4477 1156.89 6.0106C1155.47 9.4826 1148.5 10.0662 1152.8 14.2801C1149.33 14.7846 1140.16 12.8359 1138.95 14.013C1141.57 12.4106 1139.73 11.9654 1145.29 13.6866C1146.21 11.4412 1153.64 9.55184 1149.66 7.99884C1149.73 7.99884 1146.69 8.58245 1143.22 9.15617C1143.22 8.59234 1143.22 8.0384 1143.22 7.47457C1141.3 8.31537 1139.94 8.91877 1141.09 9.50238C1138.63 9.92742 1136.15 10.2114 1133.66 10.3531C1133.92 10.4619 1136.62 11.8072 1136.04 11.9358C1134.45 12.3017 1128.37 9.84859 1128.37 8.90888C1128.86 10.2739 1132.43 8.17689 1132.26 7.72187C1132.09 7.26685 1127.86 7.26685 1127.84 6.66345C1127.78 4.6851 1133.83 6.89096 1134.34 5.94135C1134.59 5.47644 1133.64 3.49809 1132.45 4.38835L1132.93 3.7256C1126.78 2.73643 1120.62 1.18342 1114.38 0.926236C1114.13 1.01838 1113.89 1.13088 1113.67 1.26256C1114.39 0.827318 1109 1.44061 1108.97 1.44061C1107.13 1.95498 1109.15 4.2103 1107.34 4.49716C1105.53 4.78402 1104 2.34076 1103.66 0.204138H1098.56L1098.62 0.283272C1100.73 3.34971 1091.7 5.87211 1099.49 8.19667C1098.66 8.09148 1097.83 8.10814 1097.01 8.24613C1096.76 6.91074 1093.05 7.39544 1095.31 5.80287C1088.38 6.43594 1091.47 9.57162 1095.36 8.90888C1095.21 8.99314 1095.08 9.08563 1094.95 9.18585C1088.11 8.92866 1091.11 13.3107 1086.16 14.3197C1086.23 13.6075 1085.79 11.55 1084.75 12.6183C1083.55 13.3602 1083.94 13.9339 1085.88 14.3296L1085.58 14.379C1078 17.9499 1085.52 10.3234 1082.61 9.85849C1086.21 8.09775 1095.26 4.06192 1088.31 1.83628C1090.27 1.71184 1092.18 1.13276 1093.88 0.144788H1082.9C1082.9 0.372298 1082.79 0.599808 1082.72 0.817427C1082.57 1.78799 1082.23 2.72085 1081.73 3.56733C1081.38 4.29653 1080.83 4.91058 1080.14 5.33796C1079.89 5.58674 1079.59 5.78033 1079.26 5.90638C1078.93 6.03242 1078.58 6.08813 1078.22 6.06995C1077.93 6.04019 1077.64 5.98053 1077.36 5.89189C1077.1 5.85524 1076.83 5.78889 1076.58 5.69406C1076.2 5.51251 1075.85 5.27588 1075.53 4.99175C1074.92 5.3539 1074.28 5.68407 1073.63 5.98092C1074.71 7.15804 1074.34 8.7605 1069.53 8.30548C1065.99 7.97905 1063.94 4.74445 1061.3 3.6069C1059.87 2.98372 1056.63 2.90459 1054.18 2.32097C1052.97 2.47253 1051.75 2.42575 1050.56 2.18249C1049.63 1.95218 1048.8 1.42812 1048.2 0.688834C1048.26 1.04954 1048.22 1.42078 1048.06 1.75304C1047.91 2.0853 1047.66 2.36278 1047.34 2.54848C1051.36 3.14199 1050.79 9.07704 1056.6 9.59141C1056.33 8.35494 1061.24 7.89003 1063.24 7.72187C1061.11 9.50238 1068.18 11.5599 1064.97 12.3017C1062 12.9546 1060.08 11.0059 1057.6 11.3126C1053.64 11.7478 1053.25 13.1524 1049.61 14.0328C1048.34 11.5302 1047.42 8.5231 1044.86 5.81276C1042.89 3.97266 1040.75 2.31711 1038.48 0.866885L1037.31 0.144788H1026.27C1024.11 0.649267 1021.91 1.28234 1021.57 2.72653C1021.91 2.63751 1030.77 1.00537 1028.88 1.53952C1029.27 3.00702 1030.16 4.29559 1031.39 5.18958C1028.01 2.98372 1016.24 1.57909 1020.86 5.67428C1019.87 4.6851 1026.62 4.15095 1024.95 6.26778C1021.98 9.93762 1022.32 6.26778 1015.79 7.17782C1016.39 8.08786 1018.87 8.70115 1018.49 9.65076C1017.98 10.9268 1015.7 10.2937 1014.92 11.2631C1014.93 11.0905 1014.95 10.9188 1014.98 10.7487C1014.32 10.2633 1013.52 10.0016 1012.7 10.0016C1011.88 10.0016 1011.08 10.2633 1010.41 10.7487C1008.93 10.0365 1005.93 10.0266 1004.21 9.19574C1014.66 7.70208 1004.29 7.75154 1004.21 5.34785C1004.15 3.26069 1012.47 4.11138 1011.14 0.817427C1008.03 0.817427 1003.96 2.72653 1000.49 2.2913C1001.58 1.23884 1002.93 0.497522 1004.4 0.144788H994.39C996.576 0.728401 1000.68 3.47831 995.835 4.10149C991.443 4.67521 992.234 1.43072 990.444 0.144788H989.385C986.319 1.13396 982.055 1.13396 980.295 0.144788H962.005C962.074 0.352514 962.361 0.599808 962.994 0.896561C967.178 2.87491 971.006 -0.290449 973.36 1.11418C975.408 2.35065 976.981 2.33086 980.73 3.89376C983.183 4.88294 987.051 5.87211 988.129 6.54475C986.24 6.1293 982.481 7.3262 981.482 7.53393C980.982 6.79529 980.322 6.17873 979.552 5.73006C978.781 5.28138 977.919 5.01212 977.03 4.94229C970.383 4.94229 968.256 12.5095 961.639 13.3107C965.853 13.6174 965.398 16.0606 971.036 15.6946C976.674 15.3286 971.115 15.1901 974.003 14.2109C974.271 14.1218 978.672 12.7271 978.732 12.549C979.563 9.73979 975.378 10.7784 975.378 10.6993C974.646 9.71011 982.431 10.8773 983.074 10.8674C983.697 10.3729 994.469 5.31817 996.764 7.63284C995.627 6.47551 989.959 13.1228 990.661 12.7568C988.178 14.0427 984.429 13.4096 982.748 15.1308C984.4 15.5265 976.625 14.8044 977.97 15.0418C977.982 15.4021 978.088 15.753 978.277 16.0599C978.466 16.3669 978.732 16.6194 979.048 16.7926H961.51C962.351 15.8034 964.586 15.0615 961.797 13.4591C958.552 12.5392 945.11 17.1586 955.318 11.5797C957.069 10.5905 959.472 12.1237 961.609 11.1543C963.746 10.1849 966.09 7.77133 967.168 6.76237L967.059 6.66345C972.787 7.01955 970.502 1.98465 965.437 4.98185C965.923 5.42615 966.382 5.89846 966.812 6.39637L965.269 5.00164C963.548 4.40154 961.754 3.8509 959.888 3.34971C959.126 5.74352 953.953 5.65449 951.599 5.13023C949.996 3.57722 949.996 2.03411 951.648 0.500891C953.127 1.32955 954.813 1.71421 956.505 1.60877C956.672 1.40829 956.789 1.17129 956.848 0.916945C956.906 0.662604 956.904 0.398078 956.841 0.144788H948.107C947.118 1.35158 948.73 2.21216 946.89 3.54755C945.901 4.26965 943.359 2.98372 942.409 3.92344C941.392 4.93773 940.486 6.05867 939.709 7.26685C940.311 7.16747 940.919 7.10142 941.529 7.06901C941.697 8.80007 942.844 11.6588 941.252 13.3107C937.196 11.8665 935.366 9.84859 934.07 12.8656C931.311 19.226 941.143 15.4869 946.732 15.9716C946.405 16.2486 946.039 16.5057 945.673 16.7629H932.745C929.985 16.0507 926.493 15.932 924.287 16.7629H913.209C913.397 15.1605 909.034 13.6371 907.363 15.0714C905.691 16.5057 906.374 16.6343 907.481 16.7629H900.775C901.032 15.7738 903.742 15.0319 902.753 14.0526C900.29 11.5203 898.332 13.2217 897.807 14.9527C897.743 14.9295 897.677 14.9129 897.609 14.9033C897.609 15.1308 897.609 15.3088 897.669 15.4473C897.669 15.4473 897.669 15.5067 897.669 15.5364C897.669 15.566 897.669 15.5364 897.669 15.4572C897.372 15.5561 896.927 15.6748 896.363 15.8034C896.795 15.6915 897.251 15.7157 897.669 15.8727C897.669 15.8727 897.669 15.8727 897.669 15.9419C896.025 15.8027 894.373 16.0888 892.871 16.7728H881.001C879.349 16.2683 878.33 15.9023 879.201 15.9914C886.758 16.753 887.945 13.2415 886.026 13.2316C884.414 13.5184 883.761 14.1317 884.048 15.0517C883.059 15.0517 879.567 12.2622 877.401 13.192C876.411 13.5976 875.729 14.9231 875.106 15.1704C877.964 14.29 875.383 15.8133 873.572 16.8124H864.057C863.489 16.4435 862.898 16.113 862.286 15.8232C857.815 16.8124 853.472 17.0201 852.266 14.5175C850.333 14.1628 848.34 14.3232 846.489 14.9824C846.242 14.9824 845.391 15.0714 844.194 15.2198C844.569 15.3384 844.965 15.3785 845.356 15.3377C845.748 15.2969 846.126 15.1759 846.469 14.9824C845.665 15.6771 844.801 16.2994 843.887 16.8421H831.928C835.262 16.3673 840.979 15.5957 844.194 15.2198C842.924 14.7202 841.832 13.8521 841.058 12.7271C839.387 13.3404 830.177 15.1802 829.366 16.8421H816.032C818.841 16.2486 821.641 14.7153 820.058 12.3215C819.376 13.8053 811.304 15.8925 811.472 16.4662C811.504 16.5523 811.554 16.6306 811.619 16.6955C811.684 16.7604 811.762 16.8104 811.848 16.8421H796.486C794.097 16.2349 791.595 16.2349 789.206 16.8421H778.72C778.623 16.6281 778.544 16.4064 778.483 16.1793C777.754 16.2571 777.02 16.2836 776.287 16.2584C776.589 16.4966 776.922 16.6929 777.276 16.8421H752.547C760.065 10.0069 749.48 16.0309 746.612 11.8171C745.474 10.1552 751.795 10.2739 751.706 10.6399C751.39 12.1336 754.387 7.45479 752.23 8.85942C752.468 8.71104 747.502 8.10765 748.274 7.50425C751.073 5.5259 757.621 8.29559 760.599 5.79298C760.282 5.70395 756.533 3.963 755.495 3.4882C755.712 3.22112 758.897 0.570133 758.343 1.0845C761.776 3.06285 762.092 3.59701 760.905 6.03038C764.793 7.89992 757.374 9.30455 759.263 11.9654C751.726 16.4365 787.039 14.5175 772.053 10.9763C774.487 8.9979 776.218 9.76946 779.542 10.6696C784.487 12.005 780.452 11.2137 780.531 13.1722C780.61 14.6857 793.054 12.0248 793.271 9.57162C793.459 7.77133 785.219 3.16177 782.014 2.6474C781.836 3.89376 779.858 4.83348 776.891 4.9225C778.986 5.31708 780.959 6.20174 782.648 7.50425C779.947 7.72187 775.328 6.80194 773.409 6.64367C771.586 7.1982 769.703 7.53033 767.8 7.63284C770.955 11.273 763.843 11.5895 763.843 10.1552C763.843 8.44397 766.296 7.11847 766.87 5.37752C766.87 5.31817 766.593 2.1726 766.296 0.184355H755.732C755.663 1.36147 755.574 2.53859 755.505 3.42885L755.356 3.35961C754.753 3.14199 749.916 1.38126 750.608 1.38126C745.504 1.19331 750.756 6.06995 743.199 3.43874C743.793 2.7661 744.515 3.68603 744.268 2.09346C743.011 2.37043 742.625 2.7661 743.051 3.29036C741.908 3.7858 740.815 4.3886 739.787 5.09066C739.658 5.09066 733.278 5.96114 733.96 5.79298C733.278 5.96114 727.936 7.59328 726.611 7.77133C724.019 8.05819 716.808 6.88107 715.413 7.12836C707.628 8.46375 717.599 8.11754 720.755 9.93762C723.91 11.7577 719.647 15.0319 727.234 15.8034C727.055 16.1041 726.95 16.4432 726.927 16.7926H711.734C714.701 14.8143 708.529 13.0436 708.44 12.183C709.677 11.8461 710.941 11.6145 712.218 11.4906C711.981 11.7577 708.034 7.40533 707.688 6.91075C707.628 6.81183 711.714 3.94322 711.031 4.24986C702.049 5.55558 705.798 2.21216 697.618 5.11045C696.471 5.5259 696.045 6.92064 695.125 7.76144C695.65 7.11847 690.625 8.80996 689.022 9.21552C692.979 10.3827 697.925 8.38462 701.476 9.6013C704.503 10.5905 700.991 14.1515 705.126 14.4087C701.238 13.8646 698.508 15.3484 694.838 14.6263C692.217 14.0922 692.731 11.7775 688.844 11.2334C675.985 9.42325 687.855 20.8977 671.217 14.6065C677.528 14.0427 676.163 10.7389 683.087 11.0554C682.573 8.29559 682.711 6.10951 685.867 4.97196C690.407 6.41616 691.109 6.35681 694.67 5.34785C695.897 4.99175 698.33 1.76703 698.934 0.184355H690.733C689.942 1.43072 689.675 2.73643 684.333 3.41896C681.445 3.79484 679.229 2.42978 676.529 2.56827C674.966 2.66718 673.314 5.6446 671.128 4.94229C667.399 3.69593 678.448 1.48017 678.557 1.38126C678.968 1.10187 679.252 0.67186 679.348 0.184355H674.125C673.027 2.55837 671.306 4.14105 669.179 3.62668C667.549 3.24226 665.897 2.95163 664.233 2.75621C663.867 4.22019 663.244 5.49622 661.948 5.77319C659.564 6.30735 656.379 3.43874 659.564 2.45946C659.57 2.43666 659.57 2.41301 659.564 2.39021C657.695 2.39021 655.815 2.39021 653.936 2.48913C654.371 4.02235 655.697 6.09962 654.075 6.50518C653.293 5.51601 652.017 3.94322 652.314 2.60783C651.255 2.69686 650.207 2.80567 649.148 2.93426C650.019 3.61679 649.148 3.92344 646.626 3.82452C646.448 3.99268 646.715 3.64647 647.071 3.20134C640.82 4.10149 634.568 5.55558 628.277 6.80194C630.127 7.58338 631.779 7.66252 630.671 9.57162C630.265 10.2838 624.597 13.3898 623.054 11.55C621.818 10.0365 629.978 9.82881 628.297 8.20656C627.107 8.08397 625.932 7.85218 624.785 7.51414C623.38 7.77133 621.986 7.99884 620.591 8.21646C620.253 8.44163 619.868 8.58788 619.466 8.64438C619.063 8.70088 618.654 8.66619 618.266 8.54288C616.031 8.82974 613.805 9.04736 611.57 9.14628C606.198 9.3639 600.807 9.33422 595.416 9.14628C594.464 10.469 593.227 11.5609 591.796 12.3413C587.127 13.1327 588.829 10.6103 591.796 8.9979C581.093 8.36839 570.439 7.07669 559.895 5.13023C555.828 4.35467 551.714 3.85237 547.58 3.62668C547.748 4.15095 547.095 4.61586 545.602 4.85326C545.147 5.2885 545.79 4.23008 546.68 3.58712C543.285 3.47075 539.887 3.6395 536.521 4.0916C540.765 6.27767 544.029 8.57256 541.872 8.61213C538.974 8.61213 536.778 5.90179 534.226 4.43781H534.097C531.338 4.93239 528.588 5.42698 525.828 5.882C525.973 5.94938 526.098 6.0548 526.189 6.18712C526.279 6.31944 526.332 6.47376 526.342 6.63378C528.182 6.74138 530.009 7.00947 531.803 7.43501C530.121 8.58245 524.997 6.99977 523.365 6.22821C522.059 6.38648 520.754 6.52497 519.408 6.6041C519.131 6.99977 518.419 7.23717 517.133 7.30641C517.396 7.04185 517.7 6.8214 518.033 6.65356C515.209 6.77237 512.38 6.5599 509.605 6.02049C508.804 5.85233 508.003 5.65449 507.202 5.43687C504.927 5.37752 503.097 5.58525 502.117 7.29652C500.347 3.91354 494.877 7.29652 496.558 9.8387C495.866 9.3639 494.214 9.04736 491.019 9.0078C485.786 8.93855 487.112 8.46375 485.618 10.6399C484.243 12.6183 489.644 10.8773 490.702 11.6291C492.394 12.9348 470.177 17.1091 470.128 16.575C469.781 12.8854 480.86 14.2801 481.642 10.9861C484.767 11.55 486.014 11.2235 485.351 9.99697C484.07 9.82972 482.772 10.1167 481.681 10.8081C481.632 10.5905 473.916 6.08973 477.527 6.3667C483.976 6.87118 483.026 8.22635 488.803 5.70395C490.104 5.20822 491.279 4.43136 492.245 3.42885C493.037 7.11847 500.752 5.94135 499.832 3.04307L498.576 2.58805L492.344 3.31015C493.235 2.32097 493.482 1.60877 495.609 1.52963C494.194 0.995478 492.819 0.550349 491.444 0.144788H468.159C467.477 0.659159 468.624 0.619591 466.863 2.22205C477.151 3.57722 467.724 9.75957 467.566 13.192C463.302 11.5895 466.349 8.77039 465.488 7.09869C463.787 6.71291 461.996 6.39637 460.196 6.10951C458.683 5.27861 458.792 4.39824 460.493 3.47831C460.068 2.56827 460.335 1.32191 460.493 0.115112H458.455C457.08 0.283272 455.695 0.44154 454.311 0.589916C455.508 0.866047 456.563 1.56949 457.278 2.56827C456.546 2.8856 455.788 3.1404 455.013 3.32993C449.187 6.21832 449.919 1.74725 452.659 0.728401C448.887 1.0845 445.108 1.36477 441.323 1.5692C439.206 1.8932 437.059 1.97616 434.923 1.81649C430.907 1.9286 426.887 1.9286 422.865 1.81649C422.635 2.01839 422.417 2.23305 422.212 2.45946C420.689 4.18062 424.19 5.09066 419.294 6.66345C420.283 5.53579 419.056 3.55744 417.573 1.64833C414.823 1.53952 412.063 1.40104 409.323 1.2032C408.426 1.15331 407.578 0.776838 406.939 0.144788H403.19C400.681 1.92155 397.766 3.0405 394.713 3.39917C392.101 2.33086 392.556 1.24277 393.338 0.144788H387.274C387.779 2.22205 385.84 3.29036 389.896 5.59514C388.511 4.86315 383.96 8.65169 380.924 8.31537C379.549 8.167 375.879 5.44677 374.692 4.91261C370.468 3.03318 364.8 1.64833 359.775 0.144788H358.628C358.766 2.12314 350.418 0.797643 348.993 0.144788H324.432C318.655 2.60783 312.898 5.36763 307.032 6.28756C307.113 6.39447 307.168 6.51792 307.195 6.64896C307.221 6.78 307.219 6.91532 307.186 7.0451C307.154 7.17488 307.093 7.29586 307.009 7.39923C306.924 7.50261 306.817 7.58579 306.696 7.64273C305.855 7.51962 305.072 7.14355 304.451 6.56453C302.797 6.66612 301.138 6.5765 299.505 6.29746C291.858 4.96207 283.549 -2.04129 275.903 0.856994C270.621 2.83534 266.496 3.58712 261.956 0.144788H257.821C256.832 1.06472 253.696 2.12314 250.343 1.41093C250.88 1.05741 251.366 0.631335 251.787 0.144788H242.271C243.666 0.748184 245.239 1.28234 244.695 1.95498C244.15 2.62762 239.264 2.46935 239.511 2.47924C239.612 2.15254 239.645 1.80882 239.61 1.46881C239.574 1.12881 239.47 0.799551 239.304 0.500891C231.934 1.49007 224.466 1.85606 217.186 2.25173C196.413 3.37939 175.64 5.02142 154.798 5.47644C144.484 5.80242 134.159 5.2963 123.926 3.963C120.129 3.40788 116.367 2.63171 112.659 1.63844C112.561 1.72764 112.447 1.79804 112.323 1.84617C112.183 1.74801 112.07 1.61508 111.997 1.46039C110.374 1.03505 108.752 0.589916 107.13 0.144788H83.5777C82.6973 1.28234 79.799 3.21123 78.8692 2.21216C79.5221 1.13396 79.799 0.500891 80.076 0.144788H54.7333C36.5919 4.64553 18.4801 10.1453 0.388062 4.10149V26.6448H1899.6ZM956.337 7.71198C959.828 8.77039 956.93 9.23531 957.741 9.69033C957.207 9.37379 955.446 6.92064 956.337 7.71198ZM946.059 13.647C947.691 12.549 943.636 7.90981 941.657 7.04923C942.251 6.92064 949.571 5.07088 948.186 7.17782C947.454 7.49436 946.702 7.78122 945.921 8.07797C944.724 9.43314 952.43 9.06715 950.867 9.1166C951.836 10.1651 950.619 14.0427 946.039 13.6371L946.059 13.647ZM788.652 10.3531C788.385 11.0158 787.663 11.1444 786.495 10.7487C786.782 10.1157 787.494 10.0365 788.652 10.3531ZM701.535 5.99081C700.071 6.62388 699.25 6.49529 699.072 5.65449C700.259 5.61493 702.999 5.49622 701.535 5.99081ZM487.893 0.629483C487.411 0.829608 486.892 0.925153 486.37 0.909807C485.848 0.894461 485.336 0.768572 484.866 0.540458C485.862 0.27234 486.915 0.303302 487.893 0.629483ZM473.827 10.1948C475.667 10.7949 475.479 11.4082 473.263 12.0347C472.294 11.4807 472.482 10.8773 473.827 10.1948ZM204.94 10.4025C203.555 11.8368 200.765 13.5679 200.043 14.5373C198.619 13.7558 200.736 9.78924 204.94 10.4025ZM213.615 15.9419C213.377 15.4078 213.615 14.9527 214.426 14.5472C214.727 14.8191 214.944 15.1703 215.055 15.5604C215.165 15.9506 215.163 16.364 215.049 16.753H213.694C213.357 16.3574 213.17 15.9716 213.615 15.9716V15.9419ZM317.973 13.5778C318.836 13.3831 319.736 13.431 320.574 13.7163C319.709 13.8819 318.816 13.8343 317.973 13.5778ZM331.524 15.9716C332.998 16.0174 334.458 16.2773 335.857 16.7431H328.586C327.686 16.1002 327.993 15.6551 331.524 15.9716ZM345.076 8.37472C342.722 7.38555 342.91 6.88107 345.64 6.76237C345.857 7.21739 346.105 7.67241 346.312 8.14721C345.912 8.2787 345.497 8.35848 345.076 8.38461V8.37472ZM341.653 16.753C341.864 16.5631 342.093 16.3941 342.336 16.2486C342.946 16.3068 343.539 16.4779 344.087 16.753H341.653ZM639.286 16.753H633.035C633.846 16.12 639.069 15.7639 641.73 15.0022C640.957 15.637 640.144 16.2218 639.296 16.753H639.286ZM666.746 13.5283C666.881 13.1523 666.964 12.7596 666.993 12.3611C667.527 12.8359 666.696 14.0922 666.004 14.567C665.025 14.0526 665.272 13.7163 666.756 13.5283H666.746ZM1071.66 16.1299C1072.94 15.754 1073.64 15.9023 1073.74 16.575C1073.51 16.6529 1073.27 16.7124 1073.03 16.753H1072.32C1072.16 16.722 1072.02 16.6468 1071.9 16.5365C1071.78 16.4261 1071.7 16.285 1071.66 16.1299ZM1119.86 12.46C1118.26 12.0545 1118.05 11.6093 1119.23 11.1147C1119.92 11.6786 1124.85 15.0714 1124.48 15.4473C1122.8 15.8549 1121.05 15.8105 1119.39 15.3187C1121.71 13.9932 1122.89 13.6866 1119.87 12.46H1119.86ZM1225.13 12.737C1231.95 13.3305 1230.27 15.1802 1230.17 16.753H1226.71C1225.87 15.5574 1225.33 14.1811 1225.14 12.737H1225.13ZM1198.17 16.753H1196.59C1196.99 16.6495 1197.39 16.5833 1197.8 16.5552C1198.13 16.5255 1198.21 16.6146 1198.18 16.753H1198.17ZM1310.06 15.1605C1311.71 14.8446 1313.39 14.7251 1315.07 14.8044C1314.62 16.0309 1311.57 15.5759 1310.06 15.1605ZM1318.96 12.5589C1319.58 13.0041 1319.61 13.469 1318.96 13.9537C1317.39 13.6272 1317.39 13.1623 1318.96 12.5589ZM1327.86 12.8062C1328.2 12.6373 1328.57 12.5437 1328.95 12.5317C1329.32 12.5198 1329.7 12.5898 1330.05 12.737C1329.75 13.0036 1329.37 13.1568 1328.97 13.1694C1328.57 13.1821 1328.18 13.0535 1327.86 12.8062ZM1291.42 16.7629C1291.7 16.1793 1292.26 15.7738 1293.47 15.9122C1293.72 15.9251 1293.95 16.0134 1294.15 16.1655C1294.35 16.3176 1294.49 16.526 1294.57 16.7629H1291.42ZM1538.9 15.8529C1539.56 15.5125 1540.28 15.3138 1541.02 15.2695C1541.76 15.2252 1542.5 15.3363 1543.19 15.5957C1542.18 16.5948 1540.74 16.664 1538.93 15.843L1538.9 15.8529ZM1780.1 16.7629H1778.45C1778.86 16.2055 1779.2 15.5929 1779.44 14.9428C1780.06 15.5462 1780.5 16.1793 1780.13 16.753L1780.1 16.7629ZM1898.36 15.3286L1896.61 16.2584C1895.06 14.9824 1895.5 14.4878 1898.39 15.3187L1898.36 15.3286ZM1894.02 10.9763C1895.06 11.4313 1894.88 11.7577 1893.41 11.9654C1891.69 11.5599 1891.94 11.2334 1894.05 10.9664L1894.02 10.9763ZM1886.27 12.5589C1893.83 13.2019 1892.66 17.1982 1888.94 15.843C1884.1 14.0823 1886.46 13.8646 1884.98 11.6588C1879.76 3.38928 1887.99 6.34691 1886.3 12.549L1886.27 12.5589ZM1873.16 4.74445C1872.96 4.94229 1874.55 5.27861 1872.71 6.1194C1871.41 6.69313 1870.6 6.7228 1870.26 6.18865C1874.92 6.21832 1871.5 6.07984 1873.19 4.73456L1873.16 4.74445ZM1863.84 9.04736C1860.16 9.43314 1860.03 9.74968 1857.17 9.13639C1859.3 6.41616 1860.76 6.86129 1863.84 9.04736ZM1850.77 13.7361C1851.68 13.6075 1852.63 13.4987 1853.55 13.3799C1856.41 13.0832 1852.71 13.8548 1850.77 13.7262V13.7361ZM1849.38 8.05819L1852.93 9.53206C1848.07 10.8674 1846.4 9.8387 1849.38 8.05819ZM1843.45 6.9602C1844.72 7.37566 1844.7 7.94938 1843.32 8.78028C1841.45 8.25602 1841.48 7.64273 1843.42 6.94042L1843.45 6.9602ZM1845.43 13.9537C1844.27 17.3663 1840.81 14.745 1840.48 14.102C1842.09 14.6427 1843.85 14.583 1845.42 13.9339L1845.43 13.9537ZM1830.85 9.0078C1828.53 8.60223 1827.1 7.88014 1826.5 6.85139C1828.82 6.92064 1832.34 7.53393 1830.84 8.93855L1830.85 9.0078ZM1816.68 9.61119C1817.27 9.38615 1817.9 9.28495 1818.53 9.31388C1819.17 9.34281 1819.78 9.50125 1820.35 9.77935C1819.13 10.0671 1817.85 9.98446 1816.67 9.54195L1816.68 9.61119ZM1819.48 2.93426C1819.72 3.59701 1819.34 4.16084 1818.32 4.63564C1814.8 4.03225 1819.39 2.84524 1819.48 2.93426ZM1816.16 6.16886C1817.45 7.09869 1818.51 7.34598 1819.32 6.86129C1817.75 8.18678 1816.79 8.93855 1816.27 9.3639C1815.1 8.31537 1815.05 7.24706 1816.18 6.16886H1816.16ZM1811.21 14.0823C1810.43 13.558 1810.81 13.2514 1812.29 13.1722C1813.18 13.7163 1812.83 13.9932 1811.24 14.0526L1811.21 14.0823ZM1808.37 6.62388C1812.09 6.62388 1812.01 14.4779 1806.39 10.0365H1806.44C1805.87 8.93855 1803.3 6.55464 1808.4 6.59421L1808.37 6.62388ZM1806.19 10.0365C1805.43 10.7784 1804.3 10.9268 1802.79 10.452C1803.89 10.1105 1805.04 9.96975 1806.19 10.0365ZM1803.87 12.3215C1807.12 13.7262 1804.86 15.7441 1802.21 16.7827H1798.18C1800.16 15.3891 1802.06 13.8899 1803.87 12.2919V12.3215ZM1797.28 6.56453C1796.79 6.90085 1796.29 7.24706 1795.8 7.55371C1795.5 7.54382 1796.02 6.40627 1797.28 6.53486V6.56453ZM1788.03 13.3008C1789.64 14.8835 1789.67 15.4275 1786.7 16.6047C1785.51 15.2099 1785.94 14.1119 1788.03 13.2711V13.3008ZM1780.41 9.73979C1780.71 10.1849 1777.06 12.7667 1776.25 10.818C1775.3 11.1694 1774.26 11.1972 1773.29 10.8971C1773.46 10.5905 1778.43 10.1552 1780.41 9.71011V9.73979ZM1768.26 10.0959C1769.09 10.5113 1769.04 10.9169 1768.17 11.3027C1767.36 10.8477 1767.39 10.4619 1768.26 10.0365V10.0959ZM1754.98 2.70675C1756.03 2.10335 1754.12 4.329 1753.99 4.6851C1753.28 3.92344 1753.59 3.2508 1754.98 2.67708V2.70675ZM1756.51 10.5509L1751.23 8.72093C1755.57 5.90179 1756.17 10.4124 1756.51 10.5212V10.5509ZM1748.44 9.56173C1749.55 10.3036 1749.31 10.9565 1747.72 11.5401C1746.39 12.0149 1748.09 9.91784 1748.44 9.56173ZM1743.02 12.2325C1744.33 12.737 1745 13.3701 1745 14.1317C1745.04 13.8745 1741.02 13.1327 1743.02 12.2325ZM1742.47 5.01153L1744.83 4.88294C1744.57 5.29839 1741.09 8.63191 1742.2 8.9979C1740.76 8.55277 1742.86 4.10149 1742.47 5.01153ZM1733.22 8.05819C1736.07 6.89096 1736.35 9.86838 1734.95 10.6202C1732.96 9.93762 1732.35 9.04736 1733.22 8.05819ZM1734.98 10.7784C1735.35 11.7676 1734.59 12.3512 1732.59 12.4798C1732.64 11.7577 1733.42 11.184 1734.98 10.8081V10.7784ZM1711.24 10.8378C1712.39 11.5302 1712.08 12.1929 1710.25 12.8161C1709.02 12.1039 1709.38 11.4313 1711.27 10.8674L1711.24 10.8378ZM1704.54 2.37043C1706.78 2.1726 1704.68 5.01153 1704.54 5.10055C1703.51 4.65317 1702.46 4.26025 1701.38 3.92344C1700.68 4.29932 1702.35 2.58805 1704.57 2.40011L1704.54 2.37043ZM1702.92 13.2514L1700.87 12.7172C1702.98 12.2028 1705.22 12.0149 1702.95 13.3206L1702.92 13.2514ZM1681.37 7.40533C1679.92 7.77133 1678.97 7.50425 1678.56 6.61399C1680.24 6.23811 1681.19 6.50518 1681.4 7.47457L1681.37 7.40533ZM1674.55 9.03747C1675.54 9.72 1674.66 11.6687 1672.77 9.84859L1674.55 9.03747ZM1665.5 9.72989C1663.81 9.77091 1662.13 9.48887 1660.55 8.89899C1663.13 7.94938 1665.63 8.05819 1665.53 9.79914L1665.5 9.72989ZM1644.2 6.50518C1644.85 6.80194 1644.53 7.81089 1643.74 8.48353C1642.48 7.75154 1642.64 7.06901 1644.2 6.50518ZM1632.97 4.15095C1631.73 4.72467 1630.99 4.58618 1630.68 3.73549C1632.41 3.21123 1633.16 3.34971 1632.97 4.15095ZM1603.1 5.73363C1601.95 5.73363 1600.81 5.73363 1599.67 5.65449C1600.71 5.69406 1602.24 5.72373 1603.1 5.73363ZM1565.42 5.87211C1565.69 6.20843 1565.42 6.56453 1565.09 6.86129C1564.49 6.4854 1564.57 6.15897 1565.42 5.87211ZM1563.86 9.58152C1565.2 9.17595 1566.77 11.9456 1565.09 12.4501C1563.08 12.094 1561.64 10.2443 1563.86 9.58152ZM1557.13 6.76237C1557.97 7.27674 1557.7 7.61306 1556.32 7.75154C1555.43 7.17782 1555.7 6.85139 1557.13 6.76237ZM1546.9 8.34505C1540.74 7.87024 1542.41 6.19854 1541.32 4.38835C1546.03 3.87398 1546.66 6.86129 1546.9 8.34505ZM1540.23 13.9042C1539.55 14.0382 1538.86 14.1209 1538.17 14.1515C1538.82 13.8774 1539.53 13.7917 1540.23 13.9042ZM1525.86 2.93426C1527.38 3.14199 1527.46 3.54755 1526.06 4.15095C1523.72 3.98279 1523.66 3.57722 1525.86 2.93426ZM1527.06 11.0752C1528.36 11.5895 1525.27 13.9141 1524.65 13.8548C1523.94 13.2413 1523.3 12.5587 1522.73 11.8171C1524.02 11.0244 1525.58 10.7588 1527.06 11.0752ZM1510.67 4.15095C1510.83 4.96207 1510.24 5.14012 1508.91 4.55651C1509.05 3.82452 1509.64 3.68603 1510.67 4.15095ZM1497.01 1.99454C1496.41 2.2002 1495.78 2.30384 1495.14 2.30119C1495.74 2.21216 1496.37 2.12314 1497.01 1.99454ZM1490.09 5.56547C1489.39 5.85757 1488.63 6.00053 1487.88 5.9852C1487.12 5.96987 1486.37 5.79659 1485.68 5.47644C1487.83 4.45759 1489.72 5.56547 1490.09 5.56547ZM1484.85 8.36483C1487.71 9.35401 1486.63 12.549 1482.58 12.1039C1482.9 11.5599 1483.23 11.0059 1483.57 10.4619C1482.24 9.1166 1482.67 8.42418 1484.86 8.36483H1484.85ZM1478.34 4.86315C1480.32 5.21926 1480.56 5.71384 1479.18 6.32713C1477.54 5.92157 1477.28 5.42698 1478.35 4.86315H1478.34ZM1464.44 8.58245C1469.32 8.71104 1469.27 9.78924 1466.33 11.3719C1466.7 12.2226 1466.09 12.8359 1464.47 13.2217C1464.18 13.0041 1464.98 9.71011 1464.45 8.58245H1464.44ZM1469.32 16.4266C1466.9 16.5156 1465.22 16.6739 1463.2 16.7036C1465.22 16.365 1467.27 16.272 1469.31 16.4266H1469.32ZM1459.17 12.7172C1459.33 12.1929 1460.06 11.9061 1461.39 11.8171C1462.28 11.4807 1460.91 12.7864 1459.18 12.7172H1459.17ZM1458.88 10.3234C1457.89 9.87827 1457.89 9.43314 1458.82 8.96823C1459.94 9.40347 1459.97 9.86838 1458.89 10.3234H1458.88ZM1459.61 3.21123C1457.63 4.14105 1456.34 4.02235 1456.64 5.45666C1455.18 5.17969 1454.48 4.6851 1454.53 3.97289C1454.62 2.42978 1457.78 2.73643 1459.62 3.21123H1459.61ZM1445.16 5.35774L1449.26 4.78402C1449.47 4.94314 1449.62 5.16036 1449.7 5.4072C1447.65 6.16886 1444.9 7.06901 1445.17 5.35774H1445.16ZM1444.27 10.996C1443.27 11.1331 1442.26 10.9531 1441.38 10.4817C1440.09 10.3729 1446.06 10.729 1444.28 11.0257L1444.27 10.996ZM1445.13 16.753H1440.53C1440.02 16.0649 1439.58 15.3256 1439.22 14.5472H1439.44C1441.44 14.99 1443.36 15.7338 1445.14 16.753H1445.13ZM1439.38 1.85606C1438.22 2.39021 1437.68 2.26162 1437.74 1.49996C1438.98 0.916344 1439.56 1.03505 1439.39 1.85606H1439.38ZM1433.65 8.78028C1433.26 9.28476 1433.65 10.2047 1433.57 10.3827C1430.91 10.1651 1432.83 9.37379 1433.7 8.82974L1433.65 8.78028ZM1436.71 14.013C1434.52 14.201 1431.76 14.379 1430.98 13.8844C1429.35 12.8557 1433.7 13.5085 1436.72 14.0625L1436.71 14.013ZM1424.71 3.11231C1427.25 3.66625 1422.97 5.4072 1422.3 5.71384C1422.53 4.37846 1423.67 2.87491 1424.71 3.11231ZM1422.28 5.85233C1422.75 6.29313 1423.06 6.8891 1423.14 7.53393C1422.39 7.30641 1422.17 6.62388 1422.28 5.84244V5.85233ZM1416.8 2.51881C1418.33 3.06285 1418.25 3.38928 1416.5 3.50798C1414.31 2.89469 1414.39 2.56827 1416.8 2.50892V2.51881ZM1404.54 11.7379C1401.86 15.0517 1398.36 9.1166 1398.33 9.06715C1398.95 9.17596 1403.89 12.549 1404.54 11.728V11.7379ZM1384.37 11.1642C1384.37 12.1039 1383.53 12.1534 1381.7 11.3521C1382.09 11.0879 1382.54 10.9305 1383.01 10.8958C1383.48 10.8611 1383.95 10.9502 1384.37 11.1543V11.1642ZM1374.68 5.50612C1376.33 5.3788 1377.98 5.76585 1379.4 6.61399C1377.76 6.92064 1376.05 7.21739 1374.35 7.46468C1373.65 8.42446 1372.64 9.1208 1371.49 9.44303C1372.76 8.63191 1373.03 6.21832 1374.68 5.49622V5.50612ZM1365.15 11.3917C1364.02 12.3809 1363.28 12.3809 1362.96 11.4609C1364.12 10.4817 1364.86 10.4619 1365.15 11.3818V11.3917ZM1355.43 14.5571C1356.32 14.7747 1356.32 15.0912 1355.48 15.4968C1354.57 15.2693 1354.57 14.9824 1355.43 14.5472V14.5571ZM1347 4.03225C1348.59 3.80474 1348.61 5.58525 1348.38 7.06901C1345.6 5.95125 1345.12 4.93239 1347 4.02235V4.03225ZM1348.35 7.23717C1348.24 7.81649 1348.1 8.38821 1347.92 8.94844C1345.41 9.75957 1341.77 10.7092 1341.77 11.728C1339.53 11.2334 1345.27 7.78122 1348.35 7.22728V7.23717ZM1340.77 2.84524C1342.68 2.99361 1343.28 3.37939 1342.5 3.99268C1340.39 3.93333 1339.8 3.55744 1340.77 2.83534V2.84524ZM1333.85 8.95834C1329.89 9.06715 1327.85 8.49342 1327.71 7.26685C1328.48 6.19854 1337.99 7.21739 1333.89 8.94844L1333.85 8.95834ZM1321.4 6.81183C1323.51 8.36483 1313.05 7.69219 1312.13 7.18771C1313.02 5.81276 1320.09 5.79298 1321.44 6.80194L1321.4 6.81183ZM1311.97 4.10149C1312.61 4.10149 1311.48 4.97196 1310.37 5.31817C1309.72 5.47644 1311.34 4.24986 1311.97 4.10149ZM1312.2 12.549C1311.23 13.2118 1310.42 14.0756 1309.82 15.0813L1307.61 14.3493C1308.39 13.0041 1309.91 12.4204 1312.2 12.549ZM1304.05 10.7487C1302.94 11.184 1302.21 11.0752 1301.84 10.4619C1301.99 10.3186 1302.18 10.2113 1302.38 10.1474C1302.58 10.0835 1302.8 10.0645 1303.01 10.0918C1303.22 10.1191 1303.42 10.192 1303.6 10.3055C1303.78 10.4189 1303.94 10.5702 1304.05 10.7487ZM1302.07 14.4581C1304.45 15.2198 1302.07 17.4257 1300.48 15.7639C1300.98 15.3385 1301.51 14.8934 1302.05 14.4581H1302.07ZM1295.08 12.2325C1293.27 11.5005 1293.89 8.10765 1294.19 9.26498C1296.66 10.2937 1296.95 11.2829 1295.06 12.2325H1295.08ZM1295.38 4.49716C1296.67 5.32806 1296.37 7.75154 1292.03 6.86129C1290.74 5.79298 1291.87 5.01153 1295.36 4.49716H1295.38ZM1283.6 5.99081C1284.74 5.81276 1285.92 5.66438 1287.12 5.55557C1289.95 5.6446 1283.16 13.1821 1280.39 11.4906C1281.3 12.0742 1284.19 6.29746 1283.58 5.99081H1283.6ZM1262.09 11.1048C1262.68 11.2928 1274.4 7.72187 1272.49 12.2226C1272.72 11.6786 1266.87 13.9339 1266.55 14.0922C1265.56 11.7874 1257.31 12.9546 1256.13 14.5966C1254.59 14.2109 1253.75 13.6075 1253.58 12.737C1253.19 8.12743 1259.8 10.4322 1262.07 11.1048H1262.09ZM1247.25 8.51321C1248.11 9.06715 1247.82 9.50238 1246.41 9.69033C1245.14 8.85942 1245.41 8.47364 1247.22 8.51321H1247.25ZM1239.45 8.98801C1242.57 7.63284 1246.01 11.2433 1242.42 11.55C1239.82 11.4214 1238.84 10.5608 1239.42 8.98801H1239.45ZM1239.81 16.753H1236.56C1236.26 16.387 1236.56 15.9914 1238.48 15.3187C1239.55 15.7935 1239.98 16.2584 1239.82 16.753H1239.81ZM1238.12 13.0041L1235.8 13.7361C1235.53 13.7211 1235.27 13.651 1235.02 13.5302C1234.78 13.4095 1234.57 13.2405 1234.39 13.0337C1234.89 12.5457 1235.56 12.2697 1236.25 12.2641C1236.95 12.2586 1237.62 12.5239 1238.12 13.0041ZM1233.97 8.17689C1232.22 8.71628 1230.36 8.75058 1228.6 8.27581C1230.92 7.30641 1231.55 6.99977 1233.97 8.17689ZM1217.82 3.23101C1220.5 -0.725687 1223.92 3.66625 1226.81 5.08077C1226.97 3.95311 1228.05 3.10242 1230.05 2.44957C1230.98 3.04307 1227.45 5.70395 1228.07 8.11754C1224.37 7.12836 1220.58 4.89283 1217.84 3.23101H1217.82ZM1211.5 14.3691C1213.07 14.4779 1213.36 14.8241 1212.39 15.3583C1210.88 15.3088 1210.58 14.9824 1211.5 14.3889V14.3691ZM1209.59 8.72093C1209.4 8.55278 1206.04 11.8368 1205.86 11.8072L1203.64 10.9466C1201.97 12.0149 1208.17 7.59327 1209.59 8.74072V8.72093ZM1201.89 9.33422C1201.25 9.81682 1200.52 10.1553 1199.74 10.3261C1198.96 10.497 1198.16 10.496 1197.38 10.3234C1197.29 10.2739 1198.16 6.57443 1201.89 9.35401V9.33422ZM1195.95 7.27674C1194.61 8.20656 1193.58 8.08786 1192.91 6.90085C1194.63 6.07984 1195.66 6.18865 1196 7.29652L1195.95 7.27674ZM1190.37 9.86838C1195.9 10.3432 1191.9 14.4878 1191.71 12.8359C1189.38 12.094 1188.93 11.095 1190.37 9.86838ZM1182.67 13.192C1183.81 12.549 1184.34 12.6875 1184.31 13.6174C1183.08 14.1119 1182.53 13.9932 1182.64 13.192H1182.67ZM1171.03 10.0365C1175.27 12.2028 1174.6 11.6588 1171.43 13.4195C1168.9 11.7478 1168.17 12.094 1171.03 10.0365ZM1159.16 14.5867C1161.74 13.4393 1163.11 15.0912 1163.81 16.7234H1160.38C1159.78 15.9716 1158.91 14.7351 1159.18 14.6164L1159.16 14.5867ZM1148.41 15.3187C1149.46 15.5364 1148.41 16.3079 1148.18 16.7234H1148.03C1147.64 16.2782 1147.74 15.8034 1148.43 15.3484L1148.41 15.3187ZM1131.6 15.8133C1131.72 15.9285 1131.81 16.0724 1131.86 16.2315C1131.91 16.3906 1131.92 16.5598 1131.89 16.7234H1130.68C1130.87 16.3162 1131.22 16.0004 1131.64 15.843L1131.6 15.8133ZM1125.66 2.95404C1125.15 3.25409 1124.57 3.44489 1123.98 3.51464C1123.39 3.5844 1122.78 3.53163 1122.21 3.35961C1122.57 2.39021 1123.71 2.25173 1125.67 2.94415L1125.66 2.95404ZM1118.64 7.31631C1120.06 7.28244 1121.46 7.07311 1122.82 6.69313C1122.73 6.51507 1123.29 8.57256 1122.04 8.22635C1117.45 7.00966 1119.48 7.801 1116.11 7.23717C1116.51 7.05026 1116.95 6.95919 1117.39 6.97121C1117.83 6.98323 1118.26 7.09801 1118.65 7.30641L1118.64 7.31631ZM1114.57 10.8872C1114.22 11.2209 1113.76 11.4222 1113.28 11.4565C1112.8 11.4908 1112.32 11.356 1111.92 11.0752C1112.3 10.7943 1112.75 10.6266 1113.22 10.5916C1113.69 10.5565 1114.16 10.6556 1114.58 10.8773L1114.57 10.8872ZM1109.76 13.192C1111.6 13.8152 1112.38 14.6857 1112.11 15.7935C1109.14 17.7917 1108.5 14.2603 1109.77 13.1821L1109.76 13.192ZM1098.8 4.62575C1099.02 3.90365 1099.72 3.78495 1100.88 4.23997C1100.68 4.87304 1099.96 5.01153 1098.81 4.61586L1098.8 4.62575ZM1105.57 9.13639C1105.57 9.75957 1099.12 13.4294 1099.31 12.3413C1099.36 11.9456 1104.24 9.69033 1105.58 9.1265L1105.57 9.13639ZM1090.54 15.6847C1092 15.7639 1092.3 16.0507 1091.4 16.5651C1089.82 16.5354 1089.55 16.2486 1090.55 15.6748L1090.54 15.6847ZM1068.32 14.2207C1069.24 13.5184 1070.48 11.1444 1072.05 10.7982C1076.77 9.72989 1075.15 12.2028 1073.61 13.3799C1071.36 13.7362 1069.15 14.3263 1067.03 15.1407C1065.55 15.7756 1063.91 15.9513 1062.33 15.6452C1065.36 14.8143 1066.33 15.7441 1068.33 14.2109L1068.32 14.2207ZM1044.58 16.3079C1045.23 16.4068 1045.43 16.5651 1045.32 16.7629H1035.94L1036.1 16.6244C1038.93 16.2978 1041.78 16.1887 1044.62 16.298L1044.58 16.3079ZM1040.46 5.78309C1040.21 6.77226 1039.1 7.37566 1038.05 8.18678C1037.3 7.5825 1036.6 6.92107 1035.96 6.20843C1037.4 5.66838 1038.97 5.5183 1040.5 5.77319L1040.46 5.78309ZM1028.84 9.64087C1033.79 9.39357 1035.35 10.2245 1041.88 12.549C1036.76 14.4186 1035.35 13.924 1033.09 10.7982C1028.8 13.2217 1028.8 9.63098 1028.88 9.63098L1028.84 9.64087ZM1027.85 12.9348C1031.81 14.1515 1032.8 15.2594 1030.82 16.2288C1028.39 16.3475 1026.56 15.9023 1025.4 14.9132C1025.37 13.9932 1026.21 13.281 1027.88 12.9249L1027.85 12.9348ZM1014.74 12.4501C1014.74 12.2622 1014.74 12.0841 1014.81 11.9061C1022.18 11.9061 1020.52 12.094 1019.08 13.9735C1017.26 16.298 1014.14 12.2622 1014.77 12.4402L1014.74 12.4501ZM1008.1 16.7629H1002.23C1004.5 15.1605 1008.57 14.6857 1008.13 16.753L1008.1 16.7629ZM993.817 14.4977C995.617 14.9824 998.535 16.8025 993.569 16.6047C993.564 16.6573 993.564 16.7103 993.569 16.7629H993.431C993.625 16.0157 993.763 15.2553 993.846 14.4878L993.817 14.4977ZM743.061 3.2508L743.179 3.37939L743.001 3.31015L743.061 3.2508ZM743.674 7.13826C745.138 7.61306 745.158 8.12743 743.674 8.65169C742.754 8.25602 742.754 7.75154 743.674 7.13826ZM731.121 15.7639C731.121 14.9824 735.078 9.21552 737.254 9.82881C738.926 10.2443 738.006 12.7963 740.41 12.6974C740.932 12.6012 741.41 12.3414 741.775 11.9555C741.696 12.9447 743.1 13.5283 739.114 15.2099C745.613 15.2099 745.919 15.7836 744.614 16.8025H739.421C737.69 15.0615 736.631 13.7855 731.121 15.7639ZM693.068 16.753H691.633C691.366 16.7036 691.099 16.6442 690.812 16.6047C691.406 16.6244 692.178 16.6739 693.068 16.753ZM678.586 6.66345C683.038 7.0789 678.745 7.85046 679.15 7.97905C677.7 7.70662 676.232 7.53804 674.758 7.47457C675.856 7.26685 676.598 6.4854 678.586 6.66345ZM672.651 7.17782C672.869 7.26536 673.094 7.33484 673.324 7.38555L670.851 7.26685C671.474 7.22728 672.038 7.18771 672.671 7.17782H672.651ZM669.407 7.37566C669.941 8.14721 673.086 10.3432 671.791 10.4421C669.595 10.5509 667.25 7.801 662.443 8.30548C664.678 7.99884 667.013 7.61306 669.427 7.37566H669.407ZM663.956 16.5057C664.274 16.554 664.586 16.637 664.886 16.753H652.828C652.97 16.6224 653.079 16.4595 653.145 16.2782C652.957 16.2782 652.156 16.5156 651.077 16.753H644.677C644.677 15.6748 649.9 15.2891 650.316 15.022C656.122 17.851 657.398 15.4078 663.976 16.5057H663.956ZM652.086 8.70115C652.007 8.70115 655.38 9.69033 656.904 10.0365C656.973 10.3135 657.893 10.9268 657.893 10.9565C649.366 10.7389 642.254 11.5797 649.277 6.55464C650.701 7.34598 651.76 8.57256 652.126 8.70115H652.086ZM640.592 5.91168C640.839 5.72373 645.182 6.69313 645.132 6.68323C645.677 6.22354 646.353 5.94818 647.064 5.89664C647.775 5.84511 648.484 6.02005 649.089 6.39637C646.537 6.79204 637.842 7.99884 640.592 5.91168ZM642.244 11.728C643.144 13.5877 645.726 13.7064 643.233 13.8548C642.838 12.8656 641.591 12.5392 640.008 12.5886C640.797 12.4288 641.552 12.1379 642.244 11.728ZM637.298 8.10765C637.344 8.40495 637.464 8.68586 637.648 8.92445C637.831 9.16303 638.071 9.35159 638.347 9.47271C637.071 9.04736 635.933 8.61213 637.278 8.10765H637.298ZM636.428 11.2433C636.029 11.6786 635.717 12.1854 635.508 12.737C636.135 12.812 636.765 12.8549 637.397 12.8656C634.815 13.2612 632.164 13.8548 631.215 13.3008C629.335 12.1138 635.092 11.1939 636.428 11.2433ZM626.318 16.753H623.113C621.108 16.3562 619.165 15.6907 617.337 14.7747C622.421 12.7667 625.339 13.9932 626.358 16.753H626.318ZM601.302 11.3917C605.912 11.0554 610.027 14.6263 608.968 16.753H605.763C608.009 13.7855 602.529 10.6795 598.72 14.7747C604.655 15.6946 601.46 16.4266 598.72 16.753H596.198C596.173 16.0605 596.287 15.37 596.534 14.7224C596.781 14.0749 597.155 13.4835 597.635 12.9834C598.115 12.4834 598.69 12.0848 599.327 11.8114C599.963 11.5379 600.649 11.3952 601.342 11.3917H601.302ZM590.827 15.4078C592.637 15.8331 592.934 16.1299 591.667 16.3277C589.837 15.9716 589.57 15.6551 590.866 15.4078H590.827ZM577.681 9.47271C579.995 7.86035 583.616 12.3809 582.864 11.5994C582.235 11.4915 581.593 11.4915 580.965 11.5994C578.462 11.2532 577.334 10.5707 577.72 9.47271H577.681ZM579.224 12.4402C582.547 12.9249 584.763 13.8548 585.861 15.2495C584.214 15.4405 582.617 15.937 581.153 16.7135H578.432C577.868 16.5552 577.176 16.3376 576.276 16.021C571.271 14.29 574.743 14.1218 579.263 12.4798L579.224 12.4402ZM569.5 14.7747C567.908 13.9932 567.126 13.014 567.096 11.8072C573.12 9.39357 571.399 13.7064 569.54 14.8143L569.5 14.7747ZM566.236 10.2838C565.803 10.5104 565.311 10.5969 564.827 10.5313C564.343 10.4657 563.892 10.2513 563.535 9.91784C564.762 9.15617 565.652 9.28476 566.275 10.3234L566.236 10.2838ZM559.776 6.54475C557.076 6.9602 555.622 6.76237 555.404 5.91168C556.097 5.09066 561.112 6.77226 559.816 6.58432L559.776 6.54475ZM536.521 9.87827C535.977 10.7982 535.532 10.7784 535.304 9.80903C535.819 8.8891 536.224 8.90888 536.521 9.87827ZM538.598 13.1821C536.471 13.3997 548.727 13.2612 543.969 12.1929C545.267 12.3162 546.573 12.0837 547.748 11.5203C548.262 11.6192 549.103 15.8034 557.145 13.558C558.303 15.1209 558.134 16.1397 557.244 16.7135H551.23C549.938 16.345 548.728 15.7304 547.669 14.9033C547.263 16.5255 537.441 16.7234 534.632 15.7639C534.613 14.7748 534.938 13.8099 535.552 13.0337C534.859 13.2394 534.132 13.2999 533.416 13.2114C532.699 13.1228 532.008 12.8873 531.387 12.5194C534.543 12.2028 535.245 13.5283 538.569 13.1821H538.598ZM527.777 14.9132C526.204 16.4167 525.205 16.664 524.809 15.6551C525.172 15.2562 525.644 14.973 526.166 14.8411C526.689 14.7091 527.239 14.7342 527.747 14.9132H527.777ZM525.314 10.8872C524.779 11.5698 524.156 11.5104 523.503 10.6993C524.265 10.1157 524.859 10.1849 525.284 10.8872H525.314ZM515.303 12.6875C513.819 13.192 520.111 14.6659 512.899 15.477C513.123 15.6121 513.311 15.7981 513.448 16.0199C513.586 16.2417 513.669 16.493 513.691 16.753H512.781C511.712 15.754 513.77 13.2118 515.273 12.6875H515.303ZM496.895 10.1552C497.187 10.4353 497.521 10.6688 497.884 10.8477C506.47 9.79914 495.975 14.7252 503.403 16.7827H499.526C498.467 16.021 499.011 14.3988 499.298 13.3898C494.679 13.3898 496.538 13.4789 492.71 14.8637C492.137 14.0427 497.518 11.639 496.865 10.1552H496.895ZM442.549 5.96114C443.675 7.34386 445.01 8.54205 446.506 9.51227C444.392 10.0345 442.188 10.0751 440.057 9.63098C439.977 8.32526 440.838 7.06901 442.549 5.96114ZM442.549 13.281C442.213 12.6183 442.638 11.9753 443.825 11.3818C445.626 12.1039 445.517 13.2514 442.549 13.281ZM430.185 11.55C431.352 11.55 434.586 11.3422 436.773 11.4214C439.473 11.5302 438.959 13.3997 442.49 13.3997C447.03 16.7926 452.669 11.8467 451.393 9.33422C458.465 8.83964 456.338 10.9664 459.791 12.8458C459.702 12.7864 446.189 16.3574 442.905 16.8025H442.213H438.593C436.792 15.4374 432.658 14.7054 430.501 15.7243C431.817 14.8538 432.282 15.5858 431.995 12.4699C423.755 13.3503 424.823 11.4313 430.224 11.55H430.185ZM419.452 9.19574C421.777 8.31537 424.527 6.64367 427.801 7.21739C429.255 7.46468 419.749 12.1633 420.105 11.9753C419.234 12.371 416.781 8.90888 416.732 8.84953C417.642 8.94845 418.532 9.04736 419.452 9.19574ZM413.27 2.58805C413.923 3.02329 413.863 3.3695 413.082 3.63658C412.379 3.19145 412.459 2.84524 413.27 2.58805ZM409.679 5.55557C410.381 5.75341 412.844 6.89096 412.142 6.71291C409.907 6.94042 408.571 6.54475 409.679 5.51601V5.55557ZM407.414 9.65076C405.435 10.7586 402.597 10.8378 400.49 10.8081C401.756 10.3432 401.004 9.34411 407.414 9.61119V9.65076ZM403.744 6.07984C403.576 6.15897 402.686 7.55371 399.392 6.58432C400.751 5.9543 402.277 5.77745 403.744 6.07984ZM402.31 13.9932C402.557 14.3889 402.794 14.7846 403.042 15.1605C405.38 14.3905 407.858 14.1407 410.302 14.4285C409.867 14.8439 405.416 16.8223 404.278 16.4068C400.964 15.1605 394.485 15.2297 391.913 12.5194C389.342 9.80903 401.172 16.2782 402.31 13.9932ZM376.74 9.80903C382.14 11.273 381.685 14.656 375.849 15.4078C376.74 15.8826 376.66 16.2782 375.602 16.5651C375.473 15.5166 376.037 14.4483 372.773 15.2099C372.75 15.5614 372.62 15.8974 372.401 16.1731C372.182 16.4488 371.883 16.6512 371.546 16.753H369.568C366.828 16.1397 363.633 13.5679 365.957 12.4501C372.555 9.20563 380.736 18.3753 376.74 9.80903ZM359.459 5.15001C356.907 6.13919 354.157 5.62482 353.524 4.49716C356.155 3.85419 358.163 4.10149 359.459 5.15001ZM351.713 10.8378C351.605 10.996 362.189 7.31631 363.643 6.16886C364.324 6.35656 364.926 6.75949 365.359 7.3175C365.792 7.87551 366.034 8.55867 366.047 9.26498C364.319 8.48899 362.427 8.14931 360.537 8.27581C360.487 10.3827 357.005 14.8538 357.896 16.5156C357.93 16.5845 357.97 16.6507 358.014 16.7135H354.236C355.561 14.9824 356.452 14.379 351.634 14.0427C352.337 14.9132 351.496 15.9122 352.119 16.7135H348.815C349.639 14.6827 350.618 12.7183 351.743 10.8378H351.713ZM347.282 3.47831C346.421 4.72467 344.878 5.15001 342.672 4.77413C343.721 3.55744 345.264 3.11231 347.312 3.47831H347.282ZM343.83 13.9932C342.484 14.8934 341.564 14.9824 341.109 14.102C341.48 13.7722 341.954 13.5811 342.45 13.5612C342.946 13.5414 343.434 13.6941 343.83 13.9932ZM341.159 2.97383C340.377 3.61679 339.725 3.56733 339.27 2.82545C339.893 1.97476 340.536 2.02422 341.159 2.97383ZM340.407 8.54288C339.26 9.30455 337.657 9.41336 335.619 8.91877C336.326 8.46977 337.132 8.20074 337.967 8.13521C338.801 8.06968 339.639 8.20966 340.407 8.54288ZM339.537 5.77319L337.914 6.40627C337.002 6.24004 336.1 6.01872 335.214 5.74352C336.652 5.59549 338.101 5.60544 339.537 5.77319ZM335.491 8.97812H335.54C338.201 10.0168 341.09 11.5895 336.381 12.3017C331.93 12.9843 331.139 9.93762 328.794 10.2245C326.717 10.4817 327.874 12.6974 326.984 13.5283C325.451 12.8953 323.769 9.94751 325.065 9.16606C325.253 8.72093 333.137 9.04736 335.491 8.97812ZM321.722 3.95311C322.938 3.56733 328.933 6.32713 328.013 7.12836L322.147 6.13919C322.285 6.21832 319.832 4.52683 321.722 3.95311ZM322.097 10.3926C322.582 11.55 322.097 12.6579 320.624 13.6866C319.407 12.6282 318.457 11.7874 317.725 11.1345C319.115 10.5847 320.604 10.332 322.097 10.3926ZM317.557 5.23904C316.38 5.77319 315.777 5.63471 315.777 4.84337C317.102 4.24986 317.696 4.37846 317.557 5.23904ZM301.226 16.5948C301.444 16.5065 301.68 16.4747 301.914 16.5023C302.147 16.53 302.37 16.6162 302.561 16.753H300.969C301.031 16.6691 301.123 16.6124 301.226 16.5948ZM297.962 13.9932C298.387 14.7747 296.854 15.2198 296.824 15.1209C296.527 13.4888 298.506 15.0517 297.714 12.2721C298.371 12.1972 299.032 12.1608 299.693 12.1633C300.415 13.0535 301.097 13.9932 297.962 13.9932ZM300.207 7.06901C299.851 7.62295 299.218 7.52403 298.446 6.75248L296.072 6.39637C297.071 5.71384 298.318 6.78215 300.207 6.98988V7.06901ZM299.851 9.73979C301.087 11.2235 296.399 10.4025 295.825 10.0959C296.406 9.69279 297.079 9.44175 297.783 9.36572C298.486 9.28969 299.197 9.39109 299.851 9.66065V9.73979ZM291.621 4.99175C290.78 5.59514 290.236 5.62482 290.019 5.07088C290.483 4.31911 290.998 4.28943 291.621 4.99175ZM286.26 3.31015C286.804 3.93333 286.754 5.13023 284.4 4.97196C281.165 6.31724 285.627 3.74538 286.26 3.31015ZM284.835 15.4671L282.679 14.6857C283.678 12.8161 285.567 14.7252 284.815 15.4671H284.835ZM277.515 2.24184C278.702 2.44957 278.92 2.83534 278.158 3.34971C276.17 3.11231 275.962 2.71664 277.496 2.24184H277.515ZM272.312 4.52683C273.094 5.09066 272.777 5.4072 271.323 5.51601C270.611 4.96207 270.937 4.63564 272.312 4.52683ZM271.531 8.19667C273.796 7.42512 275.062 7.87024 275.606 8.19667C273.403 9.53413 270.93 10.3653 268.365 10.63C269.308 9.68163 270.372 8.86328 271.531 8.19667ZM264.27 5.95124C263.103 5.8767 261.989 5.43725 261.085 4.69499C262.519 4.29932 267.94 7.06901 264.27 5.95124ZM260.007 14.4581C261.57 14.4581 262.242 14.8538 261.985 15.6649C260.541 15.7243 259.809 15.3385 260.007 14.4581ZM248.582 3.38928C250.095 3.91354 249.848 4.37846 247.85 4.84337C246.91 4.29932 247.148 3.80474 248.582 3.38928ZM250.343 10.818C248.994 9.86371 247.466 9.19088 245.852 8.83964C255.279 7.23717 249.591 10.0365 250.343 10.818ZM234.219 1.38126C236.484 1.70768 236.811 2.21216 235.208 2.92437C233.19 2.53859 232.844 2.02422 234.219 1.38126ZM230.975 6.19854C230.065 6.67334 229.362 6.63378 228.848 6.08973C229.768 5.42698 230.49 5.46655 230.975 6.19854ZM224.12 3.59701C225.989 4.33889 225.791 4.91261 223.586 5.30828C221.884 4.67521 222.072 4.10149 224.12 3.59701ZM215.86 3.77506C213.994 5.25223 212.184 5.63471 210.429 4.9225C210.647 4.10149 214.515 3.26069 215.86 3.77506ZM205.464 8.5231C206.018 8.95834 205.672 9.62108 204.979 10.363C203.604 9.44303 203.772 8.82974 205.464 8.5231ZM202.872 5.23904C200.419 6.03038 199.42 5.15001 197.392 4.24986C196.235 4.61586 195.582 4.98185 194.563 4.47737C199.311 3.61679 198.391 3.05296 202.872 5.23904ZM196.245 16.6541C196.24 16.6869 196.24 16.7202 196.245 16.753H194.603C194.286 16.4464 193.999 16.1002 193.772 15.843C195.256 15.6155 196.136 15.8727 196.245 16.6541ZM189.914 12.0149C189.479 12.8755 188.776 12.915 187.807 12.1534C188.727 11.1345 189.429 11.095 189.914 12.0149ZM188.925 14.8439C187.161 15.0104 185.428 15.4129 183.771 16.0408C182.555 15.2297 181.368 14.4087 180.181 13.5877C182.396 13.0733 187.342 13.9932 188.915 14.8835L188.925 14.8439ZM168.38 10.6993C167.193 11.6885 168.924 12.4996 163.948 11.0554C164.809 10.1256 166.263 10.0365 168.37 10.7389L168.38 10.6993ZM121.888 7.12836C120.593 7.23717 114.41 8.17689 114.272 7.27674C115.667 6.13919 120.553 4.90272 121.879 7.16793L121.888 7.12836ZM112.165 1.90552C111.277 2.07161 110.377 2.16097 109.474 2.1726C110.322 1.80739 111.262 1.71408 112.165 1.90552ZM109.445 8.96823C109.445 10.0662 109.88 10.1256 109.712 10.0959C108.957 9.84023 108.183 9.64508 107.397 9.51227C108.052 9.28084 108.723 9.09897 109.405 8.96823H109.445ZM105.241 6.26778C104.218 6.56122 103.147 6.64239 102.092 6.5063C101.038 6.3702 100.022 6.01973 99.1077 5.47644C102.6 4.29932 101.195 4.23008 105.241 6.26778ZM90.8877 2.93426C93.7761 3.21123 91.4021 5.24893 90.1854 5.69406C90.1854 6.81183 89.6413 6.99977 88.4049 6.26778C91.5603 5.55558 90.9174 4.55651 90.8877 2.93426ZM85.9418 2.70675C84.646 3.23101 83.9635 3.08264 83.8645 2.2913C85.0021 1.63844 85.7044 1.78682 85.9418 2.70675ZM83.7063 11.7379C84.4284 13.2711 81.2234 16.5354 78.3054 14.834C79.7397 13.7558 81.0058 12.1534 83.7063 11.7379ZM64.8823 2.12314C67.1277 2.74632 67.0387 3.11231 64.6449 3.2508C64.4174 2.96394 63.2205 1.61866 64.8823 2.12314ZM64.8031 7.96916C62.5577 8.62202 60.0749 8.45386 58.5911 8.83964C60.5961 8.19542 62.6991 7.91077 64.8031 7.99884V7.96916ZM65.3769 14.5175C65.3769 14.5175 54.7927 14.1317 56.682 14.9824C50.47 13.6767 66.8013 12.5095 65.3769 14.5472V14.5175ZM25.6021 13.4393C24.4943 13.8548 23.881 13.7163 23.7128 13.014C24.9295 12.5886 25.5725 12.7271 25.6021 13.4393ZM148.932 16.6739L149.259 16.753H149.19L148.932 16.6739Z" fill="white"/>
</svg>
