<svg width="1901" height="28" viewBox="0 0 1901 28" fill="none" xmlns="http://www.w3.org/2000/svg">
<g clip-path="url(#clip0_6_744)">
<path d="M761.391 20.323C759.205 20.0658 752.934 20.323 751.351 21.51C748.492 23.6763 754.071 23.6861 754.526 25.6843C753.606 25.0314 751.123 23.7653 750.698 23.3993C749.007 25.0413 748.324 26.5844 746.662 27.4846H761.609C760.333 26.4262 761.351 24.339 761.549 23.5279C763.686 26.9109 767.484 25.8327 766.218 22.9146C765.486 21.1044 766.841 20.9659 761.391 20.323Z" fill="white"/>
<path d="M1118.71 25.17C1114.75 28.3255 1106.11 22.9839 1104.46 24.527C1102.21 26.6142 1109.04 26.0108 1110.34 27.4945H1128.46C1128.46 27.4055 1128.59 27.3165 1128.64 27.2176C1128.78 27.3189 1128.92 27.4114 1129.07 27.4945H1132.2C1130.88 25.9514 1125.43 24.0225 1124.29 23.5378C1122.57 25.0216 1122.54 26.3471 1118.71 25.17Z" fill="white"/>
<path d="M1089.07 25.5358C1088.61 25.8128 1079.89 22.4892 1078.79 27.5142H1090.66C1093.43 27.4647 1095.96 27.3757 1095.91 27.1779C1096.02 27.2596 1096.1 27.3792 1096.13 27.5142H1106.42C1103.23 26.0831 1099.86 25.1202 1096.4 24.6555C1088.12 23.8641 1093.79 22.5287 1089.07 25.5358Z" fill="white"/>
<path d="M1024.62 25.6546C1023.1 25.591 1021.65 25.0314 1020.49 24.062C1021.86 23.1135 1023.43 22.4848 1025.08 22.2222C1025.08 22.2222 1027.21 17.1972 1023.73 17.118C1023 17.118 1017.17 19.2349 1016.89 18.76C1016.88 18.3792 1016.77 18.0078 1016.58 17.6796C1016.39 17.3513 1016.11 17.0767 1015.79 16.8806C1015.96 16.8806 1013.6 16.8806 1013.69 16.94C1013.85 18.2556 1004.37 22.6871 1006.12 23.3004C1006.96 23.3498 1007.8 23.3894 1008.65 23.3993C1011.77 25.9316 1009.26 28.3452 1007.37 26.2877C1006.32 26.5325 1005.32 26.9361 1004.4 27.4846H1016.6C1017.19 26.4954 1017.06 25.1996 1015.74 23.5279C1014.52 23.5279 1009.86 23.3993 1008.71 23.3993C1009.58 21.7276 1012.98 21.6188 1015.64 23.3993C1017.33 24.7149 1019.44 26.3668 1021.16 27.4846H1029.88C1028.99 26.7031 1025.18 26.8614 1024.62 25.6546Z" fill="white"/>
<path d="M1028.85 23.6368C1031.48 26.3471 1038.75 21.787 1042.79 23.9336C1037.1 24.3193 1033.89 25.8031 1033.54 27.4847H1044.97C1049.81 26.09 1055.18 25.2294 1053.55 23.8643C1048.68 19.779 1034.09 23.7357 1028.85 23.6368Z" fill="white"/>
<path d="M1072.86 24.4677C1069.57 24.3622 1066.27 24.2896 1062.97 24.25C1062.75 23.5013 1062.49 22.7649 1062.19 22.0442C1060.98 22.1512 1059.77 22.3296 1058.58 22.5783C1058.58 22.6278 1060.22 25.6052 1060.41 25.9119C1058.93 25.3283 1057.26 26.3174 1056.1 27.4847H1073.25C1074.2 27.1341 1075.02 26.5197 1075.63 25.714C1072.66 26.0602 1073.11 24.5369 1072.86 24.4677Z" fill="white"/>
<path d="M1088.39 21.1044C1089.96 20.8768 1103.16 19.8382 1102.65 18.7501C1102 18.5136 1101.42 18.1311 1100.95 17.6323C1099.4 17.9786 1086.82 18.9776 1090.92 16.1585C1087.75 16.0497 1084 15.7331 1080.75 15.4858C1084.4 17.6225 1076.92 20.3724 1072.52 20.8867C1074.35 21.4704 1074.41 22.054 1072.73 22.6376C1072.37 22.42 1072.04 22.232 1071.74 22.0639C1071.52 22.6475 1071.74 22.8651 1072.55 22.687H1072.47C1073.76 22.3309 1073.87 22.9145 1072.81 24.4379C1072.65 24.4972 1078.03 22.232 1077.59 22.4595C1078.06 23.33 1079.33 23.0299 1081.4 21.5594C1083.34 19.9767 1085.66 19.8283 1088.39 21.1044Z" fill="white"/>
<path d="M984.885 14.2198C975.537 14.566 986.28 16.4949 986.557 16.9005C990.167 22.1036 992.63 26.3768 995.38 17.5336C996.33 16.396 987.17 14.1308 984.885 14.2198Z" fill="white"/>
<path d="M1190.26 23.5377C1186.98 24.0323 1185.78 23.9828 1186.61 23.3893C1186.61 23.33 1186.61 23.3893 1186.37 23.4586C1184.22 24.5862 1184.09 26.713 1181.49 27.4153H1194.5L1195.05 27.2174C1192.28 26.0898 1190.17 24.8137 1190.26 23.5377Z" fill="white"/>
<path d="M1173.03 21.4705C1171.62 23.0531 1170.84 26.3669 1175.81 26.8318C1175.35 25.4865 1175.76 22.7465 1173.03 21.4705Z" fill="white"/>
<path d="M1009.23 13.656C1006.42 14.4869 1005.81 15.7333 1007.34 17.4248C1009.6 16.2081 1011.23 15.0507 1009.23 13.656Z" fill="white"/>
<path d="M935.684 22.6179L935.555 22.6872C935.713 22.8158 935.783 22.8256 935.684 22.6179Z" fill="white"/>
<path d="M1038.04 18.1271C1036.29 15.9212 1032.59 18.8393 1031.87 18.958C1029.75 19.324 1037.05 20.877 1038.04 18.1271Z" fill="white"/>
<path d="M1042.39 16.4453C1040.12 17.7115 1040.41 17.1377 1045.01 19.2447C1045.12 19.2941 1048.92 16.8113 1042.39 16.4453Z" fill="white"/>
<path d="M1059.69 14.9023C1059.23 15.3524 1058.88 15.8999 1058.66 16.5042C1058.44 17.1086 1058.36 17.7544 1058.42 18.3941C1066.52 17.8006 1061.53 17.1379 1059.69 14.9023Z" fill="white"/>
<path d="M1037.69 14.7441C1038.7 14.8531 1039.72 14.6438 1040.61 14.1456C1041.49 13.6473 1042.2 12.8849 1042.63 11.9645L1038.74 11.8953C1038.62 12.1129 1036.95 14.665 1037.69 14.7441Z" fill="white"/>
<path d="M1105.72 14.0418C1107.24 13.8341 1101.77 10.4115 1099.46 12.7361C1099.84 12.9141 1103.8 14.3089 1105.72 14.0418Z" fill="white"/>
<path d="M970.948 17.217L969.652 18.5524C970.166 18.4436 972.728 18.4733 973.994 18.1963C973.49 17.5633 972.461 17.2269 970.948 17.217Z" fill="white"/>
<path d="M1181.01 24.0027C1182.27 23.9988 1183.53 24.0847 1184.78 24.2598C1183.98 24.7643 1185.69 23.7949 1186.36 23.4685C1184.25 22.3112 1179.99 22.0639 1181.01 24.0027Z" fill="white"/>
<path d="M1181.24 24.3588C1181.15 24.2479 1181.07 24.1286 1181.01 24.0027C1180.63 24.0423 1180.71 24.161 1181.24 24.3588Z" fill="white"/>
<path d="M1097.06 14.3187C1099.13 14.4077 1099.35 13.2801 1099.24 12.6272C1098.7 12.7855 1092.95 14.1406 1097.06 14.3187Z" fill="white"/>
<path d="M1099.24 12.6175C1099.29 12.6175 1099.3 12.6075 1099.24 12.6175V12.6175Z" fill="white"/>
<path d="M1048.38 15.7332C1051.35 15.4464 1050.02 14.0615 1048.73 13.2009C1048.49 14.2495 1047.76 14.2297 1048.38 15.7332Z" fill="white"/>
<path d="M1101.24 17.8005C1101.73 17.3356 1104.97 16.5443 1101.99 15.7134C1101.65 15.9274 1101.39 16.2491 1101.26 16.6274C1101.12 17.0057 1101.12 17.4187 1101.24 17.8005Z" fill="white"/>
<path d="M969.652 18.5522L961.877 19.9173C964.548 20.4119 968 19.9173 969.652 18.5522Z" fill="white"/>
<path d="M978.159 26.2283C977.269 25.9712 976.398 25.7337 975.538 25.4766C973.994 26.0899 976.992 26.7031 978.159 26.2283Z" fill="white"/>
<path d="M961.551 25.0809C961.719 26.0701 962.658 26.1987 964.36 25.5656C964.202 24.6259 963.252 24.4775 961.551 25.0809Z" fill="white"/>
<path d="M941.104 24.2698C940.679 25.6052 941.866 26.1591 944.725 25.9217C943.577 25.0117 944.25 24.3489 941.104 24.2698Z" fill="white"/>
<path d="M885.879 23.2312C886.175 24.3094 887.145 24.438 888.737 23.6071C888.144 22.3739 887.191 22.2486 885.879 23.2312Z" fill="white"/>
<path d="M1176.03 21.4012C1177.72 22.509 1179 22.5288 1180.05 21.4012C1178.38 20.6889 1177.02 20.6791 1176.03 21.4012Z" fill="white"/>
<path d="M1058.82 22.4597C1057.3 21.7445 1055.66 21.3537 1053.99 21.3123C1054.86 22.3509 1056.2 22.5883 1058.82 22.4597Z" fill="white"/>
<path d="M1050.24 19.9768C1048.13 20.2043 1047.73 20.6099 1049.11 21.2034C1051.13 20.9132 1051.51 20.5044 1050.24 19.9768Z" fill="white"/>
<path d="M1053.5 18.305C1054.84 19.215 1055.31 19.9668 1054.97 20.5702L1056.55 19.403C1055.85 19.1458 1053.07 18.0775 1053.5 18.305Z" fill="white"/>
<path d="M1056.72 19.4426H1056.8C1058.78 19.0568 1059.31 18.6809 1058.42 18.3545C1056.62 18.7007 1056.05 19.037 1056.68 19.3437L1056.59 19.2942C1056.69 19.4426 1056.76 19.4624 1056.72 19.4426Z" fill="white"/>
<path d="M1054.97 20.5703L1053.98 21.3122C1054.38 21.1769 1054.73 20.9169 1054.97 20.5703Z" fill="white"/>
<path d="M1203.37 14.9616C1204.78 15.3474 1207.75 15.6738 1207.75 14.3087C1206.07 14.3978 1205 13.9032 1203.37 14.9616Z" fill="white"/>
<path d="M980.018 13.9627C978.584 13.0427 977.377 13.0427 976.349 13.9627C976.804 15.2783 978.02 15.2783 980.018 13.9627Z" fill="white"/>
<path d="M1122.37 11.7765C1121.21 12.3007 1120.39 11.9545 1119.76 13.2701C1122.39 13.5075 1124.17 13.1217 1122.41 11.7962L1122.6 11.8754L1122.51 11.5391C1122.21 11.5984 1122.12 11.6677 1122.37 11.7765Z" fill="white"/>
<path d="M978.881 23.8643C978.97 24.6557 979.643 24.7843 980.859 24.26C980.77 23.617 980.098 23.4884 978.881 23.8643Z" fill="white"/>
<path d="M972.59 22.7463C973.836 22.7463 974.568 22.4892 974.756 21.9056C976.21 21.5099 969.464 22.3507 972.59 22.7463Z" fill="white"/>
<path d="M1127.59 20.9758C1127.59 20.9758 1127.72 22.5387 1127.7 22.5882C1132.02 23.3202 1128.19 21.2033 1127.59 20.9758Z" fill="white"/>
<path d="M981.067 21.4407C982.106 22.1529 982.976 22.0935 983.53 21.5198C982.708 21.5392 981.886 21.5128 981.067 21.4407Z" fill="white"/>
<path d="M983.827 21.1045C983.75 21.2575 983.65 21.3977 983.53 21.5199C984.213 21.4804 984.321 21.3518 983.827 21.1045Z" fill="white"/>
<path d="M984.717 19.4822C983.312 19.7493 983.095 20.323 984.015 21.2033C984.311 20.6791 986.606 19.957 984.717 19.4822Z" fill="white"/>
<path d="M1029.68 16.3664C1029.33 16.3664 1028.88 16.2675 1028.32 16.1785C1028.2 16.6731 1028.68 16.7324 1029.68 16.3664Z" fill="white"/>
<path d="M1029.69 16.3662C1030.42 16.4453 1030.67 16.3662 1030.48 16.2574C1032.32 15.0902 1033.83 14.3384 1031.86 12.7854C1029.03 13.4449 1028.57 14.5956 1030.47 16.2376L1030.26 16.1288L1029.69 16.3662Z" fill="white"/>
<path d="M1070.36 17.4248C1070.19 17.7611 1069 18.325 1070.22 18.4931C1070.25 18.1469 1070.3 17.8007 1070.36 17.4248Z" fill="white"/>
<path d="M1071.79 22.0638C1071.98 21.642 1072.23 21.2463 1072.52 20.8867C1071.11 21.3022 1071.15 21.6088 1071.79 22.0638Z" fill="white"/>
<path d="M1124.3 23.4883C1124.57 23.4883 1127.08 23.3597 1127.7 22.5881C1123.76 23.2707 1124.24 21.7572 1124.3 23.4883Z" fill="white"/>
<path d="M1004.62 11.8655C1004.8 11.8408 1004.98 11.8011 1005.15 11.7468L1004.62 11.8655Z" fill="white"/>
<path d="M918.225 16.6829C917.601 16.396 916.385 14.5463 913.763 15.5552C914.654 16.4949 916.138 16.8807 918.225 16.6829Z" fill="white"/>
<path d="M1462.75 12.6865C1459.64 13.735 1459.4 13.9725 1462.01 15.2287C1463.64 14.4176 1463.88 13.5702 1462.75 12.6865Z" fill="white"/>
<path d="M829.832 25.8822C831.269 25.6369 832.626 25.05 833.789 24.1709C832.641 23.4884 828.902 23.795 826.578 23.7851C826.85 24.1531 827.101 24.5362 827.329 24.9326C827.547 25.3135 827.735 25.7103 827.893 26.1196C828.249 26.1196 828.566 26.0503 828.882 26.0108C828.882 26.7032 829.456 27.1384 830.208 27.4846H840.208C840.927 26.8322 841.698 26.24 842.513 25.714C838.287 25.4929 834.051 25.5491 829.832 25.8822Z" fill="white"/>
<path d="M695.403 24.1808C694.835 24.1459 694.264 24.1725 693.702 24.26L695.057 25.2491C695.799 24.7348 696.046 24.3984 695.789 24.26L697.589 23.4093C695.66 23.1125 694.948 23.3697 695.403 24.1808Z" fill="white"/>
<path d="M1521.18 23.4289C1520.98 24.1213 1521.47 24.705 1522.69 25.1699C1521.52 24.794 1522.12 25.1006 1524.46 26.0502C1531.14 25.5556 1522.44 22.4595 1521.18 23.4289Z" fill="white"/>
<path d="M1397.87 21.7572L1398.92 22.8651C1400.7 21.8166 1400.36 21.4604 1397.87 21.7572Z" fill="white"/>
<path d="M1355.89 12.9834L1353.11 12.7954C1353.78 12.8548 1355.16 13.3296 1355.89 12.9834Z" fill="white"/>
<path d="M1445.74 24.3787C1446.07 24.7279 1446.42 25.0581 1446.79 25.3678C1447.65 24.804 1447.3 24.4677 1445.74 24.3787Z" fill="white"/>
<path d="M1.388 0.984619V20.7681H1.64519C2.61812 20.9222 3.55793 21.2399 4.42477 21.7078C5.73505 20.8073 7.09938 19.988 8.51006 19.2547C8.78703 20.1548 7.58024 21.3221 5.91842 22.4893C7.25505 23.3608 8.68096 24.087 10.1719 24.6556C12.9515 25.5261 15.6717 25.2293 18.382 24.8633C18.204 24.2698 18.5898 23.4785 21.1517 23.7554C20.9662 24.0877 20.7094 24.3748 20.3999 24.5962C23.3675 24.2302 26.3845 24.1214 29.3718 25.803C32.547 27.5934 34.8617 26.1294 38.1655 25.8525C41.6969 25.5656 45.2183 25.8525 48.7398 25.9019C50.6455 25.9316 52.5464 26.1002 54.4276 26.4064C57.0588 24.2401 59.7394 22.3211 62.4498 22.4497C63.439 21.6485 64.3094 21.0352 64.3193 21.0253C70.6896 22.6476 71.4216 24.2006 77.9798 25.1502C74.3496 27.2967 70.284 25.7635 66.7923 24.7149C66.9802 24.9128 67.1682 25.1007 67.3561 25.3183C67.8805 25.9809 68.3161 26.7092 68.6519 27.4846H81.9266C82.1429 27.1842 82.3845 26.9029 82.6487 26.6438C83.7768 25.4076 85.3041 24.6082 86.9628 24.3857C88.6215 24.1632 90.3055 24.5319 91.7195 25.4271C92.7779 26.0009 93.7967 26.812 94.8354 27.4846H96.3488C97.0815 25.7666 98.4289 24.3838 100.127 23.6071C102.165 22.7366 103.926 24.0027 105.726 25.071C105.835 23.9533 110.356 23.795 112.314 24.7941C110.835 25.3849 109.296 25.8128 107.724 26.0701L108.209 26.2086C111.068 26.8812 114.144 25.8426 117.112 25.3084C116.935 25.2845 116.759 25.2481 116.587 25.1996C116.854 24.5666 117.577 24.4281 118.724 24.7842C118.639 24.917 118.528 25.0314 118.398 25.1205C118.724 25.1205 119.05 25.0414 119.387 25.0315C126.489 24.7248 133.473 25.9316 140.525 26.0899C143.859 26.1591 147.647 25.1502 150.882 26.7526C150.012 25.6843 151.723 23.5774 154.463 24.5863C154.928 25.6349 153.79 26.4163 151.189 26.9208C151.487 27.0913 151.774 27.2795 152.049 27.4846H158.528C159.024 26.3559 159.908 25.443 161.021 24.9128C164.025 23.6518 167.323 23.2643 170.537 23.795C171.527 23.5223 172.54 23.3402 173.564 23.2509C173.722 23.3993 172.763 23.6466 171.585 23.9335C176.136 24.7347 180.646 26.5845 185.206 27.4846H194.168C196.625 27.0438 199.14 27.0438 201.597 27.4846H208.986C209.255 26.7965 209.586 26.1343 209.975 25.5063C213.23 20.046 219.551 21.7375 223.26 24.5171C224.231 25.2799 224.926 26.3395 225.238 27.5341H225.377C227.08 27.465 228.769 27.1995 230.412 26.7427C233.646 25.7536 236.485 24.5072 239.809 25.5953C241.195 26.1811 242.549 26.8415 243.865 27.5736H246.951C247.411 27.3456 247.843 27.0634 248.237 26.7328C248.751 26.2228 249.425 25.906 250.146 25.8357C250.867 25.7654 251.59 25.946 252.193 26.3471H252.708C252.638 26.4262 252.559 26.4658 252.49 26.535C252.86 26.8214 253.193 27.1538 253.479 27.5242H274.183C269.751 23.9335 287.22 24.6061 289.327 26.8614C289.528 26.1269 289.902 25.4514 290.418 24.8919C290.935 24.3324 291.578 23.9053 292.295 23.6466C295.316 22.7608 298.51 22.6351 301.593 23.2806C305.243 23.9533 308.23 23.0729 311.831 22.2915C314.689 21.7078 316.866 22.2915 319.339 24.7743C320.471 25.9238 321.814 26.8441 323.295 27.4846H329.537C329.815 27.0214 330.147 26.593 330.526 26.2086C331.515 25.2194 333.227 24.6061 334.364 25.348C334.941 25.7217 335.562 26.0208 336.214 26.2383C336.511 26.2383 336.807 26.3471 337.104 26.357C337.353 26.3686 337.6 26.4152 337.836 26.4954C338.766 24.438 340.151 23.0135 341.674 23.3004C343.652 23.6763 345.631 23.1619 347.678 23.0135C350.013 22.8792 352.31 23.6517 354.088 25.17C355.74 25.071 356.304 25.6546 358.045 26.0206C357.333 25.9217 355.908 25.7635 354.642 25.6349C355.179 26.1642 355.609 26.7923 355.908 27.4846H371.953C372.23 26.8083 372.689 26.222 373.279 25.7907C373.87 25.3594 374.568 25.1 375.296 25.0414C378.729 25.0414 382.023 26.4954 385.376 27.4846H388.7C390.282 26.8614 394.635 25.2985 394.081 26.8318C393.981 27.0125 393.839 27.1663 393.666 27.28C393.494 27.3937 393.297 27.4639 393.091 27.4846H398.829C400.738 27.1285 402.647 26.7427 404.596 26.4954C406.063 26.3707 407.54 26.5285 408.948 26.9604C408.904 26.6563 408.794 26.3655 408.626 26.1086C408.458 25.8517 408.235 25.6349 407.974 25.4735C407.712 25.3122 407.419 25.2102 407.114 25.1749C406.808 25.1395 406.499 25.1716 406.208 25.2689H406.139C406.396 25.1897 406.534 24.9721 406.693 24.2797C407.83 25.803 413.043 25.8228 409.878 27.2472C410.115 27.3264 410.362 27.3956 410.6 27.4846H414.171C415.391 26.2052 416.983 25.3433 418.721 25.0216C417.999 24.9029 417.267 24.7446 416.495 24.5764C419.156 24.4083 421.975 24.2896 423.716 24.8633C422.896 25.0999 422.048 25.2263 421.194 25.2392C421.787 25.3975 422.381 25.6151 422.965 25.8327C423.621 26.1923 424.363 26.3699 425.111 26.3471C424.122 26.0404 423.795 25.5854 424.063 25.0018C424.375 25.1038 424.657 25.282 424.883 25.5203C425.109 25.7587 425.273 26.0496 425.358 26.3669C425.434 26.362 425.51 26.362 425.586 26.3669C427.91 24.9523 430.215 23.6169 432.896 23.706C433.618 23.7406 434.311 24.0038 434.874 24.4577C437.139 24.6358 439.296 25.5359 441.63 26.2185C444.232 26.9702 446.368 26.3273 448.96 25.714C451.314 25.1502 453.708 24.7248 456.003 26.1097C456.533 26.4969 457.003 26.9602 457.398 27.4846H461.809C467.319 23.4191 473.343 25.4469 479.387 27.4846H494.69C495.052 27.2783 495.458 27.1616 495.875 27.1444C496.291 27.1272 496.706 27.21 497.083 27.3857L495.788 27.4846H497.954C502.197 25.6151 506.293 23.6268 510.813 23.5279C516.197 23.5847 521.55 24.3395 526.739 25.7733C529.212 26.3866 531.606 26.9999 534.009 27.4747H549.223C551.938 27.1235 554.688 27.1235 557.403 27.4747H564.07C564.318 26.7625 564.783 26.08 566.514 25.2689C563.873 26.5152 579.017 25.0512 576.178 24.0324C580.104 25.4309 584.115 26.5806 588.186 27.4747H594.715C595.054 26.0201 595.891 24.7293 597.079 23.8247C596.407 23.6466 596.644 23.3202 597.801 22.8355C599.216 22.9146 599.78 23.0828 599.483 23.3301C603.944 23.4191 608.385 23.8148 612.857 24.161C613.361 23.4488 614.32 23.1718 616.111 24.0819C616.293 24.1724 616.466 24.2818 616.625 24.4083C617.703 24.4775 618.782 24.5567 619.86 24.5962C622.978 24.7967 626.062 25.3611 629.049 26.2778C630.039 25.1304 632.264 25.7733 632.818 27.267L633.53 27.4549H640.969C641.633 27.0151 642.331 26.6281 643.056 26.2976C643.626 26.2875 644.189 26.4273 644.688 26.7032C644.949 26.1146 645.334 25.5896 645.818 25.1644C646.301 24.7392 646.871 24.4238 647.487 24.2401H647.131C640.207 25.2293 639.999 18.4238 649.664 21.7573C652.315 22.6673 653.126 23.8543 650.178 24.1808C652.587 24.2199 654.991 24.3982 657.379 24.7149C657.735 24.3193 658.843 23.9137 661.059 23.2905C661.455 23.9829 661.227 24.5962 660.406 25.1403C661.672 25.3381 662.948 25.5458 664.224 25.7733C664.923 25.5595 665.589 25.2499 666.203 24.8534C667.103 25.6151 667.103 26.0404 666.203 26.1196C669.17 26.6339 672.049 27.1087 674.987 27.4648H683.8C685.858 27.1384 687.885 26.6834 689.893 26.3965C687.599 26.2069 685.37 25.5326 683.355 24.4182C688.39 20.6989 693.029 26.3965 697.025 20.8571C701.318 21.6386 700.794 24.982 698.321 27.1384L698.895 27.4253H703.257L704.583 25.7832C706.205 25.3777 709.113 25.7338 710.33 25.1007C708.619 26.0404 708.203 26.7922 708.549 27.4253H714.88C714.672 27.1681 715.048 26.9604 716.067 26.8318L716.423 27.4253H730.41C731.587 26.2309 732.999 25.2948 734.557 24.6765C736.116 24.0583 737.786 23.7716 739.461 23.8346C740.201 23.7253 740.956 23.8534 741.617 24.2006C742.793 24.543 743.884 25.1257 744.822 25.9118C745.485 24.6061 743.438 23.1817 744.1 21.6188C745.525 18.1468 752.488 17.5632 748.195 13.3493C751.658 12.8349 760.837 14.7935 762.044 13.6164C759.423 15.2188 761.262 15.664 755.703 13.9428C754.783 16.1882 747.355 18.0677 751.331 19.6306C751.262 19.6306 754.299 19.0371 757.771 18.4732C757.771 19.0272 757.771 19.591 757.771 20.1449C759.69 19.314 761.055 18.7106 759.907 18.1666C762.365 17.7365 764.845 17.4525 767.336 17.3159C767.069 17.1972 764.368 15.8519 764.952 15.7332C766.545 15.3573 772.618 17.8204 772.618 18.7601C772.133 17.3851 768.563 19.4921 768.731 19.9471C768.899 20.4021 773.133 20.4021 773.152 20.9956C773.212 22.974 767.158 20.7681 766.653 21.7177C766.406 22.1925 767.356 24.161 768.543 23.2806C768.543 23.2806 768.345 23.5576 768.058 23.9434C774.211 24.9325 780.373 26.4856 786.615 26.7427C786.861 26.6506 787.1 26.5381 787.327 26.4064C786.605 26.8417 791.996 26.2284 792.026 26.2284C793.866 25.714 791.838 23.4587 793.648 23.1619C795.458 22.8652 796.991 25.3183 797.328 27.4648H802.432L802.373 27.3857C800.266 24.3193 809.297 21.7969 801.502 19.4723C802.328 19.5747 803.165 19.5547 803.985 19.413C804.232 20.7582 807.942 20.2735 805.686 21.8661C812.611 21.233 809.524 18.0973 805.686 18.7502C805.829 18.6728 805.964 18.5835 806.092 18.4831C812.927 18.7403 809.93 14.3484 814.886 13.3493C814.816 14.0615 815.252 16.119 816.29 15.0507C817.487 14.2989 817.101 13.7351 815.163 13.3394H815.459C823.046 9.76849 815.519 17.395 818.427 17.8599C814.836 19.6207 805.785 23.6466 812.729 25.8822C810.772 26.008 808.871 26.5907 807.18 27.5835H818.16C818.209 27.356 818.269 27.1285 818.338 26.9109C818.491 25.9399 818.826 25.0068 819.327 24.161C819.676 23.4296 820.229 22.8147 820.92 22.3904C821.172 22.1423 821.472 21.9484 821.802 21.8208C822.132 21.6933 822.485 21.6346 822.839 21.6485C823.129 21.6878 823.417 21.7473 823.699 21.8265C823.965 21.8679 824.227 21.9342 824.481 22.0244C824.859 22.2127 825.211 22.4488 825.529 22.7267C826.144 22.378 826.778 22.0642 827.428 21.787C826.35 20.6099 826.726 18.9975 831.533 19.4624C835.075 19.7888 837.122 23.0135 839.763 24.161C841.188 24.7743 844.432 24.8633 846.885 25.4469C848.092 25.2954 849.315 25.3421 850.506 25.5854C851.431 25.8157 852.257 26.3398 852.86 27.0791C852.797 26.7183 852.846 26.3471 853 26.0148C853.154 25.6826 853.405 25.4051 853.721 25.2194C849.705 24.6259 850.268 18.681 844.462 18.1765C844.729 19.4031 839.823 19.8779 837.825 20.0361C839.951 18.2655 832.879 16.1981 836.094 15.4661C839.061 14.8133 840.98 16.762 843.463 16.4553C847.42 16.0201 847.815 14.6155 851.455 13.7252C852.722 16.2377 853.641 19.2349 856.203 21.9452C858.17 23.8086 860.306 25.4842 862.584 26.9505C863.039 27.1879 863.405 27.3758 863.711 27.5539H874.75C876.917 27.0494 879.113 26.4064 879.449 24.9721C879.113 25.0611 870.25 26.6933 872.139 26.1591C871.748 24.6916 870.864 23.4031 869.636 22.5091C873.01 24.7149 884.781 26.1097 880.161 22.0244C881.151 23.0135 874.404 23.5477 876.076 21.4309C879.044 17.7511 878.697 21.4309 885.236 20.5208C884.632 19.6009 882.15 18.9975 882.535 18.0479C883.04 16.762 885.325 17.395 886.106 16.4256C886.093 16.6015 886.07 16.7766 886.037 16.9499C886.7 17.4354 887.5 17.6971 888.322 17.6971C889.144 17.6971 889.944 17.4354 890.607 16.9499C892.091 17.6621 895.088 17.672 896.809 18.493C886.363 19.9867 896.73 19.9372 896.809 22.3508C896.868 24.438 888.549 23.5873 889.885 26.8812C892.991 26.8812 897.066 24.9721 900.528 25.3975C899.427 26.433 898.067 27.1538 896.591 27.4846H906.602C904.416 26.8911 900.311 24.1511 905.158 23.5279C909.55 22.9542 908.758 26.1987 910.549 27.4846H911.607C914.674 26.5449 918.937 26.4954 920.698 27.4846H938.988C938.918 27.267 938.631 27.0296 937.998 26.7328C933.814 24.7545 929.986 27.9199 927.632 26.5152C925.584 25.2788 924.011 25.2985 920.262 23.7258C917.809 22.7366 913.942 21.7474 912.863 21.0847C914.753 21.5001 918.512 20.2933 919.511 20.0955C920.013 20.8311 920.674 21.4455 921.444 21.8938C922.214 22.3421 923.074 22.6131 923.962 22.6871C930.609 22.6871 932.736 15.11 939.354 14.3187C935.14 14.0121 935.595 11.5688 929.956 11.9348C924.318 12.3008 929.877 12.4393 926.989 13.4185C926.722 13.5076 922.32 14.9023 922.261 15.0804C921.43 17.8896 925.614 16.851 925.614 16.9202C926.346 17.9094 918.561 16.7521 917.918 16.762C917.295 17.2565 906.523 22.3112 904.228 19.9867C905.365 21.1539 911.033 14.5066 910.331 14.8726C912.814 13.5768 916.563 14.2099 918.245 12.4887C916.593 12.1029 924.367 12.825 923.022 12.5778C923.008 12.2317 922.907 11.8948 922.729 11.5976C922.551 11.3005 922.302 11.0525 922.003 10.8764H939.482C938.641 11.8655 936.406 12.6074 939.195 14.2C942.44 15.1298 955.883 10.5005 945.674 16.0893C943.924 17.0785 941.52 15.5453 939.383 16.5048C937.247 17.4643 934.902 19.8878 933.824 20.9066L933.933 21.0055C928.206 20.6494 930.491 25.6744 935.555 22.6871C935.066 22.2289 934.607 21.7399 934.18 21.2231L935.723 22.6278C937.444 23.2213 939.235 23.7752 941.085 24.2698C941.846 21.876 947.02 21.965 949.374 22.4992C951.046 24.0423 951.046 25.5953 949.374 27.1285C947.895 26.2999 946.209 25.9152 944.517 26.0206C944.35 26.2211 944.232 26.4581 944.174 26.7125C944.116 26.9668 944.118 27.2313 944.181 27.4846H952.915C953.904 26.2679 952.292 25.4172 954.132 24.0819C955.121 23.3598 957.663 24.6457 958.613 23.706C959.628 22.6896 960.533 21.5689 961.313 20.3626C960.711 20.4653 960.103 20.5346 959.493 20.5703C959.325 18.8392 958.178 15.9805 959.77 14.3286C963.826 15.7728 965.656 17.7907 966.952 14.7737C969.711 8.41332 959.879 12.1524 954.29 11.6677C954.617 11.3907 954.983 11.1336 955.349 10.8764H968.277C971.037 11.5886 974.529 11.7073 976.734 10.8764H987.813C987.625 12.4689 991.988 14.0022 993.659 12.5679C995.331 11.1336 994.648 11.005 993.541 10.8764H1000.25C999.99 11.8655 997.28 12.6074 998.269 13.5867C1000.73 16.119 1002.69 14.4176 1003.21 12.6866L1003.41 12.736C1003.41 12.5085 1003.41 12.3305 1003.35 12.192C1003.35 12.192 1003.35 12.1326 1003.35 12.1029C1003.35 12.0733 1003.35 12.1524 1003.35 12.1821C1003.78 12.0382 1004.22 11.9193 1004.66 11.826C1004.23 11.9386 1003.77 11.9179 1003.35 11.7666C1003.35 11.7666 1003.35 11.7172 1003.35 11.6974C1005 11.8366 1006.65 11.5505 1008.15 10.8665H1020.02C1021.67 11.371 1022.69 11.7271 1021.82 11.6479C1014.26 10.8863 1013.08 14.3978 1015 14.4077C1016.61 14.1209 1017.26 13.5076 1016.97 12.5876C1017.96 12.5382 1021.46 15.3672 1023.62 14.4473C1024.61 14.0417 1025.29 12.7162 1025.92 12.4689C1023.06 13.3493 1025.64 11.826 1027.45 10.8269H1036.97C1037.53 11.1999 1038.12 11.5306 1038.74 11.8161C1043.21 10.8269 1047.55 10.6192 1048.76 13.1218C1050.69 13.4714 1052.68 13.3111 1054.53 12.6569C1054.78 12.6569 1055.63 12.5679 1056.83 12.4195C1056.45 12.2994 1056.06 12.2576 1055.67 12.2968C1055.28 12.3359 1054.9 12.4551 1054.55 12.647C1055.36 11.9566 1056.22 11.3377 1057.13 10.7972H1069.09C1065.76 11.272 1060.04 12.0337 1056.83 12.4195C1058.1 12.9154 1059.19 13.7843 1059.96 14.9122C1061.64 14.2989 1070.84 12.4591 1071.66 10.7972H1084.99C1082.18 11.3808 1079.38 12.924 1080.96 15.3178C1081.65 13.834 1089.72 11.7468 1089.55 11.1731C1089.52 11.087 1089.47 11.0087 1089.4 10.9438C1089.34 10.8789 1089.26 10.8289 1089.17 10.7972H1104.54C1106.93 11.3994 1109.43 11.3994 1111.82 10.7972H1122.3C1122.4 11.0112 1122.48 11.2329 1122.54 11.46C1123.27 11.3825 1124 11.3527 1124.73 11.371C1124.43 11.1398 1124.1 10.9471 1123.75 10.7972H1148.43C1140.91 17.6324 1151.49 11.6084 1154.36 15.8222C1155.5 17.4841 1149.18 17.3654 1149.27 16.9994C1149.58 15.5057 1146.59 20.1746 1148.74 18.77C1148.5 18.9283 1153.47 19.5317 1152.7 20.1252C1149.9 22.153 1143.35 19.3338 1140.37 21.8463C1140.69 21.9353 1144.44 23.6763 1145.48 24.1511C1145.26 24.4182 1142.08 27.0692 1142.63 26.5548C1139.2 24.5764 1138.88 24.0423 1140.07 21.6089C1136.18 19.7295 1143.6 18.3249 1141.71 15.6739C1149.25 11.2028 1113.93 13.1218 1128.92 16.663C1126.49 18.6414 1124.75 17.8599 1121.43 16.9598C1116.49 15.6343 1120.52 16.4158 1120.44 14.4671C1120.36 12.9536 1107.92 15.6046 1107.7 18.0677C1107.51 19.868 1115.75 24.4775 1118.96 24.9919C1119.16 23.7356 1121.13 22.7959 1124.1 22.7465C1122 22.3533 1120.03 21.4648 1118.34 20.1548C1121.05 19.9471 1125.66 20.867 1127.58 21.0154C1129.41 20.4708 1131.29 20.1389 1133.19 20.0262C1130.04 16.396 1137.15 16.0695 1137.15 17.5137C1137.15 19.2151 1134.7 20.5505 1134.12 22.2816C1134.12 22.3508 1134.4 25.4964 1134.7 27.4846H1145.26C1145.33 26.3075 1145.42 25.1205 1145.49 24.2401L1145.64 24.3094C1146.24 24.5171 1151.08 26.3372 1150.38 26.2877C1155.49 26.4757 1150.24 21.6089 1157.79 24.2302C1157.2 24.9128 1156.48 23.9928 1156.72 25.5854C1157.98 25.3084 1158.37 24.9128 1157.94 24.3786C1159.09 23.8744 1160.18 23.2581 1161.21 22.5387C1161.33 22.5387 1167.71 21.6782 1167.03 21.8463C1167.71 21.6782 1173.06 20.046 1174.38 19.868C1176.97 19.5712 1184.18 20.7582 1185.58 20.5109C1193.36 19.1657 1183.39 19.5218 1180.24 17.7017C1177.08 15.8816 1181.35 12.6074 1173.76 11.8359C1173.94 11.5345 1174.04 11.1958 1174.07 10.8467H1189.26C1186.29 12.825 1192.46 14.5957 1192.55 15.4563C1191.31 15.7932 1190.05 16.0248 1188.77 16.1487C1189.01 15.8816 1192.96 20.2241 1193.3 20.7187C1193.36 20.8275 1189.28 23.6862 1189.96 23.3795C1198.94 22.0738 1195.19 25.4172 1203.37 22.519C1204.52 22.1134 1204.95 20.7187 1205.87 19.8779C1205.34 20.5208 1210.37 18.8194 1211.97 18.4238C1208.01 17.2565 1203.07 19.2448 1199.52 18.038C1196.49 17.0488 1200 13.4878 1195.87 13.2207C1199.75 13.7648 1202.48 12.2909 1206.15 13.013C1208.78 13.5373 1208.26 15.8618 1212.15 16.4059C1225.01 18.216 1213.14 6.74162 1229.78 13.0328C1223.46 13.5867 1224.83 16.9004 1217.91 16.5839C1218.42 19.3437 1218.28 21.5298 1215.13 22.6574C1210.59 21.2132 1209.88 21.2825 1206.32 22.2915C1205.1 22.6377 1202.66 25.8624 1202.06 27.4549H1210.26C1211.05 26.2086 1211.32 24.9029 1216.66 24.2203C1219.55 23.8346 1221.76 25.2095 1224.46 25.071C1226.03 24.9622 1227.68 21.9848 1229.86 22.697C1233.59 23.9434 1222.54 26.1591 1222.44 26.258C1222.23 26.3956 1222.06 26.5722 1221.92 26.7776C1221.78 26.983 1221.69 27.2132 1221.64 27.4549H1226.87C1227.97 25.0809 1229.69 23.4982 1231.81 24.0126C1233.44 24.3923 1235.1 24.6829 1236.76 24.8831C1237.12 23.4092 1237.75 22.1431 1239.04 21.8661C1241.43 21.332 1244.61 24.1907 1241.43 25.1798V25.2491C1243.3 25.2985 1245.18 25.2491 1247.06 25.1502C1246.62 23.6169 1245.3 21.5397 1246.92 21.1242C1247.7 22.1134 1248.98 23.6862 1248.68 25.0315C1249.74 24.9424 1250.79 24.8336 1251.84 24.705C1250.97 24.0126 1251.81 23.7159 1254.37 23.8148C1254.54 23.6466 1254.28 23.9928 1253.92 24.4281C1260.17 23.5279 1266.42 22.0837 1272.72 20.8374C1270.87 20.046 1269.21 19.9768 1270.32 18.0578C1270.73 17.3555 1276.4 14.2495 1277.94 16.1289C1279.17 17.6423 1271.01 17.8501 1272.7 19.4723C1273.89 19.5891 1275.06 19.821 1276.21 20.1647C1277.61 19.9075 1279.01 19.6701 1280.4 19.4624C1280.74 19.2336 1281.12 19.0844 1281.52 19.0261C1281.93 18.9678 1282.34 19.002 1282.73 19.1261C1284.96 18.8392 1287.19 18.6315 1289.42 18.5326C1294.79 18.315 1300.18 18.3446 1305.58 18.5326C1306.53 17.2085 1307.77 16.1137 1309.2 15.3277C1313.87 14.5462 1312.16 17.0686 1309.2 18.681C1319.9 19.3056 1330.55 20.5973 1341.1 22.5486C1345.16 23.3194 1349.28 23.8216 1353.41 24.0522C1353.24 23.518 1353.9 23.1125 1355.39 22.8157C1355.85 22.3904 1355.2 23.4488 1354.31 24.0917C1357.71 24.2081 1361.11 24.0394 1364.47 23.5873C1360.23 21.4012 1356.96 19.0964 1359.12 19.0667C1362.02 19.0667 1364.21 21.7771 1366.77 23.2411H1366.89C1369.65 22.7366 1372.4 22.2519 1375.16 21.787C1375.02 21.7223 1374.89 21.6176 1374.8 21.4847C1374.71 21.3518 1374.66 21.1961 1374.65 21.0352C1372.81 20.9355 1370.98 20.6706 1369.19 20.2439C1370.87 19.0964 1376 20.6692 1377.63 21.4507C1378.93 21.2825 1380.24 21.1539 1381.58 21.0748C1381.86 20.6692 1382.57 20.4417 1383.86 20.3725C1383.59 20.6307 1383.29 20.8474 1382.96 21.0154C1385.78 20.895 1388.61 21.1108 1391.39 21.6584C1392.19 21.8265 1392.99 22.0244 1393.79 22.242C1396.07 22.3013 1397.9 22.0936 1398.87 20.3823C1400.65 23.7653 1406.12 20.323 1404.43 17.8402C1405.13 18.315 1406.78 18.6315 1409.97 18.6711C1415.21 18.7304 1413.93 19.2151 1415.37 17.0389C1416.75 15.0606 1411.35 16.7916 1410.29 16.0498C1408.6 14.744 1430.82 10.5697 1430.86 11.1039C1431.21 14.7935 1420.13 13.3988 1419.35 16.6927C1416.22 16.1289 1414.98 16.4454 1415.64 17.6819C1416.92 17.8564 1418.22 17.5725 1419.31 16.8807C1419.31 17.0884 1427.08 21.599 1423.47 21.3221C1417.02 20.8176 1417.97 19.4624 1412.19 21.9848C1410.89 22.4805 1409.71 23.2574 1408.75 24.2599C1407.96 20.5604 1400.24 21.7474 1401.16 24.6457L1402.42 25.1007L1408.65 24.3786C1407.76 25.3678 1407.51 26.0701 1405.38 26.1591C1406.75 26.6339 1408.12 27.0791 1409.5 27.4846H1432.78C1433.47 26.9604 1432.32 27.0098 1434.08 25.3975C1423.79 24.0423 1433.22 17.8599 1433.38 14.4275C1437.64 16.0399 1434.59 18.8491 1435.45 20.5208C1437.16 20.9165 1438.95 21.233 1440.75 21.51C1442.26 22.3409 1442.15 23.2213 1440.45 24.1412C1440.88 25.0512 1440.61 26.2976 1440.45 27.5044H1442.49C1443.86 27.3362 1445.25 27.1681 1446.63 27.0296C1445.44 26.7535 1444.38 26.05 1443.66 25.0512C1444.4 24.7339 1445.15 24.4791 1445.93 24.2896C1451.76 21.4012 1451.02 25.8723 1448.28 26.8911C1452.05 26.535 1455.83 26.2383 1459.62 26.0503C1461.74 25.7212 1463.88 25.6382 1466.02 25.803C1470.04 25.6975 1474.06 25.6975 1478.08 25.803C1478.31 25.6069 1478.53 25.3954 1478.73 25.17C1480.25 23.4389 1476.75 22.5289 1481.7 20.9561C1480.71 22.0936 1481.94 24.0621 1483.42 25.9712C1486.17 26.0899 1488.93 26.2284 1491.67 26.4262C1492.56 26.4958 1493.4 26.8982 1494.01 27.5539H1497.76C1500.27 25.778 1503.19 24.6561 1506.24 24.2896C1508.85 25.3579 1508.44 26.4559 1507.65 27.5539H1513.72C1513.21 25.4667 1515.15 24.4083 1511.1 22.1035C1512.48 22.8355 1517.03 19.047 1520.07 19.3734C1521.44 19.5317 1525.11 22.2519 1526.3 22.786C1530.52 24.6556 1536.19 26.0503 1541.22 27.5539H1542.36C1542.23 25.5755 1550.57 26.8911 1552 27.5539H1576.56C1582.34 25.0908 1588.09 22.3211 1593.95 21.4012C1593.64 20.9561 1593.7 20.4714 1594.29 20.046C1595.13 20.1676 1595.91 20.5478 1596.53 21.1341C1598.18 21.0293 1599.84 21.1156 1601.48 21.3913C1609.12 22.7366 1617.43 29.7399 1625.08 26.8318C1630.36 24.8534 1634.49 24.1115 1639.03 27.5539H1643.16C1644.15 26.624 1647.29 25.5755 1650.64 26.2778C1650.1 26.6366 1649.61 27.0657 1649.19 27.5539H1658.7C1657.31 26.9505 1655.73 26.4163 1656.28 25.7338C1656.82 25.0512 1661.71 25.2293 1661.46 25.2194C1661.36 25.5461 1661.33 25.8898 1661.36 26.2298C1661.4 26.5698 1661.5 26.8991 1661.67 27.1978C1669.04 26.2086 1676.51 25.8426 1683.79 25.4469C1704.56 24.3094 1725.38 22.6673 1746.17 22.2222C1756.49 21.8962 1766.81 22.4023 1777.05 23.7356C1780.84 24.3005 1784.61 25.0866 1788.31 26.0899C1788.41 25.994 1788.52 25.9226 1788.65 25.8822C1788.79 25.9805 1788.9 26.1092 1788.98 26.258C1790.6 26.6933 1792.22 27.1285 1793.84 27.5835H1817.39C1818.28 26.446 1821.17 24.5072 1822.1 25.5162C1821.43 26.5944 1821.17 27.2175 1820.9 27.5835H1846.24C1864.38 23.0828 1882.49 17.583 1900.58 23.6268V0.984619H1.388ZM944.656 19.9174C941.164 18.8491 944.062 18.3941 943.251 17.9391C943.785 18.2556 945.546 20.6989 944.656 19.9174ZM954.933 13.9824C953.301 15.0804 957.357 19.7196 959.335 20.5802C958.741 20.7088 951.422 22.5585 952.806 20.4516C953.538 20.135 954.29 19.8383 955.072 19.5514C956.268 18.1963 948.563 18.5623 950.126 18.5128C949.156 17.4544 950.373 13.5867 954.953 13.9923L954.933 13.9824ZM1112.34 17.2565C1112.61 16.6037 1113.33 16.4751 1114.5 16.8708C1114.21 17.5137 1113.5 17.6324 1112.34 17.2664V17.2565ZM1199.46 21.6287C1200.92 20.9956 1201.74 21.1143 1201.92 21.965C1200.73 22.0145 1197.99 22.1233 1199.46 21.6386V21.6287ZM1413.12 26.99C1413.6 26.7874 1414.12 26.6905 1414.64 26.7058C1415.16 26.7212 1415.68 26.8485 1416.15 27.0791C1415.14 27.3491 1414.09 27.3216 1413.1 26.9999L1413.12 26.99ZM1427.19 17.4247C1425.35 16.8114 1425.53 16.208 1427.75 15.5848C1428.71 16.1388 1428.51 16.7554 1427.17 17.4346L1427.19 17.4247ZM1696.07 17.217C1697.46 15.7728 1700.25 14.0516 1701.02 13.0822C1702.37 13.8439 1700.26 17.8006 1696.05 17.2269L1696.07 17.217ZM1687.4 11.6677C1687.63 12.2019 1687.4 12.6569 1686.59 13.0624C1686.29 12.794 1686.07 12.4468 1685.96 12.0602C1685.84 11.6737 1685.84 11.2635 1685.95 10.8764H1687.31C1687.63 11.272 1687.82 11.6776 1687.38 11.6776L1687.4 11.6677ZM1583.04 14.0417C1582.18 14.2289 1581.28 14.1811 1580.44 13.9032C1581.3 13.7342 1582.19 13.7853 1583.02 14.0516L1583.04 14.0417ZM1569.49 11.638C1568.01 11.5869 1566.56 11.3271 1565.16 10.8665H1572.43C1573.31 11.5292 1573 11.9744 1569.47 11.6479L1569.49 11.638ZM1555.94 19.2349C1558.29 20.2241 1558.1 20.7286 1555.37 20.8473C1555.15 20.3922 1554.91 19.9273 1554.7 19.4624C1555.09 19.3344 1555.5 19.2612 1555.92 19.2448L1555.94 19.2349ZM1559.34 10.8764C1559.13 11.0663 1558.9 11.2353 1558.66 11.3808C1558.05 11.3226 1557.45 11.1515 1556.91 10.8764H1559.34ZM1261.7 10.8764H1267.95C1267.14 11.5094 1261.91 11.8655 1259.25 12.6173C1260.03 11.9888 1260.85 11.4074 1261.7 10.8764ZM1234.24 14.1011C1234.1 14.4771 1234.02 14.8698 1233.99 15.2683C1233.46 14.7836 1234.29 13.5274 1234.98 13.0624C1235.97 13.5669 1235.72 13.9131 1234.24 14.1011ZM829.328 11.4897C828.052 11.8754 827.349 11.7172 827.25 11.0445C827.483 10.9695 827.721 10.9133 827.963 10.8764H828.675C828.831 10.9056 828.975 10.9788 829.091 11.0875C829.207 11.1962 829.289 11.3357 829.328 11.4897ZM781.135 15.1694C782.728 15.575 782.945 16.0102 781.758 16.5048C781.076 15.9508 776.14 12.5481 776.516 12.1722C778.192 11.7646 779.946 11.809 781.6 12.3008C779.285 13.6757 778.098 13.9329 781.125 15.1694H781.135ZM675.867 14.8825C669.042 14.2989 670.723 12.4492 670.822 10.8764H674.284C675.118 12.0684 675.657 13.4415 675.857 14.8825H675.867ZM702.812 10.8764H704.395C703.996 10.9799 703.589 11.0461 703.178 11.0742C702.862 11.094 702.782 11.0149 702.812 10.8764ZM590.936 12.4689C589.284 12.78 587.601 12.8994 585.921 12.825C586.376 11.5886 589.423 12.0436 590.936 12.4689ZM582.034 15.0705C581.411 14.6253 581.381 14.1604 582.034 13.6757C583.607 13.9923 583.607 14.4671 582.034 15.0705ZM573.131 14.8331C572.794 15.003 572.423 15.0964 572.045 15.1067C571.667 15.1169 571.292 15.0438 570.945 14.8924C571.245 14.629 571.628 14.4788 572.027 14.468C572.427 14.4572 572.817 14.5863 573.131 14.8331ZM609.572 10.8764C609.295 11.46 608.732 11.8655 607.525 11.7172C607.277 11.7079 607.039 11.622 606.842 11.4714C606.646 11.3208 606.5 11.1129 606.427 10.8764H609.572ZM362.091 11.7864C361.433 12.1276 360.71 12.326 359.971 12.3686C359.231 12.4112 358.49 12.2971 357.798 12.0337C358.817 11.0346 360.251 10.9654 362.061 11.7864H362.091ZM120.861 10.8764H122.512C122.099 11.4337 121.766 12.0464 121.523 12.6965C120.93 12.0832 120.495 11.4501 120.861 10.8764ZM2.60469 12.3008C3.19819 12.004 3.76202 11.6776 4.35553 11.3808C5.92831 12.6173 5.49308 13.1416 2.60469 12.3008ZM6.94716 16.663C5.89864 16.208 6.08658 15.8717 7.55056 15.6739C9.3014 16.0695 9.05411 16.396 6.94716 16.663ZM14.6924 15.0804C7.13511 14.4275 8.30233 10.4411 12.0216 11.7963C16.8587 13.557 14.5045 13.7747 15.9783 15.9805C21.2309 24.2401 13.0009 21.2825 14.6924 15.0804ZM27.799 22.8948C28.0067 22.6871 26.4141 22.3607 28.254 21.51C29.5498 20.9462 30.3609 20.9165 30.7072 21.4507C26.1174 21.4111 29.4905 21.5891 27.799 22.8948ZM37.1566 18.582C40.8363 18.2062 40.9649 17.8896 43.8236 18.493C41.6969 21.2034 40.2329 20.7681 37.1566 18.582ZM50.2236 13.9032L47.444 14.2495C44.5853 14.5462 48.2848 13.7747 50.2236 13.9032ZM51.6084 19.591L48.0672 18.1171C52.924 16.8114 54.5957 17.8006 51.6084 19.591ZM57.5435 20.689C56.2674 20.2735 56.2971 19.6998 57.6721 18.8689C59.5416 19.3734 59.5119 19.9768 57.5731 20.689H57.5435ZM55.5651 13.6955C56.7225 10.273 60.1846 12.8943 60.511 13.5471C58.9022 12.9956 57.1478 13.0484 55.575 13.6955H55.5651ZM70.1456 18.6414C72.4602 19.047 73.8945 19.7691 74.488 20.7879C72.1734 20.6989 68.6519 20.0955 70.1555 18.6909L70.1456 18.6414ZM84.3106 18.0281C83.7208 18.2553 83.0906 18.3584 82.4592 18.3312C81.8277 18.304 81.2087 18.1469 80.6407 17.8698C81.8602 17.5671 83.1427 17.6395 84.3204 18.0776L84.3106 18.0281ZM81.5112 24.7248C81.2738 24.0621 81.6497 23.4884 82.6685 23.0234C86.19 23.5873 81.6002 24.7842 81.5112 24.7248ZM84.8348 21.4902C83.4895 20.5208 82.5004 20.2834 81.6497 20.7681C83.2225 19.4426 84.182 18.6909 84.7062 18.2655C85.8932 19.314 85.9427 20.3823 84.815 21.4605L84.8348 21.4902ZM89.7807 13.5768C90.5621 14.111 90.1862 14.4176 88.7025 14.4968C87.8122 13.9131 88.1584 13.5966 89.751 13.5669L89.7807 13.5768ZM92.6196 21.0451C88.9003 21.0451 88.9795 13.191 94.598 17.6324C95.1222 18.6909 97.6941 21.0649 92.5899 21.0352L92.6196 21.0451ZM94.8354 17.6324C95.5872 16.8906 96.7247 16.7323 98.2282 17.217C97.1215 17.5587 95.9617 17.6961 94.8057 17.6225L94.8354 17.6324ZM97.15 15.3376C93.9055 13.9329 96.1609 11.9249 98.8119 10.8863H102.838C100.857 12.267 98.9482 13.7494 97.1204 15.3277L97.15 15.3376ZM103.738 21.1044C104.233 20.7582 104.727 20.4219 105.222 20.1153C105.489 20.0856 104.974 21.2231 103.708 21.0945L103.738 21.1044ZM112.997 14.3682C111.384 12.7855 111.355 12.2414 114.322 11.0544C115.479 12.4195 115.054 13.5175 112.967 14.3583L112.997 14.3682ZM120.613 17.9292C120.317 17.4841 123.967 14.8924 124.768 16.851C125.721 16.4951 126.765 16.4673 127.735 16.7719C127.528 17.0389 122.562 17.4742 120.584 17.9193L120.613 17.9292ZM132.76 17.5731C131.929 17.1477 131.979 16.7422 132.849 16.3663C133.631 16.8114 133.601 17.1675 132.731 17.5632L132.76 17.5731ZM146.045 24.9523C144.996 25.5656 146.906 23.3301 147.034 22.974C147.717 23.7356 147.4 24.3786 146.015 24.9424L146.045 24.9523ZM144.512 17.1181L149.764 18.8986C145.422 21.7573 144.818 17.217 144.482 17.1082L144.512 17.1181ZM152.583 18.1072C151.476 17.3555 151.716 16.696 153.306 16.1289C154.601 15.5848 152.9 17.7116 152.554 18.0677L152.583 18.1072ZM158.004 15.4365C156.688 14.9221 156.026 14.289 156.026 13.5373C155.957 13.745 159.973 14.4968 157.974 15.3969L158.004 15.4365ZM158.548 22.6574L156.194 22.7761C156.451 22.3706 159.933 19.0371 158.825 18.6711C160.23 19.0766 158.133 23.4785 158.518 22.6179L158.548 22.6574ZM167.807 19.5712C164.948 20.7384 164.671 17.761 166.076 17.0191C168.034 17.6819 168.638 18.5425 167.777 19.5317L167.807 19.5712ZM166.016 16.8114C165.641 15.8222 166.402 15.2386 168.4 15.11C168.351 15.8717 167.569 16.4355 166.016 16.8114ZM189.757 16.7521C188.599 16.0596 188.916 15.3969 190.746 14.7737C191.972 15.5255 191.616 16.1882 189.727 16.8114L189.757 16.7521ZM196.453 25.2095C194.208 25.4172 196.315 22.5783 196.453 22.4893C197.443 22.9245 198.511 23.3103 199.609 23.6664C200.311 23.3202 198.639 25.0315 196.424 25.2194L196.453 25.2095ZM198.076 14.3286L200.123 14.8529C198.016 15.4167 195.771 15.6343 198.046 14.3088L198.076 14.3286ZM219.62 20.1746C221.074 19.8086 222.024 20.0757 222.429 20.966C220.747 21.3814 219.798 21.1242 219.59 20.1548L219.62 20.1746ZM226.445 18.5425C225.456 17.8599 226.336 15.9113 228.226 17.7314L226.445 18.5425ZM235.496 17.8501C237.183 17.7997 238.864 18.0821 240.442 18.681C237.86 19.68 235.358 19.6009 235.466 17.8006L235.496 17.8501ZM256.823 21.144C256.17 20.8473 256.496 19.8383 257.278 19.1657C258.514 19.8779 258.356 20.5208 256.793 21.1242L256.823 21.144ZM268.05 23.4982C269.296 22.9245 270.028 23.063 270.345 23.9137C268.584 24.4083 267.832 24.2698 268.02 23.4785L268.05 23.4982ZM297.923 21.9156C299.068 21.8777 300.214 21.9041 301.355 21.9947C300.287 21.9353 298.754 21.9057 297.893 21.8958L297.923 21.9156ZM335.571 21.7573C335.304 21.4111 335.571 21.0649 335.897 20.7681C336.501 21.144 336.422 21.4605 335.571 21.7573ZM337.134 18.038C335.789 18.4436 334.226 15.6838 335.897 15.1793C337.915 15.5354 339.35 17.3851 337.134 18.038ZM343.86 20.867C343.019 20.3428 343.296 20.0163 344.671 19.8779C345.562 20.4516 345.295 20.7681 343.86 20.867ZM354.088 19.2844C360.251 19.7592 358.579 21.4309 359.677 23.2411C354.959 23.7356 354.336 20.7681 354.088 19.2844ZM360.765 13.7252C361.444 13.5927 362.132 13.5068 362.823 13.468C362.176 13.7508 361.461 13.8402 360.765 13.7252ZM375.128 24.7248C373.615 24.5171 373.535 24.1115 374.93 23.5081C377.275 23.6367 377.334 24.0423 375.128 24.7248ZM373.931 16.574C372.635 16.0695 375.722 13.7351 376.345 13.8043C377.055 14.4066 377.698 15.0831 378.264 15.8222C376.965 16.6082 375.415 16.8666 373.931 16.5443V16.574ZM390.322 23.4982C390.164 22.6871 390.757 22.5091 392.083 23.0927C391.944 23.8049 391.351 23.9434 390.322 23.4785V23.4982ZM403.982 25.625C404.586 25.4267 405.217 25.3265 405.852 25.3282C405.248 25.4172 404.625 25.5063 403.982 25.625ZM410.906 22.0639C411.606 21.7727 412.358 21.6293 413.116 21.6429C413.873 21.6566 414.62 21.8268 415.308 22.1431C413.162 23.1718 411.272 22.0639 410.906 22.0639ZM416.139 19.2547C413.281 18.2655 414.359 15.0804 418.414 15.5255C418.088 16.0695 417.761 16.6235 417.425 17.1675C418.751 18.5128 418.325 19.2052 416.129 19.2547H416.139ZM422.638 22.7465C420.699 22.3904 420.422 21.8991 421.807 21.2726C423.449 21.6979 423.766 22.1925 422.638 22.7465ZM436.546 19.0272C431.679 18.9184 431.679 17.8006 434.647 16.2575C434.271 15.4068 434.884 14.7836 436.506 14.4077C436.813 14.5858 436.012 17.9193 436.546 19.047V19.0272ZM431.679 11.2028C434.103 11.1138 435.784 10.9456 437.802 10.9258C435.779 11.2602 433.724 11.3532 431.679 11.2028ZM441.828 14.9122C441.67 15.4365 440.938 15.7233 439.612 15.8124C438.712 16.1388 440.077 14.8331 441.808 14.9122H441.828ZM442.125 17.306C443.114 17.7511 443.114 18.1963 442.184 18.6612C441.057 18.216 441.027 17.8006 442.105 17.306H442.125ZM441.393 24.4083C443.421 23.4884 444.667 23.6071 444.311 22.1727C445.775 22.4497 446.477 22.9443 446.418 23.6565C446.368 25.1996 443.213 24.893 441.373 24.4083H441.393ZM455.845 22.2717L451.74 22.8454C451.537 22.6842 451.386 22.4677 451.304 22.2222C453.342 21.4605 456.092 20.5703 455.825 22.2717H455.845ZM456.735 16.6334C457.727 16.498 458.736 16.6743 459.623 17.1378C460.899 17.2565 454.935 16.9004 456.715 16.6334H456.735ZM455.855 10.8764H460.454C460.967 11.5631 461.404 12.3026 461.76 13.0822H461.542C459.549 12.6295 457.632 11.8863 455.855 10.8764ZM461.602 25.7733C462.759 25.2392 463.303 25.3678 463.244 26.1196C462.007 26.7032 461.434 26.5944 461.602 25.7733ZM467.289 18.7898C467.685 18.2853 467.289 17.3555 467.369 17.1873C470.079 17.4544 468.16 18.2556 467.289 18.7898ZM464.322 13.557C466.508 13.379 469.268 13.2009 470.049 13.6955C471.642 14.7737 467.289 14.111 464.322 13.557ZM476.281 24.527C473.739 23.9632 478.022 22.2222 478.695 21.9255C478.457 23.2509 477.32 24.7248 476.281 24.527ZM478.714 21.7573C478.238 21.3201 477.933 20.7274 477.854 20.0856C478.606 20.3131 478.823 21.0055 478.714 21.7573ZM484.194 25.1007C482.661 24.5567 482.74 24.2302 484.491 24.1115C486.677 24.7248 486.598 25.0611 484.194 25.1205V25.1007ZM496.45 15.8816C499.131 12.558 502.633 18.5029 502.662 18.5524C502.039 18.4436 497.103 15.0804 496.45 15.9014V15.8816ZM516.62 16.4553C516.62 15.5156 517.46 15.4661 519.29 16.2575C518.905 16.5277 518.454 16.6903 517.985 16.7286C517.515 16.7668 517.044 16.6793 516.62 16.4751V16.4553ZM526.314 22.1134C524.663 22.2437 523.012 21.8528 521.595 20.9956C523.237 20.6989 524.939 20.4021 526.64 20.1449C527.353 19.203 528.358 18.5246 529.499 18.216C528.233 18.9876 527.965 21.4111 526.314 22.1332V22.1134ZM535.839 16.2278C536.977 15.2386 537.709 15.2386 538.035 16.1586C536.868 17.1378 536.136 17.1675 535.839 16.2476V16.2278ZM545.563 13.0526C544.673 12.8448 544.673 12.5283 545.563 12.1227C546.424 12.3502 546.424 12.6569 545.563 13.0723V13.0526ZM554.04 23.6071C552.448 23.8247 552.428 22.0442 552.665 20.5604C555.395 21.6782 555.87 22.7465 553.991 23.6071H554.04ZM552.695 20.4021C552.798 19.8228 552.94 19.2511 553.12 18.6909C555.633 17.8797 559.273 16.9301 559.273 15.9113C561.459 16.396 555.722 19.8482 552.645 20.4021H552.695ZM560.272 24.7941C558.363 24.6457 557.759 24.2599 558.541 23.6367C560.598 23.7356 561.192 24.072 560.272 24.7941ZM567.196 18.6711C571.153 18.5722 573.191 19.1459 573.329 20.3725C572.508 21.421 563.002 20.412 567.107 18.6711H567.196ZM579.64 20.8275C577.533 19.2745 587.989 19.9372 588.909 20.4516C587.969 21.8166 580.906 21.8265 579.551 20.8275H579.64ZM589.116 23.5279C588.473 23.5279 589.601 22.6476 590.709 22.3112C591.273 22.1431 589.65 23.3697 589.027 23.5279H589.116ZM588.879 15.0804C589.846 14.4176 590.66 13.5538 591.263 12.5481L593.469 13.2801C592.598 14.5957 591.085 15.209 588.79 15.0804H588.879ZM597.03 16.8807C598.138 16.4454 598.87 16.5443 599.245 17.1675C599.087 17.3255 598.894 17.4453 598.683 17.5179C598.471 17.5904 598.245 17.6137 598.023 17.586C597.801 17.5584 597.588 17.4805 597.401 17.3583C597.213 17.2361 597.056 17.0727 596.941 16.8807H597.03ZM599.008 13.1614C596.634 12.3997 599.008 10.1938 600.601 11.8557C600.017 12.2909 599.483 12.736 598.939 13.1614H599.008ZM606.002 15.3969C607.812 16.1289 607.189 19.5218 606.892 18.3644C604.359 17.3291 604.04 16.3399 605.932 15.3969H606.002ZM605.705 23.1322C604.409 22.3013 604.716 19.8779 609.048 20.7681C610.255 21.8265 609.117 22.6179 605.635 23.1322H605.705ZM617.486 21.6386C616.338 21.8166 615.161 21.965 613.964 22.0738C611.135 21.9848 617.921 14.4473 620.691 16.1388C619.692 15.5552 616.803 21.3319 617.417 21.6386H617.486ZM638.991 16.5246C638.397 16.3267 626.685 19.9075 628.594 15.4068C628.357 15.9508 634.213 13.6955 634.529 13.5274C635.518 15.842 643.768 14.6748 644.955 13.0229C646.488 13.4185 647.329 14.0121 647.497 14.8825C647.804 19.502 641.196 17.1972 638.921 16.5246H638.991ZM653.828 19.1162C652.968 18.5623 653.264 18.127 654.669 17.9391C655.856 18.7898 655.579 19.1558 653.769 19.1162H653.828ZM661.633 18.6414C658.507 19.9966 655.074 16.3861 658.665 16.0794C661.168 16.208 662.157 17.0686 661.573 18.6414H661.633ZM661.168 10.8764H664.422C664.719 11.2424 664.422 11.638 662.503 12.3008C661.445 11.8655 661.01 11.3611 661.168 10.8764ZM662.83 14.6253L665.154 13.8835C665.425 13.8997 665.689 13.9713 665.93 14.0938C666.172 14.2163 666.386 14.3871 666.559 14.5957C666.062 15.0677 665.405 15.3334 664.72 15.3389C664.035 15.3444 663.373 15.0893 662.869 14.6253H662.83ZM666.984 19.4426C668.731 18.9118 670.592 18.881 672.355 19.3536C670.07 20.323 669.447 20.6296 667.024 19.4426H666.984ZM683.137 24.3885C680.457 28.3452 677.034 23.9533 674.146 22.5387C673.978 23.6664 672.899 24.5171 670.901 25.17C669.971 24.5764 673.503 21.9156 672.88 19.502C676.579 20.4912 680.368 22.7267 683.108 24.3885H683.137ZM689.448 13.2504C687.885 13.1317 687.589 12.7954 688.558 12.2612C690.111 12.3206 690.408 12.6668 689.488 13.2405L689.448 13.2504ZM691.367 18.8986C691.555 19.0667 694.909 15.7827 695.096 15.8124C695.819 16.0893 696.58 16.3762 697.312 16.6729C699.024 15.5848 692.821 20.0262 691.407 18.8887L691.367 18.8986ZM699.063 18.2754C699.698 17.7928 700.43 17.4543 701.209 17.2835C701.988 17.1127 702.795 17.1136 703.574 17.2862C703.702 17.3555 702.832 21.055 699.103 18.2655L699.063 18.2754ZM704.949 20.3428C706.294 19.4031 707.323 19.5317 707.995 20.7088C706.363 21.5595 705.334 21.4408 704.988 20.3329L704.949 20.3428ZM710.627 17.8006C705.097 17.3258 709.093 13.1811 709.281 14.8331C711.616 15.5354 712.061 16.5345 710.627 17.8006ZM718.322 14.4671C717.185 15.1199 716.651 14.9814 716.68 14.0516C717.917 13.5175 718.461 13.656 718.352 14.4275L718.322 14.4671ZM729.935 17.6028C725.692 15.4365 726.364 15.9805 729.53 14.2198C732.092 15.8717 732.824 15.5354 729.965 17.5632L729.935 17.6028ZM741.805 13.0526C739.224 14.2 737.849 12.5481 737.156 10.9159H740.579C741.212 11.6776 742.082 12.8547 741.815 13.013L741.805 13.0526ZM752.548 12.3206C751.499 12.0931 752.548 11.2819 752.785 10.9159H752.934C753.349 11.3512 753.25 11.8655 752.558 12.281L752.548 12.3206ZM769.364 11.826C769.243 11.7108 769.154 11.5669 769.103 11.4078C769.053 11.2487 769.044 11.0795 769.077 10.9159H770.284C770.096 11.3137 769.763 11.625 769.354 11.7864L769.364 11.826ZM775.299 24.6853C775.818 24.3895 776.391 24.2012 776.984 24.1316C777.577 24.0619 778.178 24.1123 778.751 24.2797C778.425 25.2392 777.287 25.3777 775.319 24.7248L775.299 24.6853ZM782.322 20.3329C780.906 20.3618 779.5 20.5713 778.138 20.9561C778.237 21.1341 777.673 19.0766 778.919 19.4228C783.509 20.6395 781.481 19.8482 784.854 20.412C784.457 20.5911 784.023 20.6762 783.588 20.6608C783.152 20.6454 782.726 20.5298 782.342 20.323L782.322 20.3329ZM786.397 16.762C786.746 16.4265 787.201 16.224 787.684 16.1897C788.167 16.1554 788.646 16.2914 789.039 16.574C788.661 16.8438 788.216 17.0033 787.753 17.0347C787.29 17.0661 786.828 16.9683 786.417 16.7521L786.397 16.762ZM791.205 14.4572C789.365 13.834 788.583 12.9635 788.851 11.8557C791.848 9.88719 792.491 13.3691 791.225 14.4473L791.205 14.4572ZM802.165 23.0135C801.947 23.7356 801.245 23.8642 800.088 23.4092C800.315 22.7465 801.027 22.6179 802.185 23.0037L802.165 23.0135ZM795.389 18.5029C795.389 17.8896 801.838 14.2099 801.651 15.298C801.631 15.6838 796.754 17.9391 795.409 18.493L795.389 18.5029ZM810.424 11.9546C808.961 11.8853 808.664 11.5886 809.564 11.0841C811.176 11.0841 811.443 11.3808 810.444 11.9447L810.424 11.9546ZM832.641 13.4284C831.721 14.1209 830.485 16.5048 828.912 16.851C824.194 17.9094 825.816 15.4464 827.349 14.2593C828.131 14.3286 831.514 13.3493 833.937 12.4986C835.419 11.8684 837.054 11.6928 838.636 11.9941C835.629 12.8547 834.659 11.8655 832.661 13.4185L832.641 13.4284ZM856.382 11.3413C855.729 11.2325 855.531 11.0742 855.64 10.8863H865.027L864.859 11.0247C862.042 11.3432 859.204 11.4457 856.372 11.3314L856.382 11.3413ZM860.506 21.8661C860.754 20.8769 861.862 20.2636 862.91 19.4525C863.659 20.0786 864.36 20.7597 865.007 21.4902C863.561 22.0018 862.006 22.128 860.497 21.8562L860.506 21.8661ZM872.119 17.9984C867.173 18.2556 865.611 17.4148 859.082 15.1001C864.206 13.2207 865.611 13.7153 867.876 16.851C872.189 14.4077 872.189 17.9885 872.109 17.9885L872.119 17.9984ZM873.109 14.7045C869.152 13.4878 868.163 12.3898 870.141 11.4105C872.574 11.3017 874.404 11.7468 875.562 12.736C875.621 13.6856 874.83 14.3385 873.109 14.6946V14.7045ZM886.225 15.1991C886.225 15.3771 886.225 15.5651 886.156 15.7431C878.786 15.6937 880.438 15.5552 881.882 13.6658C883.732 11.3314 886.848 15.3672 886.225 15.1892V15.1991ZM892.862 10.8764H898.728C896.493 12.4689 892.427 12.9437 892.862 10.8764ZM907.146 13.1416C905.346 12.6569 902.428 10.8368 907.393 11.0346C907.398 10.982 907.398 10.929 907.393 10.8764H907.532C907.348 11.6211 907.22 12.3782 907.146 13.1416ZM1157.93 24.3786L1157.81 24.25L1157.99 24.3094L1157.93 24.3786ZM1157.32 20.4912C1155.85 20.0163 1155.83 19.502 1157.32 18.9777C1158.24 19.3734 1158.24 19.8779 1157.32 20.4912ZM1169.87 11.8655C1169.87 12.6569 1165.91 18.4139 1163.74 17.8599C1162.07 17.4445 1162.99 14.8924 1160.58 14.9814C1160.06 15.0848 1159.58 15.3475 1159.22 15.7332C1159.3 14.744 1157.89 14.1604 1161.88 12.4788C1155.38 12.4788 1155.07 11.8952 1156.38 10.8863H1161.57C1163.3 12.558 1164.36 13.8439 1169.87 11.8655ZM1207.92 10.8764H1209.36C1209.63 10.9258 1209.89 10.9852 1210.18 11.0247C1209.59 11.005 1208.81 10.9456 1207.92 10.8764ZM1222.41 20.966C1217.95 20.5505 1222.25 19.7789 1221.84 19.6504C1223.29 19.9232 1224.76 20.0885 1226.23 20.1449C1225.14 20.3527 1224.39 21.144 1222.41 20.966ZM1228.34 20.4516C1228.12 20.3611 1227.9 20.2883 1227.67 20.234C1228.58 20.2933 1229.43 20.3329 1230.14 20.3527C1229.52 20.3922 1228.95 20.4417 1228.32 20.4516H1228.34ZM1231.59 20.2537C1231.05 19.4723 1227.91 17.2368 1229.2 17.1774C1231.4 17.0785 1233.74 19.8284 1238.55 19.3239C1236.31 19.6306 1233.98 20.0163 1231.57 20.2537H1231.59ZM1237.04 11.1237C1236.72 11.0707 1236.41 10.9879 1236.11 10.8764H1248.18C1248.04 11.0037 1247.93 11.1676 1247.87 11.3512C1248.06 11.3512 1248.86 11.1138 1249.93 10.8764H1256.33C1256.33 11.9546 1251.11 12.3403 1250.7 12.6074C1244.87 9.77839 1243.59 12.2216 1237.02 11.1237H1237.04ZM1248.91 18.9283C1248.99 18.9283 1245.61 17.9391 1244.09 17.5929C1244.02 17.3159 1243.1 16.7026 1243.1 16.6729C1251.63 16.8807 1258.74 16.0498 1251.72 21.0649C1250.29 20.2834 1249.23 19.0568 1248.87 18.9283H1248.91ZM1260.4 21.7573C1260.15 21.9452 1255.81 20.966 1255.86 20.9857C1255.31 21.4427 1254.64 21.7162 1253.93 21.7677C1253.22 21.8192 1252.51 21.646 1251.9 21.2726C1254.46 20.8374 1263.15 19.6306 1260.4 21.7573ZM1258.75 15.9409C1257.85 14.0813 1255.27 13.9626 1257.76 13.8043C1258.15 14.8529 1259.4 15.1298 1260.98 15.0705C1260.2 15.2213 1259.44 15.5021 1258.75 15.9014V15.9409ZM1263.69 19.5613C1263.65 19.2632 1263.53 18.9814 1263.34 18.7414C1263.16 18.5014 1262.92 18.3106 1262.65 18.1864C1263.92 18.5919 1265.06 19.0173 1263.71 19.5218L1263.69 19.5613ZM1264.51 16.4256C1264.91 15.9883 1265.22 15.4778 1265.43 14.9221C1264.8 14.8502 1264.17 14.8106 1263.54 14.8034C1266.12 14.4077 1268.77 13.8142 1269.72 14.3682C1271.66 15.5057 1265.9 16.4355 1264.56 16.3861L1264.51 16.4256ZM1274.63 10.8764H1277.84C1279.84 11.2786 1281.79 11.9438 1283.62 12.8547C1278.57 14.8331 1275.65 13.6757 1274.63 10.8764ZM1299.65 16.2278C1295.04 16.574 1290.93 13.0031 1291.98 10.8764H1295.23C1292.98 13.8439 1298.46 16.9499 1302.27 12.8547C1296.39 11.9348 1299.53 11.2127 1302.27 10.8764H1304.79C1304.82 11.5684 1304.71 12.2585 1304.46 12.9055C1304.21 13.5525 1303.84 14.1432 1303.36 14.6425C1302.88 15.1418 1302.3 15.5394 1301.66 15.8118C1301.03 16.0841 1300.34 16.2256 1299.65 16.2278ZM1310.13 12.2118C1308.32 11.7963 1308.02 11.4897 1309.29 11.3017C1311.15 11.6677 1311.42 11.9744 1310.13 12.2118ZM1323.27 18.1468C1320.96 19.7592 1317.34 15.2287 1318.09 16.0201C1318.72 16.1231 1319.36 16.1231 1319.99 16.0201C1322.53 16.3762 1323.66 17.0587 1323.27 18.1567V18.1468ZM1321.73 15.1793C1318.41 14.6946 1316.19 13.7648 1315.09 12.37C1316.74 12.179 1318.34 11.6825 1319.8 10.906H1322.52C1323.08 11.0643 1323.78 11.2819 1324.68 11.5985C1329.72 13.3394 1326.25 13.5076 1321.73 15.1496V15.1793ZM1331.45 12.8349C1333.05 13.6263 1333.83 14.5957 1333.86 15.8025C1327.87 18.2358 1329.59 13.923 1331.45 12.8547V12.8349ZM1334.72 17.3357C1335.15 17.1091 1335.64 17.0227 1336.13 17.0882C1336.61 17.1538 1337.06 17.3682 1337.42 17.7017C1336.23 18.4732 1335.34 18.3446 1334.72 17.306V17.3357ZM1341.18 21.0748C1343.88 20.6593 1345.33 20.8571 1345.55 21.7078C1344.9 22.5684 1339.88 20.8571 1341.18 21.0451V21.0748ZM1364.47 17.8006C1365.02 16.8708 1365.46 16.9004 1365.69 17.8599C1365.17 18.7898 1364.77 18.7106 1364.47 17.8006ZM1362.39 14.4968C1364.52 14.2791 1352.26 14.4176 1357.02 15.4859C1355.73 15.3581 1354.42 15.5908 1353.24 16.1586C1352.73 16.0498 1351.89 11.8754 1343.85 14.111C1342.69 12.558 1342.86 11.5391 1343.75 10.9654H1349.76C1351.05 11.3339 1352.26 11.9485 1353.32 12.7756C1353.73 11.1533 1363.55 10.9456 1366.36 11.915C1366.38 12.9038 1366.05 13.8682 1365.44 14.6451C1366.13 14.4409 1366.86 14.3804 1367.58 14.4671C1368.29 14.5539 1368.98 14.7861 1369.61 15.1496C1366.45 15.4167 1365.75 14.1011 1362.42 14.4473L1362.39 14.4968ZM1373.22 12.7558C1374.79 11.2621 1375.79 11.0149 1376.18 12.0238C1375.81 12.4125 1375.34 12.6844 1374.82 12.8057C1374.29 12.927 1373.75 12.8925 1373.25 12.7063L1373.22 12.7558ZM1375.68 16.7817C1376.21 16.0992 1376.84 16.1685 1377.49 16.9796C1376.73 17.5137 1376.13 17.4445 1375.71 16.7323L1375.68 16.7817ZM1385.69 14.9913C1387.17 14.477 1380.88 13.013 1388.09 12.2019C1387.87 12.0668 1387.68 11.8808 1387.54 11.659C1387.41 11.4372 1387.32 11.1859 1387.3 10.9258H1388.21C1389.28 11.8655 1387.22 14.4077 1385.72 14.9419L1385.69 14.9913ZM1404.1 17.5236C1403.81 17.2401 1403.47 17.0032 1403.11 16.8213C1394.52 17.8698 1405.02 12.9536 1397.59 10.8863H1401.47C1402.52 11.6479 1401.98 13.2702 1401.69 14.2791C1406.31 14.2791 1404.45 14.1901 1408.28 12.8053C1408.86 13.5867 1403.47 15.9904 1404.13 17.4742L1404.1 17.5236ZM1458.44 21.6683C1457.32 20.2805 1455.99 19.0815 1454.49 18.1171C1456.6 17.5868 1458.8 17.5429 1460.94 17.9885C1461.01 19.3041 1460.15 20.5307 1458.44 21.6683ZM1458.44 14.3484C1458.78 15.0111 1458.35 15.6541 1457.17 16.2476C1455.37 15.5255 1455.48 14.378 1458.44 14.3484ZM1470.81 16.0794C1469.64 16.0794 1466.41 16.2773 1464.22 16.208C1461.52 16.0893 1462.03 14.2297 1458.5 14.2297C1453.96 10.8368 1448.32 15.7827 1449.6 18.2952C1442.53 18.7799 1444.65 16.6532 1441.2 14.7836C1441.29 14.7836 1454.8 11.272 1458.09 10.8269H1458.78H1462.4C1464.2 12.192 1468.33 12.924 1470.49 11.9051C1469.18 12.7756 1468.71 12.0436 1469 15.1595C1477.24 14.2791 1476.17 16.1882 1470.77 16.0794H1470.81ZM1481.58 18.4337C1479.26 19.3041 1476.51 20.9758 1473.23 20.412C1471.78 20.1548 1481.28 15.4661 1480.93 15.6541C1481.8 15.2584 1484.25 18.7106 1484.3 18.7799L1481.58 18.4337ZM1487.76 25.0315C1487.11 24.6061 1487.17 24.2599 1487.95 24.0423C1488.61 24.438 1488.53 24.7842 1487.72 25.0315H1487.76ZM1491.35 22.0639C1490.65 21.876 1488.19 20.7384 1488.89 20.9165C1491.09 20.689 1492.42 21.0847 1491.31 22.1035L1491.35 22.0639ZM1493.62 17.9786C1495.6 16.8708 1498.44 16.7916 1500.54 16.8213C1499.24 17.2862 1499.99 18.2853 1493.58 18.0182L1493.62 17.9786ZM1497.29 21.4902C1497.46 21.4111 1498.35 20.0163 1501.64 20.9758C1500.28 21.6361 1498.73 21.8307 1497.25 21.5298L1497.29 21.4902ZM1498.72 13.5768C1498.47 13.191 1498.24 12.7954 1497.99 12.4195C1495.65 13.1895 1493.17 13.4393 1490.73 13.1515C1491.16 12.736 1495.62 10.7577 1496.75 11.1731C1500.07 12.4294 1506.55 12.3502 1509.12 15.0705C1511.69 17.7907 1499.82 11.3512 1498.68 13.6164L1498.72 13.5768ZM1524.25 17.8006C1518.85 16.3465 1519.31 12.9635 1525.14 12.2019C1524.25 11.737 1524.33 11.3413 1525.39 11.0544C1525.52 12.1029 1524.96 13.1713 1528.22 12.4096C1528.24 12.0577 1528.37 11.721 1528.59 11.4451C1528.81 11.1691 1529.11 10.9671 1529.45 10.8665H1531.42C1534.16 11.4699 1537.36 14.0516 1535.03 15.1694C1528.44 18.4238 1520.26 9.25412 1524.25 17.8006ZM1541.53 22.4794C1544.09 21.4902 1546.84 22.0046 1547.47 23.1322C1544.84 23.7356 1542.83 23.5774 1541.53 22.4794ZM1549.25 16.8114C1549.36 16.6532 1538.77 20.3329 1537.32 21.4803C1536.64 21.2922 1536.03 20.8877 1535.6 20.3277C1535.17 19.7677 1534.93 19.0823 1534.92 18.3743C1536.64 19.1594 1538.54 19.4995 1540.43 19.3635C1540.43 17.2664 1543.96 12.7954 1543.07 11.1336C1543.03 11.0646 1542.99 10.9985 1542.95 10.9357H1546.73C1545.4 12.6668 1544.51 13.2702 1549.33 13.6065C1548.63 12.736 1549.47 11.737 1548.84 10.9357H1552.15C1551.33 12.9646 1550.36 14.9288 1549.25 16.8114ZM1553.68 24.1709C1554.54 22.9245 1556.08 22.4992 1558.29 22.8751C1557.27 24.072 1555.73 24.4973 1553.68 24.1511V24.1709ZM1557.16 13.6362C1558.51 12.7459 1559.43 12.7063 1559.88 13.5373C1559.51 13.8645 1559.03 14.0515 1558.54 14.0659C1558.04 14.0804 1557.55 13.9214 1557.16 13.6164V13.6362ZM1559.83 24.6754C1560.61 24.0324 1561.27 24.0819 1561.72 24.8237C1561.1 25.6546 1560.46 25.6052 1559.83 24.6556V24.6754ZM1560.59 19.0964C1561.73 18.3446 1563.34 18.2358 1565.37 18.7304C1564.66 19.1747 1563.86 19.4385 1563.02 19.4988C1562.19 19.5592 1561.35 19.4142 1560.59 19.0766V19.0964ZM1561.46 21.876L1563.08 21.2429C1563.99 21.4044 1564.89 21.6258 1565.78 21.9057C1564.34 22.0423 1562.89 22.0257 1561.46 21.8562V21.876ZM1565.5 18.6711C1562.84 17.6324 1559.95 16.0498 1564.66 15.3474C1569.11 14.655 1569.9 17.7116 1572.25 17.4247C1574.32 17.1675 1573.17 14.9518 1574.06 14.111C1575.59 14.744 1577.27 17.7017 1575.98 18.4831C1575.74 18.8986 1567.86 18.582 1565.5 18.6513V18.6711ZM1579.27 23.6961C1578.05 24.0819 1572.06 21.3122 1572.98 20.5208L1578.85 21.51C1578.71 21.4111 1581.16 23.0927 1579.27 23.6763V23.6961ZM1578.89 17.2467C1578.41 16.0992 1578.89 14.9913 1580.37 13.9626C1581.59 15.021 1582.53 15.8618 1583.27 16.5147C1581.88 17.0544 1580.39 17.297 1578.89 17.2269V17.2467ZM1583.44 22.4102C1584.61 21.876 1585.22 22.0145 1585.22 22.7959C1583.89 23.3696 1583.3 23.2509 1583.44 22.3904V22.4102ZM1599.77 11.0544C1599.55 11.1409 1599.31 11.1718 1599.08 11.1441C1598.85 11.1165 1598.62 11.0313 1598.43 10.8962H1600.02C1599.96 10.9727 1599.87 11.022 1599.77 11.0346V11.0544ZM1603.03 13.7054C1602.61 12.9141 1604.14 12.4788 1604.17 12.5778C1604.46 14.2099 1602.49 12.6371 1603.28 15.4266C1602.62 15.4982 1601.96 15.5312 1601.3 15.5255C1600.58 14.566 1599.9 13.6461 1603.03 13.6856V13.7054ZM1600.79 20.6296C1601.14 20.0757 1601.77 20.1746 1602.55 20.9462L1604.92 21.3023C1603.92 21.9156 1602.67 20.8374 1600.79 20.6395V20.6296ZM1601.14 17.9589C1599.9 16.4751 1604.59 17.2961 1605.17 17.6028C1604.58 17.9897 1603.9 18.2255 1603.2 18.2893C1602.5 18.3531 1601.79 18.243 1601.14 17.9688V17.9589ZM1609.37 22.6278C1610.21 22.0244 1610.76 21.9947 1610.97 22.5387C1610.51 23.3103 1609.99 23.34 1609.37 22.6377V22.6278ZM1614.75 24.2995C1614.21 23.6763 1614.26 22.4893 1616.61 22.6377C1619.83 21.3122 1615.37 23.884 1614.73 24.3094L1614.75 24.2995ZM1616.18 12.1524C1616.91 12.4096 1617.61 12.6767 1618.33 12.924C1617.31 14.8331 1615.42 12.8547 1616.18 12.1623V12.1524ZM1623.5 25.3777C1622.31 25.1601 1622.09 24.7842 1622.85 24.2599C1624.82 24.527 1625.03 24.9029 1623.5 25.3876V25.3777ZM1628.68 23.0828C1627.9 22.5289 1628.22 22.2123 1629.67 22.0936C1630.38 22.6673 1630.05 22.9938 1628.68 23.0927V23.0828ZM1629.46 19.4228C1627.2 20.1944 1625.93 19.7493 1625.39 19.4228C1627.59 18.0854 1630.06 17.2542 1632.63 16.9895C1631.68 17.9408 1630.62 18.7625 1629.46 19.4327V19.4228ZM1636.72 21.6683C1637.89 21.7388 1639.01 22.1787 1639.91 22.9245C1638.47 23.3202 1633.05 20.6 1636.72 21.6782V21.6683ZM1640.99 13.1515C1639.42 13.1515 1638.75 12.7657 1639.01 11.9546C1640.5 11.8655 1641.18 12.2909 1640.99 13.1614V13.1515ZM1652.41 24.2302C1650.9 23.706 1651.14 23.2411 1653.14 22.7663C1654.08 23.3202 1653.84 23.8148 1652.41 24.2401V24.2302ZM1650.65 16.8114C1652 17.7617 1653.53 18.4342 1655.14 18.7898C1645.71 20.3922 1651.4 17.5731 1650.65 16.8114ZM1666.77 26.2482C1664.51 25.9217 1664.18 25.4172 1665.78 24.705C1667.8 25.0809 1668.15 25.6052 1666.77 26.2482ZM1670.02 21.421C1670.93 20.9561 1671.63 20.9956 1672.14 21.5397C1671.22 22.1925 1670.5 22.1629 1670.02 21.421ZM1676.87 24.0324C1675 23.2905 1675.2 22.7168 1677.41 22.3211C1679.11 22.9542 1678.92 23.5279 1676.87 24.0324ZM1685.13 23.8543C1687.02 22.3706 1688.83 21.9947 1690.56 22.7069C1690.35 23.518 1686.48 24.3588 1685.13 23.8543ZM1695.53 19.1063C1694.97 18.6711 1695.32 18.0083 1696.01 17.2664C1697.39 18.1864 1697.22 18.7898 1695.53 19.1063ZM1698.12 22.3904C1700.57 21.599 1701.57 22.4794 1703.6 23.3795C1704.76 23.0135 1705.41 22.6377 1706.43 23.152C1701.68 24.0126 1702.6 24.5764 1698.12 22.3904ZM1704.75 10.9753C1704.75 10.9424 1704.75 10.9092 1704.75 10.8764H1706.39C1706.71 11.1731 1706.99 11.5193 1707.22 11.7765C1705.74 12.004 1704.86 11.7567 1704.75 10.9753ZM1711.12 15.575C1711.55 14.7144 1712.26 14.6748 1713.22 15.4365C1712.27 16.4949 1711.56 16.5345 1711.08 15.575H1711.12ZM1712.11 12.7459C1713.87 12.581 1715.61 12.175 1717.26 11.5391C1718.48 12.3502 1719.66 13.1811 1720.85 14.0022C1718.6 14.5561 1713.7 13.6362 1712.08 12.7459H1712.11ZM1732.65 16.8906C1733.84 15.9014 1732.11 15.0903 1737.08 16.5345C1736.18 17.494 1734.73 17.6127 1732.62 16.8906H1732.65ZM1779.14 20.4615C1780.44 20.3428 1786.62 19.413 1786.76 20.3131C1785.33 21.4902 1780.44 22.7465 1779.11 20.4615H1779.14ZM1788.83 25.714C1789.72 25.5529 1790.62 25.4636 1791.52 25.4469C1790.67 25.822 1789.73 25.9157 1788.83 25.714ZM1791.55 18.6612C1791.55 17.5632 1791.11 17.4939 1791.28 17.5335C1792.04 17.7892 1792.81 17.9843 1793.6 18.1171C1792.94 18.3486 1792.27 18.5304 1791.59 18.6612H1791.55ZM1795.7 21.3616C1796.72 21.069 1797.79 20.9874 1798.85 21.1218C1799.9 21.2561 1800.92 21.6036 1801.84 22.1431C1798.39 23.3202 1799.8 23.3993 1795.75 21.3616H1795.7ZM1810.1 24.7248C1807.22 24.438 1809.59 22.4003 1810.81 21.9551C1810.81 20.8473 1811.35 20.6593 1812.59 21.3913C1809.43 22.0738 1810.08 23.0729 1810.1 24.7248ZM1815.05 24.9523C1816.35 24.4281 1817.03 24.5666 1817.13 25.3678C1815.99 25.9811 1815.29 25.8426 1815.05 24.9227V24.9523ZM1817.29 15.9212C1816.56 14.3879 1819.77 11.1138 1822.69 12.825C1821.25 13.8439 1819.99 15.4661 1817.29 15.8915V15.9212ZM1836.08 25.5063C1833.84 24.8831 1833.92 24.5171 1836.32 24.3687C1836.58 24.6655 1837.77 26.0107 1836.11 25.4766L1836.08 25.5063ZM1836.16 19.6504C1838.4 19.0074 1840.89 19.1755 1842.37 18.7898C1840.38 19.4356 1838.28 19.7171 1836.19 19.6207L1836.16 19.6504ZM1835.59 13.102C1835.59 13.102 1846.2 13.5274 1844.28 12.7261C1850.52 13.9527 1834.19 15.1199 1835.62 13.0723L1835.59 13.102ZM1875.36 14.2198C1876.47 13.8043 1877.08 13.9428 1877.25 14.6352C1876.06 15.0408 1875.42 14.9023 1875.39 14.1901L1875.36 14.2198ZM1752.03 10.9753L1751.7 10.906H1751.77L1752.03 10.9753Z" fill="white"/>
</g>
<defs>
<clipPath id="clip0_6_744">
<rect width="1900" height="26.5" fill="white" transform="translate(0.996094 0.984619)"/>
</clipPath>
</defs>
</svg>
