<svg width="16" height="16" viewBox="0 0 16 16" fill="none" xmlns="http://www.w3.org/2000/svg">
<g clip-path="url(#clip0_1_111)">
<path d="M7.27857 11.7768V12.9107C7.27262 14.6488 7.25476 15.5565 7.225 15.6339C7.15357 15.8244 7.00179 15.9434 6.76965 15.9911C6.44822 16.0446 5.90804 15.9315 5.14911 15.6518C4.39018 15.372 3.90655 15.1071 3.69822 14.8571C3.62084 14.7679 3.57024 14.6607 3.54643 14.5357C3.54048 14.4643 3.55238 14.3869 3.58215 14.3036C3.60595 14.244 3.70715 14.1042 3.88572 13.8839C4.06429 13.6637 4.60298 13.0208 5.50179 11.9554C5.50774 11.9554 5.68631 11.747 6.0375 11.3304C6.12679 11.2173 6.24435 11.1443 6.39018 11.1116C6.53601 11.0789 6.68334 11.0893 6.83215 11.1429C6.975 11.2024 7.08661 11.2887 7.16697 11.4018C7.24732 11.5149 7.28453 11.6399 7.27857 11.7768ZM5.94822 9.53571C5.93036 9.86309 5.7756 10.0714 5.48393 10.1607L4.4125 10.5089C2.7756 11.0327 1.90655 11.2946 1.80536 11.2946C1.59703 11.2827 1.43631 11.1756 1.32322 10.9732C1.25179 10.8244 1.20119 10.6012 1.17143 10.3036C1.12381 9.85119 1.12679 9.35565 1.18036 8.81696C1.23393 8.27827 1.32322 7.90773 1.44822 7.70535C1.57322 7.50297 1.73988 7.40773 1.94822 7.41964C2.0256 7.41964 2.62679 7.64881 3.75179 8.10714C4.17441 8.27976 4.51667 8.41964 4.77857 8.52678L5.52857 8.83035C5.66548 8.88392 5.77113 8.9747 5.84554 9.10267C5.91994 9.23065 5.95417 9.375 5.94822 9.53571ZM13.3232 12.1875C13.2815 12.5089 13.0092 12.9881 12.5063 13.625C12.0033 14.2619 11.6 14.6399 11.2964 14.7589C11.0762 14.8423 10.8887 14.8214 10.7339 14.6964C10.6506 14.6369 10.103 13.7827 9.09107 12.1339L8.67143 11.4464C8.5881 11.3214 8.55387 11.1845 8.56875 11.0357C8.58363 10.8869 8.64167 10.75 8.74286 10.625C8.95119 10.369 9.19822 10.2917 9.48393 10.3929C9.48988 10.3988 9.84405 10.5179 10.5464 10.75C11.7548 11.1429 12.475 11.3795 12.7071 11.4598C12.9393 11.5402 13.0792 11.6012 13.1268 11.6429C13.2935 11.7738 13.3589 11.9554 13.3232 12.1875ZM7.32322 6.54464C7.35298 7.15178 7.19226 7.51488 6.84107 7.63392C6.49584 7.73512 6.15655 7.52381 5.82322 7L2.44822 1.66071C2.4006 1.45238 2.45715 1.26785 2.61786 1.10714C2.86191 0.851187 3.47947 0.584817 4.47054 0.308032C5.46161 0.031246 6.12976 -0.062504 6.475 0.0267817C6.7131 0.0863055 6.85893 0.220234 6.9125 0.428567C6.93036 0.53571 6.99584 1.44494 7.10893 3.15625C7.22203 4.86756 7.29345 5.99702 7.32322 6.54464ZM13.2339 7.50892C13.2518 7.74107 13.1744 7.91666 13.0018 8.03571C12.9125 8.09523 11.9333 8.35119 10.0643 8.80357C9.66548 8.89285 9.39465 8.96131 9.25179 9.00892L9.26072 8.99107C9.12381 9.02678 8.98691 9.01488 8.85 8.95535C8.7131 8.89583 8.60298 8.80059 8.51965 8.66964C8.34107 8.38988 8.34107 8.13095 8.51965 7.89285C8.5256 7.8869 8.74881 7.58333 9.18929 6.98214C9.93334 5.96428 10.3798 5.35714 10.5286 5.16071C10.6774 4.96428 10.7786 4.84821 10.8321 4.8125C10.9988 4.6994 11.1923 4.69345 11.4125 4.79464C11.6982 4.93154 12.0643 5.32887 12.5107 5.9866C12.9571 6.64434 13.1982 7.14285 13.2339 7.48214V7.50892Z" fill="#002E48"/>
</g>
<defs>
<clipPath id="clip0_1_111">
<rect width="14.39" height="16" fill="white" transform="matrix(1 0 0 -1 0.799988 16)"/>
</clipPath>
</defs>
</svg>
