<svg width="16" height="16" viewBox="0 0 16 16" fill="none" xmlns="http://www.w3.org/2000/svg">
<path d="M9.61103 9.61608C9.61103 9.61608 9.72264 9.50447 9.94585 9.28125C10.1691 9.05804 10.2807 8.63096 10.2807 8C10.2807 7.36905 10.0575 6.83036 9.61103 6.38393C9.1646 5.9375 8.62591 5.71429 7.99496 5.71429C7.36401 5.71429 6.82532 5.9375 6.37889 6.38393C5.93246 6.83036 5.70925 7.36905 5.70925 8C5.70925 8.63096 5.93246 9.16965 6.37889 9.61608C6.82532 10.0625 7.36401 10.2857 7.99496 10.2857C8.62591 10.2857 9.1646 10.0625 9.61103 9.61608ZM10.486 5.50893C10.486 5.50893 10.6572 5.68006 10.9994 6.02233C11.3417 6.36459 11.5128 7.02381 11.5128 8C11.5128 8.97619 11.1706 9.80655 10.486 10.4911C9.80151 11.1756 8.97115 11.5179 7.99496 11.5179C7.01877 11.5179 6.18841 11.1756 5.50389 10.4911C4.81937 9.80655 4.4771 8.97619 4.4771 8C4.4771 7.02381 4.81937 6.19346 5.50389 5.50893C6.18841 4.82441 7.01877 4.48215 7.99496 4.48215C8.97115 4.48215 9.80151 4.82441 10.486 5.50893ZM12.236 3.75893C12.236 3.75893 12.2762 3.79911 12.3566 3.87947C12.4369 3.95983 12.4771 4.1131 12.4771 4.33929C12.4771 4.56548 12.3967 4.75893 12.236 4.91965C12.0753 5.08036 11.8819 5.16072 11.6557 5.16072C11.4295 5.16072 11.236 5.08036 11.0753 4.91965C10.9146 4.75893 10.8342 4.56548 10.8342 4.33929C10.8342 4.1131 10.9146 3.91965 11.0753 3.75893C11.236 3.59822 11.4295 3.51786 11.6557 3.51786C11.8819 3.51786 12.0753 3.59822 12.236 3.75893ZM8.678 2.37054C8.678 2.37054 8.57457 2.37128 8.36773 2.37277C8.16088 2.37426 8.03663 2.375 7.99496 2.375C7.95329 2.375 7.72562 2.37352 7.31192 2.37054C6.89823 2.36756 6.58425 2.36756 6.36996 2.37054C6.15567 2.37352 5.86847 2.38244 5.50835 2.39733C5.14823 2.41221 4.84169 2.44197 4.58871 2.48661C4.33573 2.53125 4.12294 2.58631 3.95032 2.65179C3.6527 2.77084 3.39079 2.94346 3.1646 3.16965C2.93841 3.39584 2.76579 3.65774 2.64675 3.95536C2.58127 4.12798 2.52621 4.34078 2.48157 4.59375C2.43692 4.84673 2.40716 5.15328 2.39228 5.5134C2.3774 5.87352 2.36847 6.16072 2.3655 6.375C2.36252 6.58929 2.36252 6.90328 2.3655 7.31697C2.36847 7.73066 2.36996 7.95834 2.36996 8C2.36996 8.04167 2.36847 8.26935 2.3655 8.68304C2.36252 9.09673 2.36252 9.41072 2.3655 9.625C2.36847 9.83929 2.3774 10.1265 2.39228 10.4866C2.40716 10.8467 2.43692 11.1533 2.48157 11.4063C2.52621 11.6592 2.58127 11.872 2.64675 12.0446C2.76579 12.3423 2.93841 12.6042 3.1646 12.8304C3.39079 13.0566 3.6527 13.2292 3.95032 13.3482C4.12294 13.4137 4.33573 13.4688 4.58871 13.5134C4.84169 13.558 5.14823 13.5878 5.50835 13.6027C5.86847 13.6176 6.15567 13.6265 6.36996 13.6295C6.58425 13.6324 6.89823 13.6324 7.31192 13.6295C7.72562 13.6265 7.95329 13.625 7.99496 13.625C8.03663 13.625 8.26431 13.6265 8.678 13.6295C9.09169 13.6324 9.40567 13.6324 9.61996 13.6295C9.83425 13.6265 10.1214 13.6176 10.4816 13.6027C10.8417 13.5878 11.1482 13.558 11.4012 13.5134C11.6542 13.4688 11.867 13.4137 12.0396 13.3482C12.3372 13.2292 12.5991 13.0566 12.8253 12.8304C13.0515 12.6042 13.2241 12.3423 13.3432 12.0446C13.4087 11.872 13.4637 11.6592 13.5084 11.4063C13.553 11.1533 13.5828 10.8467 13.5976 10.4866C13.6125 10.1265 13.6214 9.83929 13.6244 9.625C13.6274 9.41072 13.6274 9.09673 13.6244 8.68304C13.6214 8.26935 13.62 8.04167 13.62 8C13.62 7.95834 13.6214 7.73066 13.6244 7.31697C13.6274 6.90328 13.6274 6.58929 13.6244 6.375C13.6214 6.16072 13.6125 5.87352 13.5976 5.5134C13.5828 5.15328 13.553 4.84673 13.5084 4.59375C13.4637 4.34078 13.4087 4.12798 13.3432 3.95536C13.2241 3.65774 13.0515 3.39584 12.8253 3.16965C12.5991 2.94346 12.3372 2.77084 12.0396 2.65179C11.867 2.58631 11.6542 2.53125 11.4012 2.48661C11.1482 2.44197 10.8417 2.41221 10.4816 2.39733C10.1214 2.38244 9.83425 2.37352 9.61996 2.37054C9.40567 2.36756 9.09169 2.36756 8.678 2.37054ZM14.8075 5.16965C14.8372 5.69346 14.8521 6.63691 14.8521 8C14.8521 9.3631 14.8372 10.3066 14.8075 10.8304C14.7479 12.0685 14.3789 13.0268 13.7003 13.7054C13.0217 14.3839 12.0634 14.753 10.8253 14.8125C10.3015 14.8423 9.35806 14.8571 7.99496 14.8571C6.63187 14.8571 5.68841 14.8423 5.1646 14.8125C3.92651 14.753 2.96817 14.3839 2.2896 13.7054C1.61103 13.0268 1.24198 12.0685 1.18246 10.8304C1.1527 10.3066 1.13782 9.3631 1.13782 8C1.13782 6.63691 1.1527 5.69346 1.18246 5.16965C1.24198 3.93155 1.61103 2.97322 2.2896 2.29465C2.96817 1.61608 3.92651 1.24703 5.1646 1.1875C5.68841 1.15774 6.63187 1.14286 7.99496 1.14286C9.35806 1.14286 10.3015 1.15774 10.8253 1.1875C12.0634 1.24703 13.0217 1.61608 13.7003 2.29465C14.3789 2.97322 14.7479 3.93155 14.8075 5.16965Z" fill="#002E48"/>
</svg>
