<svg width="1900" height="28" viewBox="0 0 1900 28" fill="none" xmlns="http://www.w3.org/2000/svg">
<path d="M0.388 0.654785V20.4383H0.645186C1.61812 20.5924 2.55793 20.9101 3.42477 21.378C4.73505 20.4775 6.09938 19.6582 7.51006 18.9248C7.78703 19.825 6.58024 20.9922 4.91842 22.1595C6.25505 23.031 7.68096 23.7572 9.17188 24.3257C11.9515 25.1962 14.6717 24.8995 17.382 24.5335C17.204 23.94 17.5898 23.1486 20.1517 23.4256C19.9662 23.7578 19.7094 24.045 19.3999 24.2664C22.3675 23.9004 25.3845 23.7916 28.3718 25.4732C31.547 27.2636 33.8617 25.7996 37.1655 25.5226C40.6969 25.2358 44.2183 25.5226 47.7398 25.5721C49.6455 25.6018 51.5464 25.7704 53.4276 26.0766C56.0588 23.9103 58.7394 21.9913 61.4498 22.1199C62.439 21.3187 63.3094 20.7054 63.3193 20.6955C69.6896 22.3177 70.4216 23.8707 76.9798 24.8203C73.3496 26.9668 69.284 25.4336 65.7923 24.3851C65.9802 24.5829 66.1682 24.7709 66.3561 24.9885C66.8805 25.6511 67.3161 26.3793 67.6519 27.1548H80.9266C81.1429 26.8544 81.3845 26.5731 81.6487 26.314C82.7768 25.0778 84.3041 24.2783 85.9628 24.0558C87.6215 23.8334 89.3055 24.2021 90.7195 25.0973C91.7779 25.671 92.7967 26.4821 93.8354 27.1548H95.3488C96.0815 25.4367 97.4289 24.054 99.1275 23.2772C101.165 22.4067 102.926 23.6729 104.726 24.7412C104.835 23.6234 109.356 23.4652 111.314 24.4642C109.835 25.0551 108.296 25.4829 106.724 25.7403L107.209 25.8787C110.068 26.5514 113.144 25.5128 116.112 24.9786C115.935 24.9546 115.759 24.9183 115.587 24.8698C115.854 24.2367 116.577 24.0982 117.724 24.4543C117.639 24.5872 117.528 24.7016 117.398 24.7907C117.724 24.7907 118.05 24.7115 118.387 24.7016C125.489 24.395 132.473 25.6018 139.525 25.76C142.859 25.8293 146.647 24.8203 149.882 26.4228C149.012 25.3545 150.723 23.2475 153.463 24.2565C153.928 25.305 152.79 26.0865 150.189 26.591C150.487 26.7614 150.774 26.9497 151.049 27.1548H157.528C158.024 26.0261 158.908 25.1132 160.021 24.5829C163.025 23.3219 166.323 22.9345 169.537 23.4652C170.527 23.1925 171.54 23.0104 172.564 22.9211C172.722 23.0695 171.763 23.3168 170.585 23.6036C175.136 24.4049 179.646 26.2546 184.206 27.1548H193.168C195.625 26.714 198.14 26.714 200.597 27.1548H207.986C208.255 26.4666 208.586 25.8044 208.975 25.1764C212.23 19.7162 218.551 21.4077 222.26 24.1873C223.231 24.9501 223.926 26.0096 224.238 27.2042H224.377C226.08 27.1352 227.769 26.8696 229.412 26.4129C232.646 25.4237 235.485 24.1774 238.809 25.2655C240.195 25.8512 241.549 26.5116 242.865 27.2438H245.951C246.411 27.0158 246.843 26.7335 247.237 26.403C247.751 25.893 248.425 25.5761 249.146 25.5058C249.867 25.4355 250.59 25.6162 251.193 26.0172H251.708C251.638 26.0964 251.559 26.1359 251.49 26.2052C251.86 26.4916 252.193 26.824 252.479 27.1944H273.183C268.751 23.6036 286.22 24.2763 288.327 26.5316C288.528 25.7971 288.902 25.1215 289.418 24.562C289.935 24.0025 290.578 23.5754 291.295 23.3168C294.316 22.431 297.51 22.3052 300.593 22.9508C304.243 23.6234 307.23 22.7431 310.831 21.9616C313.689 21.378 315.866 21.9616 318.339 24.4444C319.471 25.594 320.814 26.5143 322.295 27.1548H328.537C328.815 26.6915 329.147 26.2632 329.526 25.8787C330.515 24.8896 332.227 24.2763 333.364 25.0182C333.941 25.3919 334.562 25.691 335.214 25.9084C335.511 25.9084 335.807 26.0172 336.104 26.0271C336.353 26.0387 336.6 26.0854 336.836 26.1656C337.766 24.1081 339.151 22.6837 340.674 22.9706C342.652 23.3465 344.631 22.8321 346.678 22.6837C349.013 22.5494 351.31 23.3219 353.088 24.8401C354.74 24.7412 355.304 25.3248 357.045 25.6908C356.333 25.5919 354.908 25.4336 353.642 25.305C354.179 25.8343 354.609 26.4624 354.908 27.1548H370.953C371.23 26.4784 371.689 25.8921 372.279 25.4608C372.87 25.0296 373.568 24.7702 374.296 24.7115C377.729 24.7115 381.023 26.1656 384.376 27.1548H387.7C389.282 26.5316 393.635 24.9687 393.081 26.5019C392.981 26.6826 392.839 26.8365 392.666 26.9502C392.494 27.0639 392.297 27.1341 392.091 27.1548H397.829C399.738 26.7987 401.647 26.4129 403.596 26.1656C405.063 26.0409 406.54 26.1987 407.948 26.6305C407.904 26.3265 407.794 26.0357 407.626 25.7788C407.458 25.5219 407.235 25.3051 406.974 25.1437C406.712 24.9823 406.419 24.8804 406.114 24.845C405.808 24.8097 405.499 24.8417 405.208 24.939H405.139C405.396 24.8599 405.534 24.6423 405.693 23.9499C406.83 25.4732 412.043 25.493 408.878 26.9174C409.115 26.9965 409.362 27.0658 409.6 27.1548H413.171C414.391 25.8754 415.983 25.0134 417.721 24.6917C416.999 24.573 416.267 24.4148 415.495 24.2466C418.156 24.0785 420.975 23.9597 422.716 24.5335C421.896 24.7701 421.048 24.8965 420.194 24.9094C420.787 25.0676 421.381 25.2852 421.965 25.5029C422.621 25.8624 423.363 26.04 424.111 26.0172C423.122 25.7106 422.795 25.2556 423.063 24.672C423.375 24.774 423.657 24.9522 423.883 25.1905C424.109 25.4288 424.273 25.7198 424.358 26.037C424.434 26.0322 424.51 26.0322 424.586 26.037C426.91 24.6225 429.215 23.2871 431.896 23.3761C432.618 23.4107 433.311 23.674 433.874 24.1279C436.139 24.306 438.296 25.2061 440.63 25.8886C443.232 26.6404 445.368 25.9974 447.96 25.3842C450.314 24.8203 452.708 24.395 455.003 25.7798C455.533 26.1671 456.003 26.6304 456.398 27.1548H460.809C466.319 23.0893 472.343 25.1171 478.387 27.1548H493.69C494.052 26.9485 494.458 26.8318 494.875 26.8146C495.291 26.7974 495.706 26.8801 496.083 27.0559L494.788 27.1548H496.954C501.197 25.2852 505.293 23.297 509.813 23.1981C515.197 23.2549 520.55 24.0096 525.739 25.4435C528.212 26.0568 530.606 26.6701 533.009 27.1449H548.223C550.938 26.7937 553.688 26.7937 556.403 27.1449H563.07C563.318 26.4327 563.783 25.7502 565.514 24.939C562.873 26.1854 578.017 24.7214 575.178 23.7026C579.104 25.101 583.115 26.2508 587.186 27.1449H593.715C594.054 25.6902 594.891 24.3994 596.079 23.4948C595.407 23.3168 595.644 22.9904 596.801 22.5057C598.216 22.5848 598.78 22.753 598.483 23.0002C602.944 23.0893 607.385 23.4849 611.857 23.8312C612.361 23.119 613.32 22.842 615.111 23.752C615.293 23.8425 615.466 23.9519 615.625 24.0785C616.703 24.1477 617.782 24.2268 618.86 24.2664C621.978 24.4669 625.062 25.0313 628.049 25.948C629.039 24.8005 631.264 25.4435 631.818 26.9372L632.53 27.1251H639.969C640.633 26.6853 641.331 26.2983 642.056 25.9678C642.626 25.9576 643.189 26.0975 643.688 26.3733C643.949 25.7848 644.334 25.2598 644.818 24.8346C645.301 24.4093 645.871 24.094 646.487 23.9103H646.131C639.207 24.8995 638.999 18.0939 648.664 21.4275C651.315 22.3375 652.126 23.5245 649.178 23.8509C651.587 23.89 653.991 24.0684 656.379 24.3851C656.735 23.9894 657.843 23.5839 660.059 22.9607C660.455 23.6531 660.227 24.2664 659.406 24.8104C660.672 25.0083 661.948 25.216 663.224 25.4435C663.923 25.2297 664.589 24.9201 665.203 24.5236C666.103 25.2852 666.103 25.7106 665.203 25.7897C668.17 26.3041 671.049 26.7789 673.987 27.135H682.8C684.858 26.8086 686.885 26.3536 688.893 26.0667C686.599 25.877 684.37 25.2027 682.355 24.0883C687.39 20.369 692.029 26.0667 696.025 20.5273C700.318 21.3088 699.794 24.6522 697.321 26.8086L697.895 27.0954H702.257L703.583 25.4534C705.205 25.0478 708.113 25.4039 709.33 24.7709C707.619 25.7106 707.203 26.4624 707.549 27.0954H713.88C713.672 26.8382 714.048 26.6305 715.067 26.5019L715.423 27.0954H729.41C730.587 25.9011 731.999 24.9649 733.557 24.3467C735.116 23.7285 736.786 23.4417 738.461 23.5047C739.201 23.3954 739.956 23.5236 740.617 23.8707C741.793 24.2132 742.884 24.7959 743.822 25.582C744.485 24.2763 742.438 22.8519 743.1 21.289C744.525 17.817 751.488 17.2334 747.195 13.0195C750.658 12.5051 759.837 14.4637 761.044 13.2866C758.423 14.889 760.262 15.3341 754.703 13.613C753.783 15.8584 746.355 17.7378 750.331 19.3007C750.262 19.3007 753.299 18.7072 756.771 18.1434C756.771 18.6973 756.771 19.2612 756.771 19.8151C758.69 18.9842 760.055 18.3808 758.907 17.8368C761.365 17.4067 763.845 17.1227 766.336 16.9861C766.069 16.8674 763.368 15.5221 763.952 15.4034C765.545 15.0275 771.618 17.4905 771.618 18.4303C771.133 17.0553 767.563 19.1623 767.731 19.6173C767.899 20.0723 772.133 20.0723 772.152 20.6658C772.212 22.6441 766.158 20.4383 765.653 21.3879C765.406 21.8627 766.356 23.8312 767.543 22.9508C767.543 22.9508 767.345 23.2278 767.058 23.6135C773.211 24.6027 779.373 26.1557 785.615 26.4129C785.861 26.3208 786.1 26.2083 786.327 26.0766C785.605 26.5118 790.996 25.8985 791.026 25.8985C792.866 25.3842 790.838 23.1288 792.648 22.8321C794.458 22.5353 795.991 24.9885 796.328 27.135H801.432L801.373 27.0559C799.266 23.9894 808.297 21.467 800.502 19.1425C801.328 19.2448 802.165 19.2248 802.985 19.0831C803.232 20.4284 806.942 19.9437 804.686 21.5363C811.611 20.9032 808.524 17.7675 804.686 18.4204C804.829 18.343 804.964 18.2536 805.092 18.1533C811.927 18.4105 808.93 14.0185 813.886 13.0195C813.816 13.7317 814.252 15.7892 815.29 14.7209C816.487 13.9691 816.101 13.4053 814.163 13.0096H814.459C822.046 9.43866 814.519 17.0652 817.427 17.5301C813.836 19.2908 804.785 23.3168 811.729 25.5523C809.772 25.6781 807.871 26.2608 806.18 27.2537H817.16C817.209 27.0262 817.269 26.7987 817.338 26.5811C817.491 25.6101 817.826 24.6769 818.327 23.8312C818.676 23.0998 819.229 22.4849 819.92 22.0605C820.172 21.8124 820.472 21.6186 820.802 21.491C821.132 21.3634 821.485 21.3048 821.839 21.3187C822.129 21.358 822.417 21.4175 822.699 21.4967C822.965 21.5381 823.227 21.6043 823.481 21.6945C823.859 21.8829 824.211 22.1189 824.529 22.3969C825.144 22.0481 825.778 21.7344 826.428 21.4571C825.35 20.28 825.726 18.6677 830.533 19.1326C834.075 19.459 836.122 22.6837 838.763 23.8312C840.188 24.4444 843.432 24.5335 845.885 25.1171C847.092 24.9655 848.315 25.0123 849.506 25.2556C850.431 25.4859 851.257 26.0099 851.86 26.7492C851.797 26.3885 851.846 26.0173 852 25.685C852.154 25.3528 852.405 25.0753 852.721 24.8896C848.705 24.2961 849.268 18.3511 843.462 17.8466C843.729 19.0732 838.823 19.548 836.825 19.7063C838.951 17.9357 831.879 15.8683 835.094 15.1363C838.061 14.4835 839.98 16.4321 842.463 16.1255C846.42 15.6902 846.815 14.2856 850.455 13.3954C851.722 15.9079 852.641 18.9051 855.203 21.6154C857.17 23.4787 859.306 25.1544 861.584 26.6206C862.039 26.858 862.405 27.046 862.711 27.224H873.75C875.917 26.7195 878.113 26.0766 878.449 24.6423C878.113 24.7313 869.25 26.3634 871.139 25.8293C870.748 24.3618 869.864 23.0732 868.636 22.1792C872.01 24.3851 883.781 25.7798 879.161 21.6945C880.151 22.6837 873.404 23.2179 875.076 21.101C878.044 17.4213 877.697 21.101 884.236 20.191C883.632 19.2711 881.15 18.6677 881.535 17.7181C882.04 16.4321 884.325 17.0652 885.106 16.0958C885.093 16.2717 885.07 16.4467 885.037 16.6201C885.7 17.1055 886.5 17.3672 887.322 17.3672C888.144 17.3672 888.944 17.1055 889.607 16.6201C891.091 17.3323 894.088 17.3422 895.809 18.1632C885.363 19.6568 895.73 19.6074 895.809 22.021C895.868 24.1081 887.549 23.2574 888.885 26.5514C891.991 26.5514 896.066 24.6423 899.528 25.0676C898.427 26.1032 897.067 26.824 895.591 27.1548H905.602C903.416 26.5613 899.311 23.8213 904.158 23.1981C908.55 22.6244 907.758 25.8689 909.549 27.1548H910.607C913.674 26.2151 917.937 26.1656 919.698 27.1548H937.988C937.918 26.9372 937.631 26.6998 936.998 26.403C932.814 24.4247 928.986 27.59 926.632 26.1854C924.584 24.9489 923.011 24.9687 919.262 23.3959C916.809 22.4067 912.942 21.4176 911.863 20.7548C913.753 21.1703 917.512 19.9635 918.511 19.7656C919.013 20.5013 919.674 21.1156 920.444 21.5639C921.214 22.0123 922.074 22.2833 922.962 22.3573C929.609 22.3573 931.736 14.7802 938.354 13.9889C934.14 13.6822 934.595 11.239 928.956 11.605C923.318 11.9709 928.877 12.1094 925.989 13.0887C925.722 13.1777 921.32 14.5725 921.261 14.7505C920.43 17.5598 924.614 16.5212 924.614 16.5904C925.346 17.5796 917.561 16.4222 916.918 16.4321C916.295 16.9267 905.523 21.9814 903.228 19.6568C904.365 20.8241 910.033 14.1768 909.331 14.5428C911.814 13.247 915.563 13.8801 917.245 12.1589C915.593 11.7731 923.367 12.4952 922.022 12.2479C922.008 11.9019 921.907 11.5649 921.729 11.2678C921.551 10.9706 921.302 10.7227 921.003 10.5465H938.482C937.641 11.5357 935.406 12.2776 938.195 13.8702C941.44 14.8 954.883 10.1706 944.674 15.7595C942.924 16.7487 940.52 15.2154 938.383 16.1749C936.247 17.1344 933.902 19.5579 932.824 20.5768L932.933 20.6757C927.206 20.3196 929.491 25.3446 934.555 22.3573C934.066 21.899 933.607 21.41 933.18 20.8933L934.723 22.2979C936.444 22.8914 938.235 23.4454 940.085 23.94C940.846 21.5462 946.02 21.6352 948.374 22.1693C950.046 23.7125 950.046 25.2655 948.374 26.7987C946.895 25.97 945.209 25.5854 943.517 25.6908C943.35 25.8913 943.232 26.1283 943.174 26.3826C943.116 26.637 943.118 26.9015 943.181 27.1548H951.915C952.904 25.9381 951.292 25.0874 953.132 23.752C954.121 23.0299 956.663 24.3159 957.613 23.3761C958.628 22.3598 959.533 21.2391 960.313 20.0327C959.711 20.1354 959.103 20.2048 958.493 20.2405C958.325 18.5094 957.178 15.6507 958.77 13.9988C962.826 15.443 964.656 17.4609 965.952 14.4439C968.711 8.08349 958.879 11.8226 953.29 11.3379C953.617 11.0609 953.983 10.8037 954.349 10.5465H967.277C970.037 11.2587 973.529 11.3774 975.734 10.5465H986.813C986.625 12.1391 990.988 13.6723 992.659 12.238C994.331 10.8037 993.648 10.6751 992.541 10.5465H999.247C998.99 11.5357 996.28 12.2776 997.269 13.2569C999.732 15.7892 1001.69 14.0878 1002.21 12.3567L1002.41 12.4062C1002.41 12.1787 1002.41 12.0006 1002.35 11.8621C1002.35 11.8621 1002.35 11.8028 1002.35 11.7731C1002.35 11.7434 1002.35 11.8226 1002.35 11.8522C1002.78 11.7084 1003.22 11.5895 1003.66 11.4961C1003.23 11.6087 1002.77 11.588 1002.35 11.4368C1002.35 11.4368 1002.35 11.3873 1002.35 11.3676C1004 11.5068 1005.65 11.2206 1007.15 10.5366H1019.02C1020.67 11.0411 1021.69 11.3972 1020.82 11.3181C1013.26 10.5564 1012.08 14.068 1014 14.0779C1015.61 13.791 1016.26 13.1777 1015.97 12.2578C1016.96 12.2083 1020.46 15.0374 1022.62 14.1175C1023.61 13.7119 1024.29 12.3864 1024.92 12.1391C1022.06 13.0195 1024.64 11.4961 1026.45 10.4971H1035.97C1036.53 10.8701 1037.12 11.2007 1037.74 11.4863C1042.21 10.4971 1046.55 10.2894 1047.76 12.792C1049.69 13.1415 1051.68 12.9813 1053.53 12.3271C1053.78 12.3271 1054.63 12.238 1055.83 12.0896C1055.45 11.9696 1055.06 11.9278 1054.67 11.9669C1054.28 12.0061 1053.9 12.1253 1053.55 12.3172C1054.36 11.6268 1055.22 11.0079 1056.13 10.4674H1068.09C1064.76 10.9422 1059.04 11.7039 1055.83 12.0896C1057.1 12.5855 1058.19 13.4544 1058.96 14.5824C1060.64 13.9691 1069.84 12.1292 1070.66 10.4674H1083.99C1081.18 11.051 1078.38 12.5941 1079.96 14.9879C1080.65 13.5042 1088.72 11.417 1088.55 10.8433C1088.52 10.7571 1088.47 10.6789 1088.4 10.614C1088.34 10.5491 1088.26 10.4991 1088.17 10.4674H1103.54C1105.93 11.0695 1108.43 11.0695 1110.82 10.4674H1121.3C1121.4 10.6814 1121.48 10.9031 1121.54 11.1301C1122.27 11.0526 1123 11.0229 1123.73 11.0411C1123.43 10.81 1123.1 10.6173 1122.75 10.4674H1147.43C1139.91 17.3026 1150.49 11.2785 1153.36 15.4924C1154.5 17.1542 1148.18 17.0355 1148.27 16.6695C1148.58 15.1759 1145.59 19.8448 1147.74 18.4402C1147.5 18.5984 1152.47 19.2018 1151.7 19.7953C1148.9 21.8231 1142.35 19.004 1139.37 21.5165C1139.69 21.6055 1143.44 23.3465 1144.48 23.8213C1144.26 24.0883 1141.08 26.7393 1141.63 26.225C1138.2 24.2466 1137.88 23.7125 1139.07 21.2791C1135.18 19.3997 1142.6 17.995 1140.71 15.344C1148.25 10.873 1112.93 12.792 1127.92 16.3332C1125.49 18.3116 1123.75 17.5301 1120.43 16.63C1115.49 15.3045 1119.52 16.0859 1119.44 14.1372C1119.36 12.6238 1106.92 15.2748 1106.7 17.7378C1106.51 19.5381 1114.75 24.1477 1117.96 24.6621C1118.16 23.4058 1120.13 22.4661 1123.1 22.4166C1121 22.0235 1119.03 21.135 1117.34 19.825C1120.05 19.6173 1124.66 20.5372 1126.58 20.6856C1128.41 20.141 1130.29 19.809 1132.19 19.6964C1129.04 16.0661 1136.15 15.7397 1136.15 17.1839C1136.15 18.8853 1133.7 20.2207 1133.12 21.9517C1133.12 22.021 1133.4 25.1665 1133.7 27.1548H1144.26C1144.33 25.9777 1144.42 24.7907 1144.49 23.9103L1144.64 23.9795C1145.24 24.1873 1150.08 26.0073 1149.38 25.9579C1154.49 26.1458 1149.24 21.2791 1156.79 23.9004C1156.2 24.5829 1155.48 23.663 1155.72 25.2556C1156.98 24.9786 1157.37 24.5829 1156.94 24.0488C1158.09 23.5446 1159.18 22.9283 1160.21 22.2089C1160.33 22.2089 1166.71 21.3483 1166.03 21.5165C1166.71 21.3483 1172.06 19.7162 1173.38 19.5381C1175.97 19.2414 1183.18 20.4284 1184.58 20.1811C1192.36 18.8358 1182.39 19.1919 1179.24 17.3718C1176.08 15.5518 1180.35 12.2776 1172.76 11.506C1172.94 11.2047 1173.04 10.866 1173.07 10.5169H1188.26C1185.29 12.4952 1191.46 14.2658 1191.55 15.1264C1190.31 15.4633 1189.05 15.695 1187.77 15.8188C1188.01 15.5518 1191.96 19.8942 1192.3 20.3888C1192.36 20.4976 1188.28 23.3564 1188.96 23.0497C1197.94 21.744 1194.19 25.0874 1202.37 22.1891C1203.52 21.7836 1203.95 20.3888 1204.87 19.548C1204.34 20.191 1209.37 18.4896 1210.97 18.0939C1207.01 16.9267 1202.07 18.915 1198.52 17.7082C1195.49 16.719 1199 13.158 1194.87 12.8909C1198.75 13.4349 1201.48 11.9611 1205.15 12.6832C1207.78 13.2074 1207.26 15.532 1211.15 16.076C1224.01 17.8862 1212.14 6.41178 1228.78 12.7029C1222.46 13.2569 1223.83 16.5706 1216.91 16.2541C1217.42 19.0139 1217.28 21.2 1214.13 22.3276C1209.59 20.8834 1208.88 20.9527 1205.32 21.9616C1204.1 22.3078 1201.66 25.5325 1201.06 27.1251H1209.26C1210.05 25.8787 1210.32 24.573 1215.66 23.8905C1218.55 23.5047 1220.76 24.8797 1223.46 24.7412C1225.03 24.6324 1226.68 21.655 1228.86 22.3672C1232.59 23.6135 1221.54 25.8293 1221.44 25.9282C1221.23 26.0658 1221.06 26.2423 1220.92 26.4477C1220.78 26.6531 1220.69 26.8833 1220.64 27.1251H1225.87C1226.97 24.7511 1228.69 23.1684 1230.81 23.6828C1232.44 24.0625 1234.1 24.3531 1235.76 24.5533C1236.12 23.0794 1236.75 21.8132 1238.04 21.5363C1240.43 21.0021 1243.61 23.8608 1240.43 24.85V24.9193C1242.3 24.9687 1244.18 24.9193 1246.06 24.8203C1245.62 23.2871 1244.3 21.2098 1245.92 20.7944C1246.7 21.7836 1247.98 23.3564 1247.68 24.7016C1248.74 24.6126 1249.79 24.5038 1250.84 24.3752C1249.97 23.6828 1250.81 23.386 1253.37 23.4849C1253.54 23.3168 1253.28 23.663 1252.92 24.0982C1259.17 23.1981 1265.42 21.7539 1271.72 20.5075C1269.87 19.7162 1268.21 19.6469 1269.32 17.7279C1269.73 17.0256 1275.4 13.9196 1276.94 15.7991C1278.17 17.3125 1270.01 17.5202 1271.7 19.1425C1272.89 19.2593 1274.06 19.4912 1275.21 19.8349C1276.61 19.5777 1278.01 19.3403 1279.4 19.1326C1279.74 18.9037 1280.12 18.7545 1280.52 18.6963C1280.93 18.638 1281.34 18.6722 1281.73 18.7963C1283.96 18.5094 1286.19 18.3017 1288.42 18.2028C1293.79 17.9851 1299.18 18.0148 1304.58 18.2028C1305.53 16.8787 1306.77 15.7838 1308.2 14.9978C1312.87 14.2164 1311.16 16.7388 1308.2 18.3511C1318.9 18.9758 1329.55 20.2675 1340.1 22.2188C1344.16 22.9895 1348.28 23.4918 1352.41 23.7223C1352.24 23.1882 1352.9 22.7826 1354.39 22.4859C1354.85 22.0605 1354.2 23.119 1353.31 23.7619C1356.71 23.8783 1360.11 23.7095 1363.47 23.2574C1359.23 21.0714 1355.96 18.7666 1358.12 18.7369C1361.02 18.7369 1363.21 21.4472 1365.77 22.9112H1365.89C1368.65 22.4067 1371.4 21.9221 1374.16 21.4571C1374.02 21.3925 1373.89 21.2878 1373.8 21.1549C1373.71 21.022 1373.66 20.8662 1373.65 20.7054C1371.81 20.6057 1369.98 20.3408 1368.19 19.914C1369.87 18.7666 1375 20.3394 1376.63 21.1208C1377.93 20.9527 1379.24 20.8241 1380.58 20.7449C1380.86 20.3394 1381.57 20.1119 1382.86 20.0426C1382.59 20.3008 1382.29 20.5176 1381.96 20.6856C1384.78 20.5651 1387.61 20.781 1390.39 21.3285C1391.19 21.4967 1391.99 21.6945 1392.79 21.9122C1395.07 21.9715 1396.9 21.7638 1397.87 20.0525C1399.65 23.4355 1405.12 19.9932 1403.43 17.5103C1404.13 17.9851 1405.78 18.3017 1408.97 18.3412C1414.21 18.4006 1412.93 18.8853 1414.37 16.7091C1415.75 14.7307 1410.35 16.4618 1409.29 15.7199C1407.6 14.4142 1429.82 10.2399 1429.86 10.774C1430.21 14.4637 1419.13 13.0689 1418.35 16.3629C1415.22 15.7991 1413.98 16.1156 1414.64 17.3521C1415.92 17.5265 1417.22 17.2427 1418.31 16.5508C1418.31 16.7586 1426.08 21.2692 1422.47 20.9922C1416.02 20.4877 1416.97 19.1326 1411.19 21.655C1409.89 22.1507 1408.71 22.9276 1407.75 23.9301C1406.96 20.2306 1399.24 21.4176 1400.16 24.3159L1401.42 24.7709L1407.65 24.0488C1406.76 25.038 1406.51 25.7403 1404.38 25.8293C1405.75 26.3041 1407.12 26.7492 1408.5 27.1548H1431.78C1432.47 26.6305 1431.32 26.68 1433.08 25.0676C1422.79 23.7125 1432.22 17.5301 1432.38 14.0977C1436.64 15.71 1433.59 18.5193 1434.45 20.191C1436.16 20.5867 1437.95 20.9032 1439.75 21.1802C1441.26 22.0111 1441.15 22.8914 1439.45 23.8114C1439.88 24.7214 1439.61 25.9678 1439.45 27.1746H1441.49C1442.86 27.0064 1444.25 26.8382 1445.63 26.6998C1444.44 26.4236 1443.38 25.7202 1442.66 24.7214C1443.4 24.4041 1444.15 24.1493 1444.93 23.9597C1450.76 21.0714 1450.02 25.5424 1447.28 26.5613C1451.05 26.2052 1454.83 25.9084 1458.62 25.7205C1460.74 25.3914 1462.88 25.3084 1465.02 25.4732C1469.04 25.3677 1473.06 25.3677 1477.08 25.4732C1477.31 25.277 1477.53 25.0655 1477.73 24.8401C1479.25 23.1091 1475.75 22.199 1480.7 20.6262C1479.71 21.7638 1480.94 23.7322 1482.42 25.6413C1485.17 25.76 1487.93 25.8985 1490.67 26.0964C1491.56 26.166 1492.4 26.5683 1493.01 27.224H1496.76C1499.27 25.4482 1502.19 24.3263 1505.24 23.9597C1507.85 25.0281 1507.44 26.126 1506.65 27.224H1512.72C1512.21 25.1369 1514.15 24.0785 1510.1 21.7737C1511.48 22.5057 1516.03 18.7171 1519.07 19.0436C1520.44 19.2018 1524.11 21.9221 1525.3 22.4562C1529.52 24.3257 1535.19 25.7205 1540.22 27.224H1541.36C1541.23 25.2457 1549.57 26.5613 1551 27.224H1575.56C1581.34 24.761 1587.09 21.9913 1592.95 21.0714C1592.64 20.6262 1592.7 20.1415 1593.29 19.7162C1594.13 19.8378 1594.91 20.2179 1595.53 20.8043C1597.18 20.6994 1598.84 20.7857 1600.48 21.0615C1608.12 22.4067 1616.43 29.4101 1624.08 26.5019C1629.36 24.5236 1633.49 23.7817 1638.03 27.224H1642.16C1643.15 26.2942 1646.29 25.2457 1649.64 25.948C1649.1 26.3068 1648.61 26.7359 1648.19 27.224H1657.7C1656.31 26.6206 1654.73 26.0865 1655.28 25.4039C1655.82 24.7214 1660.71 24.8995 1660.46 24.8896C1660.36 25.2163 1660.33 25.56 1660.36 25.9C1660.4 26.24 1660.5 26.5693 1660.67 26.8679C1668.04 25.8787 1675.51 25.5128 1682.79 25.1171C1703.56 23.9795 1724.38 22.3375 1745.17 21.8924C1755.49 21.5664 1765.81 22.0725 1776.05 23.4058C1779.84 23.9707 1783.61 24.7568 1787.31 25.76C1787.41 25.6641 1787.52 25.5928 1787.65 25.5523C1787.79 25.6507 1787.9 25.7794 1787.98 25.9282C1789.6 26.3634 1791.22 26.7987 1792.84 27.2537H1816.39C1817.28 26.1162 1820.17 24.1774 1821.1 25.1863C1820.43 26.2645 1820.17 26.8877 1819.9 27.2537H1845.24C1863.38 22.753 1881.49 17.2531 1899.58 23.297V0.654785H0.388ZM943.656 19.5876C940.164 18.5193 943.062 18.0643 942.251 17.6092C942.785 17.9258 944.546 20.369 943.656 19.5876ZM953.933 13.6525C952.301 14.7505 956.357 19.3898 958.335 20.2503C957.741 20.3789 950.422 22.2287 951.806 20.1218C952.538 19.8052 953.29 19.5085 954.072 19.2216C955.268 17.8664 947.563 18.2324 949.126 18.183C948.156 17.1245 949.373 13.2569 953.953 13.6624L953.933 13.6525ZM1111.34 16.9267C1111.61 16.2739 1112.33 16.1453 1113.5 16.5409C1113.21 17.1839 1112.5 17.3026 1111.34 16.9366V16.9267ZM1198.46 21.2989C1199.92 20.6658 1200.74 20.7845 1200.92 21.6352C1199.73 21.6846 1196.99 21.7935 1198.46 21.3088V21.2989ZM1412.12 26.6602C1412.6 26.4576 1413.12 26.3606 1413.64 26.376C1414.16 26.3914 1414.68 26.5186 1415.15 26.7492C1414.14 27.0193 1413.09 26.9918 1412.1 26.6701L1412.12 26.6602ZM1426.19 17.0949C1424.35 16.4816 1424.53 15.8782 1426.75 15.255C1427.71 15.8089 1427.51 16.4255 1426.17 17.1048L1426.19 17.0949ZM1695.07 16.8871C1696.46 15.443 1699.25 13.7218 1700.02 12.7524C1701.37 13.5141 1699.26 17.4708 1695.05 16.897L1695.07 16.8871ZM1686.4 11.3379C1686.63 11.872 1686.4 12.3271 1685.59 12.7326C1685.29 12.4642 1685.07 12.1169 1684.96 11.7304C1684.84 11.3438 1684.84 10.9336 1684.95 10.5465H1686.31C1686.63 10.9422 1686.82 11.3478 1686.38 11.3478L1686.4 11.3379ZM1582.04 13.7119C1581.18 13.8991 1580.28 13.8512 1579.44 13.5734C1580.3 13.4044 1581.19 13.4554 1582.02 13.7218L1582.04 13.7119ZM1568.49 11.3082C1567.01 11.257 1565.56 10.9973 1564.16 10.5366H1571.43C1572.31 11.1994 1572 11.6445 1568.47 11.3181L1568.49 11.3082ZM1554.94 18.9051C1557.29 19.8942 1557.1 20.3987 1554.37 20.5174C1554.15 20.0624 1553.91 19.5975 1553.7 19.1326C1554.09 19.0046 1554.5 18.9313 1554.92 18.915L1554.94 18.9051ZM1558.34 10.5465C1558.13 10.7365 1557.9 10.9054 1557.66 11.051C1557.05 10.9927 1556.45 10.8217 1555.91 10.5465H1558.34ZM1260.7 10.5465H1266.95C1266.14 11.1796 1260.91 11.5357 1258.25 12.2875C1259.03 11.6589 1259.85 11.0776 1260.7 10.5465ZM1233.24 13.7712C1233.1 14.1473 1233.02 14.54 1232.99 14.9385C1232.46 14.4538 1233.29 13.1975 1233.98 12.7326C1234.97 13.2371 1234.72 13.5833 1233.24 13.7712ZM828.328 11.1598C827.052 11.5456 826.349 11.3873 826.25 10.7147C826.483 10.6397 826.721 10.5835 826.963 10.5465H827.675C827.831 10.5757 827.975 10.649 828.091 10.7577C828.207 10.8664 828.289 11.0059 828.328 11.1598ZM780.135 14.8396C781.728 15.2451 781.945 15.6804 780.758 16.1749C780.076 15.621 775.14 12.2182 775.516 11.8424C777.192 11.4348 778.946 11.4792 780.6 11.9709C778.285 13.3459 777.098 13.6031 780.125 14.8396H780.135ZM674.867 14.5527C668.042 13.9691 669.723 12.1193 669.822 10.5465H673.284C674.118 11.7386 674.657 13.1116 674.857 14.5527H674.867ZM701.812 10.5465H703.395C702.996 10.6501 702.589 10.7163 702.178 10.7444C701.862 10.7642 701.782 10.685 701.812 10.5465ZM589.936 12.1391C588.284 12.4501 586.601 12.5696 584.921 12.4952C585.376 11.2587 588.423 11.7138 589.936 12.1391ZM581.034 14.7406C580.411 14.2955 580.381 13.8306 581.034 13.3459C582.607 13.6624 582.607 14.1372 581.034 14.7406ZM572.131 14.5032C571.794 14.6732 571.423 14.7666 571.045 14.7768C570.667 14.7871 570.292 14.7139 569.945 14.5626C570.245 14.2991 570.628 14.149 571.027 14.1382C571.427 14.1273 571.817 14.2565 572.131 14.5032ZM608.572 10.5465C608.295 11.1301 607.732 11.5357 606.525 11.3873C606.277 11.378 606.039 11.2922 605.842 11.1416C605.646 10.991 605.5 10.7831 605.427 10.5465H608.572ZM361.091 11.4566C360.433 11.7977 359.71 11.9961 358.971 12.0387C358.231 12.0813 357.49 11.9672 356.798 11.7039C357.817 10.7048 359.251 10.6356 361.061 11.4566H361.091ZM119.861 10.5465H121.512C121.099 11.1039 120.766 11.7166 120.523 12.3666C119.93 11.7533 119.495 11.1203 119.861 10.5465ZM1.60469 11.9709C2.19819 11.6742 2.76202 11.3478 3.35553 11.051C4.92831 12.2875 4.49308 12.8117 1.60469 11.9709ZM5.94716 16.3332C4.89864 15.8782 5.08658 15.5419 6.55056 15.344C8.3014 15.7397 8.05411 16.0661 5.94716 16.3332ZM13.6924 14.7505C6.13511 14.0977 7.30233 10.1113 11.0216 11.4665C15.8587 13.2272 13.5045 13.4448 14.9783 15.6507C20.2309 23.9103 12.0009 20.9527 13.6924 14.7505ZM26.799 22.565C27.0067 22.3573 25.4141 22.0309 27.254 21.1802C28.5498 20.6163 29.3609 20.5867 29.7072 21.1208C25.1174 21.0813 28.4905 21.2593 26.799 22.565ZM36.1566 18.2522C39.8363 17.8763 39.9649 17.5598 42.8236 18.1632C40.6969 20.8735 39.2329 20.4383 36.1566 18.2522ZM49.2236 13.5734L46.444 13.9196C43.5853 14.2164 47.2848 13.4448 49.2236 13.5734ZM50.6084 19.2612L47.0672 17.7873C51.924 16.4816 53.5957 17.4708 50.6084 19.2612ZM56.5435 20.3592C55.2674 19.9437 55.2971 19.37 56.6721 18.5391C58.5416 19.0436 58.5119 19.6469 56.5731 20.3592H56.5435ZM54.5651 13.3657C55.7225 9.94314 59.1846 12.5645 59.511 13.2173C57.9022 12.6658 56.1478 12.7185 54.575 13.3657H54.5651ZM69.1456 18.3116C71.4602 18.7171 72.8945 19.4392 73.488 20.4581C71.1734 20.369 67.6519 19.7656 69.1555 18.361L69.1456 18.3116ZM83.3106 17.6983C82.7208 17.9254 82.0906 18.0286 81.4592 18.0014C80.8277 17.9741 80.2087 17.8171 79.6407 17.54C80.8602 17.2373 82.1427 17.3097 83.3204 17.7477L83.3106 17.6983ZM80.5112 24.395C80.2738 23.7322 80.6497 23.1585 81.6685 22.6936C85.19 23.2574 80.6002 24.4543 80.5112 24.395ZM83.8348 21.1604C82.4895 20.191 81.5004 19.9536 80.6497 20.4383C82.2225 19.1128 83.182 18.361 83.7062 17.9357C84.8932 18.9842 84.9427 20.0525 83.815 21.1307L83.8348 21.1604ZM88.7807 13.247C89.5621 13.7811 89.1862 14.0878 87.7025 14.1669C86.8122 13.5833 87.1584 13.2668 88.751 13.2371L88.7807 13.247ZM91.6196 20.7153C87.9003 20.7153 87.9795 12.8612 93.598 17.3026C94.1222 18.361 96.6941 20.735 91.5899 20.7054L91.6196 20.7153ZM93.8354 17.3026C94.5872 16.5607 95.7247 16.4025 97.2282 16.8871C96.1215 17.2289 94.9617 17.3663 93.8057 17.2927L93.8354 17.3026ZM96.15 15.0077C92.9055 13.6031 95.1609 11.5951 97.8119 10.5564H101.838C99.8565 11.9371 97.9482 13.4196 96.1204 14.9978L96.15 15.0077ZM102.738 20.7746C103.233 20.4284 103.727 20.0921 104.222 19.7854C104.489 19.7558 103.974 20.8933 102.708 20.7647L102.738 20.7746ZM111.997 14.0383C110.384 12.4556 110.355 11.9116 113.322 10.7246C114.479 12.0896 114.054 13.1876 111.967 14.0284L111.997 14.0383ZM119.613 17.5994C119.317 17.1542 122.967 14.5626 123.768 16.5212C124.721 16.1653 125.765 16.1374 126.735 16.442C126.528 16.7091 121.562 17.1443 119.584 17.5895L119.613 17.5994ZM131.76 17.2433C130.929 16.8179 130.979 16.4123 131.849 16.0365C132.631 16.4816 132.601 16.8377 131.731 17.2334L131.76 17.2433ZM145.045 24.6225C143.996 25.2358 145.906 23.0002 146.034 22.6441C146.717 23.4058 146.4 24.0488 145.015 24.6126L145.045 24.6225ZM143.512 16.7882L148.764 18.5687C144.422 21.4275 143.818 16.8871 143.482 16.7783L143.512 16.7882ZM151.583 17.7774C150.476 17.0256 150.716 16.3662 152.306 15.7991C153.601 15.255 151.9 17.3817 151.554 17.7378L151.583 17.7774ZM157.004 15.1066C155.688 14.5923 155.026 13.9592 155.026 13.2074C154.957 13.4151 158.973 14.1669 156.974 15.0671L157.004 15.1066ZM157.548 22.3276L155.194 22.4463C155.451 22.0408 158.933 18.7072 157.825 18.3412C159.23 18.7468 157.133 23.1486 157.518 22.288L157.548 22.3276ZM166.807 19.2414C163.948 20.4086 163.671 17.4312 165.076 16.6893C167.034 17.3521 167.638 18.2126 166.777 19.2018L166.807 19.2414ZM165.016 16.4816C164.641 15.4924 165.402 14.9088 167.4 14.7802C167.351 15.5419 166.569 16.1057 165.016 16.4816ZM188.757 16.4222C187.599 15.7298 187.916 15.0671 189.746 14.4439C190.972 15.1957 190.616 15.8584 188.727 16.4816L188.757 16.4222ZM195.453 24.8797C193.208 25.0874 195.315 22.2485 195.453 22.1595C196.443 22.5947 197.511 22.9805 198.609 23.3366C199.311 22.9904 197.639 24.7016 195.424 24.8896L195.453 24.8797ZM197.076 13.9988L199.123 14.523C197.016 15.0869 194.771 15.3045 197.046 13.979L197.076 13.9988ZM218.62 19.8448C220.074 19.4788 221.024 19.7459 221.429 20.6361C219.747 21.0516 218.798 20.7944 218.59 19.825L218.62 19.8448ZM225.445 18.2126C224.456 17.5301 225.336 15.5814 227.226 17.4015L225.445 18.2126ZM234.496 17.5202C236.183 17.4699 237.864 17.7522 239.442 18.3511C236.86 19.3502 234.358 19.2711 234.466 17.4708L234.496 17.5202ZM255.823 20.8142C255.17 20.5174 255.496 19.5085 256.278 18.8358C257.514 19.548 257.356 20.191 255.793 20.7944L255.823 20.8142ZM267.05 23.1684C268.296 22.5947 269.028 22.7332 269.345 23.5839C267.584 24.0785 266.832 23.94 267.02 23.1486L267.05 23.1684ZM296.923 21.5857C298.068 21.5478 299.214 21.5742 300.355 21.6649C299.287 21.6055 297.754 21.5758 296.893 21.5659L296.923 21.5857ZM334.571 21.4275C334.304 21.0813 334.571 20.735 334.897 20.4383C335.501 20.8142 335.422 21.1307 334.571 21.4275ZM336.134 17.7082C334.789 18.1137 333.226 15.3539 334.897 14.8494C336.915 15.2056 338.35 17.0553 336.134 17.7082ZM342.86 20.5372C342.019 20.0129 342.296 19.6865 343.671 19.548C344.562 20.1218 344.295 20.4383 342.86 20.5372ZM353.088 18.9545C359.251 19.4293 357.579 21.101 358.677 22.9112C353.959 23.4058 353.336 20.4383 353.088 18.9545ZM359.765 13.3954C360.444 13.2628 361.132 13.1769 361.823 13.1382C361.176 13.421 360.461 13.5103 359.765 13.3954ZM374.128 24.395C372.615 24.1873 372.535 23.7817 373.93 23.1783C376.275 23.3069 376.334 23.7125 374.128 24.395ZM372.931 16.2442C371.635 15.7397 374.722 13.4053 375.345 13.4745C376.055 14.0768 376.698 14.7533 377.264 15.4924C375.965 16.2783 374.415 16.5367 372.931 16.2145V16.2442ZM389.322 23.1684C389.164 22.3573 389.757 22.1792 391.083 22.7628C390.944 23.4751 390.351 23.6135 389.322 23.1486V23.1684ZM402.982 25.2951C403.586 25.0968 404.217 24.9966 404.852 24.9984C404.248 25.0874 403.625 25.1764 402.982 25.2951ZM409.906 21.7341C410.606 21.4428 411.358 21.2995 412.116 21.3131C412.873 21.3267 413.62 21.497 414.308 21.8132C412.162 22.842 410.272 21.7341 409.906 21.7341ZM415.139 18.9248C412.281 17.9357 413.359 14.7505 417.414 15.1957C417.088 15.7397 416.761 16.2936 416.425 16.8377C417.751 18.183 417.325 18.8754 415.129 18.9248H415.139ZM421.638 22.4166C419.699 22.0605 419.422 21.5692 420.807 20.9428C422.449 21.3681 422.766 21.8627 421.638 22.4166ZM435.546 18.6973C430.679 18.5885 430.679 17.4708 433.647 15.9276C433.271 15.077 433.884 14.4538 435.506 14.0779C435.813 14.2559 435.012 17.5895 435.546 18.7171V18.6973ZM430.679 10.873C433.103 10.7839 434.784 10.6158 436.802 10.596C434.779 10.9304 432.724 11.0234 430.679 10.873ZM440.828 14.5824C440.67 15.1066 439.938 15.3935 438.612 15.4825C437.712 15.8089 439.077 14.5032 440.808 14.5824H440.828ZM441.125 16.9762C442.114 17.4213 442.114 17.8664 441.184 18.3313C440.057 17.8862 440.027 17.4708 441.105 16.9762H441.125ZM440.393 24.0785C442.421 23.1585 443.667 23.2772 443.311 21.8429C444.775 22.1199 445.477 22.6145 445.418 23.3267C445.368 24.8698 442.213 24.5631 440.373 24.0785H440.393ZM454.845 21.9418L450.74 22.5156C450.537 22.3544 450.386 22.1379 450.304 21.8924C452.342 21.1307 455.092 20.2405 454.825 21.9418H454.845ZM455.735 16.3035C456.727 16.1681 457.736 16.3444 458.623 16.808C459.899 16.9267 453.935 16.5706 455.715 16.3035H455.735ZM454.855 10.5465H459.454C459.967 11.2333 460.404 11.9728 460.76 12.7524H460.542C458.549 12.2997 456.632 11.5564 454.855 10.5465ZM460.602 25.4435C461.759 24.9094 462.303 25.038 462.244 25.7897C461.007 26.3733 460.434 26.2645 460.602 25.4435ZM466.289 18.4599C466.685 17.9555 466.289 17.0256 466.369 16.8575C469.079 17.1245 467.16 17.9258 466.289 18.4599ZM463.322 13.2272C465.508 13.0491 468.268 12.8711 469.049 13.3657C470.642 14.4439 466.289 13.7811 463.322 13.2272ZM475.281 24.1972C472.739 23.6333 477.022 21.8924 477.695 21.5956C477.457 22.9211 476.32 24.395 475.281 24.1972ZM477.714 21.4275C477.238 20.9902 476.933 20.3976 476.854 19.7558C477.606 19.9833 477.823 20.6757 477.714 21.4275ZM483.194 24.7709C481.661 24.2268 481.74 23.9004 483.491 23.7817C485.677 24.395 485.598 24.7313 483.194 24.7907V24.7709ZM495.45 15.5518C498.131 12.2281 501.633 18.1731 501.662 18.2225C501.039 18.1137 496.103 14.7505 495.45 15.5715V15.5518ZM515.62 16.1255C515.62 15.1858 516.46 15.1363 518.29 15.9276C517.905 16.1979 517.454 16.3605 516.985 16.3987C516.515 16.437 516.044 16.3495 515.62 16.1453V16.1255ZM525.314 21.7836C523.663 21.9139 522.012 21.5229 520.595 20.6658C522.237 20.369 523.939 20.0723 525.64 19.8151C526.353 18.8732 527.358 18.1947 528.499 17.8862C527.233 18.6578 526.965 21.0812 525.314 21.8033V21.7836ZM534.839 15.898C535.977 14.9088 536.709 14.9088 537.035 15.8287C535.868 16.808 535.136 16.8377 534.839 15.9178V15.898ZM544.563 12.7227C543.673 12.515 543.673 12.1985 544.563 11.7929C545.424 12.0204 545.424 12.3271 544.563 12.7425V12.7227ZM553.04 23.2772C551.448 23.4948 551.428 21.7143 551.665 20.2306C554.395 21.3483 554.87 22.4166 552.991 23.2772H553.04ZM551.695 20.0723C551.798 19.493 551.94 18.9213 552.12 18.361C554.633 17.5499 558.273 16.6003 558.273 15.5814C560.459 16.0661 554.722 19.5184 551.645 20.0723H551.695ZM559.272 24.4642C557.363 24.3159 556.759 23.9301 557.541 23.3069C559.598 23.4058 560.192 23.7421 559.272 24.4642ZM566.196 18.3412C570.153 18.2423 572.191 18.816 572.329 20.0426C571.508 21.0911 562.002 20.0822 566.107 18.3412H566.196ZM578.64 20.4976C576.533 18.9446 586.989 19.6074 587.909 20.1218C586.969 21.4868 579.906 21.4967 578.551 20.4976H578.64ZM588.116 23.1981C587.473 23.1981 588.601 22.3177 589.709 21.9814C590.273 21.8132 588.65 23.0398 588.027 23.1981H588.116ZM587.879 14.7505C588.846 14.0878 589.66 13.224 590.263 12.2182L592.469 12.9502C591.598 14.2658 590.085 14.8791 587.79 14.7505H587.879ZM596.03 16.5508C597.138 16.1156 597.87 16.2145 598.245 16.8377C598.087 16.9957 597.894 17.1155 597.683 17.188C597.471 17.2605 597.245 17.2839 597.023 17.2562C596.801 17.2286 596.588 17.1507 596.401 17.0284C596.213 16.9062 596.056 16.7429 595.941 16.5508H596.03ZM598.008 12.8315C595.634 12.0699 598.008 9.86401 599.601 11.5258C599.017 11.9611 598.483 12.4062 597.939 12.8315H598.008ZM605.002 15.0671C606.812 15.7991 606.189 19.1919 605.892 18.0346C603.359 16.9993 603.04 16.0101 604.932 15.0671H605.002ZM604.705 22.8024C603.409 21.9715 603.716 19.548 608.048 20.4383C609.255 21.4967 608.117 22.288 604.635 22.8024H604.705ZM616.486 21.3088C615.338 21.4868 614.161 21.6352 612.964 21.744C610.135 21.655 616.921 14.1175 619.691 15.8089C618.692 15.2253 615.803 21.0021 616.417 21.3088H616.486ZM637.991 16.1947C637.397 15.9969 625.685 19.5777 627.594 15.077C627.357 15.621 633.213 13.3657 633.529 13.1975C634.518 15.5122 642.768 14.345 643.955 12.693C645.488 13.0887 646.329 13.6822 646.497 14.5527C646.804 19.1721 640.196 16.8674 637.921 16.1947H637.991ZM652.828 18.7864C651.968 18.2324 652.264 17.7972 653.669 17.6092C654.856 18.4599 654.579 18.8259 652.769 18.7864H652.828ZM660.633 18.3116C657.507 19.6667 654.074 16.0562 657.665 15.7496C660.168 15.8782 661.157 16.7388 660.573 18.3116H660.633ZM660.168 10.5465H663.422C663.719 10.9125 663.422 11.3082 661.503 11.9709C660.445 11.5357 660.01 11.0312 660.168 10.5465ZM661.83 14.2955L664.154 13.5536C664.425 13.5698 664.689 13.6414 664.93 13.7639C665.172 13.8864 665.386 14.0573 665.559 14.2658C665.062 14.7379 664.405 15.0036 663.72 15.0091C663.035 15.0146 662.373 14.7595 661.869 14.2955H661.83ZM665.984 19.1128C667.731 18.582 669.592 18.5511 671.355 19.0238C669.07 19.9932 668.447 20.2998 666.024 19.1128H665.984ZM682.137 24.0587C679.457 28.0154 676.034 23.6234 673.146 22.2089C672.978 23.3366 671.899 24.1873 669.901 24.8401C668.971 24.2466 672.503 21.5857 671.88 19.1721C675.579 20.1613 679.368 22.3969 682.108 24.0587H682.137ZM688.448 12.9206C686.885 12.8019 686.589 12.4655 687.558 11.9314C689.111 11.9907 689.408 12.3369 688.488 12.9107L688.448 12.9206ZM690.367 18.5687C690.555 18.7369 693.909 15.4528 694.096 15.4825C694.819 15.7595 695.58 16.0463 696.312 16.3431C698.024 15.255 691.821 19.6964 690.407 18.5589L690.367 18.5687ZM698.063 17.9456C698.698 17.463 699.43 17.1245 700.209 16.9537C700.988 16.7828 701.795 16.7838 702.574 16.9564C702.702 17.0256 701.832 20.7251 698.103 17.9357L698.063 17.9456ZM703.949 20.0129C705.294 19.0732 706.323 19.2018 706.995 20.3789C705.363 21.2296 704.334 21.1109 703.988 20.003L703.949 20.0129ZM709.627 17.4708C704.097 16.996 708.093 12.8513 708.281 14.5032C710.616 15.2056 711.061 16.2046 709.627 17.4708ZM717.322 14.1372C716.185 14.7901 715.651 14.6516 715.68 13.7218C716.917 13.1876 717.461 13.3261 717.352 14.0977L717.322 14.1372ZM728.935 17.2729C724.692 15.1066 725.364 15.6507 728.53 13.8899C731.092 15.5419 731.824 15.2056 728.965 17.2334L728.935 17.2729ZM740.805 12.7227C738.224 13.8702 736.849 12.2182 736.156 10.5861H739.579C740.212 11.3478 741.082 12.5249 740.815 12.6832L740.805 12.7227ZM751.548 11.9907C750.499 11.7632 751.548 10.9521 751.785 10.5861H751.934C752.349 11.0213 752.25 11.5357 751.558 11.9512L751.548 11.9907ZM768.364 11.4961C768.243 11.381 768.154 11.2371 768.103 11.078C768.053 10.9189 768.044 10.7497 768.077 10.5861H769.284C769.096 10.9839 768.763 11.2951 768.354 11.4566L768.364 11.4961ZM774.299 24.3554C774.818 24.0597 775.391 23.8714 775.984 23.8017C776.577 23.7321 777.178 23.7824 777.751 23.9499C777.425 24.9094 776.287 25.0478 774.319 24.395L774.299 24.3554ZM781.322 20.003C779.906 20.032 778.5 20.2414 777.138 20.6262C777.237 20.8043 776.673 18.7468 777.919 19.093C782.509 20.3097 780.481 19.5184 783.854 20.0822C783.457 20.2613 783.023 20.3464 782.588 20.331C782.152 20.3155 781.726 20.1999 781.342 19.9932L781.322 20.003ZM785.397 16.4321C785.746 16.0967 786.201 15.8942 786.684 15.8599C787.167 15.8255 787.646 15.9615 788.039 16.2442C787.661 16.5139 787.216 16.6734 786.753 16.7049C786.29 16.7363 785.828 16.6385 785.417 16.4222L785.397 16.4321ZM790.205 14.1273C788.365 13.5042 787.583 12.6337 787.851 11.5258C790.848 9.55736 791.491 13.0393 790.225 14.1175L790.205 14.1273ZM801.165 22.6837C800.947 23.4058 800.245 23.5344 799.088 23.0794C799.315 22.4166 800.027 22.288 801.185 22.6738L801.165 22.6837ZM794.389 18.1731C794.389 17.5598 800.838 13.8801 800.651 14.9681C800.631 15.3539 795.754 17.6092 794.409 18.1632L794.389 18.1731ZM809.424 11.6247C807.961 11.5555 807.664 11.2587 808.564 10.7543C810.176 10.7543 810.443 11.051 809.444 11.6148L809.424 11.6247ZM831.641 13.0986C830.721 13.791 829.485 16.1749 827.912 16.5212C823.194 17.5796 824.816 15.1165 826.349 13.9295C827.131 13.9988 830.514 13.0195 832.937 12.1688C834.419 11.5386 836.054 11.363 837.636 11.6643C834.629 12.5249 833.659 11.5357 831.661 13.0887L831.641 13.0986ZM855.382 11.0114C854.729 10.9026 854.531 10.7444 854.64 10.5564H864.027L863.859 10.6949C861.042 11.0134 858.204 11.1159 855.372 11.0016L855.382 11.0114ZM859.506 21.5363C859.754 20.5471 860.862 19.9338 861.91 19.1227C862.659 19.7487 863.36 20.4299 864.007 21.1604C862.561 21.672 861.006 21.7981 859.497 21.5264L859.506 21.5363ZM871.119 17.6686C866.173 17.9258 864.611 17.085 858.082 14.7703C863.206 12.8909 864.611 13.3855 866.876 16.5212C871.189 14.0779 871.189 17.6587 871.109 17.6587L871.119 17.6686ZM872.109 14.3746C868.152 13.158 867.163 12.06 869.141 11.0807C871.574 10.9719 873.404 11.417 874.562 12.4062C874.621 13.3558 873.83 14.0086 872.109 14.3648V14.3746ZM885.225 14.8692C885.225 15.0473 885.225 15.2352 885.156 15.4133C877.786 15.3638 879.438 15.2253 880.882 13.336C882.732 11.0016 885.848 15.0374 885.225 14.8593V14.8692ZM891.862 10.5465H897.728C895.493 12.1391 891.427 12.6139 891.862 10.5465ZM906.146 12.8117C904.346 12.3271 901.428 10.507 906.393 10.7048C906.398 10.6522 906.398 10.5992 906.393 10.5465H906.532C906.348 11.2913 906.22 12.0483 906.146 12.8117ZM1156.93 24.0488L1156.81 23.9202L1156.99 23.9795L1156.93 24.0488ZM1156.32 20.1613C1154.85 19.6865 1154.83 19.1721 1156.32 18.6479C1157.24 19.0436 1157.24 19.548 1156.32 20.1613ZM1168.87 11.5357C1168.87 12.3271 1164.91 18.084 1162.74 17.5301C1161.07 17.1147 1161.99 14.5626 1159.58 14.6516C1159.06 14.755 1158.58 15.0177 1158.22 15.4034C1158.3 14.4142 1156.89 13.8306 1160.88 12.149C1154.38 12.149 1154.07 11.5654 1155.38 10.5564H1160.57C1162.3 12.2281 1163.36 13.5141 1168.87 11.5357ZM1206.92 10.5465H1208.36C1208.63 10.596 1208.89 10.6553 1209.18 10.6949C1208.59 10.6751 1207.81 10.6158 1206.92 10.5465ZM1221.41 20.6361C1216.95 20.2207 1221.25 19.4491 1220.84 19.3205C1222.29 19.5934 1223.76 19.7587 1225.23 19.8151C1224.14 20.0228 1223.39 20.8142 1221.41 20.6361ZM1227.34 20.1218C1227.12 20.0313 1226.9 19.9585 1226.67 19.9041C1227.58 19.9635 1228.43 20.003 1229.14 20.0228C1228.52 20.0624 1227.95 20.1119 1227.32 20.1218H1227.34ZM1230.59 19.9239C1230.05 19.1425 1226.91 16.9069 1228.2 16.8476C1230.4 16.7487 1232.74 19.4986 1237.55 18.9941C1235.31 19.3007 1232.98 19.6865 1230.57 19.9239H1230.59ZM1236.04 10.7938C1235.72 10.7409 1235.41 10.6581 1235.11 10.5465H1247.18C1247.04 10.6738 1246.93 10.8377 1246.87 11.0213C1247.06 11.0213 1247.86 10.7839 1248.93 10.5465H1255.33C1255.33 11.6247 1250.11 12.0105 1249.7 12.2776C1243.87 9.44855 1242.59 11.8918 1236.02 10.7938H1236.04ZM1247.91 18.5984C1247.99 18.5984 1244.61 17.6092 1243.09 17.263C1243.02 16.9861 1242.1 16.3728 1242.1 16.3431C1250.63 16.5508 1257.74 15.7199 1250.72 20.735C1249.29 19.9536 1248.23 18.727 1247.87 18.5984H1247.91ZM1259.4 21.4275C1259.15 21.6154 1254.81 20.6361 1254.86 20.6559C1254.31 21.1128 1253.64 21.3864 1252.93 21.4379C1252.22 21.4894 1251.51 21.3161 1250.9 20.9428C1253.46 20.5075 1262.15 19.3007 1259.4 21.4275ZM1257.75 15.6111C1256.85 13.7515 1254.27 13.6328 1256.76 13.4745C1257.15 14.523 1258.4 14.8 1259.98 14.7406C1259.2 14.8914 1258.44 15.1722 1257.75 15.5715V15.6111ZM1262.69 19.2315C1262.65 18.9333 1262.53 18.6516 1262.34 18.4116C1262.16 18.1715 1261.92 17.9808 1261.65 17.8565C1262.92 18.2621 1264.06 18.6874 1262.71 19.1919L1262.69 19.2315ZM1263.51 16.0958C1263.91 15.6585 1264.22 15.148 1264.43 14.5923C1263.8 14.5204 1263.17 14.4808 1262.54 14.4736C1265.12 14.0779 1267.77 13.4844 1268.72 14.0383C1270.66 15.1759 1264.9 16.1057 1263.56 16.0562L1263.51 16.0958ZM1273.63 10.5465H1276.84C1278.84 10.9488 1280.79 11.614 1282.62 12.5249C1277.57 14.5032 1274.65 13.3459 1273.63 10.5465ZM1298.65 15.898C1294.04 16.2442 1289.93 12.6733 1290.98 10.5465H1294.23C1291.98 13.5141 1297.46 16.6201 1301.27 12.5249C1295.39 11.605 1298.53 10.8829 1301.27 10.5465H1303.79C1303.82 11.2386 1303.71 11.9287 1303.46 12.5757C1303.21 13.2227 1302.84 13.8134 1302.36 14.3127C1301.88 14.812 1301.3 15.2096 1300.66 15.482C1300.03 15.7543 1299.34 15.8958 1298.65 15.898ZM1309.13 11.8819C1307.32 11.4665 1307.02 11.1598 1308.29 10.9719C1310.15 11.3379 1310.42 11.6445 1309.13 11.8819ZM1322.27 17.817C1319.96 19.4293 1316.34 14.8989 1317.09 15.6902C1317.72 15.7932 1318.36 15.7932 1318.99 15.6902C1321.53 16.0463 1322.66 16.7289 1322.27 17.8269V17.817ZM1320.73 14.8494C1317.41 14.3648 1315.19 13.4349 1314.09 12.0402C1315.74 11.8492 1317.34 11.3527 1318.8 10.5762H1321.52C1322.08 10.7345 1322.78 10.9521 1323.68 11.2686C1328.72 13.0096 1325.25 13.1777 1320.73 14.8198V14.8494ZM1330.45 12.5051C1332.05 13.2964 1332.83 14.2658 1332.86 15.4726C1326.87 17.906 1328.59 13.5932 1330.45 12.5249V12.5051ZM1333.72 17.0058C1334.15 16.7793 1334.64 16.6928 1335.13 16.7584C1335.61 16.824 1336.06 17.0383 1336.42 17.3718C1335.23 18.1434 1334.34 18.0148 1333.72 16.9762V17.0058ZM1340.18 20.7449C1342.88 20.3295 1344.33 20.5273 1344.55 21.378C1343.9 22.2386 1338.88 20.5273 1340.18 20.7153V20.7449ZM1363.47 17.4708C1364.02 16.5409 1364.46 16.5706 1364.69 17.5301C1364.17 18.4599 1363.77 18.3808 1363.47 17.4708ZM1361.39 14.1669C1363.52 13.9493 1351.26 14.0878 1356.02 15.1561C1354.73 15.0282 1353.42 15.261 1352.24 15.8287C1351.73 15.7199 1350.89 11.5456 1342.85 13.7811C1341.69 12.2281 1341.86 11.2093 1342.75 10.6356H1348.76C1350.05 11.004 1351.26 11.6187 1352.32 12.4458C1352.73 10.8235 1362.55 10.6158 1365.36 11.5852C1365.38 12.574 1365.05 13.5384 1364.44 14.3153C1365.13 14.1111 1365.86 14.0505 1366.58 14.1373C1367.29 14.224 1367.98 14.4563 1368.61 14.8198C1365.45 15.0868 1364.75 13.7712 1361.42 14.1175L1361.39 14.1669ZM1372.22 12.426C1373.79 10.9323 1374.79 10.685 1375.18 11.694C1374.81 12.0827 1374.34 12.3545 1373.82 12.4758C1373.29 12.5972 1372.75 12.5626 1372.25 12.3765L1372.22 12.426ZM1374.68 16.4519C1375.21 15.7694 1375.84 15.8386 1376.49 16.6497C1375.73 17.1839 1375.13 17.1147 1374.71 16.4025L1374.68 16.4519ZM1384.69 14.6615C1386.17 14.1471 1379.88 12.6832 1387.09 11.872C1386.87 11.737 1386.68 11.5509 1386.54 11.3291C1386.41 11.1073 1386.32 10.8561 1386.3 10.596H1387.21C1388.28 11.5357 1386.22 14.0779 1384.72 14.612L1384.69 14.6615ZM1403.1 17.1938C1402.81 16.9102 1402.47 16.6733 1402.11 16.4915C1393.52 17.54 1404.02 12.6238 1396.59 10.5564H1400.47C1401.52 11.3181 1400.98 12.9403 1400.69 13.9493C1405.31 13.9493 1403.45 13.8603 1407.28 12.4754C1407.86 13.2569 1402.47 15.6606 1403.13 17.1443L1403.1 17.1938ZM1457.44 21.3384C1456.32 19.9506 1454.99 18.7517 1453.49 17.7873C1455.6 17.257 1457.8 17.213 1459.94 17.6587C1460.01 18.9743 1459.15 20.2009 1457.44 21.3384ZM1457.44 14.0185C1457.78 14.6813 1457.35 15.3243 1456.17 15.9178C1454.37 15.1957 1454.48 14.0482 1457.44 14.0185ZM1469.81 15.7496C1468.64 15.7496 1465.41 15.9474 1463.22 15.8782C1460.52 15.7595 1461.03 13.8998 1457.5 13.8998C1452.96 10.507 1447.32 15.4528 1448.6 17.9653C1441.53 18.45 1443.65 16.3233 1440.2 14.4538C1440.29 14.4538 1453.8 10.9422 1457.09 10.4971H1457.78H1461.4C1463.2 11.8621 1467.33 12.5941 1469.49 11.5753C1468.18 12.4458 1467.71 11.7138 1468 14.8297C1476.24 13.9493 1475.17 15.8584 1469.77 15.7496H1469.81ZM1480.58 18.1038C1478.26 18.9743 1475.51 20.646 1472.23 20.0822C1470.78 19.825 1480.28 15.1363 1479.93 15.3243C1480.8 14.9286 1483.25 18.3808 1483.3 18.45L1480.58 18.1038ZM1486.76 24.7016C1486.11 24.2763 1486.17 23.9301 1486.95 23.7125C1487.61 24.1081 1487.53 24.4543 1486.72 24.7016H1486.76ZM1490.35 21.7341C1489.65 21.5462 1487.19 20.4086 1487.89 20.5867C1490.09 20.3592 1491.42 20.7548 1490.31 21.7737L1490.35 21.7341ZM1492.62 17.6488C1494.6 16.5409 1497.44 16.4618 1499.54 16.4915C1498.24 16.9564 1498.99 17.9555 1492.58 17.6884L1492.62 17.6488ZM1496.29 21.1604C1496.46 21.0812 1497.35 19.6865 1500.64 20.646C1499.28 21.3063 1497.73 21.5009 1496.25 21.2L1496.29 21.1604ZM1497.72 13.247C1497.47 12.8612 1497.24 12.4655 1496.99 12.0896C1494.65 12.8596 1492.17 13.1095 1489.73 12.8216C1490.16 12.4062 1494.62 10.4278 1495.75 10.8433C1499.07 12.0995 1505.55 12.0204 1508.12 14.7406C1510.69 17.4609 1498.82 11.0213 1497.68 13.2866L1497.72 13.247ZM1523.25 17.4708C1517.85 16.0167 1518.31 12.6337 1524.14 11.872C1523.25 11.4071 1523.33 11.0114 1524.39 10.7246C1524.52 11.7731 1523.96 12.8414 1527.22 12.0798C1527.24 11.7279 1527.37 11.3912 1527.59 11.1152C1527.81 10.8392 1528.11 10.6373 1528.45 10.5366H1530.42C1533.16 11.14 1536.36 13.7218 1534.03 14.8396C1527.44 18.0939 1519.26 8.92429 1523.25 17.4708ZM1540.53 22.1496C1543.09 21.1604 1545.84 21.6748 1546.47 22.8024C1543.84 23.4058 1541.83 23.2475 1540.53 22.1496ZM1548.25 16.4816C1548.36 16.3233 1537.77 20.003 1536.32 21.1505C1535.64 20.9623 1535.03 20.5579 1534.6 19.9979C1534.17 19.4379 1533.93 18.7525 1533.92 18.0445C1535.64 18.8296 1537.54 19.1697 1539.43 19.0337C1539.43 16.9366 1542.96 12.4655 1542.07 10.8037C1542.03 10.7348 1541.99 10.6687 1541.95 10.6059H1545.73C1544.4 12.3369 1543.51 12.9403 1548.33 13.2767C1547.63 12.4062 1548.47 11.4071 1547.84 10.6059H1551.15C1550.33 12.6348 1549.36 14.5989 1548.25 16.4816ZM1552.68 23.841C1553.54 22.5947 1555.08 22.1693 1557.29 22.5452C1556.27 23.7421 1554.73 24.1675 1552.68 23.8213V23.841ZM1556.16 13.3063C1557.51 12.4161 1558.43 12.3765 1558.88 13.2074C1558.51 13.5347 1558.03 13.7216 1557.54 13.7361C1557.04 13.7505 1556.55 13.5916 1556.16 13.2866V13.3063ZM1558.83 24.3455C1559.61 23.7026 1560.27 23.752 1560.72 24.4939C1560.1 25.3248 1559.46 25.2754 1558.83 24.3257V24.3455ZM1559.59 18.7666C1560.73 18.0148 1562.34 17.906 1564.37 18.4006C1563.66 18.8448 1562.86 19.1086 1562.02 19.169C1561.19 19.2293 1560.35 19.0844 1559.59 18.7468V18.7666ZM1560.46 21.5462L1562.08 20.9131C1562.99 21.0746 1563.89 21.296 1564.78 21.5758C1563.34 21.7125 1561.89 21.6959 1560.46 21.5264V21.5462ZM1564.5 18.3412C1561.84 17.3026 1558.95 15.7199 1563.66 15.0176C1568.11 14.3252 1568.9 17.3817 1571.25 17.0949C1573.32 16.8377 1572.17 14.6219 1573.06 13.7811C1574.59 14.4142 1576.27 17.3718 1574.98 18.1533C1574.74 18.5687 1566.86 18.2522 1564.5 18.3215V18.3412ZM1578.27 23.3662C1577.05 23.752 1571.06 20.9823 1571.98 20.191L1577.85 21.1802C1577.71 21.0813 1580.16 22.7628 1578.27 23.3465V23.3662ZM1577.89 16.9168C1577.41 15.7694 1577.89 14.6615 1579.37 13.6328C1580.59 14.6912 1581.53 15.532 1582.27 16.1848C1580.88 16.7245 1579.39 16.9671 1577.89 16.897V16.9168ZM1582.44 22.0803C1583.61 21.5462 1584.22 21.6846 1584.22 22.4661C1582.89 23.0398 1582.3 22.9211 1582.44 22.0605V22.0803ZM1598.77 10.7246C1598.55 10.8111 1598.31 10.8419 1598.08 10.8143C1597.85 10.7867 1597.62 10.7014 1597.43 10.5663H1599.02C1598.96 10.6428 1598.87 10.6922 1598.77 10.7048V10.7246ZM1602.03 13.3756C1601.61 12.5842 1603.14 12.149 1603.17 12.2479C1603.46 13.8801 1601.49 12.3073 1602.28 15.0967C1601.62 15.1684 1600.96 15.2014 1600.3 15.1957C1599.58 14.2362 1598.9 13.3162 1602.03 13.3558V13.3756ZM1599.79 20.2998C1600.14 19.7459 1600.77 19.8448 1601.55 20.6163L1603.92 20.9724C1602.92 21.5857 1601.67 20.5075 1599.79 20.3097V20.2998ZM1600.14 17.629C1598.9 16.1453 1603.59 16.9663 1604.17 17.2729C1603.58 17.6598 1602.9 17.8956 1602.2 17.9595C1601.5 18.0233 1600.79 17.9132 1600.14 17.6389V17.629ZM1608.37 22.2979C1609.21 21.6945 1609.76 21.6649 1609.97 22.2089C1609.51 22.9805 1608.99 23.0101 1608.37 22.3078V22.2979ZM1613.75 23.9696C1613.21 23.3465 1613.26 22.1595 1615.61 22.3078C1618.83 20.9823 1614.37 23.5542 1613.73 23.9795L1613.75 23.9696ZM1615.18 11.8226C1615.91 12.0798 1616.61 12.3468 1617.33 12.5941C1616.31 14.5032 1614.42 12.5249 1615.18 11.8325V11.8226ZM1622.5 25.0478C1621.31 24.8302 1621.09 24.4543 1621.85 23.9301C1623.82 24.1972 1624.03 24.573 1622.5 25.0577V25.0478ZM1627.68 22.753C1626.9 22.199 1627.22 21.8825 1628.67 21.7638C1629.38 22.3375 1629.05 22.6639 1627.68 22.7628V22.753ZM1628.46 19.093C1626.2 19.8646 1624.93 19.4194 1624.39 19.093C1626.59 17.7556 1629.06 16.9244 1631.63 16.6596C1630.68 17.611 1629.62 18.4326 1628.46 19.1029V19.093ZM1635.72 21.3384C1636.89 21.409 1638.01 21.8489 1638.91 22.5947C1637.47 22.9904 1632.05 20.2701 1635.72 21.3483V21.3384ZM1639.99 12.8216C1638.42 12.8216 1637.75 12.4359 1638.01 11.6247C1639.5 11.5357 1640.18 11.9611 1639.99 12.8315V12.8216ZM1651.41 23.9004C1649.9 23.3761 1650.14 22.9112 1652.14 22.4364C1653.08 22.9904 1652.84 23.4849 1651.41 23.9103V23.9004ZM1649.65 16.4816C1651 17.4319 1652.53 18.1044 1654.14 18.4599C1644.71 20.0624 1650.4 17.2433 1649.65 16.4816ZM1665.77 25.9183C1663.51 25.5919 1663.18 25.0874 1664.78 24.3752C1666.8 24.7511 1667.15 25.2754 1665.77 25.9183ZM1669.02 21.0911C1669.93 20.6262 1670.63 20.6658 1671.14 21.2098C1670.22 21.8627 1669.5 21.833 1669.02 21.0911ZM1675.87 23.7026C1674 22.9607 1674.2 22.387 1676.41 21.9913C1678.11 22.6244 1677.92 23.1981 1675.87 23.7026ZM1684.13 23.5245C1686.02 22.0408 1687.83 21.6649 1689.56 22.3771C1689.35 23.1882 1685.48 24.029 1684.13 23.5245ZM1694.53 18.7765C1693.97 18.3412 1694.32 17.6785 1695.01 16.9366C1696.39 17.8565 1696.22 18.4599 1694.53 18.7765ZM1697.12 22.0605C1699.57 21.2692 1700.57 22.1496 1702.6 23.0497C1703.76 22.6837 1704.41 22.3078 1705.43 22.8222C1700.68 23.6828 1701.6 24.2466 1697.12 22.0605ZM1703.75 10.6455C1703.75 10.6126 1703.75 10.5794 1703.75 10.5465H1705.39C1705.71 10.8433 1705.99 11.1895 1706.22 11.4467C1704.74 11.6742 1703.86 11.4269 1703.75 10.6455ZM1710.12 15.2451C1710.55 14.3845 1711.26 14.345 1712.22 15.1066C1711.27 16.1651 1710.56 16.2046 1710.08 15.2451H1710.12ZM1711.11 12.4161C1712.87 12.2512 1714.61 11.8451 1716.26 11.2093C1717.48 12.0204 1718.66 12.8513 1719.85 13.6723C1717.6 14.2263 1712.7 13.3063 1711.08 12.4161H1711.11ZM1731.65 16.5607C1732.84 15.5715 1731.11 14.7604 1736.08 16.2046C1735.18 17.1641 1733.73 17.2828 1731.62 16.5607H1731.65ZM1778.14 20.1316C1779.44 20.0129 1785.62 19.0831 1785.76 19.9833C1784.33 21.1604 1779.44 22.4166 1778.11 20.1316H1778.14ZM1787.83 25.3842C1788.72 25.2231 1789.62 25.1337 1790.52 25.1171C1789.67 25.4922 1788.73 25.5858 1787.83 25.3842ZM1790.55 18.3313C1790.55 17.2334 1790.11 17.1641 1790.28 17.2037C1791.04 17.4593 1791.81 17.6545 1792.6 17.7873C1791.94 18.0187 1791.27 18.2006 1790.59 18.3313H1790.55ZM1794.7 21.0318C1795.72 20.7392 1796.79 20.6576 1797.85 20.792C1798.9 20.9263 1799.92 21.2738 1800.84 21.8132C1797.39 22.9904 1798.8 23.0695 1794.75 21.0318H1794.7ZM1809.1 24.395C1806.22 24.1081 1808.59 22.0704 1809.81 21.6253C1809.81 20.5174 1810.35 20.3295 1811.59 21.0615C1808.43 21.744 1809.08 22.7431 1809.1 24.395ZM1814.05 24.6225C1815.35 24.0982 1816.03 24.2367 1816.13 25.038C1814.99 25.6512 1814.29 25.5128 1814.05 24.5928V24.6225ZM1816.29 15.5913C1815.56 14.0581 1818.77 10.7839 1821.69 12.4952C1820.25 13.5141 1818.99 15.1363 1816.29 15.5617V15.5913ZM1835.08 25.1764C1832.84 24.5533 1832.92 24.1873 1835.32 24.0389C1835.58 24.3356 1836.77 25.6809 1835.11 25.1468L1835.08 25.1764ZM1835.16 19.3205C1837.4 18.6776 1839.89 18.8457 1841.37 18.4599C1839.38 19.1058 1837.28 19.3873 1835.19 19.2908L1835.16 19.3205ZM1834.59 12.7722C1834.59 12.7722 1845.2 13.1975 1843.28 12.3963C1849.52 13.6229 1833.19 14.7901 1834.62 12.7425L1834.59 12.7722ZM1874.36 13.8899C1875.47 13.4745 1876.08 13.613 1876.25 14.3054C1875.06 14.711 1874.42 14.5725 1874.39 13.8603L1874.36 13.8899ZM1751.03 10.6455L1750.7 10.5762H1750.77L1751.03 10.6455Z" fill="#002E48"/>
</svg>
