<svg width="1901" height="27" viewBox="0 0 1901 27" fill="none" xmlns="http://www.w3.org/2000/svg">
<g clip-path="url(#clip0_6_546)">
<path d="M1140.6 7.3064C1142.79 7.5537 1149.06 7.3064 1150.64 6.1095C1153.5 3.9531 1147.92 3.94321 1147.47 1.94507C1148.39 2.58804 1150.87 3.85418 1151.29 4.23007C1152.99 2.57815 1153.67 1.03503 1155.33 0.144775H1140.38C1141.66 1.20319 1140.64 3.29035 1140.44 4.10148C1138.31 0.728389 1134.51 1.7967 1135.77 4.72466C1136.51 6.51506 1135.15 6.66344 1140.6 7.3064Z" fill="white"/>
<path d="M756.287 3.29041H756.356C756.455 3.35965 756.455 3.34976 756.287 3.29041Z" fill="white"/>
<path d="M783.281 2.44956C787.238 -0.69602 795.883 4.64553 797.535 3.10241C799.781 1.00536 792.956 1.61865 791.6 0.134888H773.528C773.479 0.223913 773.4 0.312939 773.35 0.401965C773.221 0.303047 773.063 0.223913 772.925 0.134888H769.789C771.115 1.66811 776.565 3.60689 777.702 4.09159C779.424 2.60783 779.453 1.27244 783.281 2.44956Z" fill="white"/>
<path d="M812.927 2.12313C813.382 1.85605 822.107 5.17968 823.205 0.144775H811.334C808.565 0.144775 806.032 0.273368 806.082 0.481095C805.974 0.395993 805.898 0.277777 805.864 0.144775L795.577 0.144775C798.761 1.56127 802.132 2.51397 805.587 2.97382C813.877 3.75526 808.199 5.09065 812.927 2.12313Z" fill="white"/>
<path d="M877.372 1.97475C878.889 2.03177 880.343 2.59208 881.507 3.56732C880.131 4.51175 878.564 5.14007 876.917 5.40719C876.917 5.40719 874.78 10.4322 878.262 10.5113C878.994 10.5113 884.82 8.3945 885.097 8.85941C885.112 9.24131 885.22 9.61372 885.414 9.9434C885.607 10.2731 885.879 10.5497 886.205 10.7487C886.037 10.7487 888.391 10.7487 888.302 10.6894C888.144 9.37378 897.62 4.93238 895.869 4.32899C895.029 4.27953 894.188 4.23996 893.347 4.23007C890.221 1.69778 892.734 -0.715807 894.623 1.34168C895.666 1.09239 896.666 0.688987 897.591 0.144775L885.443 0.144775C884.85 1.13395 884.979 2.41988 886.304 4.10148C887.521 4.10148 892.18 4.23007 893.327 4.23007C892.457 5.90177 889.064 6.01058 886.403 4.23007C884.711 2.91447 882.605 1.26254 880.883 0.144775H872.159C873 0.886657 876.808 0.767956 877.372 1.97475Z" fill="white"/>
<path d="M873.138 3.98277C870.517 1.27244 863.246 5.83253 859.201 3.69591C864.888 3.31014 868.103 1.81648 868.449 0.144775H857.024C852.177 1.53951 846.816 2.40009 848.438 3.75526C853.315 7.85045 867.905 3.92342 873.138 3.98277Z" fill="white"/>
<path d="M829.13 3.16174C832.424 3.26066 835.718 3.33979 839.021 3.37936C839.244 4.12762 839.505 4.86389 839.803 5.58522C841.012 5.49085 842.214 5.3257 843.404 5.09063C843.354 5.09063 841.762 2.06376 841.574 1.75711C843.047 2.34073 844.719 1.35155 845.886 0.184326H828.734C827.794 0.528423 826.971 1.1321 826.36 1.92527C829.328 1.56917 828.882 3.11228 829.13 3.16174Z" fill="white"/>
<path d="M813.6 6.51506C812.037 6.75246 798.831 7.7911 799.346 8.87919C799.993 9.13061 800.575 9.52643 801.047 10.0365C802.59 9.70021 815.172 8.70114 811.067 11.5203C814.243 11.6192 817.992 11.9357 821.246 12.1929C817.596 10.0563 825.074 7.3064 829.476 6.78214C827.646 6.19853 827.587 5.6248 829.258 5.04119C829.624 5.25881 829.951 5.44675 830.248 5.61491C830.478 5.02141 830.211 4.81368 829.446 4.99173H829.525C828.23 5.34784 828.121 4.76422 829.179 3.24089C829.337 3.18154 823.966 5.44675 824.402 5.21924C823.937 4.34877 822.67 4.63563 820.593 6.11939C818.654 7.64272 816.33 7.80099 813.6 6.51506Z" fill="white"/>
<path d="M917.107 13.4096C926.455 13.0535 915.712 11.1345 915.435 10.7289C911.825 5.51596 909.362 1.25262 906.612 10.0958C905.662 11.2334 914.822 13.4986 917.107 13.4096Z" fill="white"/>
<path d="M711.734 4.10144C715.009 3.60686 716.215 3.65631 715.384 4.24982C715.335 4.30917 715.384 4.24982 715.622 4.18058C717.768 3.05292 717.907 0.916299 720.498 0.223877H707.451L706.907 0.421712C709.716 1.53948 711.823 2.80562 711.734 4.10144Z" fill="white"/>
<path d="M728.966 6.14904C730.37 4.56636 731.152 1.26252 726.186 0.797607C726.641 2.1231 726.236 4.87301 728.966 6.14904Z" fill="white"/>
<path d="M892.763 13.9932C895.573 13.1722 896.186 11.916 894.653 10.2344C892.387 11.4214 890.765 12.5787 892.763 13.9932Z" fill="white"/>
<path d="M966.309 5.01159L966.437 4.94234C966.279 4.81375 966.21 4.80386 966.309 5.01159Z" fill="white"/>
<path d="M863.949 9.49244C865.7 11.6983 869.399 8.79012 870.121 8.67142C872.238 8.30543 864.938 6.75242 863.949 9.49244Z" fill="white"/>
<path d="M859.606 11.184C861.871 9.91786 861.585 10.4817 856.985 8.38463C856.876 8.33518 853.068 10.8378 859.606 11.184Z" fill="white"/>
<path d="M842.306 12.7271C842.764 12.2766 843.116 11.7291 843.335 11.1249C843.554 10.5206 843.635 9.87499 843.572 9.23535C835.47 9.87832 840.466 10.4817 842.306 12.7271Z" fill="white"/>
<path d="M864.305 12.8755C863.294 12.7762 862.277 12.9907 861.392 13.4897C860.507 13.9888 859.797 14.7483 859.359 15.665L863.256 15.7243C863.375 15.5166 865.047 13.0041 864.305 12.8755Z" fill="white"/>
<path d="M796.269 13.5877C794.756 13.7954 800.226 17.2081 802.531 14.8934C802.155 14.7154 798.188 13.3206 796.269 13.5877Z" fill="white"/>
<path d="M931.044 10.4124L932.34 9.04736C931.826 9.14628 929.264 9.1265 927.998 9.40347C928.502 10.0365 929.531 10.3926 931.044 10.4124Z" fill="white"/>
<path d="M720.983 3.61674C719.722 3.63159 718.462 3.54891 717.214 3.36944C718.016 2.86496 716.304 3.83435 715.632 4.16078C717.739 5.31812 722.002 5.56541 720.983 3.61674Z" fill="white"/>
<path d="M720.756 3.26074C720.841 3.3731 720.917 3.49219 720.983 3.61685C721.359 3.57728 721.28 3.45858 720.756 3.26074Z" fill="white"/>
<path d="M804.935 13.3107C802.867 13.2217 802.64 14.2999 802.748 15.0022C803.292 14.8439 809.04 13.4789 804.935 13.3107Z" fill="white"/>
<path d="M853.612 11.8864C850.644 12.1831 851.97 13.5581 853.266 14.4285C853.503 13.3701 854.235 13.3998 853.612 11.8864Z" fill="white"/>
<path d="M800.75 9.86841C800.266 10.3333 797.021 11.1148 799.998 11.9556C800.339 11.7416 800.598 11.4198 800.734 11.0415C800.87 10.6633 800.876 10.2503 800.75 9.86841Z" fill="white"/>
<path d="M932.34 9.04741L940.115 7.71203C937.444 7.21744 933.992 7.71203 932.34 9.04741Z" fill="white"/>
<path d="M923.833 1.401C924.724 1.65818 925.594 1.89558 926.455 2.15277C927.998 1.53948 925.001 0.955868 923.833 1.401Z" fill="white"/>
<path d="M940.442 2.53856C940.273 1.54938 939.334 1.43068 937.632 2.06375C937.791 2.99358 938.74 3.11228 940.442 2.53856Z" fill="white"/>
<path d="M960.888 3.34969C961.313 2.02419 960.126 1.47026 957.267 1.70766C958.415 2.6177 957.742 3.28045 960.888 3.34969Z" fill="white"/>
<path d="M1016.11 4.38836C1015.82 3.31016 1014.85 3.19146 1013.25 4.02236C1013.85 5.23905 1014.8 5.36764 1016.11 4.38836Z" fill="white"/>
<path d="M725.959 6.22827C724.267 5.1105 722.991 5.10061 721.943 6.22827C723.614 6.94048 724.97 6.95037 725.959 6.22827Z" fill="white"/>
<path d="M843.176 5.15989C844.685 5.88384 846.33 6.27836 848.003 6.31722C847.182 5.27859 845.787 5.09065 843.176 5.15989Z" fill="white"/>
<path d="M851.752 7.64271C853.859 7.4152 854.265 7.00964 852.88 6.41614C850.862 6.68651 850.486 7.09537 851.752 7.64271Z" fill="white"/>
<path d="M848.488 9.3144C847.133 8.41425 846.678 7.66247 847.024 7.06897L845.441 8.2362C846.143 8.4736 848.923 9.5518 848.488 9.3144Z" fill="white"/>
<path d="M845.273 8.18679L845.154 8.13733C843.176 8.533 842.642 8.89899 843.532 9.23531C845.332 8.8891 845.906 8.55278 845.273 8.24614H845.362C845.303 8.18679 845.233 8.167 845.273 8.18679Z" fill="white"/>
<path d="M847.024 7.06903L848.013 6.32715C847.613 6.46241 847.266 6.7224 847.024 7.06903Z" fill="white"/>
<path d="M698.618 12.6677C697.213 12.2819 694.246 11.9555 694.246 13.3205C695.917 13.2315 696.996 13.7261 698.618 12.6677Z" fill="white"/>
<path d="M921.974 13.6668C923.408 14.5867 924.615 14.5867 925.643 13.6668C925.188 12.3512 923.972 12.3512 921.974 13.6668Z" fill="white"/>
<path d="M779.621 15.8529C780.779 15.3286 781.6 15.6748 782.233 14.3592C779.602 14.1218 777.821 14.5076 779.582 15.8331L779.394 15.754L779.483 16.0903C779.78 16.031 779.869 15.9716 779.621 15.8529Z" fill="white"/>
<path d="M923.111 3.75524C923.022 2.97379 922.35 2.8452 921.133 3.36946C921.222 4.01242 921.895 4.10145 923.111 3.75524Z" fill="white"/>
<path d="M929.402 4.9126C928.156 4.9126 927.424 5.15989 927.236 5.7435C925.782 6.07982 932.528 5.27859 929.402 4.9126Z" fill="white"/>
<path d="M774.399 6.64367C774.399 6.64367 774.27 5.09067 774.29 5.09067C769.977 4.29933 773.805 6.41616 774.399 6.64367Z" fill="white"/>
<path d="M920.925 6.18865C919.886 5.47644 919.016 5.5259 918.462 6.10951C919.284 6.08494 920.107 6.11137 920.925 6.18865Z" fill="white"/>
<path d="M918.165 6.51506C918.245 6.36659 918.345 6.23006 918.462 6.1095C917.78 6.13917 917.671 6.27766 918.165 6.51506Z" fill="white"/>
<path d="M917.275 8.1373C918.68 7.87022 918.897 7.3064 917.977 6.41614C917.681 6.95029 915.386 7.67239 917.275 8.1373Z" fill="white"/>
<path d="M872.307 11.2631C872.663 11.2631 873.108 11.362 873.672 11.4511C873.84 10.9565 873.316 10.8872 872.307 11.2631Z" fill="white"/>
<path d="M872.307 11.2632C871.575 11.184 871.318 11.2632 871.516 11.372C869.676 12.5392 868.163 13.2811 870.131 14.844C872.96 14.201 873.425 13.0536 871.526 11.3819C871.592 11.4262 871.662 11.4659 871.733 11.5006C871.941 11.4016 872.129 11.3324 872.307 11.2632Z" fill="white"/>
<path d="M831.632 10.2047C831.8 9.86835 832.987 9.30452 831.771 9.12646C831.741 9.48257 831.692 9.84856 831.632 10.2047Z" fill="white"/>
<path d="M830.198 5.56543C830.011 5.98513 829.768 6.37772 829.476 6.73266C830.881 6.32709 830.841 6.01056 830.198 5.56543Z" fill="white"/>
<path d="M777.693 4.10144C777.426 4.10144 774.913 4.23003 774.29 5.00159C778.237 4.34873 777.752 5.87206 777.693 4.10144Z" fill="white"/>
<path d="M983.767 10.9367C984.391 11.2334 985.607 13.0832 988.229 12.0643C987.338 11.1345 985.855 10.7487 983.767 10.9367Z" fill="white"/>
<path d="M439.246 14.9824C442.352 13.9338 442.59 13.6865 439.978 12.4402C438.356 13.2117 438.109 14.0525 439.246 14.9824Z" fill="white"/>
<path d="M1072.16 1.74724C1070.72 1.99254 1069.37 2.57943 1068.2 3.45851C1069.35 4.14104 1073.09 3.8344 1075.41 3.84429C1075.14 3.47635 1074.89 3.09325 1074.66 2.69685C1074.45 2.31489 1074.26 1.91824 1074.1 1.50984C1073.74 1.50984 1073.43 1.57908 1073.11 1.61865C1073.11 0.926224 1072.54 0.490987 1071.78 0.144775H1061.78C1061.06 0.783541 1060.29 1.36248 1059.48 1.87583C1063.7 2.11009 1067.94 2.06714 1072.16 1.74724Z" fill="white"/>
<path d="M1206.59 3.44868C1207.16 3.48359 1207.73 3.45706 1208.29 3.36955L1206.94 2.38037C1206.19 2.88485 1205.95 3.23106 1206.2 3.36955L1204.4 4.22024C1206.33 4.51699 1207.04 4.2598 1206.59 3.44868Z" fill="white"/>
<path d="M380.816 4.20042C381.014 3.50799 380.519 2.92438 379.302 2.44958C380.469 2.83535 379.876 2.52871 377.532 1.5791C370.855 2.12315 379.55 5.15992 380.816 4.20042Z" fill="white"/>
<path d="M504.126 5.88204L503.068 4.78406C501.287 5.8128 501.634 6.1689 504.126 5.88204Z" fill="white"/>
<path d="M546.107 14.6362L548.887 14.834C548.214 14.7549 546.829 14.2999 546.107 14.6362Z" fill="white"/>
<path d="M456.25 3.25077C455.922 2.89893 455.572 2.56852 455.202 2.2616C454.341 2.82543 454.687 3.16175 456.25 3.25077Z" fill="white"/>
<path d="M1900.6 26.6448V6.86129H1900.35C1899.37 6.70721 1898.43 6.38948 1897.57 5.92157C1896.26 6.81779 1894.9 7.62735 1893.48 8.34505C1893.21 7.4449 1894.41 6.27767 1896.07 5.11045C1894.74 4.24204 1893.31 3.51913 1891.82 2.95404C1889.04 2.08357 1886.32 2.38032 1883.61 2.74632C1883.79 3.33982 1883.4 4.12127 1880.84 3.85419C1881.03 3.51893 1881.28 3.22851 1881.59 3.0035C1878.62 3.3695 1875.66 3.47831 1872.62 1.79671C1869.45 0.00630303 1867.13 1.48017 1863.83 1.74725C1860.3 2.044 1856.77 1.74725 1853.25 1.74725C1851.35 1.71427 1849.45 1.54236 1847.56 1.23288C1844.93 3.39917 1842.25 5.32806 1839.54 5.18958C1838.55 5.99081 1837.68 6.6041 1837.67 6.61399C1831.3 4.99175 1830.57 3.42885 1824.01 2.47924C1827.64 0.342622 1831.71 1.87584 1835.2 2.92437C1835.01 2.72653 1834.82 2.53859 1834.64 2.32097C1834.11 1.6553 1833.68 0.923679 1833.34 0.144788H1820.07C1819.85 0.442012 1819.61 0.720013 1819.34 0.975695C1818.22 2.21516 1816.69 3.01773 1815.03 3.24209C1813.37 3.46646 1811.69 3.09825 1810.27 2.20227C1809.21 1.61866 1808.2 0.817427 1807.16 0.144788H1805.69C1804.96 1.86068 1803.61 3.24242 1801.91 4.02235C1799.88 4.88294 1798.12 3.62668 1796.32 2.54848C1796.21 3.66625 1791.69 3.82452 1789.73 2.83534C1791.21 2.24452 1792.75 1.81665 1794.32 1.55931C1794.16 1.49948 1794 1.45315 1793.83 1.42082C1790.97 0.748184 1787.9 1.78682 1784.93 2.32097C1785.11 2.3401 1785.28 2.37654 1785.45 2.42978C1785.19 3.06285 1784.47 3.20134 1783.32 2.84524C1783.4 2.71238 1783.51 2.59801 1783.64 2.50892C1783.32 2.50892 1782.99 2.58805 1782.65 2.59794C1775.55 2.90459 1768.57 1.69779 1761.52 1.53952C1758.18 1.47028 1754.39 2.5287 1751.16 0.876777C1752.03 1.94509 1750.32 4.05203 1747.58 3.03318C1747.11 2.044 1748.25 1.2131 1750.85 0.698726C1750.56 0.531747 1750.27 0.346758 1749.99 0.144788H1743.51C1743.02 1.27352 1742.13 2.1864 1741.02 2.71664C1738 3.98703 1734.69 4.37464 1731.46 3.83441C1730.46 4.10708 1729.45 4.28918 1728.43 4.37846C1728.27 4.23008 1729.23 3.98279 1730.41 3.68603C1725.86 2.89469 1721.35 1.04494 1716.79 0.144788H1707.82C1705.37 0.585612 1702.85 0.585612 1700.4 0.144788H1693.01C1692.74 0.83208 1692.4 1.4941 1692.02 2.12314C1688.76 7.58338 1682.44 5.882 1678.73 3.11231C1677.77 2.35844 1677.08 1.31902 1676.75 0.144788H1676.62C1674.91 0.208978 1673.22 0.474606 1671.58 0.936128C1668.35 1.9253 1665.51 3.16177 1662.18 2.07368C1660.84 1.49967 1659.53 0.855828 1658.26 0.144788H1655.17C1654.71 0.365076 1654.28 0.644368 1653.88 0.975695C1653.37 1.48722 1652.7 1.80595 1651.98 1.87804C1651.26 1.95013 1650.53 1.77116 1649.93 1.37136H1649.41C1649.48 1.29223 1649.56 1.25266 1649.63 1.18342C1649.26 0.896983 1648.93 0.564589 1648.64 0.194246H1627.94C1632.37 3.78495 1614.9 3.16177 1612.79 0.856994C1612.59 1.59082 1612.22 2.26558 1611.7 2.82488C1611.18 3.38417 1610.54 3.81173 1609.83 4.07181C1606.8 4.95765 1603.61 5.08337 1600.53 4.43781C1596.88 3.76517 1593.89 4.63564 1590.29 5.42698C1587.43 6.0106 1585.26 5.42698 1582.78 2.94415C1581.65 1.79461 1580.31 0.874348 1578.83 0.233813H1572.58C1572.32 0.693093 1572.01 1.11839 1571.64 1.49996C1570.65 2.48913 1568.94 3.11231 1567.81 2.36054C1567.23 1.9899 1566.61 1.69408 1565.96 1.48017C1565.66 1.42122 1565.37 1.38156 1565.07 1.36147C1564.8 1.31477 1564.54 1.23846 1564.28 1.13396C1563.35 3.19145 1561.97 4.60597 1560.45 4.329C1558.47 3.95311 1556.49 4.46748 1554.44 4.61586C1552.11 4.75164 1549.81 3.97498 1548.03 2.44957C1546.38 2.55837 1545.82 1.97476 1544.08 1.59887C1544.79 1.70768 1546.21 1.86595 1547.48 1.98465C1546.94 1.46001 1546.52 0.834767 1546.22 0.144788H1530.18C1529.89 0.839469 1529.41 1.43736 1528.79 1.86836C1528.17 2.29935 1527.45 2.54557 1526.7 2.57816C1523.26 2.57816 1519.97 1.13396 1516.62 0.144788H1513.29C1511.71 0.767968 1507.36 2.33086 1507.91 0.797643C1508.01 0.615829 1508.15 0.461117 1508.32 0.347232C1508.5 0.233347 1508.69 0.163809 1508.9 0.144788H1503.16C1501.25 0.500891 1499.35 0.876777 1497.4 1.13396C1495.93 1.26866 1494.45 1.11063 1493.04 0.66905C1493.09 0.973981 1493.2 1.26586 1493.36 1.52396C1493.53 1.78205 1493.75 2.00004 1494.02 2.16244C1494.28 2.32483 1494.57 2.42766 1494.88 2.4636C1495.18 2.49955 1495.49 2.46774 1495.78 2.37043H1495.85C1495.6 2.44957 1495.46 2.65729 1495.3 3.35961C1494.16 1.84617 1488.95 1.82639 1492.11 0.392081L1491.39 0.154679H1487.82C1486.6 1.42717 1485.01 2.28782 1483.27 2.61773C1483.99 2.73643 1484.73 2.89469 1485.5 3.06285C1482.84 3.22112 1480.02 3.34971 1478.28 2.7661C1479.1 2.53247 1479.94 2.40939 1480.8 2.40011C1480.2 2.23195 1479.61 2.02422 1479.03 1.79671C1478.37 1.4441 1477.63 1.27018 1476.88 1.29223C1477.87 1.59887 1478.2 2.0539 1477.93 2.63751C1477.62 2.53549 1477.34 2.35728 1477.11 2.11895C1476.88 1.88062 1476.72 1.5897 1476.63 1.27245C1476.56 1.27727 1476.48 1.27727 1476.41 1.27245C1474.08 2.67708 1471.78 4.02235 1469.1 3.93333C1468.37 3.89408 1467.68 3.63134 1467.12 3.18155C1464.85 3.0035 1462.7 2.10335 1460.36 1.42082C1457.76 0.66905 1455.62 1.31201 1453.03 1.9253C1450.68 2.48913 1448.28 2.91448 1445.99 1.52963C1445.46 1.13669 1444.99 0.670374 1444.59 0.144788H1440.18C1434.67 4.2103 1428.65 2.18249 1422.61 0.144788H1407.3C1406.94 0.346477 1406.53 0.459634 1406.12 0.4751C1405.7 0.490566 1405.29 0.407907 1404.91 0.233813L1406.2 0.144788H1404.04C1399.79 2.01433 1395.7 3.99268 1391.18 4.10149C1385.8 4.05299 1380.44 3.30146 1375.25 1.86595C1372.78 1.25266 1370.39 0.639375 1367.98 0.164571H1352.77C1350.05 0.510775 1347.3 0.510775 1344.59 0.164571H1337.92C1337.67 0.876777 1337.21 1.54942 1335.48 2.37043C1338.12 1.11418 1322.98 2.58805 1325.81 3.59701C1321.89 2.19513 1317.88 1.0421 1313.81 0.144788H1307.28C1306.94 1.59946 1306.1 2.89025 1304.91 3.79484C1305.59 3.97289 1305.35 4.29932 1304.19 4.78402C1302.78 4.71478 1302.21 4.54662 1302.51 4.29932C1298.05 4.2103 1293.61 3.80473 1289.14 3.46842C1288.63 4.17073 1287.67 4.45759 1285.88 3.54755C1285.7 3.45043 1285.53 3.33791 1285.37 3.21123C1284.29 3.15188 1283.21 3.07275 1282.13 3.03318C1279.01 2.82788 1275.93 2.26361 1272.94 1.35158C1271.95 2.49902 1269.73 1.85606 1269.17 0.362406L1268.46 0.174463H1261.02C1260.36 0.610597 1259.66 0.997406 1258.94 1.3318C1258.37 1.33658 1257.81 1.19706 1257.3 0.926236C1257.04 1.51369 1256.66 2.03775 1256.17 2.46276C1255.69 2.88777 1255.12 3.20378 1254.5 3.38928H1254.86C1261.78 2.40011 1261.99 9.19574 1252.33 5.87211C1249.68 4.96207 1248.87 3.77506 1251.81 3.44863C1249.41 3.40954 1247 3.23119 1244.61 2.91448C1244.26 3.31015 1243.15 3.71571 1240.93 4.33889C1240.54 3.63658 1240.77 3.02329 1241.59 2.48913C1240.32 2.2913 1239.04 2.07368 1237.77 1.85606C1237.07 2.06527 1236.4 2.37515 1235.79 2.77599C1234.89 2.01433 1234.89 1.58898 1235.79 1.49996C1232.82 0.995478 1229.94 0.510782 1227.01 0.164571H1218.19C1216.13 0.481107 1214.11 0.946019 1212.1 1.23288C1214.39 1.41776 1216.62 2.09235 1218.64 3.21123C1213.6 6.93053 1208.96 1.23288 1204.97 6.77226C1200.67 5.98092 1201.2 2.6474 1203.67 0.481107C1203.48 0.401973 1203.29 0.303056 1203.1 0.204138H1198.73L1197.41 1.84617C1195.79 2.25173 1192.88 1.89563 1191.66 2.5287C1193.37 1.53952 1193.79 0.827318 1193.44 0.204138H1187.11C1187.32 0.461324 1186.94 0.659159 1185.93 0.797643L1185.57 0.204138H1171.58C1170.41 1.3992 1168.99 2.33514 1167.44 2.95182C1165.88 3.5685 1164.21 3.85229 1162.53 3.78495C1161.79 3.89727 1161.04 3.7726 1160.37 3.42885C1159.2 3.0867 1158.11 2.50023 1157.17 1.70768C1156.51 3.02329 1158.55 4.4477 1157.89 6.0106C1156.47 9.4826 1149.5 10.0662 1153.8 14.2801C1150.33 14.7846 1141.16 12.8359 1139.95 14.013C1142.57 12.4106 1140.73 11.9654 1146.29 13.6866C1147.21 11.4412 1154.64 9.55184 1150.66 7.99884C1150.73 7.99884 1147.69 8.58245 1144.22 9.15617C1144.22 8.59234 1144.22 8.0384 1144.22 7.47457C1142.3 8.31537 1140.94 8.91877 1142.09 9.50238C1139.63 9.92742 1137.15 10.2114 1134.66 10.3531C1134.92 10.4619 1137.62 11.8072 1137.04 11.9358C1135.45 12.3017 1129.37 9.84859 1129.37 8.90888C1129.86 10.2739 1133.43 8.17689 1133.26 7.72187C1133.09 7.26685 1128.86 7.26685 1128.84 6.66345C1128.78 4.6851 1134.83 6.89096 1135.34 5.94135C1135.59 5.47644 1134.64 3.49809 1133.45 4.38835L1133.93 3.7256C1127.78 2.73643 1121.62 1.18342 1115.38 0.926236C1115.13 1.01838 1114.89 1.13088 1114.66 1.26256C1115.39 0.827318 1110 1.44061 1109.97 1.44061C1108.13 1.95498 1110.15 4.2103 1108.34 4.49716C1106.53 4.78402 1105 2.34076 1104.66 0.204138H1099.56L1099.62 0.283272C1101.73 3.34971 1092.7 5.87211 1100.49 8.19667C1099.66 8.09148 1098.83 8.10814 1098.01 8.24613C1097.76 6.91074 1094.05 7.39544 1096.31 5.80287C1089.38 6.43594 1092.47 9.57162 1096.36 8.90888C1096.21 8.99314 1096.08 9.08563 1095.95 9.18585C1089.11 8.92866 1092.11 13.3107 1087.16 14.3197C1087.23 13.6075 1086.79 11.55 1085.75 12.6183C1084.55 13.3602 1084.94 13.9339 1086.88 14.3296L1086.58 14.379C1079 17.9499 1086.52 10.3234 1083.61 9.85849C1087.21 8.09775 1096.26 4.06192 1089.31 1.83628C1091.27 1.71184 1093.18 1.13276 1094.88 0.144788H1083.9C1083.9 0.372298 1083.79 0.599808 1083.72 0.817427C1083.57 1.78799 1083.23 2.72085 1082.73 3.56733C1082.38 4.29653 1081.83 4.91058 1081.14 5.33796C1080.89 5.58674 1080.59 5.78033 1080.26 5.90638C1079.93 6.03242 1079.58 6.08813 1079.22 6.06995C1078.93 6.04019 1078.64 5.98053 1078.36 5.89189C1078.1 5.85524 1077.83 5.78889 1077.58 5.69406C1077.2 5.51251 1076.85 5.27588 1076.53 4.99175C1075.92 5.3539 1075.28 5.68407 1074.63 5.98092C1075.71 7.15804 1075.34 8.7605 1070.53 8.30548C1066.99 7.97905 1064.94 4.74445 1062.3 3.6069C1060.87 2.98372 1057.63 2.90459 1055.18 2.32097C1053.97 2.47253 1052.75 2.42575 1051.56 2.18249C1050.63 1.95218 1049.8 1.42812 1049.2 0.688834C1049.26 1.04954 1049.22 1.42078 1049.06 1.75304C1048.91 2.0853 1048.66 2.36278 1048.34 2.54848C1052.36 3.14199 1051.79 9.07704 1057.6 9.59141C1057.33 8.35494 1062.24 7.89003 1064.24 7.72187C1062.11 9.50238 1069.18 11.5599 1065.97 12.3017C1063 12.9546 1061.08 11.0059 1058.6 11.3126C1054.64 11.7478 1054.25 13.1524 1050.61 14.0328C1049.34 11.5302 1048.42 8.5231 1045.86 5.81276C1043.89 3.97266 1041.75 2.31711 1039.48 0.866885L1038.31 0.144788H1027.27C1025.11 0.649267 1022.91 1.28234 1022.57 2.72653C1022.91 2.63751 1031.77 1.00537 1029.88 1.53952C1030.27 3.00702 1031.16 4.29559 1032.39 5.18958C1029.01 2.98372 1017.24 1.57909 1021.86 5.67428C1020.87 4.6851 1027.62 4.15095 1025.95 6.26778C1022.98 9.93762 1023.32 6.26778 1016.79 7.17782C1017.39 8.08786 1019.87 8.70115 1019.49 9.65076C1018.98 10.9268 1016.7 10.2937 1015.92 11.2631C1015.93 11.0905 1015.95 10.9188 1015.98 10.7487C1015.32 10.2633 1014.52 10.0016 1013.7 10.0016C1012.88 10.0016 1012.08 10.2633 1011.41 10.7487C1009.93 10.0365 1006.93 10.0266 1005.21 9.19574C1015.66 7.70208 1005.29 7.75154 1005.21 5.34785C1005.15 3.26069 1013.47 4.11138 1012.14 0.817427C1009.03 0.817427 1004.96 2.72653 1001.49 2.2913C1002.58 1.23884 1003.93 0.497522 1005.4 0.144788H995.39C997.576 0.728401 1001.68 3.47831 996.834 4.10149C992.443 4.67521 993.234 1.43072 991.443 0.144788H990.385C987.319 1.13396 983.055 1.13396 981.294 0.144788H963.005C963.074 0.352514 963.361 0.599808 963.994 0.896561C968.178 2.87491 972.006 -0.290449 974.36 1.11418C976.408 2.35065 977.981 2.33086 981.73 3.89376C984.183 4.88294 988.051 5.87211 989.129 6.54475C987.239 6.1293 983.481 7.3262 982.482 7.53393C981.982 6.79529 981.322 6.17873 980.552 5.73006C979.781 5.28138 978.919 5.01212 978.03 4.94229C971.383 4.94229 969.256 12.5095 962.639 13.3107C966.853 13.6174 966.398 16.0606 972.036 15.6946C977.674 15.3286 972.115 15.1901 975.003 14.2109C975.27 14.1218 979.672 12.7271 979.732 12.549C980.562 9.73979 976.378 10.7784 976.378 10.6993C975.646 9.71011 983.431 10.8773 984.074 10.8674C984.697 10.3729 995.469 5.31817 997.764 7.63284C996.627 6.47551 990.959 13.1228 991.661 12.7568C989.178 14.0427 985.429 13.4096 983.748 15.1308C985.4 15.5265 977.625 14.8044 978.97 15.0418C978.982 15.4021 979.088 15.753 979.277 16.0599C979.466 16.3669 979.732 16.6194 980.048 16.7926H962.51C963.351 15.8034 965.586 15.0615 962.797 13.4591C959.552 12.5392 946.11 17.1586 956.318 11.5797C958.069 10.5905 960.472 12.1237 962.609 11.1543C964.746 10.1849 967.09 7.77133 968.168 6.76237L968.059 6.66345C973.787 7.01955 971.502 1.98465 966.437 4.98185C966.923 5.42615 967.382 5.89846 967.812 6.39637L966.269 5.00164C964.548 4.40154 962.754 3.8509 960.888 3.34971C960.126 5.74352 954.953 5.65449 952.599 5.13023C950.996 3.57722 950.996 2.03411 952.648 0.500891C954.127 1.32955 955.813 1.71421 957.505 1.60877C957.672 1.40829 957.789 1.17129 957.848 0.916945C957.906 0.662604 957.904 0.398078 957.841 0.144788H949.107C948.118 1.35158 949.73 2.21216 947.89 3.54755C946.901 4.26965 944.359 2.98372 943.409 3.92344C942.392 4.93773 941.486 6.05867 940.709 7.26685C941.311 7.16747 941.919 7.10142 942.529 7.06901C942.697 8.80007 943.844 11.6588 942.252 13.3107C938.196 11.8665 936.366 9.84859 935.07 12.8656C932.311 19.226 942.143 15.4869 947.732 15.9716C947.405 16.2486 947.039 16.5057 946.673 16.7629H933.745C930.985 16.0507 927.493 15.932 925.287 16.7629H914.209C914.397 15.1605 910.034 13.6371 908.363 15.0714C906.691 16.5057 907.373 16.6343 908.481 16.7629H901.775C902.032 15.7738 904.742 15.0319 903.753 14.0526C901.29 11.5203 899.331 13.2217 898.807 14.9527C898.743 14.9295 898.677 14.9129 898.609 14.9033C898.609 15.1308 898.609 15.3088 898.669 15.4473C898.669 15.4473 898.669 15.5067 898.669 15.5364C898.669 15.566 898.669 15.5364 898.669 15.4572C898.372 15.5561 897.927 15.6748 897.363 15.8034C897.795 15.6915 898.251 15.7157 898.669 15.8727C898.669 15.8727 898.669 15.8727 898.669 15.9419C897.025 15.8027 895.373 16.0888 893.871 16.7728H882.001C880.349 16.2683 879.33 15.9023 880.201 15.9914C887.758 16.753 888.945 13.2415 887.026 13.2316C885.414 13.5184 884.761 14.1317 885.048 15.0517C884.059 15.0517 880.567 12.2622 878.401 13.192C877.411 13.5976 876.729 14.9231 876.106 15.1704C878.964 14.29 876.383 15.8133 874.572 16.8124H865.057C864.489 16.4435 863.898 16.113 863.286 15.8232C858.815 16.8124 854.472 17.0201 853.266 14.5175C851.333 14.1628 849.34 14.3232 847.489 14.9824C847.242 14.9824 846.391 15.0714 845.194 15.2198C845.569 15.3384 845.965 15.3785 846.356 15.3377C846.748 15.2969 847.126 15.1759 847.469 14.9824C846.665 15.6771 845.801 16.2994 844.887 16.8421H832.928C836.262 16.3673 841.979 15.5957 845.194 15.2198C843.923 14.7202 842.831 13.8521 842.058 12.7271C840.387 13.3404 831.177 15.1802 830.366 16.8421H817.032C819.841 16.2486 822.641 14.7153 821.058 12.3215C820.376 13.8053 812.304 15.8925 812.472 16.4662C812.504 16.5523 812.554 16.6306 812.619 16.6955C812.683 16.7604 812.762 16.8104 812.848 16.8421H797.486C795.097 16.2349 792.594 16.2349 790.206 16.8421H779.72C779.623 16.6281 779.544 16.4064 779.483 16.1793C778.754 16.2571 778.02 16.2836 777.287 16.2584C777.589 16.4966 777.922 16.6929 778.276 16.8421H753.547C761.065 10.0069 750.48 16.0309 747.612 11.8171C746.474 10.1552 752.795 10.2739 752.706 10.6399C752.389 12.1336 755.387 7.45479 753.23 8.85942C753.468 8.71104 748.502 8.10765 749.274 7.50425C752.073 5.5259 758.621 8.29559 761.599 5.79298C761.282 5.70395 757.533 3.963 756.495 3.4882C756.712 3.22112 759.897 0.570133 759.343 1.0845C762.776 3.06285 763.092 3.59701 761.905 6.03038C765.793 7.89992 758.374 9.30455 760.263 11.9654C752.726 16.4365 788.039 14.5175 773.053 10.9763C775.487 8.9979 777.218 9.76946 780.541 10.6696C785.487 12.005 781.451 11.2137 781.531 13.1722C781.61 14.6857 794.054 12.0248 794.271 9.57162C794.459 7.77133 786.219 3.16177 783.014 2.6474C782.836 3.89376 780.858 4.83348 777.89 4.9225C779.986 5.31708 781.959 6.20174 783.647 7.50425C780.947 7.72187 776.328 6.80194 774.409 6.64367C772.586 7.1982 770.703 7.53033 768.8 7.63284C771.955 11.273 764.843 11.5895 764.843 10.1552C764.843 8.44397 767.296 7.11847 767.87 5.37752C767.87 5.31817 767.593 2.1726 767.296 0.184355H756.732C756.663 1.36147 756.574 2.53859 756.504 3.42885L756.356 3.35961C755.753 3.14199 750.916 1.38126 751.608 1.38126C746.504 1.19331 751.756 6.06995 744.199 3.43874C744.793 2.7661 745.515 3.68603 745.267 2.09346C744.011 2.37043 743.625 2.7661 744.051 3.29036C742.908 3.7858 741.815 4.3886 740.786 5.09066C740.658 5.09066 734.278 5.96114 734.96 5.79298C734.278 5.96114 728.936 7.59328 727.611 7.77133C725.019 8.05819 717.808 6.88107 716.413 7.12836C708.628 8.46375 718.599 8.11754 721.755 9.93762C724.91 11.7577 720.647 15.0319 728.234 15.8034C728.055 16.1041 727.949 16.4432 727.927 16.7926H712.733C715.701 14.8143 709.529 13.0436 709.44 12.183C710.677 11.8461 711.941 11.6145 713.218 11.4906C712.981 11.7577 709.034 7.40533 708.688 6.91075C708.628 6.81183 712.714 3.94322 712.031 4.24986C703.049 5.55558 706.798 2.21216 698.618 5.11045C697.471 5.5259 697.045 6.92064 696.125 7.76144C696.65 7.11847 691.624 8.80996 690.022 9.21552C693.979 10.3827 698.925 8.38462 702.476 9.6013C705.503 10.5905 701.991 14.1515 706.126 14.4087C702.238 13.8646 699.508 15.3484 695.838 14.6263C693.217 14.0922 693.731 11.7775 689.844 11.2334C676.985 9.42325 688.855 20.8977 672.217 14.6065C678.528 14.0427 677.163 10.7389 684.087 11.0554C683.573 8.29559 683.711 6.10951 686.867 4.97196C691.407 6.41616 692.109 6.35681 695.67 5.34785C696.897 4.99175 699.33 1.76703 699.934 0.184355H691.733C690.942 1.43072 690.675 2.73643 685.333 3.41896C682.445 3.79484 680.229 2.42978 677.529 2.56827C675.966 2.66718 674.314 5.6446 672.128 4.94229C668.399 3.69593 679.448 1.48017 679.557 1.38126C679.967 1.10187 680.252 0.67186 680.348 0.184355H675.125C674.027 2.55837 672.306 4.14105 670.179 3.62668C668.549 3.24226 666.897 2.95163 665.233 2.75621C664.867 4.22019 664.244 5.49622 662.948 5.77319C660.564 6.30735 657.379 3.43874 660.564 2.45946C660.57 2.43666 660.57 2.41301 660.564 2.39021C658.695 2.39021 656.815 2.39021 654.936 2.48913C655.371 4.02235 656.697 6.09962 655.074 6.50518C654.293 5.51601 653.017 3.94322 653.314 2.60783C652.255 2.69686 651.207 2.80567 650.148 2.93426C651.019 3.61679 650.148 3.92344 647.626 3.82452C647.448 3.99268 647.715 3.64647 648.071 3.20134C641.82 4.10149 635.568 5.55558 629.277 6.80194C631.127 7.58338 632.778 7.66252 631.671 9.57162C631.265 10.2838 625.597 13.3898 624.054 11.55C622.817 10.0365 630.978 9.82881 629.297 8.20656C628.107 8.08397 626.932 7.85218 625.785 7.51414C624.38 7.77133 622.986 7.99884 621.591 8.21646C621.253 8.44163 620.868 8.58788 620.466 8.64438C620.063 8.70088 619.654 8.66619 619.266 8.54288C617.031 8.82974 614.805 9.04736 612.57 9.14628C607.198 9.3639 601.807 9.33422 596.416 9.14628C595.464 10.469 594.227 11.5609 592.796 12.3413C588.127 13.1327 589.828 10.6103 592.796 8.9979C582.093 8.36839 571.439 7.07669 560.895 5.13023C556.828 4.35467 552.714 3.85237 548.58 3.62668C548.748 4.15095 548.095 4.61586 546.602 4.85326C546.146 5.2885 546.789 4.23008 547.68 3.58712C544.285 3.47075 540.887 3.6395 537.521 4.0916C541.764 6.27767 545.029 8.57256 542.872 8.61213C539.974 8.61213 537.778 5.90179 535.226 4.43781H535.097C532.338 4.93239 529.588 5.42698 526.828 5.882C526.973 5.94938 527.098 6.0548 527.189 6.18712C527.279 6.31944 527.332 6.47376 527.342 6.63378C529.182 6.74138 531.009 7.00947 532.802 7.43501C531.121 8.58245 525.997 6.99977 524.365 6.22821C523.059 6.38648 521.753 6.52497 520.408 6.6041C520.131 6.99977 519.419 7.23717 518.133 7.30641C518.396 7.04185 518.7 6.8214 519.033 6.65356C516.209 6.77237 513.38 6.5599 510.605 6.02049C509.804 5.85233 509.003 5.65449 508.202 5.43687C505.927 5.37752 504.097 5.58525 503.117 7.29652C501.347 3.91354 495.877 7.29652 497.558 9.8387C496.866 9.3639 495.214 9.04736 492.019 9.0078C486.786 8.93855 488.112 8.46375 486.618 10.6399C485.243 12.6183 490.644 10.8773 491.702 11.6291C493.394 12.9348 471.177 17.1091 471.127 16.575C470.781 12.8854 481.86 14.2801 482.641 10.9861C485.767 11.55 487.014 11.2235 486.351 9.99697C485.07 9.82972 483.772 10.1167 482.681 10.8081C482.632 10.5905 474.916 6.08973 478.526 6.3667C484.976 6.87118 484.026 8.22635 489.803 5.70395C491.104 5.20822 492.279 4.43136 493.245 3.42885C494.037 7.11847 501.752 5.94135 500.832 3.04307L499.576 2.58805L493.344 3.31015C494.235 2.32097 494.482 1.60877 496.609 1.52963C495.194 0.995478 493.819 0.550349 492.444 0.144788H469.159C468.477 0.659159 469.624 0.619591 467.863 2.22205C478.151 3.57722 468.724 9.75957 468.566 13.192C464.302 11.5895 467.349 8.77039 466.488 7.09869C464.787 6.71291 462.996 6.39637 461.196 6.10951C459.683 5.27861 459.792 4.39824 461.493 3.47831C461.068 2.56827 461.335 1.32191 461.493 0.115112H459.455C458.08 0.283272 456.695 0.44154 455.311 0.589916C456.508 0.866047 457.563 1.56949 458.278 2.56827C457.546 2.8856 456.788 3.1404 456.013 3.32993C450.187 6.21832 450.919 1.74725 453.659 0.728401C449.887 1.0845 446.108 1.36477 442.323 1.5692C440.206 1.8932 438.059 1.97616 435.923 1.81649C431.907 1.9286 427.887 1.9286 423.865 1.81649C423.635 2.01839 423.417 2.23305 423.212 2.45946C421.689 4.18062 425.19 5.09066 420.294 6.66345C421.283 5.53579 420.056 3.55744 418.573 1.64833C415.823 1.53952 413.063 1.40104 410.323 1.2032C409.426 1.15331 408.578 0.776838 407.939 0.144788H404.19C401.681 1.92155 398.766 3.0405 395.713 3.39917C393.101 2.33086 393.556 1.24277 394.338 0.144788H388.274C388.779 2.22205 386.84 3.29036 390.895 5.59514C389.511 4.86315 384.96 8.65169 381.924 8.31537C380.549 8.167 376.879 5.44677 375.692 4.91261C371.468 3.03318 365.8 1.64833 360.775 0.144788H359.628C359.766 2.12314 351.418 0.797643 349.993 0.144788H325.432C319.655 2.60783 313.898 5.36763 308.032 6.28756C308.113 6.39447 308.168 6.51792 308.195 6.64896C308.221 6.78 308.219 6.91532 308.186 7.0451C308.154 7.17488 308.093 7.29586 308.009 7.39923C307.924 7.50261 307.817 7.58579 307.696 7.64273C306.855 7.51962 306.072 7.14355 305.451 6.56453C303.797 6.66612 302.138 6.5765 300.505 6.29746C292.858 4.96207 284.549 -2.04129 276.903 0.856994C271.621 2.83534 267.496 3.58712 262.956 0.144788H258.821C257.832 1.06472 254.696 2.12314 251.343 1.41093C251.88 1.05741 252.366 0.631335 252.787 0.144788H243.271C244.666 0.748184 246.239 1.28234 245.694 1.95498C245.15 2.62762 240.264 2.46935 240.511 2.47924C240.612 2.15254 240.645 1.80882 240.61 1.46881C240.574 1.12881 240.47 0.799551 240.303 0.500891C232.934 1.49007 225.466 1.85606 218.186 2.25173C197.413 3.37939 176.64 5.02142 155.798 5.47644C145.484 5.80242 135.159 5.2963 124.926 3.963C121.129 3.40788 117.367 2.63171 113.659 1.63844C113.561 1.72764 113.447 1.79804 113.323 1.84617C113.183 1.74801 113.07 1.61508 112.997 1.46039C111.374 1.03505 109.752 0.589916 108.13 0.144788H84.5776C83.6973 1.28234 80.799 3.21123 79.8691 2.21216C80.522 1.13396 80.799 0.500891 81.0759 0.144788H55.7333C37.5918 4.64553 19.48 10.1453 1.388 4.10149V26.6448H1900.6ZM957.337 7.71198C960.828 8.77039 957.93 9.23531 958.741 9.69033C958.207 9.37379 956.446 6.92064 957.337 7.71198ZM947.059 13.647C948.691 12.549 944.636 7.90981 942.657 7.04923C943.251 6.92064 950.571 5.07088 949.186 7.17782C948.454 7.49436 947.702 7.78122 946.921 8.07797C945.724 9.43314 953.429 9.06715 951.867 9.1166C952.836 10.1651 951.619 14.0427 947.039 13.6371L947.059 13.647ZM789.652 10.3531C789.385 11.0158 788.663 11.1444 787.495 10.7487C787.782 10.1157 788.494 10.0365 789.652 10.3531ZM702.535 5.99081C701.071 6.62388 700.25 6.49529 700.072 5.65449C701.259 5.61493 703.999 5.49622 702.535 5.99081ZM488.893 0.629483C488.411 0.829608 487.892 0.925153 487.37 0.909807C486.848 0.894461 486.336 0.768572 485.866 0.540458C486.862 0.27234 487.915 0.303302 488.893 0.629483ZM474.827 10.1948C476.667 10.7949 476.479 11.4082 474.263 12.0347C473.294 11.4807 473.482 10.8773 474.827 10.1948ZM205.94 10.4025C204.555 11.8368 201.765 13.5679 201.043 14.5373C199.619 13.7558 201.736 9.78924 205.94 10.4025ZM214.615 15.9419C214.377 15.4078 214.615 14.9527 215.426 14.5472C215.726 14.8191 215.944 15.1703 216.055 15.5604C216.165 15.9506 216.163 16.364 216.049 16.753H214.694C214.357 16.3574 214.169 15.9716 214.615 15.9716V15.9419ZM318.973 13.5778C319.836 13.3831 320.736 13.431 321.574 13.7163C320.709 13.8819 319.816 13.8343 318.973 13.5778ZM332.524 15.9716C333.998 16.0174 335.458 16.2773 336.857 16.7431H329.586C328.686 16.1002 328.993 15.6551 332.524 15.9716ZM346.076 8.37472C343.722 7.38555 343.91 6.88107 346.64 6.76237C346.857 7.21739 347.105 7.67241 347.312 8.14721C346.912 8.2787 346.497 8.35848 346.076 8.38461V8.37472ZM342.653 16.753C342.864 16.5631 343.093 16.3941 343.336 16.2486C343.946 16.3068 344.539 16.4779 345.087 16.753H342.653ZM640.286 16.753H634.035C634.846 16.12 640.069 15.7639 642.73 15.0022C641.957 15.637 641.144 16.2218 640.296 16.753H640.286ZM667.746 13.5283C667.881 13.1523 667.964 12.7596 667.993 12.3611C668.527 12.8359 667.696 14.0922 667.004 14.567C666.025 14.0526 666.272 13.7163 667.756 13.5283H667.746ZM1072.66 16.1299C1073.94 15.754 1074.64 15.9023 1074.74 16.575C1074.51 16.6529 1074.27 16.7124 1074.03 16.753H1073.32C1073.16 16.722 1073.02 16.6468 1072.9 16.5365C1072.78 16.4261 1072.7 16.285 1072.66 16.1299ZM1120.86 12.46C1119.26 12.0545 1119.05 11.6093 1120.23 11.1147C1120.92 11.6786 1125.85 15.0714 1125.48 15.4473C1123.8 15.8549 1122.05 15.8105 1120.39 15.3187C1122.71 13.9932 1123.89 13.6866 1120.87 12.46H1120.86ZM1226.13 12.737C1232.95 13.3305 1231.27 15.1802 1231.17 16.753H1227.71C1226.87 15.5574 1226.33 14.1811 1226.14 12.737H1226.13ZM1199.17 16.753H1197.59C1197.99 16.6495 1198.39 16.5833 1198.8 16.5552C1199.13 16.5255 1199.21 16.6146 1199.18 16.753H1199.17ZM1311.06 15.1605C1312.71 14.8446 1314.39 14.7251 1316.07 14.8044C1315.62 16.0309 1312.57 15.5759 1311.06 15.1605ZM1319.96 12.5589C1320.58 13.0041 1320.61 13.469 1319.96 13.9537C1318.39 13.6272 1318.39 13.1623 1319.96 12.5589ZM1328.86 12.8062C1329.2 12.6373 1329.57 12.5437 1329.95 12.5317C1330.32 12.5198 1330.7 12.5898 1331.05 12.737C1330.75 13.0036 1330.37 13.1568 1329.97 13.1694C1329.57 13.1821 1329.18 13.0535 1328.86 12.8062ZM1292.42 16.7629C1292.7 16.1793 1293.26 15.7738 1294.47 15.9122C1294.72 15.9251 1294.95 16.0134 1295.15 16.1655C1295.35 16.3176 1295.49 16.526 1295.57 16.7629H1292.42ZM1539.9 15.8529C1540.56 15.5125 1541.28 15.3138 1542.02 15.2695C1542.76 15.2252 1543.5 15.3363 1544.19 15.5957C1543.18 16.5948 1541.74 16.664 1539.93 15.843L1539.9 15.8529ZM1781.1 16.7629H1779.45C1779.86 16.2055 1780.2 15.5929 1780.44 14.9428C1781.06 15.5462 1781.5 16.1793 1781.13 16.753L1781.1 16.7629ZM1899.36 15.3286L1897.61 16.2584C1896.06 14.9824 1896.5 14.4878 1899.39 15.3187L1899.36 15.3286ZM1895.02 10.9763C1896.06 11.4313 1895.88 11.7577 1894.41 11.9654C1892.69 11.5599 1892.94 11.2334 1895.04 10.9664L1895.02 10.9763ZM1887.27 12.5589C1894.83 13.2019 1893.66 17.1982 1889.94 15.843C1885.1 14.0823 1887.46 13.8646 1885.98 11.6588C1880.76 3.38928 1888.99 6.34691 1887.3 12.549L1887.27 12.5589ZM1874.16 4.74445C1873.96 4.94229 1875.55 5.27861 1873.71 6.1194C1872.41 6.69313 1871.6 6.7228 1871.26 6.18865C1875.92 6.21832 1872.5 6.07984 1874.19 4.73456L1874.16 4.74445ZM1864.84 9.04736C1861.16 9.43314 1861.03 9.74968 1858.17 9.13639C1860.3 6.41616 1861.76 6.86129 1864.84 9.04736ZM1851.77 13.7361C1852.68 13.6075 1853.63 13.4987 1854.55 13.3799C1857.41 13.0832 1853.71 13.8548 1851.77 13.7262V13.7361ZM1850.38 8.05819L1853.92 9.53206C1849.07 10.8674 1847.4 9.8387 1850.38 8.05819ZM1844.45 6.9602C1845.72 7.37566 1845.7 7.94938 1844.32 8.78028C1842.45 8.25602 1842.48 7.64273 1844.42 6.94042L1844.45 6.9602ZM1846.43 13.9537C1845.27 17.3663 1841.81 14.745 1841.48 14.102C1843.09 14.6427 1844.85 14.583 1846.42 13.9339L1846.43 13.9537ZM1831.85 9.0078C1829.53 8.60223 1828.1 7.88014 1827.5 6.85139C1829.82 6.92064 1833.34 7.53393 1831.84 8.93855L1831.85 9.0078ZM1817.68 9.61119C1818.27 9.38615 1818.9 9.28495 1819.53 9.31388C1820.17 9.34281 1820.78 9.50125 1821.35 9.77935C1820.13 10.0671 1818.85 9.98446 1817.67 9.54195L1817.68 9.61119ZM1820.48 2.93426C1820.72 3.59701 1820.34 4.16084 1819.32 4.63564C1815.8 4.03225 1820.39 2.84524 1820.48 2.93426ZM1817.16 6.16886C1818.45 7.09869 1819.51 7.34598 1820.32 6.86129C1818.75 8.18678 1817.79 8.93855 1817.27 9.3639C1816.1 8.31537 1816.05 7.24706 1817.18 6.16886H1817.16ZM1812.21 14.0823C1811.43 13.558 1811.81 13.2514 1813.29 13.1722C1814.18 13.7163 1813.83 13.9932 1812.24 14.0526L1812.21 14.0823ZM1809.37 6.62388C1813.09 6.62388 1813.01 14.4779 1807.39 10.0365H1807.44C1806.87 8.93855 1804.3 6.55464 1809.4 6.59421L1809.37 6.62388ZM1807.19 10.0365C1806.43 10.7784 1805.3 10.9268 1803.79 10.452C1804.89 10.1105 1806.04 9.96975 1807.19 10.0365ZM1804.87 12.3215C1808.12 13.7262 1805.86 15.7441 1803.21 16.7827H1799.18C1801.16 15.3891 1803.06 13.8899 1804.87 12.2919V12.3215ZM1798.28 6.56453C1797.79 6.90085 1797.29 7.24706 1796.8 7.55371C1796.5 7.54382 1797.02 6.40627 1798.28 6.53486V6.56453ZM1789.03 13.3008C1790.64 14.8835 1790.67 15.4275 1787.7 16.6047C1786.51 15.2099 1786.94 14.1119 1789.03 13.2711V13.3008ZM1781.41 9.73979C1781.71 10.1849 1778.06 12.7667 1777.25 10.818C1776.3 11.1694 1775.26 11.1972 1774.29 10.8971C1774.46 10.5905 1779.43 10.1552 1781.41 9.71011V9.73979ZM1769.26 10.0959C1770.09 10.5113 1770.04 10.9169 1769.17 11.3027C1768.36 10.8477 1768.39 10.4619 1769.26 10.0365V10.0959ZM1755.98 2.70675C1757.03 2.10335 1755.12 4.329 1754.99 4.6851C1754.28 3.92344 1754.59 3.2508 1755.98 2.67708V2.70675ZM1757.51 10.5509L1752.23 8.72093C1756.57 5.90179 1757.17 10.4124 1757.51 10.5212V10.5509ZM1749.44 9.56173C1750.55 10.3036 1750.31 10.9565 1748.72 11.5401C1747.39 12.0149 1749.09 9.91784 1749.44 9.56173ZM1744.02 12.2325C1745.33 12.737 1746 13.3701 1746 14.1317C1746.04 13.8745 1742.02 13.1327 1744.02 12.2325ZM1743.47 5.01153L1745.83 4.88294C1745.57 5.29839 1742.09 8.63191 1743.2 8.9979C1741.76 8.55277 1743.86 4.10149 1743.47 5.01153ZM1734.22 8.05819C1737.07 6.89096 1737.35 9.86838 1735.95 10.6202C1733.96 9.93762 1733.35 9.04736 1734.22 8.05819ZM1735.98 10.7784C1736.35 11.7676 1735.59 12.3512 1733.59 12.4798C1733.64 11.7577 1734.42 11.184 1735.98 10.8081V10.7784ZM1712.24 10.8378C1713.39 11.5302 1713.08 12.1929 1711.25 12.8161C1710.02 12.1039 1710.38 11.4313 1712.27 10.8674L1712.24 10.8378ZM1705.54 2.37043C1707.78 2.1726 1705.68 5.01153 1705.54 5.10055C1704.51 4.65317 1703.46 4.26025 1702.38 3.92344C1701.68 4.29932 1703.35 2.58805 1705.57 2.40011L1705.54 2.37043ZM1703.92 13.2514L1701.87 12.7172C1703.98 12.2028 1706.22 12.0149 1703.95 13.3206L1703.92 13.2514ZM1682.37 7.40533C1680.92 7.77133 1679.97 7.50425 1679.56 6.61399C1681.24 6.23811 1682.19 6.50518 1682.4 7.47457L1682.37 7.40533ZM1675.55 9.03747C1676.54 9.72 1675.66 11.6687 1673.77 9.84859L1675.55 9.03747ZM1666.5 9.72989C1664.81 9.77091 1663.13 9.48887 1661.55 8.89899C1664.13 7.94938 1666.63 8.05819 1666.53 9.79914L1666.5 9.72989ZM1645.2 6.50518C1645.85 6.80194 1645.53 7.81089 1644.74 8.48353C1643.48 7.75154 1643.64 7.06901 1645.2 6.50518ZM1633.97 4.15095C1632.73 4.72467 1631.99 4.58618 1631.68 3.73549C1633.41 3.21123 1634.16 3.34971 1633.97 4.15095ZM1604.1 5.73363C1602.95 5.73363 1601.81 5.73363 1600.67 5.65449C1601.71 5.69406 1603.24 5.72373 1604.1 5.73363ZM1566.42 5.87211C1566.69 6.20843 1566.42 6.56453 1566.09 6.86129C1565.49 6.4854 1565.57 6.15897 1566.42 5.87211ZM1564.86 9.58152C1566.2 9.17595 1567.77 11.9456 1566.09 12.4501C1564.08 12.094 1562.64 10.2443 1564.86 9.58152ZM1558.13 6.76237C1558.97 7.27674 1558.7 7.61306 1557.32 7.75154C1556.43 7.17782 1556.7 6.85139 1558.13 6.76237ZM1547.9 8.34505C1541.74 7.87024 1543.41 6.19854 1542.32 4.38835C1547.03 3.87398 1547.66 6.86129 1547.9 8.34505ZM1541.23 13.9042C1540.55 14.0382 1539.86 14.1209 1539.17 14.1515C1539.82 13.8774 1540.53 13.7917 1541.23 13.9042ZM1526.86 2.93426C1528.38 3.14199 1528.46 3.54755 1527.06 4.15095C1524.72 3.98279 1524.66 3.57722 1526.86 2.93426ZM1528.06 11.0752C1529.36 11.5895 1526.27 13.9141 1525.65 13.8548C1524.94 13.2413 1524.3 12.5587 1523.73 11.8171C1525.02 11.0244 1526.58 10.7588 1528.06 11.0752ZM1511.67 4.15095C1511.83 4.96207 1511.24 5.14012 1509.91 4.55651C1510.05 3.82452 1510.64 3.68603 1511.67 4.15095ZM1498.01 1.99454C1497.41 2.2002 1496.78 2.30384 1496.14 2.30119C1496.74 2.21216 1497.37 2.12314 1498.01 1.99454ZM1491.09 5.56547C1490.39 5.85757 1489.63 6.00053 1488.88 5.9852C1488.12 5.96987 1487.37 5.79659 1486.68 5.47644C1488.83 4.45759 1490.72 5.56547 1491.09 5.56547ZM1485.85 8.36483C1488.71 9.35401 1487.63 12.549 1483.58 12.1039C1483.9 11.5599 1484.23 11.0059 1484.57 10.4619C1483.24 9.1166 1483.67 8.42418 1485.86 8.36483H1485.85ZM1479.34 4.86315C1481.32 5.21926 1481.56 5.71384 1480.17 6.32713C1478.54 5.92157 1478.28 5.42698 1479.35 4.86315H1479.34ZM1465.44 8.58245C1470.32 8.71104 1470.27 9.78924 1467.33 11.3719C1467.7 12.2226 1467.09 12.8359 1465.47 13.2217C1465.18 13.0041 1465.98 9.71011 1465.45 8.58245H1465.44ZM1470.32 16.4266C1467.9 16.5156 1466.22 16.6739 1464.2 16.7036C1466.22 16.365 1468.27 16.272 1470.31 16.4266H1470.32ZM1460.17 12.7172C1460.33 12.1929 1461.06 11.9061 1462.39 11.8171C1463.28 11.4807 1461.91 12.7864 1460.18 12.7172H1460.17ZM1459.88 10.3234C1458.89 9.87827 1458.89 9.43314 1459.82 8.96823C1460.94 9.40347 1460.97 9.86838 1459.89 10.3234H1459.88ZM1460.61 3.21123C1458.63 4.14105 1457.34 4.02235 1457.64 5.45666C1456.18 5.17969 1455.48 4.6851 1455.53 3.97289C1455.62 2.42978 1458.78 2.73643 1460.62 3.21123H1460.61ZM1446.16 5.35774L1450.26 4.78402C1450.47 4.94314 1450.62 5.16036 1450.7 5.4072C1448.65 6.16886 1445.9 7.06901 1446.17 5.35774H1446.16ZM1445.27 10.996C1444.27 11.1331 1443.26 10.9531 1442.38 10.4817C1441.09 10.3729 1447.06 10.729 1445.28 11.0257L1445.27 10.996ZM1446.13 16.753H1441.53C1441.02 16.0649 1440.58 15.3256 1440.22 14.5472H1440.44C1442.44 14.99 1444.36 15.7338 1446.14 16.753H1446.13ZM1440.38 1.85606C1439.22 2.39021 1438.68 2.26162 1438.74 1.49996C1439.98 0.916344 1440.56 1.03505 1440.39 1.85606H1440.38ZM1434.65 8.78028C1434.26 9.28476 1434.65 10.2047 1434.57 10.3827C1431.91 10.1651 1433.83 9.37379 1434.7 8.82974L1434.65 8.78028ZM1437.71 14.013C1435.52 14.201 1432.76 14.379 1431.98 13.8844C1430.35 12.8557 1434.7 13.5085 1437.72 14.0625L1437.71 14.013ZM1425.71 3.11231C1428.25 3.66625 1423.97 5.4072 1423.3 5.71384C1423.53 4.37846 1424.67 2.87491 1425.71 3.11231ZM1423.28 5.85233C1423.75 6.29313 1424.06 6.8891 1424.14 7.53393C1423.39 7.30641 1423.17 6.62388 1423.28 5.84244V5.85233ZM1417.8 2.51881C1419.33 3.06285 1419.25 3.38928 1417.5 3.50798C1415.31 2.89469 1415.39 2.56827 1417.8 2.50892V2.51881ZM1405.54 11.7379C1402.86 15.0517 1399.36 9.1166 1399.33 9.06715C1399.95 9.17596 1404.89 12.549 1405.54 11.728V11.7379ZM1385.37 11.1642C1385.37 12.1039 1384.53 12.1534 1382.7 11.3521C1383.09 11.0879 1383.54 10.9305 1384.01 10.8958C1384.48 10.8611 1384.95 10.9502 1385.37 11.1543V11.1642ZM1375.68 5.50612C1377.33 5.3788 1378.98 5.76585 1380.4 6.61399C1378.75 6.92064 1377.05 7.21739 1375.35 7.46468C1374.65 8.42446 1373.64 9.1208 1372.49 9.44303C1373.76 8.63191 1374.03 6.21832 1375.68 5.49622V5.50612ZM1366.15 11.3917C1365.02 12.3809 1364.28 12.3809 1363.96 11.4609C1365.12 10.4817 1365.86 10.4619 1366.15 11.3818V11.3917ZM1356.43 14.5571C1357.32 14.7747 1357.32 15.0912 1356.48 15.4968C1355.57 15.2693 1355.57 14.9824 1356.43 14.5472V14.5571ZM1348 4.03225C1349.59 3.80474 1349.61 5.58525 1349.38 7.06901C1346.6 5.95125 1346.12 4.93239 1348 4.02235V4.03225ZM1349.35 7.23717C1349.24 7.81649 1349.1 8.38821 1348.92 8.94844C1346.41 9.75957 1342.77 10.7092 1342.77 11.728C1340.53 11.2334 1346.27 7.78122 1349.35 7.22728V7.23717ZM1341.77 2.84524C1343.68 2.99361 1344.28 3.37939 1343.5 3.99268C1341.39 3.93333 1340.8 3.55744 1341.77 2.83534V2.84524ZM1334.85 8.95834C1330.89 9.06715 1328.85 8.49342 1328.71 7.26685C1329.48 6.19854 1338.99 7.21739 1334.88 8.94844L1334.85 8.95834ZM1322.4 6.81183C1324.51 8.36483 1314.05 7.69219 1313.13 7.18771C1314.02 5.81276 1321.09 5.79298 1322.44 6.80194L1322.4 6.81183ZM1312.97 4.10149C1313.61 4.10149 1312.48 4.97196 1311.37 5.31817C1310.72 5.47644 1312.34 4.24986 1312.97 4.10149ZM1313.2 12.549C1312.23 13.2118 1311.42 14.0756 1310.82 15.0813L1308.61 14.3493C1309.39 13.0041 1310.91 12.4204 1313.2 12.549ZM1305.05 10.7487C1303.94 11.184 1303.21 11.0752 1302.84 10.4619C1302.99 10.3186 1303.18 10.2113 1303.38 10.1474C1303.58 10.0835 1303.8 10.0645 1304.01 10.0918C1304.22 10.1191 1304.42 10.192 1304.6 10.3055C1304.78 10.4189 1304.94 10.5702 1305.05 10.7487ZM1303.07 14.4581C1305.45 15.2198 1303.07 17.4257 1301.48 15.7639C1301.98 15.3385 1302.51 14.8934 1303.05 14.4581H1303.07ZM1296.08 12.2325C1294.27 11.5005 1294.89 8.10765 1295.19 9.26498C1297.66 10.2937 1297.95 11.2829 1296.06 12.2325H1296.08ZM1296.38 4.49716C1297.67 5.32806 1297.37 7.75154 1293.03 6.86129C1291.74 5.79298 1292.87 5.01153 1296.36 4.49716H1296.38ZM1284.6 5.99081C1285.74 5.81276 1286.92 5.66438 1288.12 5.55557C1290.95 5.6446 1284.16 13.1821 1281.39 11.4906C1282.3 12.0742 1285.19 6.29746 1284.58 5.99081H1284.6ZM1263.09 11.1048C1263.68 11.2928 1275.4 7.72187 1273.49 12.2226C1273.72 11.6786 1267.87 13.9339 1267.55 14.0922C1266.56 11.7874 1258.31 12.9546 1257.13 14.5966C1255.59 14.2109 1254.75 13.6075 1254.58 12.737C1254.19 8.12743 1260.8 10.4322 1263.07 11.1048H1263.09ZM1248.25 8.51321C1249.11 9.06715 1248.82 9.50238 1247.41 9.69033C1246.14 8.85942 1246.41 8.47364 1248.22 8.51321H1248.25ZM1240.45 8.98801C1243.57 7.63284 1247.01 11.2433 1243.42 11.55C1240.82 11.4214 1239.84 10.5608 1240.42 8.98801H1240.45ZM1240.81 16.753H1237.56C1237.26 16.387 1237.56 15.9914 1239.48 15.3187C1240.55 15.7935 1240.98 16.2584 1240.82 16.753H1240.81ZM1239.12 13.0041L1236.8 13.7361C1236.53 13.7211 1236.26 13.651 1236.02 13.5302C1235.78 13.4095 1235.57 13.2405 1235.39 13.0337C1235.89 12.5457 1236.56 12.2697 1237.25 12.2641C1237.95 12.2586 1238.62 12.5239 1239.12 13.0041ZM1234.97 8.17689C1233.22 8.71628 1231.36 8.75058 1229.6 8.27581C1231.92 7.30641 1232.54 6.99977 1234.97 8.17689ZM1218.82 3.23101C1221.5 -0.725687 1224.92 3.66625 1227.81 5.08077C1227.97 3.95311 1229.05 3.10242 1231.05 2.44957C1231.98 3.04307 1228.45 5.70395 1229.07 8.11754C1225.37 7.12836 1221.58 4.89283 1218.84 3.23101H1218.82ZM1212.5 14.3691C1214.07 14.4779 1214.36 14.8241 1213.39 15.3583C1211.88 15.3088 1211.58 14.9824 1212.5 14.3889V14.3691ZM1210.59 8.72093C1210.4 8.55278 1207.04 11.8368 1206.86 11.8072L1204.64 10.9466C1202.97 12.0149 1209.17 7.59327 1210.59 8.74072V8.72093ZM1202.89 9.33422C1202.25 9.81682 1201.52 10.1553 1200.74 10.3261C1199.96 10.497 1199.16 10.496 1198.38 10.3234C1198.29 10.2739 1199.16 6.57443 1202.89 9.35401V9.33422ZM1196.95 7.27674C1195.61 8.20656 1194.58 8.08786 1193.91 6.90085C1195.63 6.07984 1196.66 6.18865 1197 7.29652L1196.95 7.27674ZM1191.37 9.86838C1196.9 10.3432 1192.9 14.4878 1192.71 12.8359C1190.38 12.094 1189.93 11.095 1191.37 9.86838ZM1183.67 13.192C1184.81 12.549 1185.34 12.6875 1185.31 13.6174C1184.08 14.1119 1183.53 13.9932 1183.64 13.192H1183.67ZM1172.03 10.0365C1176.27 12.2028 1175.6 11.6588 1172.43 13.4195C1169.9 11.7478 1169.17 12.094 1172.03 10.0365ZM1160.16 14.5867C1162.74 13.4393 1164.11 15.0912 1164.81 16.7234H1161.38C1160.78 15.9716 1159.91 14.7351 1160.18 14.6164L1160.16 14.5867ZM1149.41 15.3187C1150.46 15.5364 1149.41 16.3079 1149.18 16.7234H1149.03C1148.64 16.2782 1148.74 15.8034 1149.43 15.3484L1149.41 15.3187ZM1132.6 15.8133C1132.72 15.9285 1132.81 16.0724 1132.86 16.2315C1132.91 16.3906 1132.92 16.5598 1132.89 16.7234H1131.68C1131.87 16.3162 1132.22 16.0004 1132.64 15.843L1132.6 15.8133ZM1126.66 2.95404C1126.15 3.25409 1125.57 3.44489 1124.98 3.51464C1124.39 3.5844 1123.78 3.53163 1123.21 3.35961C1123.57 2.39021 1124.71 2.25173 1126.67 2.94415L1126.66 2.95404ZM1119.64 7.31631C1121.06 7.28244 1122.46 7.07311 1123.82 6.69313C1123.73 6.51507 1124.29 8.57256 1123.04 8.22635C1118.45 7.00966 1120.48 7.801 1117.11 7.23717C1117.51 7.05026 1117.95 6.95919 1118.39 6.97121C1118.83 6.98323 1119.26 7.09801 1119.65 7.30641L1119.64 7.31631ZM1115.57 10.8872C1115.22 11.2209 1114.76 11.4222 1114.28 11.4565C1113.8 11.4908 1113.32 11.356 1112.92 11.0752C1113.3 10.7943 1113.75 10.6266 1114.22 10.5916C1114.69 10.5565 1115.16 10.6556 1115.58 10.8773L1115.57 10.8872ZM1110.76 13.192C1112.6 13.8152 1113.38 14.6857 1113.11 15.7935C1110.14 17.7917 1109.5 14.2603 1110.77 13.1821L1110.76 13.192ZM1099.8 4.62575C1100.02 3.90365 1100.72 3.78495 1101.87 4.23997C1101.68 4.87304 1100.96 5.01153 1099.81 4.61586L1099.8 4.62575ZM1106.57 9.13639C1106.57 9.75957 1100.12 13.4294 1100.31 12.3413C1100.36 11.9456 1105.24 9.69033 1106.58 9.1265L1106.57 9.13639ZM1091.54 15.6847C1093 15.7639 1093.3 16.0507 1092.4 16.5651C1090.82 16.5354 1090.55 16.2486 1091.55 15.6748L1091.54 15.6847ZM1069.32 14.2207C1070.24 13.5184 1071.48 11.1444 1073.05 10.7982C1077.77 9.72989 1076.15 12.2028 1074.61 13.3799C1072.36 13.7362 1070.15 14.3263 1068.03 15.1407C1066.55 15.7756 1064.91 15.9513 1063.33 15.6452C1066.36 14.8143 1067.33 15.7441 1069.33 14.2109L1069.32 14.2207ZM1045.58 16.3079C1046.23 16.4068 1046.43 16.5651 1046.32 16.7629H1036.94L1037.1 16.6244C1039.93 16.2978 1042.78 16.1887 1045.62 16.298L1045.58 16.3079ZM1041.46 5.78309C1041.21 6.77226 1040.1 7.37566 1039.05 8.18678C1038.3 7.5825 1037.6 6.92107 1036.96 6.20843C1038.4 5.66838 1039.97 5.5183 1041.5 5.77319L1041.46 5.78309ZM1029.84 9.64087C1034.79 9.39357 1036.35 10.2245 1042.88 12.549C1037.76 14.4186 1036.35 13.924 1034.09 10.7982C1029.8 13.2217 1029.8 9.63098 1029.88 9.63098L1029.84 9.64087ZM1028.85 12.9348C1032.81 14.1515 1033.8 15.2594 1031.82 16.2288C1029.39 16.3475 1027.56 15.9023 1026.4 14.9132C1026.37 13.9932 1027.21 13.281 1028.88 12.9249L1028.85 12.9348ZM1015.74 12.4501C1015.74 12.2622 1015.74 12.0841 1015.81 11.9061C1023.18 11.9061 1021.52 12.094 1020.08 13.9735C1018.26 16.298 1015.14 12.2622 1015.77 12.4402L1015.74 12.4501ZM1009.1 16.7629H1003.23C1005.5 15.1605 1009.57 14.6857 1009.13 16.753L1009.1 16.7629ZM994.817 14.4977C996.617 14.9824 999.535 16.8025 994.569 16.6047C994.564 16.6573 994.564 16.7103 994.569 16.7629H994.431C994.625 16.0157 994.763 15.2553 994.846 14.4878L994.817 14.4977ZM744.061 3.2508L744.179 3.37939L744.001 3.31015L744.061 3.2508ZM744.674 7.13826C746.138 7.61306 746.158 8.12743 744.674 8.65169C743.754 8.25602 743.754 7.75154 744.674 7.13826ZM732.121 15.7639C732.121 14.9824 736.078 9.21552 738.254 9.82881C739.926 10.2443 739.006 12.7963 741.41 12.6974C741.932 12.6012 742.41 12.3414 742.775 11.9555C742.696 12.9447 744.1 13.5283 740.114 15.2099C746.613 15.2099 746.919 15.7836 745.614 16.8025H740.42C738.689 15.0615 737.631 13.7855 732.121 15.7639ZM694.068 16.753H692.633C692.366 16.7036 692.099 16.6442 691.812 16.6047C692.406 16.6244 693.177 16.6739 694.068 16.753ZM679.586 6.66345C684.037 7.0789 679.745 7.85046 680.15 7.97905C678.7 7.70662 677.232 7.53804 675.758 7.47457C676.856 7.26685 677.598 6.4854 679.586 6.66345ZM673.651 7.17782C673.869 7.26536 674.094 7.33484 674.324 7.38555L671.851 7.26685C672.474 7.22728 673.038 7.18771 673.671 7.17782H673.651ZM670.407 7.37566C670.941 8.14721 674.086 10.3432 672.791 10.4421C670.595 10.5509 668.25 7.801 663.443 8.30548C665.678 7.99884 668.013 7.61306 670.426 7.37566H670.407ZM664.956 16.5057C665.274 16.554 665.586 16.637 665.886 16.753H653.828C653.97 16.6224 654.079 16.4595 654.145 16.2782C653.957 16.2782 653.155 16.5156 652.077 16.753H645.677C645.677 15.6748 650.9 15.2891 651.316 15.022C657.122 17.851 658.398 15.4078 664.976 16.5057H664.956ZM653.086 8.70115C653.007 8.70115 656.38 9.69033 657.904 10.0365C657.973 10.3135 658.893 10.9268 658.893 10.9565C650.366 10.7389 643.254 11.5797 650.277 6.55464C651.701 7.34598 652.76 8.57256 653.126 8.70115H653.086ZM641.592 5.91168C641.839 5.72373 646.182 6.69313 646.132 6.68323C646.677 6.22354 647.353 5.94818 648.064 5.89664C648.775 5.84511 649.484 6.02005 650.089 6.39637C647.537 6.79204 638.842 7.99884 641.592 5.91168ZM643.244 11.728C644.144 13.5877 646.726 13.7064 644.233 13.8548C643.837 12.8656 642.591 12.5392 641.008 12.5886C641.796 12.4288 642.552 12.1379 643.244 11.728ZM638.298 8.10765C638.344 8.40495 638.464 8.68586 638.648 8.92445C638.831 9.16303 639.071 9.35159 639.347 9.47271C638.071 9.04736 636.933 8.61213 638.278 8.10765H638.298ZM637.428 11.2433C637.029 11.6786 636.717 12.1854 636.508 12.737C637.135 12.812 637.765 12.8549 638.397 12.8656C635.815 13.2612 633.164 13.8548 632.215 13.3008C630.335 12.1138 636.092 11.1939 637.428 11.2433ZM627.318 16.753H624.113C622.108 16.3562 620.164 15.6907 618.336 14.7747C623.421 12.7667 626.339 13.9932 627.358 16.753H627.318ZM602.302 11.3917C606.911 11.0554 611.026 14.6263 609.968 16.753H606.763C609.009 13.7855 603.529 10.6795 599.72 14.7747C605.655 15.6946 602.46 16.4266 599.72 16.753H597.198C597.173 16.0605 597.287 15.37 597.534 14.7224C597.781 14.0749 598.155 13.4835 598.635 12.9834C599.114 12.4834 599.69 12.0848 600.327 11.8114C600.963 11.5379 601.649 11.3952 602.342 11.3917H602.302ZM591.827 15.4078C593.637 15.8331 593.934 16.1299 592.667 16.3277C590.837 15.9716 590.57 15.6551 591.866 15.4078H591.827ZM578.68 9.47271C580.995 7.86035 584.615 12.3809 583.864 11.5994C583.235 11.4915 582.593 11.4915 581.965 11.5994C579.462 11.2532 578.334 10.5707 578.72 9.47271H578.68ZM580.224 12.4402C583.547 12.9249 585.763 13.8548 586.861 15.2495C585.214 15.4405 583.617 15.937 582.152 16.7135H579.432C578.868 16.5552 578.176 16.3376 577.276 16.021C572.271 14.29 575.743 14.1218 580.263 12.4798L580.224 12.4402ZM570.5 14.7747C568.907 13.9932 568.126 13.014 568.096 11.8072C574.12 9.39357 572.399 13.7064 570.54 14.8143L570.5 14.7747ZM567.236 10.2838C566.803 10.5104 566.311 10.5969 565.827 10.5313C565.343 10.4657 564.892 10.2513 564.535 9.91784C565.762 9.15617 566.652 9.28476 567.275 10.3234L567.236 10.2838ZM560.776 6.54475C558.076 6.9602 556.622 6.76237 556.404 5.91168C557.097 5.09066 562.112 6.77226 560.816 6.58432L560.776 6.54475ZM537.521 9.87827C536.977 10.7982 536.532 10.7784 536.304 9.80903C536.819 8.8891 537.224 8.90888 537.521 9.87827ZM539.598 13.1821C537.471 13.3997 549.727 13.2612 544.969 12.1929C546.267 12.3162 547.573 12.0837 548.748 11.5203C549.262 11.6192 550.103 15.8034 558.145 13.558C559.302 15.1209 559.134 16.1397 558.244 16.7135H552.23C550.937 16.345 549.728 15.7304 548.669 14.9033C548.263 16.5255 538.441 16.7234 535.632 15.7639C535.613 14.7748 535.938 13.8099 536.552 13.0337C535.859 13.2394 535.132 13.2999 534.416 13.2114C533.699 13.1228 533.008 12.8873 532.387 12.5194C535.543 12.2028 536.245 13.5283 539.568 13.1821H539.598ZM528.777 14.9132C527.204 16.4167 526.205 16.664 525.809 15.6551C526.172 15.2562 526.644 14.973 527.166 14.8411C527.689 14.7091 528.239 14.7342 528.747 14.9132H528.777ZM526.314 10.8872C525.779 11.5698 525.156 11.5104 524.503 10.6993C525.265 10.1157 525.859 10.1849 526.284 10.8872H526.314ZM516.303 12.6875C514.819 13.192 521.11 14.6659 513.899 15.477C514.123 15.6121 514.311 15.7981 514.448 16.0199C514.586 16.2417 514.669 16.493 514.691 16.753H513.781C512.712 15.754 514.77 13.2118 516.273 12.6875H516.303ZM497.895 10.1552C498.187 10.4353 498.521 10.6688 498.884 10.8477C507.47 9.79914 496.975 14.7252 504.403 16.7827H500.526C499.467 16.021 500.011 14.3988 500.298 13.3898C495.679 13.3898 497.538 13.4789 493.71 14.8637C493.137 14.0427 498.518 11.639 497.865 10.1552H497.895ZM443.549 5.96114C444.675 7.34386 446.01 8.54205 447.506 9.51227C445.392 10.0345 443.188 10.0751 441.057 9.63098C440.977 8.32526 441.838 7.06901 443.549 5.96114ZM443.549 13.281C443.213 12.6183 443.638 11.9753 444.825 11.3818C446.626 12.1039 446.517 13.2514 443.549 13.281ZM431.185 11.55C432.352 11.55 435.586 11.3422 437.772 11.4214C440.473 11.5302 439.959 13.3997 443.49 13.3997C448.03 16.7926 453.669 11.8467 452.392 9.33422C459.465 8.83964 457.338 10.9664 460.791 12.8458C460.702 12.7864 447.189 16.3574 443.905 16.8025H443.213H439.593C437.792 15.4374 433.658 14.7054 431.501 15.7243C432.817 14.8538 433.282 15.5858 432.995 12.4699C424.755 13.3503 425.823 11.4313 431.224 11.55H431.185ZM420.452 9.19574C422.777 8.31537 425.526 6.64367 428.801 7.21739C430.255 7.46468 420.749 12.1633 421.105 11.9753C420.234 12.371 417.781 8.90888 417.732 8.84953C418.642 8.94845 419.532 9.04736 420.452 9.19574ZM414.27 2.58805C414.923 3.02329 414.863 3.3695 414.082 3.63658C413.379 3.19145 413.459 2.84524 414.27 2.58805ZM410.679 5.55557C411.381 5.75341 413.844 6.89096 413.142 6.71291C410.906 6.94042 409.571 6.54475 410.679 5.51601V5.55557ZM408.414 9.65076C406.435 10.7586 403.596 10.8378 401.49 10.8081C402.756 10.3432 402.004 9.34411 408.414 9.61119V9.65076ZM404.744 6.07984C404.576 6.15897 403.686 7.55371 400.392 6.58432C401.751 5.9543 403.277 5.77745 404.744 6.07984ZM403.31 13.9932C403.557 14.3889 403.794 14.7846 404.042 15.1605C406.38 14.3905 408.858 14.1407 411.302 14.4285C410.867 14.8439 406.416 16.8223 405.278 16.4068C401.964 15.1605 395.485 15.2297 392.913 12.5194C390.342 9.80903 402.172 16.2782 403.31 13.9932ZM377.739 9.80903C383.14 11.273 382.685 14.656 376.849 15.4078C377.739 15.8826 377.66 16.2782 376.602 16.5651C376.473 15.5166 377.037 14.4483 373.773 15.2099C373.75 15.5614 373.62 15.8974 373.401 16.1731C373.181 16.4488 372.883 16.6512 372.546 16.753H370.568C367.828 16.1397 364.633 13.5679 366.957 12.4501C373.555 9.20563 381.736 18.3753 377.739 9.80903ZM360.459 5.15001C357.906 6.13919 355.157 5.62482 354.523 4.49716C357.155 3.85419 359.163 4.10149 360.459 5.15001ZM352.713 10.8378C352.605 10.996 363.189 7.31631 364.643 6.16886C365.324 6.35656 365.926 6.75949 366.359 7.3175C366.792 7.87551 367.033 8.55867 367.046 9.26498C365.319 8.48899 363.427 8.14931 361.537 8.27581C361.487 10.3827 358.005 14.8538 358.896 16.5156C358.93 16.5845 358.97 16.6507 359.014 16.7135H355.236C356.561 14.9824 357.451 14.379 352.634 14.0427C353.336 14.9132 352.496 15.9122 353.119 16.7135H349.815C350.639 14.6827 351.618 12.7183 352.743 10.8378H352.713ZM348.282 3.47831C347.421 4.72467 345.878 5.15001 343.672 4.77413C344.721 3.55744 346.264 3.11231 348.311 3.47831H348.282ZM344.83 13.9932C343.484 14.8934 342.564 14.9824 342.109 14.102C342.48 13.7722 342.954 13.5811 343.45 13.5612C343.946 13.5414 344.434 13.6941 344.83 13.9932ZM342.159 2.97383C341.377 3.61679 340.725 3.56733 340.27 2.82545C340.893 1.97476 341.536 2.02422 342.159 2.97383ZM341.407 8.54288C340.26 9.30455 338.657 9.41336 336.619 8.91877C337.326 8.46977 338.132 8.20074 338.966 8.13521C339.801 8.06968 340.639 8.20966 341.407 8.54288ZM340.537 5.77319L338.914 6.40627C338.002 6.24004 337.1 6.01872 336.214 5.74352C337.652 5.59549 339.101 5.60544 340.537 5.77319ZM336.491 8.97812H336.54C339.201 10.0168 342.09 11.5895 337.381 12.3017C332.93 12.9843 332.138 9.93762 329.794 10.2245C327.717 10.4817 328.874 12.6974 327.984 13.5283C326.451 12.8953 324.769 9.94751 326.065 9.16606C326.253 8.72093 334.137 9.04736 336.491 8.97812ZM322.722 3.95311C323.938 3.56733 329.933 6.32713 329.013 7.12836L323.147 6.13919C323.285 6.21832 320.832 4.52683 322.722 3.95311ZM323.097 10.3926C323.582 11.55 323.097 12.6579 321.624 13.6866C320.407 12.6282 319.457 11.7874 318.725 11.1345C320.115 10.5847 321.604 10.332 323.097 10.3926ZM318.557 5.23904C317.38 5.77319 316.777 5.63471 316.777 4.84337C318.102 4.24986 318.696 4.37846 318.557 5.23904ZM302.226 16.5948C302.444 16.5065 302.68 16.4747 302.914 16.5023C303.147 16.53 303.37 16.6162 303.561 16.753H301.969C302.031 16.6691 302.123 16.6124 302.226 16.5948ZM298.962 13.9932C299.387 14.7747 297.854 15.2198 297.824 15.1209C297.527 13.4888 299.506 15.0517 298.714 12.2721C299.371 12.1972 300.032 12.1608 300.693 12.1633C301.415 13.0535 302.097 13.9932 298.962 13.9932ZM301.207 7.06901C300.851 7.62295 300.218 7.52403 299.446 6.75248L297.072 6.39637C298.071 5.71384 299.318 6.78215 301.207 6.98988V7.06901ZM300.851 9.73979C302.087 11.2235 297.399 10.4025 296.825 10.0959C297.406 9.69279 298.079 9.44175 298.783 9.36572C299.486 9.28969 300.197 9.39109 300.851 9.66065V9.73979ZM292.621 4.99175C291.78 5.59514 291.236 5.62482 291.018 5.07088C291.483 4.31911 291.998 4.28943 292.621 4.99175ZM287.26 3.31015C287.804 3.93333 287.754 5.13023 285.4 4.97196C282.165 6.31724 286.627 3.74538 287.26 3.31015ZM285.835 15.4671L283.679 14.6857C284.678 12.8161 286.567 14.7252 285.815 15.4671H285.835ZM278.515 2.24184C279.702 2.44957 279.92 2.83534 279.158 3.34971C277.17 3.11231 276.962 2.71664 278.496 2.24184H278.515ZM273.312 4.52683C274.094 5.09066 273.777 5.4072 272.323 5.51601C271.611 4.96207 271.937 4.63564 273.312 4.52683ZM272.531 8.19667C274.796 7.42512 276.062 7.87024 276.606 8.19667C274.403 9.53413 271.929 10.3653 269.365 10.63C270.308 9.68163 271.372 8.86328 272.531 8.19667ZM265.27 5.95124C264.103 5.8767 262.989 5.43725 262.085 4.69499C263.519 4.29932 268.94 7.06901 265.27 5.95124ZM261.007 14.4581C262.57 14.4581 263.242 14.8538 262.985 15.6649C261.541 15.7243 260.809 15.3385 261.007 14.4581ZM249.582 3.38928C251.095 3.91354 250.848 4.37846 248.85 4.84337C247.91 4.29932 248.148 3.80474 249.582 3.38928ZM251.343 10.818C249.994 9.86371 248.466 9.19088 246.852 8.83964C256.279 7.23717 250.591 10.0365 251.343 10.818ZM235.219 1.38126C237.484 1.70768 237.811 2.21216 236.208 2.92437C234.19 2.53859 233.844 2.02422 235.219 1.38126ZM231.975 6.19854C231.065 6.67334 230.362 6.63378 229.848 6.08973C230.768 5.42698 231.49 5.46655 231.975 6.19854ZM225.12 3.59701C226.989 4.33889 226.791 4.91261 224.585 5.30828C222.884 4.67521 223.072 4.10149 225.12 3.59701ZM216.86 3.77506C214.994 5.25223 213.184 5.63471 211.429 4.9225C211.647 4.10149 215.515 3.26069 216.86 3.77506ZM206.464 8.5231C207.018 8.95834 206.672 9.62108 205.979 10.363C204.604 9.44303 204.772 8.82974 206.464 8.5231ZM203.872 5.23904C201.419 6.03038 200.42 5.15001 198.392 4.24986C197.235 4.61586 196.582 4.98185 195.563 4.47737C200.311 3.61679 199.391 3.05296 203.872 5.23904ZM197.245 16.6541C197.24 16.6869 197.24 16.7202 197.245 16.753H195.603C195.286 16.4464 194.999 16.1002 194.772 15.843C196.255 15.6155 197.136 15.8727 197.245 16.6541ZM190.914 12.0149C190.479 12.8755 189.776 12.915 188.807 12.1534C189.727 11.1345 190.429 11.095 190.914 12.0149ZM189.925 14.8439C188.161 15.0104 186.428 15.4129 184.771 16.0408C183.554 15.2297 182.367 14.4087 181.18 13.5877C183.396 13.0733 188.342 13.9932 189.915 14.8835L189.925 14.8439ZM169.38 10.6993C168.193 11.6885 169.924 12.4996 164.948 11.0554C165.809 10.1256 167.263 10.0365 169.37 10.7389L169.38 10.6993ZM122.888 7.12836C121.593 7.23717 115.41 8.17689 115.272 7.27674C116.666 6.13919 121.553 4.90272 122.878 7.16793L122.888 7.12836ZM113.165 1.90552C112.277 2.07161 111.377 2.16097 110.474 2.1726C111.322 1.80739 112.262 1.71408 113.165 1.90552ZM110.445 8.96823C110.445 10.0662 110.88 10.1256 110.712 10.0959C109.957 9.84023 109.183 9.64508 108.397 9.51227C109.052 9.28084 109.723 9.09897 110.405 8.96823H110.445ZM106.241 6.26778C105.218 6.56122 104.147 6.64239 103.092 6.5063C102.038 6.3702 101.022 6.01973 100.108 5.47644C103.599 4.29932 102.195 4.23008 106.241 6.26778ZM91.8876 2.93426C94.776 3.21123 92.402 5.24893 91.1853 5.69406C91.1853 6.81183 90.6413 6.99977 89.4048 6.26778C92.5603 5.55558 91.9173 4.55651 91.8876 2.93426ZM86.9417 2.70675C85.6459 3.23101 84.9634 3.08264 84.8645 2.2913C86.002 1.63844 86.7043 1.78682 86.9417 2.70675ZM84.7062 11.7379C85.4283 13.2711 82.2234 16.5354 79.3053 14.834C80.7396 13.7558 82.0058 12.1534 84.7062 11.7379ZM65.8822 2.12314C68.1276 2.74632 68.0386 3.11231 65.6448 3.2508C65.4173 2.96394 64.2204 1.61866 65.8822 2.12314ZM65.8031 7.96916C63.5577 8.62202 61.0748 8.45386 59.5911 8.83964C61.596 8.19542 63.699 7.91077 65.8031 7.99884V7.96916ZM66.3768 14.5175C66.3768 14.5175 55.7926 14.1317 57.682 14.9824C51.4699 13.6767 67.8012 12.5095 66.3768 14.5472V14.5175ZM26.6021 13.4393C25.4942 13.8548 24.8809 13.7163 24.7127 13.014C25.9294 12.5886 26.5724 12.7271 26.6021 13.4393ZM149.932 16.6739L150.259 16.753H150.19L149.932 16.6739Z" fill="white"/>
</g>
<defs>
<clipPath id="clip0_6_546">
<rect width="1900" height="26.5" fill="white" transform="translate(0.996094 0.144775)"/>
</clipPath>
</defs>
</svg>
