<svg width="1901" height="27" viewBox="0 0 1901 27" fill="none" xmlns="http://www.w3.org/2000/svg">
<g clip-path="url(#clip0_6_100)">
<path d="M1140.6 7.64625C1142.79 7.89354 1149.06 7.64625 1150.64 6.44935C1153.5 4.29294 1147.92 4.28305 1147.47 2.28492C1148.39 2.92788 1150.87 4.19403 1151.29 4.56991C1152.99 2.91799 1153.67 1.37488 1155.33 0.484619H1140.38C1141.66 1.54304 1140.64 3.6302 1140.44 4.44132C1138.31 1.06823 1134.51 2.13654 1135.77 5.0645C1136.51 6.85491 1135.15 7.00328 1140.6 7.64625Z" fill="white"/>
<path d="M756.287 3.63013H756.356C756.455 3.69937 756.455 3.68948 756.287 3.63013Z" fill="white"/>
<path d="M783.281 2.78928C787.238 -0.356298 795.883 4.98525 797.535 3.44213C799.781 1.34508 792.956 1.95837 791.6 0.474609H773.528C773.479 0.563635 773.4 0.652661 773.35 0.741687C773.221 0.642769 773.063 0.563635 772.925 0.474609H769.789C771.115 2.00783 776.565 3.94661 777.702 4.43131C779.424 2.94755 779.453 1.61216 783.281 2.78928Z" fill="white"/>
<path d="M812.927 2.46297C813.382 2.19589 822.107 5.51952 823.205 0.484619H811.334C808.565 0.484619 806.032 0.613212 806.082 0.820939C805.974 0.735837 805.898 0.61762 805.864 0.484619L795.577 0.484619C798.761 1.90111 802.132 2.85381 805.587 3.31366C813.877 4.09511 808.199 5.43049 812.927 2.46297Z" fill="white"/>
<path d="M877.372 2.31459C878.889 2.37161 880.343 2.93192 881.507 3.90717C880.131 4.8516 878.564 5.47991 876.917 5.74703C876.917 5.74703 874.78 10.772 878.262 10.8512C878.994 10.8512 884.82 8.73434 885.097 9.19925C885.112 9.58116 885.22 9.95357 885.414 10.2832C885.607 10.6129 885.879 10.8896 886.205 11.0886C886.037 11.0886 888.391 11.0886 888.302 11.0292C888.144 9.71362 897.62 5.27223 895.869 4.66883C895.029 4.61937 894.188 4.5798 893.347 4.56991C890.221 2.03762 892.734 -0.375963 894.623 1.68152C895.666 1.43223 896.666 1.02883 897.591 0.484619L885.443 0.484619C884.85 1.47379 884.979 2.75972 886.304 4.44132C887.521 4.44132 892.18 4.56991 893.327 4.56991C892.457 6.24162 889.064 6.35043 886.403 4.56991C884.711 3.25431 882.605 1.60239 880.883 0.484619H872.159C873 1.2265 876.808 1.1078 877.372 2.31459Z" fill="white"/>
<path d="M873.138 4.32262C870.517 1.61228 863.246 6.17238 859.201 4.03576C864.888 3.64998 868.103 2.15633 868.449 0.484619H857.024C852.177 1.87936 846.816 2.73994 848.438 4.09511C853.315 8.19029 867.905 4.26327 873.138 4.32262Z" fill="white"/>
<path d="M829.13 3.50159C832.424 3.6005 835.718 3.67964 839.021 3.71921C839.244 4.46747 839.505 5.20373 839.803 5.92507C841.012 5.83069 842.214 5.66555 843.404 5.43048C843.354 5.43048 841.762 2.4036 841.574 2.09696C843.047 2.68057 844.719 1.6914 845.886 0.52417H828.734C827.794 0.868266 826.971 1.47194 826.36 2.26512C829.328 1.90902 828.882 3.45213 829.13 3.50159Z" fill="white"/>
<path d="M813.6 6.85491C812.037 7.09231 798.831 8.13094 799.346 9.21903C799.993 9.47046 800.575 9.86627 801.047 10.3764C802.59 10.0401 815.172 9.04098 811.067 11.8601C814.243 11.9591 817.992 12.2756 821.246 12.5328C817.596 10.3962 825.074 7.64625 829.476 7.12198C827.646 6.53837 827.587 5.96465 829.258 5.38104C829.624 5.59865 829.951 5.7866 830.248 5.95476C830.478 5.36125 830.211 5.15352 829.446 5.33158H829.525C828.23 5.68768 828.121 5.10407 829.179 3.58074C829.337 3.52139 823.966 5.7866 824.402 5.55909C823.937 4.68861 822.67 4.97547 820.593 6.45924C818.654 7.98257 816.33 8.14083 813.6 6.85491Z" fill="white"/>
<path d="M917.107 13.7493C926.455 13.3932 915.712 11.4742 915.435 11.0686C911.825 5.85568 909.362 1.59234 906.612 10.4356C905.662 11.5731 914.822 13.8383 917.107 13.7493Z" fill="white"/>
<path d="M711.734 4.44129C715.009 3.9467 716.215 3.99616 715.384 4.58966C715.335 4.64901 715.384 4.58966 715.622 4.52042C717.768 3.39276 717.907 1.25614 720.498 0.563721H707.451L706.907 0.761556C709.716 1.87932 711.823 3.14547 711.734 4.44129Z" fill="white"/>
<path d="M728.966 6.48889C730.37 4.90621 731.152 1.60236 726.186 1.13745C726.641 2.46295 726.236 5.21285 728.966 6.48889Z" fill="white"/>
<path d="M892.763 14.3328C895.573 13.5118 896.186 12.2556 894.653 10.574C892.387 11.761 890.765 12.9183 892.763 14.3328Z" fill="white"/>
<path d="M966.309 5.35118L966.437 5.28194C966.279 5.15335 966.21 5.14346 966.309 5.35118Z" fill="white"/>
<path d="M863.949 9.83216C865.7 12.038 869.399 9.12984 870.121 9.01114C872.238 8.64515 864.938 7.09214 863.949 9.83216Z" fill="white"/>
<path d="M859.606 11.5237C861.871 10.2576 861.585 10.8214 856.985 8.72436C856.876 8.6749 853.068 11.1775 859.606 11.5237Z" fill="white"/>
<path d="M842.306 13.0667C842.764 12.6162 843.116 12.0687 843.335 11.4645C843.554 10.8602 843.635 10.2146 843.572 9.57495C835.47 10.2179 840.466 10.8213 842.306 13.0667Z" fill="white"/>
<path d="M864.305 13.2151C863.294 13.1158 862.277 13.3303 861.392 13.8293C860.507 14.3284 859.797 15.0879 859.359 16.0046L863.256 16.0639C863.375 15.8562 865.047 13.3437 864.305 13.2151Z" fill="white"/>
<path d="M796.269 13.9274C794.756 14.1351 800.226 17.5478 802.531 15.2331C802.155 15.0551 798.188 13.6603 796.269 13.9274Z" fill="white"/>
<path d="M931.044 10.7523L932.34 9.38721C931.826 9.48612 929.264 9.46634 927.998 9.74331C928.502 10.3764 929.531 10.7325 931.044 10.7523Z" fill="white"/>
<path d="M720.983 3.95646C719.722 3.97131 718.462 3.88864 717.214 3.70916C718.016 3.20468 716.304 4.17408 715.632 4.5005C717.739 5.65784 722.002 5.90513 720.983 3.95646Z" fill="white"/>
<path d="M720.756 3.60034C720.841 3.7127 720.917 3.83179 720.983 3.95644C721.359 3.91688 721.28 3.79818 720.756 3.60034Z" fill="white"/>
<path d="M804.935 13.6504C802.867 13.5614 802.64 14.6396 802.748 15.3419C803.292 15.1837 809.04 13.8186 804.935 13.6504Z" fill="white"/>
<path d="M853.612 12.2261C850.644 12.5228 851.97 13.8978 853.266 14.7683C853.503 13.7098 854.235 13.7395 853.612 12.2261Z" fill="white"/>
<path d="M800.75 10.208C800.266 10.6729 797.021 11.4544 799.998 12.2952C800.339 12.0812 800.598 11.7594 800.734 11.3811C800.87 11.0029 800.876 10.5899 800.75 10.208Z" fill="white"/>
<path d="M932.34 9.38701L940.115 8.05163C937.444 7.55704 933.992 8.05163 932.34 9.38701Z" fill="white"/>
<path d="M923.833 1.74084C924.724 1.99803 925.594 2.23543 926.455 2.49261C927.998 1.87933 925.001 1.29571 923.833 1.74084Z" fill="white"/>
<path d="M940.442 2.8784C940.273 1.88922 939.334 1.77052 937.632 2.4036C937.791 3.33342 938.74 3.45212 940.442 2.8784Z" fill="white"/>
<path d="M960.888 3.68941C961.313 2.36391 960.126 1.80998 957.267 2.04738C958.415 2.95742 957.742 3.62017 960.888 3.68941Z" fill="white"/>
<path d="M1016.11 4.72808C1015.82 3.64988 1014.85 3.53118 1013.25 4.36208C1013.85 5.57877 1014.8 5.70736 1016.11 4.72808Z" fill="white"/>
<path d="M725.959 6.56787C724.267 5.4501 722.991 5.44021 721.943 6.56787C723.614 7.28008 724.97 7.28997 725.959 6.56787Z" fill="white"/>
<path d="M843.176 5.49961C844.685 6.22356 846.33 6.61808 848.003 6.65694C847.182 5.61831 845.787 5.43037 843.176 5.49961Z" fill="white"/>
<path d="M851.752 7.98244C853.859 7.75493 854.265 7.34936 852.88 6.75586C850.862 7.02623 850.486 7.43509 851.752 7.98244Z" fill="white"/>
<path d="M848.488 9.65412C847.133 8.75397 846.678 8.0022 847.024 7.40869L845.441 8.57592C846.143 8.81332 848.923 9.89152 848.488 9.65412Z" fill="white"/>
<path d="M845.273 8.52651L845.154 8.47705C843.176 8.87272 842.642 9.23872 843.532 9.57503C845.332 9.22882 845.906 8.8925 845.273 8.58586H845.362C845.303 8.52651 845.233 8.50673 845.273 8.52651Z" fill="white"/>
<path d="M847.024 7.40863L848.013 6.66675C847.613 6.802 847.266 7.062 847.024 7.40863Z" fill="white"/>
<path d="M698.618 13.0074C697.213 12.6216 694.246 12.2952 694.246 13.6603C695.917 13.5712 696.996 14.0658 698.618 13.0074Z" fill="white"/>
<path d="M921.974 14.0065C923.408 14.9264 924.615 14.9264 925.643 14.0065C925.188 12.6909 923.972 12.6909 921.974 14.0065Z" fill="white"/>
<path d="M779.621 16.1925C780.779 15.6682 781.6 16.0144 782.233 14.6988C779.602 14.4614 777.821 14.8472 779.582 16.1727L779.394 16.0936L779.483 16.4299C779.78 16.3706 779.869 16.3112 779.621 16.1925Z" fill="white"/>
<path d="M923.111 4.09508C923.022 3.31363 922.35 3.18504 921.133 3.7093C921.222 4.35227 921.895 4.44129 923.111 4.09508Z" fill="white"/>
<path d="M929.402 5.25244C928.156 5.25244 927.424 5.49973 927.236 6.08335C925.782 6.41967 932.528 5.61844 929.402 5.25244Z" fill="white"/>
<path d="M774.399 6.9834C774.399 6.9834 774.27 5.43039 774.29 5.43039C769.977 4.63905 773.805 6.75589 774.399 6.9834Z" fill="white"/>
<path d="M920.925 6.52825C919.886 5.81604 919.016 5.8655 918.462 6.44911C919.284 6.42454 920.107 6.45097 920.925 6.52825Z" fill="white"/>
<path d="M918.165 6.85478C918.245 6.70631 918.345 6.56978 918.462 6.44922C917.78 6.47889 917.671 6.61738 918.165 6.85478Z" fill="white"/>
<path d="M917.275 8.47702C918.68 8.20995 918.897 7.64612 917.977 6.75586C917.681 7.29001 915.386 8.01211 917.275 8.47702Z" fill="white"/>
<path d="M872.307 11.6029C872.663 11.6029 873.108 11.7018 873.672 11.7908C873.84 11.2962 873.316 11.227 872.307 11.6029Z" fill="white"/>
<path d="M872.307 11.6029C871.575 11.5237 871.318 11.6029 871.516 11.7117C869.676 12.8789 868.163 13.6208 870.131 15.1837C872.96 14.5407 873.425 13.3933 871.526 11.7216C871.592 11.766 871.662 11.8056 871.733 11.8403C871.941 11.7414 872.129 11.6721 872.307 11.6029Z" fill="white"/>
<path d="M831.632 10.5445C831.8 10.2082 832.987 9.64436 831.771 9.46631C831.741 9.82241 831.692 10.1884 831.632 10.5445Z" fill="white"/>
<path d="M830.198 5.90527C830.011 6.32497 829.768 6.71757 829.476 7.0725C830.881 6.66694 830.841 6.3504 830.198 5.90527Z" fill="white"/>
<path d="M777.693 4.44116C777.426 4.44116 774.913 4.56975 774.29 5.34131C778.237 4.68846 777.752 6.21179 777.693 4.44116Z" fill="white"/>
<path d="M983.767 11.2763C984.391 11.573 985.607 13.4228 988.229 12.4039C987.338 11.4741 985.855 11.0883 983.767 11.2763Z" fill="white"/>
<path d="M439.246 15.3222C442.352 14.2737 442.59 14.0264 439.978 12.78C438.356 13.5516 438.109 14.3924 439.246 15.3222Z" fill="white"/>
<path d="M1072.16 2.08708C1070.72 2.33238 1069.37 2.91927 1068.2 3.79836C1069.35 4.48089 1073.09 4.17424 1075.41 4.18413C1075.14 3.81619 1074.89 3.43309 1074.66 3.03669C1074.45 2.65474 1074.26 2.25809 1074.1 1.84968C1073.74 1.84968 1073.43 1.91892 1073.11 1.95849C1073.11 1.26607 1072.54 0.83083 1071.78 0.484619H1061.78C1061.06 1.12338 1060.29 1.70233 1059.48 2.21568C1063.7 2.44994 1067.94 2.40698 1072.16 2.08708Z" fill="white"/>
<path d="M1206.59 3.78828C1207.16 3.82319 1207.73 3.79666 1208.29 3.70915L1206.94 2.71997C1206.19 3.22445 1205.95 3.57066 1206.2 3.70915L1204.4 4.55984C1206.33 4.85659 1207.04 4.5994 1206.59 3.78828Z" fill="white"/>
<path d="M380.816 4.54002C381.014 3.84759 380.519 3.26398 379.302 2.78918C380.469 3.17495 379.876 2.86831 377.532 1.9187C370.855 2.46275 379.55 5.49952 380.816 4.54002Z" fill="white"/>
<path d="M504.126 6.22176L503.068 5.12378C501.287 6.15252 501.634 6.50862 504.126 6.22176Z" fill="white"/>
<path d="M546.107 14.9759L548.887 15.1737C548.214 15.0946 546.829 14.6396 546.107 14.9759Z" fill="white"/>
<path d="M456.25 3.59049C455.922 3.23865 455.572 2.90824 455.202 2.60132C454.341 3.16515 454.687 3.50147 456.25 3.59049Z" fill="white"/>
<path d="M1900.6 26.9845V7.20101H1900.35C1899.37 7.04693 1898.43 6.7292 1897.57 6.26129C1896.26 7.15751 1894.9 7.96707 1893.48 8.68477C1893.21 7.78462 1894.41 6.61739 1896.07 5.45017C1894.74 4.58177 1893.31 3.85885 1891.82 3.29377C1889.04 2.42329 1886.32 2.72004 1883.61 3.08604C1883.79 3.67954 1883.4 4.46099 1880.84 4.19392C1881.03 3.85865 1881.28 3.56823 1881.59 3.34323C1878.62 3.70922 1875.66 3.81803 1872.62 2.13643C1869.45 0.346025 1867.13 1.8199 1863.83 2.08697C1860.3 2.38373 1856.77 2.08697 1853.25 2.08697C1851.35 2.054 1849.45 1.88208 1847.56 1.5726C1844.93 3.7389 1842.25 5.66779 1839.54 5.5293C1838.55 6.33053 1837.68 6.94382 1837.67 6.95371C1831.3 5.33147 1830.57 3.76857 1824.01 2.81896C1827.64 0.682344 1831.71 2.21557 1835.2 3.26409C1835.01 3.06626 1834.82 2.87831 1834.64 2.66069C1834.11 1.99503 1833.68 1.2634 1833.34 0.484509H1820.07C1819.85 0.781734 1819.61 1.05973 1819.34 1.31542C1818.22 2.55488 1816.69 3.35745 1815.03 3.58182C1813.37 3.80619 1811.69 3.43797 1810.27 2.54199C1809.21 1.95838 1808.2 1.15715 1807.16 0.484509H1805.69C1804.96 2.2004 1803.61 3.58214 1801.91 4.36208C1799.88 5.22266 1798.12 3.96641 1796.32 2.8882C1796.21 4.00597 1791.69 4.16424 1789.73 3.17507C1791.21 2.58424 1792.75 2.15637 1794.32 1.89903C1794.16 1.8392 1794 1.79288 1793.83 1.76054C1790.97 1.08791 1787.9 2.12654 1784.93 2.66069C1785.11 2.67982 1785.28 2.71627 1785.45 2.7695C1785.19 3.40258 1784.47 3.54106 1783.32 3.18496C1783.4 3.0521 1783.51 2.93773 1783.64 2.84864C1783.32 2.84864 1782.99 2.92777 1782.65 2.93766C1775.55 3.24431 1768.57 2.03751 1761.52 1.87925C1758.18 1.81 1754.39 2.86842 1751.16 1.2165C1752.03 2.28481 1750.32 4.39175 1747.58 3.3729C1747.11 2.38373 1748.25 1.55282 1750.85 1.03845C1750.56 0.871469 1750.27 0.686479 1749.99 0.484509H1743.51C1743.02 1.61324 1742.13 2.52612 1741.02 3.05636C1738 4.32675 1734.69 4.71436 1731.46 4.17413C1730.46 4.4468 1729.45 4.6289 1728.43 4.71818C1728.27 4.5698 1729.23 4.32251 1730.41 4.02576C1725.86 3.23442 1721.35 1.38466 1716.79 0.484509H1707.82C1705.37 0.925334 1702.85 0.925334 1700.4 0.484509H1693.01C1692.74 1.1718 1692.4 1.83383 1692.02 2.46286C1688.76 7.92311 1682.44 6.22172 1678.73 3.45203C1677.77 2.69816 1677.08 1.65874 1676.75 0.484509H1676.62C1674.91 0.5487 1673.22 0.814328 1671.58 1.27585C1668.35 2.26502 1665.51 3.50149 1662.18 2.4134C1660.84 1.83939 1659.53 1.19555 1658.26 0.484509H1655.17C1654.71 0.704798 1654.28 0.98409 1653.88 1.31542C1653.37 1.82694 1652.7 2.14567 1651.98 2.21777C1651.26 2.28986 1650.53 2.11088 1649.93 1.71109H1649.41C1649.48 1.63195 1649.56 1.59239 1649.63 1.52314C1649.26 1.2367 1648.93 0.904311 1648.64 0.533968H1627.94C1632.37 4.12467 1614.9 3.50149 1612.79 1.19672C1612.59 1.93054 1612.22 2.60531 1611.7 3.1646C1611.18 3.72389 1610.54 4.15145 1609.83 4.41153C1606.8 5.29737 1603.61 5.42309 1600.53 4.77753C1596.88 4.10489 1593.89 4.97536 1590.29 5.7667C1587.43 6.35032 1585.26 5.7667 1582.78 3.28387C1581.65 2.13434 1580.31 1.21407 1578.83 0.573535H1572.58C1572.32 1.03281 1572.01 1.45811 1571.64 1.83968C1570.65 2.82885 1568.94 3.45203 1567.81 2.70026C1567.23 2.32962 1566.61 2.0338 1565.96 1.8199C1565.66 1.76094 1565.37 1.72129 1565.07 1.70119C1564.8 1.65449 1564.54 1.57818 1564.28 1.47368C1563.35 3.53117 1561.97 4.94569 1560.45 4.66872C1558.47 4.29283 1556.49 4.8072 1554.44 4.95558C1552.11 5.09136 1549.81 4.3147 1548.03 2.78929C1546.38 2.8981 1545.82 2.31448 1544.08 1.9386C1544.79 2.04741 1546.21 2.20567 1547.48 2.32437C1546.94 1.79973 1546.52 1.17449 1546.22 0.484509H1530.18C1529.89 1.17919 1529.41 1.77708 1528.79 2.20808C1528.17 2.63907 1527.45 2.8853 1526.7 2.91788C1523.26 2.91788 1519.97 1.47368 1516.62 0.484509H1513.29C1511.71 1.10769 1507.36 2.67059 1507.91 1.13736C1508.01 0.95555 1508.15 0.800838 1508.32 0.686953C1508.5 0.573068 1508.69 0.503531 1508.9 0.484509H1503.16C1501.25 0.840612 1499.35 1.2165 1497.4 1.47368C1495.93 1.60838 1494.45 1.45035 1493.04 1.00877C1493.09 1.3137 1493.2 1.60558 1493.36 1.86368C1493.53 2.12178 1493.75 2.33976 1494.02 2.50216C1494.28 2.66456 1494.57 2.76738 1494.88 2.80332C1495.18 2.83927 1495.49 2.80746 1495.78 2.71015H1495.85C1495.6 2.78929 1495.46 2.99701 1495.3 3.69933C1494.16 2.18589 1488.95 2.16611 1492.11 0.731803L1491.39 0.494401H1487.82C1486.6 1.76689 1485.01 2.62754 1483.27 2.95745C1483.99 3.07615 1484.73 3.23442 1485.5 3.40258C1482.84 3.56084 1480.02 3.68944 1478.28 3.10582C1479.1 2.8722 1479.94 2.74911 1480.8 2.73983C1480.2 2.57167 1479.61 2.36394 1479.03 2.13643C1478.37 1.78382 1477.63 1.6099 1476.88 1.63195C1477.87 1.9386 1478.2 2.39362 1477.93 2.97723C1477.62 2.87521 1477.34 2.697 1477.11 2.45867C1476.88 2.22035 1476.72 1.92942 1476.63 1.61217C1476.56 1.61699 1476.48 1.61699 1476.41 1.61217C1474.08 3.0168 1471.78 4.36208 1469.1 4.27305C1468.37 4.2338 1467.68 3.97107 1467.12 3.52128C1464.85 3.34323 1462.7 2.44308 1460.36 1.76054C1457.76 1.00877 1455.62 1.65174 1453.03 2.26502C1450.68 2.82885 1448.28 3.2542 1445.99 1.86935C1445.46 1.47641 1444.99 1.0101 1444.59 0.484509H1440.18C1434.67 4.55002 1428.65 2.52221 1422.61 0.484509H1407.3C1406.94 0.686199 1406.53 0.799355 1406.12 0.814821C1405.7 0.830288 1405.29 0.747629 1404.91 0.573535L1406.2 0.484509H1404.04C1399.79 2.35405 1395.7 4.3324 1391.18 4.44121C1385.8 4.39271 1380.44 3.64118 1375.25 2.20567C1372.78 1.59239 1370.39 0.979097 1367.98 0.504293H1352.77C1350.05 0.850497 1347.3 0.850497 1344.59 0.504293H1337.92C1337.67 1.2165 1337.21 1.88914 1335.48 2.71015C1338.12 1.4539 1322.98 2.92777 1325.81 3.93673C1321.89 2.53485 1317.88 1.38182 1313.81 0.484509H1307.28C1306.94 1.93918 1306.1 3.22997 1304.91 4.13457C1305.59 4.31262 1305.35 4.63904 1304.19 5.12374C1302.78 5.0545 1302.21 4.88634 1302.51 4.63904C1298.05 4.55002 1293.61 4.14446 1289.14 3.80814C1288.63 4.51045 1287.67 4.79731 1285.88 3.88727C1285.7 3.79015 1285.53 3.67763 1285.37 3.55095C1284.29 3.4916 1283.21 3.41247 1282.13 3.3729C1279.01 3.1676 1275.93 2.60334 1272.94 1.6913C1271.95 2.83875 1269.73 2.19578 1269.17 0.702128L1268.46 0.514184H1261.02C1260.36 0.950318 1259.66 1.33713 1258.94 1.67152C1258.37 1.6763 1257.81 1.53678 1257.3 1.26596C1257.04 1.85341 1256.66 2.37747 1256.17 2.80248C1255.69 3.22749 1255.12 3.5435 1254.5 3.729H1254.86C1261.78 2.73983 1261.99 9.53546 1252.33 6.21183C1249.68 5.30179 1248.87 4.11478 1251.81 3.78835C1249.41 3.74926 1247 3.57091 1244.61 3.2542C1244.26 3.64987 1243.15 4.05543 1240.93 4.67861C1240.54 3.9763 1240.77 3.36301 1241.59 2.82885C1240.32 2.63102 1239.04 2.4134 1237.77 2.19578C1237.07 2.40499 1236.4 2.71487 1235.79 3.11571C1234.89 2.35405 1234.89 1.9287 1235.79 1.83968C1232.82 1.3352 1229.94 0.850504 1227.01 0.504293H1218.19C1216.13 0.820829 1214.11 1.28574 1212.1 1.5726C1214.39 1.75748 1216.62 2.43207 1218.64 3.55095C1213.6 7.27025 1208.96 1.5726 1204.97 7.11198C1200.67 6.32064 1201.2 2.98712 1203.67 0.820829C1203.48 0.741695 1203.29 0.642777 1203.1 0.54386H1198.73L1197.41 2.18589C1195.79 2.59145 1192.88 2.23535 1191.66 2.86842C1193.37 1.87925 1193.79 1.16704 1193.44 0.54386H1187.11C1187.32 0.801045 1186.94 0.99888 1185.93 1.13736L1185.57 0.54386H1171.58C1170.41 1.73892 1168.99 2.67486 1167.44 3.29154C1165.88 3.90822 1164.21 4.19201 1162.53 4.12467C1161.79 4.23699 1161.04 4.11232 1160.37 3.76857C1159.2 3.42642 1158.11 2.83995 1157.17 2.04741C1156.51 3.36301 1158.55 4.78742 1157.89 6.35032C1156.47 9.82232 1149.5 10.4059 1153.8 14.6198C1150.33 15.1243 1141.16 13.1756 1139.95 14.3527C1142.57 12.7503 1140.73 12.3052 1146.29 14.0263C1147.21 11.7809 1154.64 9.89156 1150.66 8.33856C1150.73 8.33856 1147.69 8.92217 1144.22 9.49589C1144.22 8.93206 1144.22 8.37813 1144.22 7.8143C1142.3 8.6551 1140.94 9.25849 1142.09 9.8421C1139.63 10.2671 1137.15 10.5512 1134.66 10.6928C1134.92 10.8016 1137.62 12.1469 1137.04 12.2755C1135.45 12.6415 1129.37 10.1883 1129.37 9.2486C1129.86 10.6137 1133.43 8.51661 1133.26 8.06159C1133.09 7.60657 1128.86 7.60657 1128.84 7.00317C1128.78 5.02482 1134.83 7.23068 1135.34 6.28108C1135.59 5.81616 1134.64 3.83781 1133.45 4.72807L1133.93 4.06532C1127.78 3.07615 1121.62 1.52314 1115.38 1.26596C1115.13 1.3581 1114.89 1.4706 1114.66 1.60228C1115.39 1.16704 1110 1.78033 1109.97 1.78033C1108.13 2.2947 1110.15 4.55002 1108.34 4.83688C1106.53 5.12374 1105 2.68048 1104.66 0.54386H1099.56L1099.62 0.622994C1101.73 3.68944 1092.7 6.21183 1100.49 8.53639C1099.66 8.4312 1098.83 8.44786 1098.01 8.58585C1097.76 7.25047 1094.05 7.73516 1096.31 6.14259C1089.38 6.77566 1092.47 9.91135 1096.36 9.2486C1096.21 9.33286 1096.08 9.42535 1095.95 9.52557C1089.11 9.26838 1092.11 13.6504 1087.16 14.6594C1087.23 13.9472 1086.79 11.8897 1085.75 12.958C1084.55 13.6999 1084.94 14.2736 1086.88 14.6693L1086.58 14.7187C1079 18.2897 1086.52 10.6631 1083.61 10.1982C1087.21 8.43748 1096.26 4.40164 1089.31 2.176C1091.27 2.05156 1093.18 1.47248 1094.88 0.484509H1083.9C1083.9 0.71202 1083.79 0.93953 1083.72 1.15715C1083.57 2.12771 1083.23 3.06058 1082.73 3.90705C1082.38 4.63625 1081.83 5.25031 1081.14 5.67768C1080.89 5.92646 1080.59 6.12006 1080.26 6.2461C1079.93 6.37214 1079.58 6.42785 1079.22 6.40967C1078.93 6.37991 1078.64 6.32025 1078.36 6.23162C1078.1 6.19497 1077.83 6.12861 1077.58 6.03378C1077.2 5.85223 1076.85 5.61561 1076.53 5.33147C1075.92 5.69362 1075.28 6.02379 1074.63 6.32064C1075.71 7.49776 1075.34 9.10022 1070.53 8.6452C1066.99 8.31878 1064.94 5.08417 1062.3 3.94662C1060.87 3.32344 1057.63 3.24431 1055.18 2.66069C1053.97 2.81225 1052.75 2.76547 1051.56 2.52221C1050.63 2.2919 1049.8 1.76784 1049.2 1.02856C1049.26 1.38926 1049.22 1.7605 1049.06 2.09276C1048.91 2.42502 1048.66 2.7025 1048.34 2.8882C1052.36 3.48171 1051.79 9.41676 1057.6 9.93113C1057.33 8.69466 1062.24 8.22975 1064.24 8.06159C1062.11 9.8421 1069.18 11.8996 1065.97 12.6415C1063 13.2943 1061.08 11.3457 1058.6 11.6523C1054.64 12.0875 1054.25 13.4922 1050.61 14.3725C1049.34 11.8699 1048.42 8.86282 1045.86 6.15248C1043.89 4.31238 1041.75 2.65683 1039.48 1.20661L1038.31 0.484509H1027.27C1025.11 0.988988 1022.91 1.62206 1022.57 3.06626C1022.91 2.97723 1031.77 1.34509 1029.88 1.87925C1030.27 3.34674 1031.16 4.63531 1032.39 5.5293C1029.01 3.32344 1017.24 1.91881 1021.86 6.014C1020.87 5.02482 1027.62 4.49067 1025.95 6.6075C1022.98 10.2773 1023.32 6.6075 1016.79 7.51754C1017.39 8.42759 1019.87 9.04087 1019.49 9.99048C1018.98 11.2665 1016.7 10.6334 1015.92 11.6028C1015.93 11.4302 1015.95 11.2585 1015.98 11.0885C1015.32 10.603 1014.52 10.3413 1013.7 10.3413C1012.88 10.3413 1012.08 10.603 1011.41 11.0885C1009.93 10.3763 1006.93 10.3664 1005.21 9.53546C1015.66 8.04181 1005.29 8.09127 1005.21 5.68757C1005.15 3.60041 1013.47 4.4511 1012.14 1.15715C1009.03 1.15715 1004.96 3.06626 1001.49 2.63102C1002.58 1.57856 1003.93 0.837244 1005.4 0.484509H995.39C997.576 1.06812 1001.68 3.81803 996.834 4.44121C992.443 5.01493 993.234 1.77044 991.443 0.484509H990.385C987.319 1.47368 983.055 1.47368 981.294 0.484509H963.005C963.074 0.692236 963.361 0.93953 963.994 1.23628C968.178 3.21463 972.006 0.0492723 974.36 1.4539C976.408 2.69037 977.981 2.67059 981.73 4.23348C984.183 5.22266 988.051 6.21183 989.129 6.88447C987.239 6.46902 983.481 7.66592 982.482 7.87365C981.982 7.13502 981.322 6.51846 980.552 6.06978C979.781 5.6211 978.919 5.35184 978.03 5.28201C971.383 5.28201 969.256 12.8492 962.639 13.6504C966.853 13.9571 966.398 16.4003 972.036 16.0343C977.674 15.6683 972.115 15.5299 975.003 14.5506C975.27 14.4616 979.672 13.0668 979.732 12.8888C980.562 10.0795 976.378 11.1181 976.378 11.039C975.646 10.0498 983.431 11.2171 984.074 11.2072C984.697 10.7126 995.469 5.6579 997.764 7.97256C996.627 6.81523 990.959 13.4625 991.661 13.0965C989.178 14.3824 985.429 13.7493 983.748 15.4705C985.4 15.8662 977.625 15.1441 978.97 15.3815C978.982 15.7418 979.088 16.0927 979.277 16.3997C979.466 16.7066 979.732 16.9591 980.048 17.1323H962.51C963.351 16.1432 965.586 15.4013 962.797 13.7988C959.552 12.8789 946.11 17.4983 956.318 11.9194C958.069 10.9302 960.472 12.4634 962.609 11.494C964.746 10.5246 967.09 8.11105 968.168 7.10209L968.059 7.00317C973.787 7.35928 971.502 2.32437 966.437 5.32158C966.923 5.76587 967.382 6.23818 967.812 6.7361L966.269 5.34136C964.548 4.74126 962.754 4.19062 960.888 3.68944C960.126 6.08324 954.953 5.99421 952.599 5.46995C950.996 3.91695 950.996 2.37383 952.648 0.840612C954.127 1.66927 955.813 2.05393 957.505 1.94849C957.672 1.74801 957.789 1.51101 957.848 1.25667C957.906 1.00233 957.904 0.737799 957.841 0.484509H949.107C948.118 1.6913 949.73 2.55189 947.89 3.88727C946.901 4.60937 944.359 3.32344 943.409 4.26316C942.392 5.27745 941.486 6.39839 940.709 7.60657C941.311 7.50719 941.919 7.44114 942.529 7.40873C942.697 9.13979 943.844 11.9985 942.252 13.6504C938.196 12.2062 936.366 10.1883 935.07 13.2053C932.311 19.5657 942.143 15.8266 947.732 16.3113C947.405 16.5883 947.039 16.8455 946.673 17.1026H933.745C930.985 16.3904 927.493 16.2717 925.287 17.1026H914.209C914.397 15.5002 910.034 13.9769 908.363 15.4112C906.691 16.8455 907.373 16.9741 908.481 17.1026H901.775C902.032 16.1135 904.742 15.3716 903.753 14.3923C901.29 11.86 899.331 13.5614 898.807 15.2925C898.743 15.2692 898.677 15.2526 898.609 15.243C898.609 15.4705 898.609 15.6486 898.669 15.787C898.669 15.787 898.669 15.8464 898.669 15.8761C898.669 15.9057 898.669 15.8761 898.669 15.7969C898.372 15.8959 897.927 16.0146 897.363 16.1431C897.795 16.0312 898.251 16.0554 898.669 16.2124C898.669 16.2124 898.669 16.2124 898.669 16.2816C897.025 16.1424 895.373 16.4285 893.871 17.1125H882.001C880.349 16.6081 879.33 16.2421 880.201 16.3311C887.758 17.0928 888.945 13.5812 887.026 13.5713C885.414 13.8582 884.761 14.4714 885.048 15.3914C884.059 15.3914 880.567 12.6019 878.401 13.5317C877.411 13.9373 876.729 15.2628 876.106 15.5101C878.964 14.6297 876.383 16.153 874.572 17.1521H865.057C864.489 16.7832 863.898 16.4527 863.286 16.1629C858.815 17.1521 854.472 17.3598 853.266 14.8572C851.333 14.5026 849.34 14.6629 847.489 15.3221C847.242 15.3221 846.391 15.4112 845.194 15.5595C845.569 15.6781 845.965 15.7183 846.356 15.6774C846.748 15.6366 847.126 15.5156 847.469 15.3221C846.665 16.0168 845.801 16.6391 844.887 17.1818H832.928C836.262 16.707 841.979 15.9354 845.194 15.5595C843.923 15.0599 842.831 14.1918 842.058 13.0668C840.387 13.6801 831.177 15.52 830.366 17.1818H817.032C819.841 16.5883 822.641 15.0551 821.058 12.6613C820.376 14.145 812.304 16.2322 812.472 16.8059C812.504 16.8921 812.554 16.9703 812.619 17.0352C812.683 17.1001 812.762 17.1501 812.848 17.1818H797.486C795.097 16.5747 792.594 16.5747 790.206 17.1818H779.72C779.623 16.9678 779.544 16.7461 779.483 16.519C778.754 16.5968 778.02 16.6233 777.287 16.5982C777.589 16.8363 777.922 17.0326 778.276 17.1818H753.547C761.065 10.3466 750.48 16.3707 747.612 12.1568C746.474 10.495 752.795 10.6137 752.706 10.9797C752.389 12.4733 755.387 7.79451 753.23 9.19914C753.468 9.05077 748.502 8.44737 749.274 7.84397C752.073 5.86562 758.621 8.63531 761.599 6.1327C761.282 6.04367 757.533 4.30272 756.495 3.82792C756.712 3.56084 759.897 0.909854 759.343 1.42423C762.776 3.40258 763.092 3.93673 761.905 6.3701C765.793 8.23964 758.374 9.64427 760.263 12.3052C752.726 16.7762 788.039 14.8572 773.053 11.316C775.487 9.33763 777.218 10.1092 780.541 11.0093C785.487 12.3447 781.451 11.5534 781.531 13.5119C781.61 15.0254 794.054 12.3645 794.271 9.91135C794.459 8.11105 786.219 3.50149 783.014 2.98712C782.836 4.23348 780.858 5.1732 777.89 5.26222C779.986 5.6568 781.959 6.54146 783.647 7.84397C780.947 8.06159 776.328 7.14166 774.409 6.98339C772.586 7.53792 770.703 7.87005 768.8 7.97256C771.955 11.6127 764.843 11.9293 764.843 10.495C764.843 8.78369 767.296 7.45819 767.87 5.71725C767.87 5.65789 767.593 2.51232 767.296 0.524076H756.732C756.663 1.70119 756.574 2.87831 756.504 3.76857L756.356 3.69933C755.753 3.48171 750.916 1.72098 751.608 1.72098C746.504 1.53303 751.756 6.40967 744.199 3.77846C744.793 3.10582 745.515 4.02576 745.267 2.43318C744.011 2.71015 743.625 3.10582 744.051 3.63009C742.908 4.12552 741.815 4.72832 740.786 5.43038C740.658 5.43038 734.278 6.30086 734.96 6.1327C734.278 6.30086 728.936 7.933 727.611 8.11105C725.019 8.39791 717.808 7.22079 716.413 7.46808C708.628 8.80347 718.599 8.45726 721.755 10.2773C724.91 12.0974 720.647 15.3716 728.234 16.1431C728.055 16.4439 727.949 16.7829 727.927 17.1323H712.733C715.701 15.154 709.529 13.3834 709.44 12.5228C710.677 12.1858 711.941 11.9542 713.218 11.8303C712.981 12.0974 709.034 7.74505 708.688 7.25047C708.628 7.15155 712.714 4.28294 712.031 4.58959C703.049 5.8953 706.798 2.55189 698.618 5.45017C697.471 5.86562 697.045 7.26036 696.125 8.10116C696.65 7.45819 691.624 9.14968 690.022 9.55524C693.979 10.7225 698.925 8.72434 702.476 9.94102C705.503 10.9302 701.991 14.4912 706.126 14.7484C702.238 14.2044 699.508 15.6881 695.838 14.966C693.217 14.4319 693.731 12.1172 689.844 11.5732C676.985 9.76297 688.855 21.2374 672.217 14.9462C678.528 14.3824 677.163 11.0786 684.087 11.3951C683.573 8.63531 683.711 6.44923 686.867 5.31168C691.407 6.75588 692.109 6.69653 695.67 5.68757C696.897 5.33147 699.33 2.10676 699.934 0.524076H691.733C690.942 1.77044 690.675 3.07615 685.333 3.75868C682.445 4.13456 680.229 2.7695 677.529 2.90799C675.966 3.00691 674.314 5.98432 672.128 5.28201C668.399 4.03565 679.448 1.8199 679.557 1.72098C679.967 1.44159 680.252 1.01158 680.348 0.524076H675.125C674.027 2.8981 672.306 4.48078 670.179 3.96641C668.549 3.58198 666.897 3.29135 665.233 3.09593C664.867 4.55991 664.244 5.83595 662.948 6.11292C660.564 6.64707 657.379 3.77846 660.564 2.79918C660.57 2.77638 660.57 2.75273 660.564 2.72994C658.695 2.72994 656.815 2.72994 654.936 2.82885C655.371 4.36208 656.697 6.43934 655.074 6.8449C654.293 5.85573 653.017 4.28294 653.314 2.94756C652.255 3.03658 651.207 3.14539 650.148 3.27398C651.019 3.95651 650.148 4.26316 647.626 4.16424C647.448 4.3324 647.715 3.98619 648.071 3.54106C641.82 4.44121 635.568 5.8953 629.277 7.14166C631.127 7.92311 632.778 8.00224 631.671 9.91135C631.265 10.6236 625.597 13.7296 624.054 11.8897C622.817 10.3763 630.978 10.1685 629.297 8.54628C628.107 8.42369 626.932 8.19191 625.785 7.85386C624.38 8.11105 622.986 8.33856 621.591 8.55618C621.253 8.78135 620.868 8.9276 620.466 8.9841C620.063 9.0406 619.654 9.00592 619.266 8.8826C617.031 9.16947 614.805 9.38708 612.57 9.486C607.198 9.70362 601.807 9.67395 596.416 9.486C595.464 10.8087 594.227 11.9006 592.796 12.681C588.127 13.4724 589.828 10.95 592.796 9.33763C582.093 8.70811 571.439 7.41641 560.895 5.46995C556.828 4.69439 552.714 4.19209 548.58 3.96641C548.748 4.49067 548.095 4.95558 546.602 5.19298C546.146 5.62822 546.789 4.5698 547.68 3.92684C544.285 3.81047 540.887 3.97922 537.521 4.43132C541.764 6.61739 545.029 8.91228 542.872 8.95185C539.974 8.95185 537.778 6.24151 535.226 4.77753H535.097C532.338 5.27212 529.588 5.7667 526.828 6.22172C526.973 6.2891 527.098 6.39452 527.189 6.52684C527.279 6.65917 527.332 6.81348 527.342 6.9735C529.182 7.0811 531.009 7.3492 532.802 7.77473C531.121 8.92217 525.997 7.33949 524.365 6.56794C523.059 6.7262 521.753 6.86469 520.408 6.94382C520.131 7.33949 519.419 7.57689 518.133 7.64614C518.396 7.38157 518.7 7.16113 519.033 6.99328C516.209 7.1121 513.38 6.89962 510.605 6.36021C509.804 6.19205 509.003 5.99421 508.202 5.7766C505.927 5.71725 504.097 5.92497 503.117 7.63624C501.347 4.25327 495.877 7.63624 497.558 10.1784C496.866 9.70362 495.214 9.38708 492.019 9.34752C486.786 9.27827 488.112 8.80347 486.618 10.9797C485.243 12.958 490.644 11.2171 491.702 11.9688C493.394 13.2745 471.177 17.4489 471.127 16.9147C470.781 13.2251 481.86 14.6198 482.641 11.3259C485.767 11.8897 487.014 11.5633 486.351 10.3367C485.07 10.1694 483.772 10.4565 482.681 11.1478C482.632 10.9302 474.916 6.42945 478.526 6.70642C484.976 7.2109 484.026 8.56607 489.803 6.04367C491.104 5.54794 492.279 4.77108 493.245 3.76857C494.037 7.45819 501.752 6.28108 500.832 3.38279L499.576 2.92777L493.344 3.64987C494.235 2.66069 494.482 1.94849 496.609 1.86935C495.194 1.3352 493.819 0.890071 492.444 0.484509H469.159C468.477 0.99888 469.624 0.959313 467.863 2.56178C478.151 3.91695 468.724 10.0993 468.566 13.5317C464.302 11.9293 467.349 9.11012 466.488 7.43841C464.787 7.05263 462.996 6.7361 461.196 6.44923C459.683 5.61833 459.792 4.73796 461.493 3.81803C461.068 2.90799 461.335 1.66163 461.493 0.454834H459.455C458.08 0.622994 456.695 0.781262 455.311 0.929638C456.508 1.20577 457.563 1.90921 458.278 2.90799C457.546 3.22532 456.788 3.48012 456.013 3.66965C450.187 6.55804 450.919 2.08697 453.659 1.06812C449.887 1.42423 446.108 1.70449 442.323 1.90892C440.206 2.23292 438.059 2.31589 435.923 2.15622C431.907 2.26832 427.887 2.26832 423.865 2.15622C423.635 2.35811 423.417 2.57277 423.212 2.79918C421.689 4.52034 425.19 5.43038 420.294 7.00317C421.283 5.87551 420.056 3.89716 418.573 1.98806C415.823 1.87925 413.063 1.74076 410.323 1.54293C409.426 1.49303 408.578 1.11656 407.939 0.484509H404.19C401.681 2.26127 398.766 3.38022 395.713 3.73889C393.101 2.67059 393.556 1.58249 394.338 0.484509H388.274C388.779 2.56178 386.84 3.63009 390.895 5.93486C389.511 5.20287 384.96 8.99141 381.924 8.6551C380.549 8.50672 376.879 5.78649 375.692 5.25233C371.468 3.3729 365.8 1.98806 360.775 0.484509H359.628C359.766 2.46286 351.418 1.13736 349.993 0.484509H325.432C319.655 2.94756 313.898 5.70735 308.032 6.62729C308.113 6.73419 308.168 6.85765 308.195 6.98868C308.221 7.11972 308.219 7.25504 308.186 7.38482C308.154 7.5146 308.093 7.63558 308.009 7.73895C307.924 7.84233 307.817 7.92551 307.696 7.98246C306.855 7.85934 306.072 7.48327 305.451 6.90425C303.797 7.00584 302.138 6.91622 300.505 6.63718C292.858 5.30179 284.549 -1.70157 276.903 1.19672C271.621 3.17507 267.496 3.92684 262.956 0.484509H258.821C257.832 1.40444 254.696 2.46286 251.343 1.75065C251.88 1.39713 252.366 0.971056 252.787 0.484509H243.271C244.666 1.08791 246.239 1.62206 245.694 2.2947C245.15 2.96734 240.264 2.80907 240.511 2.81896C240.612 2.49226 240.645 2.14854 240.61 1.80854C240.574 1.46853 240.47 1.13927 240.303 0.840612C232.934 1.82979 225.466 2.19578 218.186 2.59145C197.413 3.71911 176.64 5.36114 155.798 5.81616C145.484 6.14214 135.159 5.63602 124.926 4.30272C121.129 3.7476 117.367 2.97143 113.659 1.97816C113.561 2.06736 113.447 2.13776 113.323 2.18589C113.183 2.08773 113.07 1.9548 112.997 1.80011C111.374 1.37477 109.752 0.929638 108.13 0.484509H84.5776C83.6973 1.62206 80.799 3.55095 79.8691 2.55188C80.522 1.47368 80.799 0.840612 81.0759 0.484509H55.7333C37.5918 4.98526 19.48 10.4851 1.388 4.44121V26.9845H1900.6ZM957.337 8.0517C960.828 9.11012 957.93 9.57503 958.741 10.03C958.207 9.71351 956.446 7.26036 957.337 8.0517ZM947.059 13.9867C948.691 12.8888 944.636 8.24953 942.657 7.38895C943.251 7.26036 950.571 5.4106 949.186 7.51754C948.454 7.83408 947.702 8.12094 946.921 8.41769C945.724 9.77286 953.429 9.40687 951.867 9.45633C952.836 10.5049 951.619 14.3824 947.039 13.9769L947.059 13.9867ZM789.652 10.6928C789.385 11.3555 788.663 11.4841 787.495 11.0885C787.782 10.4554 788.494 10.3763 789.652 10.6928ZM702.535 6.33053C701.071 6.96361 700.25 6.83501 700.072 5.99421C701.259 5.95465 703.999 5.83595 702.535 6.33053ZM488.893 0.969205C488.411 1.16933 487.892 1.26488 487.37 1.24953C486.848 1.23418 486.336 1.10829 485.866 0.880179C486.862 0.612062 487.915 0.643024 488.893 0.969205ZM474.827 10.5345C476.667 11.1346 476.479 11.7479 474.263 12.3744C473.294 11.8205 473.482 11.2171 474.827 10.5345ZM205.94 10.7423C204.555 12.1766 201.765 13.9076 201.043 14.877C199.619 14.0956 201.736 10.129 205.94 10.7423ZM214.615 16.2816C214.377 15.7475 214.615 15.2925 215.426 14.8869C215.726 15.1588 215.944 15.51 216.055 15.9002C216.165 16.2903 216.163 16.7037 216.049 17.0928H214.694C214.357 16.6971 214.169 16.3113 214.615 16.3113V16.2816ZM318.973 13.9175C319.836 13.7228 320.736 13.7708 321.574 14.056C320.709 14.2216 319.816 14.1741 318.973 13.9175ZM332.524 16.3113C333.998 16.3572 335.458 16.6171 336.857 17.0829H329.586C328.686 16.4399 328.993 15.9948 332.524 16.3113ZM346.076 8.71445C343.722 7.72527 343.91 7.22079 346.64 7.10209C346.857 7.55711 347.105 8.01213 347.312 8.48693C346.912 8.61842 346.497 8.6982 346.076 8.72434V8.71445ZM342.653 17.0928C342.864 16.9028 343.093 16.7339 343.336 16.5883C343.946 16.6466 344.539 16.8176 345.087 17.0928H342.653ZM640.286 17.0928H634.035C634.846 16.4597 640.069 16.1036 642.73 15.3419C641.957 15.9767 641.144 16.5615 640.296 17.0928H640.286ZM667.746 13.868C667.881 13.492 667.964 13.0993 667.993 12.7008C668.527 13.1756 667.696 14.4319 667.004 14.9067C666.025 14.3923 666.272 14.056 667.756 13.868H667.746ZM1072.66 16.4696C1073.94 16.0937 1074.64 16.2421 1074.74 16.9147C1074.51 16.9926 1074.27 17.0522 1074.03 17.0928H1073.32C1073.16 17.0617 1073.02 16.9866 1072.9 16.8762C1072.78 16.7658 1072.7 16.6248 1072.66 16.4696ZM1120.86 12.7997C1119.26 12.3942 1119.05 11.949 1120.23 11.4545C1120.92 12.0183 1125.85 15.4112 1125.48 15.787C1123.8 16.1946 1122.05 16.1502 1120.39 15.6585C1122.71 14.333 1123.89 14.0263 1120.87 12.7997H1120.86ZM1226.13 13.0767C1232.95 13.6702 1231.27 15.52 1231.17 17.0928H1227.71C1226.87 15.8971 1226.33 14.5208 1226.14 13.0767H1226.13ZM1199.17 17.0928H1197.59C1197.99 16.9892 1198.39 16.923 1198.8 16.8949C1199.13 16.8652 1199.21 16.9543 1199.18 17.0928H1199.17ZM1311.06 15.5002C1312.71 15.1843 1314.39 15.0648 1316.07 15.1441C1315.62 16.3707 1312.57 15.9156 1311.06 15.5002ZM1319.96 12.8987C1320.58 13.3438 1320.61 13.8087 1319.96 14.2934C1318.39 13.967 1318.39 13.5021 1319.96 12.8987ZM1328.86 13.1459C1329.2 12.977 1329.57 12.8834 1329.95 12.8714C1330.32 12.8595 1330.7 12.9295 1331.05 13.0767C1330.75 13.3434 1330.37 13.4965 1329.97 13.5091C1329.57 13.5218 1329.18 13.3932 1328.86 13.1459ZM1292.42 17.1026C1292.7 16.519 1293.26 16.1135 1294.47 16.252C1294.72 16.2648 1294.95 16.3532 1295.15 16.5052C1295.35 16.6573 1295.49 16.8658 1295.57 17.1026H1292.42ZM1539.9 16.1926C1540.56 15.8522 1541.28 15.6535 1542.02 15.6092C1542.76 15.5649 1543.5 15.676 1544.19 15.9354C1543.18 16.9345 1541.74 17.0037 1539.93 16.1827L1539.9 16.1926ZM1781.1 17.1026H1779.45C1779.86 16.5453 1780.2 15.9326 1780.44 15.2826C1781.06 15.886 1781.5 16.519 1781.13 17.0928L1781.1 17.1026ZM1899.36 15.6683L1897.61 16.5982C1896.06 15.3221 1896.5 14.8275 1899.39 15.6585L1899.36 15.6683ZM1895.02 11.316C1896.06 11.771 1895.88 12.0974 1894.41 12.3052C1892.69 11.8996 1892.94 11.5732 1895.04 11.3061L1895.02 11.316ZM1887.27 12.8987C1894.83 13.5416 1893.66 17.5379 1889.94 16.1827C1885.1 14.422 1887.46 14.2044 1885.98 11.9985C1880.76 3.729 1888.99 6.68664 1887.3 12.8888L1887.27 12.8987ZM1874.16 5.08417C1873.96 5.28201 1875.55 5.61833 1873.71 6.45913C1872.41 7.03285 1871.6 7.06252 1871.26 6.52837C1875.92 6.55804 1872.5 6.41956 1874.19 5.07428L1874.16 5.08417ZM1864.84 9.38708C1861.16 9.77286 1861.03 10.0894 1858.17 9.47611C1860.3 6.75588 1861.76 7.20101 1864.84 9.38708ZM1851.77 14.0758C1852.68 13.9472 1853.63 13.8384 1854.55 13.7197C1857.41 13.4229 1853.71 14.1945 1851.77 14.0659V14.0758ZM1850.38 8.39791L1853.92 9.87178C1849.07 11.2072 1847.4 10.1784 1850.38 8.39791ZM1844.45 7.29993C1845.72 7.71538 1845.7 8.2891 1844.32 9.12001C1842.45 8.59574 1842.48 7.98246 1844.42 7.28014L1844.45 7.29993ZM1846.43 14.2934C1845.27 17.706 1841.81 15.0847 1841.48 14.4418C1843.09 14.9825 1844.85 14.9227 1846.42 14.2736L1846.43 14.2934ZM1831.85 9.34752C1829.53 8.94196 1828.1 8.21986 1827.5 7.19112C1829.82 7.26036 1833.34 7.87365 1831.84 9.27828L1831.85 9.34752ZM1817.68 9.95091C1818.27 9.72587 1818.9 9.62468 1819.53 9.6536C1820.17 9.68253 1820.78 9.84097 1821.35 10.1191C1820.13 10.4068 1818.85 10.3242 1817.67 9.88167L1817.68 9.95091ZM1820.48 3.27398C1820.72 3.93673 1820.34 4.50056 1819.32 4.97536C1815.8 4.37197 1820.39 3.18496 1820.48 3.27398ZM1817.16 6.50859C1818.45 7.43841 1819.51 7.6857 1820.32 7.20101C1818.75 8.5265 1817.79 9.27827 1817.27 9.70362C1816.1 8.65509 1816.05 7.58679 1817.18 6.50859H1817.16ZM1812.21 14.422C1811.43 13.8977 1811.81 13.5911 1813.29 13.5119C1814.18 14.056 1813.83 14.333 1812.24 14.3923L1812.21 14.422ZM1809.37 6.96361C1813.09 6.96361 1813.01 14.8177 1807.39 10.3763H1807.44C1806.87 9.27827 1804.3 6.89436 1809.4 6.93393L1809.37 6.96361ZM1807.19 10.3763C1806.43 11.1181 1805.3 11.2665 1803.79 10.7917C1804.89 10.4502 1806.04 10.3095 1807.19 10.3763ZM1804.87 12.6613C1808.12 14.0659 1805.86 16.0838 1803.21 17.1224H1799.18C1801.16 15.7288 1803.06 14.2296 1804.87 12.6316V12.6613ZM1798.28 6.90425C1797.79 7.24057 1797.29 7.58679 1796.8 7.89343C1796.5 7.88354 1797.02 6.74599 1798.28 6.87458V6.90425ZM1789.03 13.6405C1790.64 15.2232 1790.67 15.7673 1787.7 16.9444C1786.51 15.5496 1786.94 14.4517 1789.03 13.6109V13.6405ZM1781.41 10.0795C1781.71 10.5246 1778.06 13.1064 1777.25 11.1577C1776.3 11.5091 1775.26 11.5369 1774.29 11.2368C1774.46 10.9302 1779.43 10.495 1781.41 10.0498V10.0795ZM1769.26 10.4356C1770.09 10.8511 1770.04 11.2566 1769.17 11.6424C1768.36 11.1874 1768.39 10.8016 1769.26 10.3763V10.4356ZM1755.98 3.04647C1757.03 2.44308 1755.12 4.66872 1754.99 5.02482C1754.28 4.26316 1754.59 3.59052 1755.98 3.0168V3.04647ZM1757.51 10.8906L1752.23 9.06066C1756.57 6.24151 1757.17 10.7521 1757.51 10.861V10.8906ZM1749.44 9.90146C1750.55 10.6433 1750.31 11.2962 1748.72 11.8798C1747.39 12.3546 1749.09 10.2576 1749.44 9.90146ZM1744.02 12.5722C1745.33 13.0767 1746 13.7098 1746 14.4714C1746.04 14.2143 1742.02 13.4724 1744.02 12.5722ZM1743.47 5.35125L1745.83 5.22266C1745.57 5.63811 1742.09 8.97163 1743.2 9.33763C1741.76 8.8925 1743.86 4.44121 1743.47 5.35125ZM1734.22 8.39791C1737.07 7.23068 1737.35 10.2081 1735.95 10.9599C1733.96 10.2773 1733.35 9.38708 1734.22 8.39791ZM1735.98 11.1181C1736.35 12.1073 1735.59 12.6909 1733.59 12.8195C1733.64 12.0974 1734.42 11.5237 1735.98 11.1478V11.1181ZM1712.24 11.1775C1713.39 11.8699 1713.08 12.5327 1711.25 13.1558C1710.02 12.4436 1710.38 11.771 1712.27 11.2072L1712.24 11.1775ZM1705.54 2.71015C1707.78 2.51232 1705.68 5.35125 1705.54 5.44028C1704.51 4.99289 1703.46 4.59997 1702.38 4.26316C1701.68 4.63904 1703.35 2.92777 1705.57 2.73983L1705.54 2.71015ZM1703.92 13.5911L1701.87 13.0569C1703.98 12.5426 1706.22 12.3546 1703.95 13.6603L1703.92 13.5911ZM1682.37 7.74505C1680.92 8.11105 1679.97 7.84397 1679.56 6.95371C1681.24 6.57783 1682.19 6.8449 1682.4 7.8143L1682.37 7.74505ZM1675.55 9.37719C1676.54 10.0597 1675.66 12.0084 1673.77 10.1883L1675.55 9.37719ZM1666.5 10.0696C1664.81 10.1106 1663.13 9.82859 1661.55 9.23871C1664.13 8.2891 1666.63 8.39791 1666.53 10.1389L1666.5 10.0696ZM1645.2 6.8449C1645.85 7.14166 1645.53 8.15062 1644.74 8.82325C1643.48 8.09127 1643.64 7.40873 1645.2 6.8449ZM1633.97 4.49067C1632.73 5.06439 1631.99 4.92591 1631.68 4.07521C1633.41 3.55095 1634.16 3.68944 1633.97 4.49067ZM1604.1 6.07335C1602.95 6.07335 1601.81 6.07335 1600.67 5.99421C1601.71 6.03378 1603.24 6.06346 1604.1 6.07335ZM1566.42 6.21183C1566.69 6.54815 1566.42 6.90426 1566.09 7.20101C1565.49 6.82512 1565.57 6.49869 1566.42 6.21183ZM1564.86 9.92124C1566.2 9.51568 1567.77 12.2854 1566.09 12.7898C1564.08 12.4337 1562.64 10.584 1564.86 9.92124ZM1558.13 7.10209C1558.97 7.61646 1558.7 7.95278 1557.32 8.09127C1556.43 7.51754 1556.7 7.19112 1558.13 7.10209ZM1547.9 8.68477C1541.74 8.20997 1543.41 6.53826 1542.32 4.72807C1547.03 4.2137 1547.66 7.20101 1547.9 8.68477ZM1541.23 14.2439C1540.55 14.3779 1539.86 14.4606 1539.17 14.4912C1539.82 14.2171 1540.53 14.1314 1541.23 14.2439ZM1526.86 3.27398C1528.38 3.48171 1528.46 3.88727 1527.06 4.49067C1524.72 4.32251 1524.66 3.91695 1526.86 3.27398ZM1528.06 11.4149C1529.36 11.9293 1526.27 14.2538 1525.65 14.1945C1524.94 13.581 1524.3 12.8984 1523.73 12.1568C1525.02 11.3641 1526.58 11.0986 1528.06 11.4149ZM1511.67 4.49067C1511.83 5.30179 1511.24 5.47984 1509.91 4.89623C1510.05 4.16424 1510.64 4.02576 1511.67 4.49067ZM1498.01 2.33427C1497.41 2.53992 1496.78 2.64356 1496.14 2.64091C1496.74 2.55189 1497.37 2.46286 1498.01 2.33427ZM1491.09 5.90519C1490.39 6.19729 1489.63 6.34025 1488.88 6.32492C1488.12 6.30959 1487.37 6.13631 1486.68 5.81616C1488.83 4.79731 1490.72 5.90519 1491.09 5.90519ZM1485.85 8.70455C1488.71 9.69373 1487.63 12.8888 1483.58 12.4436C1483.9 11.8996 1484.23 11.3457 1484.57 10.8016C1483.24 9.45633 1483.67 8.7639 1485.86 8.70455H1485.85ZM1479.34 5.20287C1481.32 5.55898 1481.56 6.05357 1480.17 6.66685C1478.54 6.26129 1478.28 5.7667 1479.35 5.20287H1479.34ZM1465.44 8.92217C1470.32 9.05076 1470.27 10.129 1467.33 11.7116C1467.7 12.5623 1467.09 13.1756 1465.47 13.5614C1465.18 13.3438 1465.98 10.0498 1465.45 8.92217H1465.44ZM1470.32 16.7663C1467.9 16.8554 1466.22 17.0136 1464.2 17.0433C1466.22 16.7047 1468.27 16.6117 1470.31 16.7663H1470.32ZM1460.17 13.0569C1460.33 12.5327 1461.06 12.2458 1462.39 12.1568C1463.28 11.8205 1461.91 13.1262 1460.18 13.0569H1460.17ZM1459.88 10.6631C1458.89 10.218 1458.89 9.77286 1459.82 9.30795C1460.94 9.74319 1460.97 10.2081 1459.89 10.6631H1459.88ZM1460.61 3.55095C1458.63 4.48078 1457.34 4.36208 1457.64 5.79638C1456.18 5.51941 1455.48 5.02482 1455.53 4.31262C1455.62 2.7695 1458.78 3.07615 1460.62 3.55095H1460.61ZM1446.16 5.69746L1450.26 5.12374C1450.47 5.28286 1450.62 5.50008 1450.7 5.74692C1448.65 6.50859 1445.9 7.40873 1446.17 5.69746H1446.16ZM1445.27 11.3358C1444.27 11.4728 1443.26 11.2928 1442.38 10.8214C1441.09 10.7126 1447.06 11.0687 1445.28 11.3654L1445.27 11.3358ZM1446.13 17.0928H1441.53C1441.02 16.4046 1440.58 15.6654 1440.22 14.8869H1440.44C1442.44 15.3298 1444.36 16.0735 1446.14 17.0928H1446.13ZM1440.38 2.19578C1439.22 2.72994 1438.68 2.60134 1438.74 1.83968C1439.98 1.25607 1440.56 1.37477 1440.39 2.19578H1440.38ZM1434.65 9.12001C1434.26 9.62449 1434.65 10.5444 1434.57 10.7225C1431.91 10.5049 1433.83 9.71351 1434.7 9.16947L1434.65 9.12001ZM1437.71 14.3527C1435.52 14.5407 1432.76 14.7187 1431.98 14.2242C1430.35 13.1954 1434.7 13.8483 1437.72 14.4022L1437.71 14.3527ZM1425.71 3.45203C1428.25 4.00597 1423.97 5.74692 1423.3 6.05357C1423.53 4.71818 1424.67 3.21463 1425.71 3.45203ZM1423.28 6.19205C1423.75 6.63285 1424.06 7.22883 1424.14 7.87365C1423.39 7.64614 1423.17 6.96361 1423.28 6.18216V6.19205ZM1417.8 2.85853C1419.33 3.40258 1419.25 3.729 1417.5 3.8477C1415.31 3.23442 1415.39 2.90799 1417.8 2.84864V2.85853ZM1405.54 12.0776C1402.86 15.3914 1399.36 9.45633 1399.33 9.40687C1399.95 9.51568 1404.89 12.8888 1405.54 12.0677V12.0776ZM1385.37 11.5039C1385.37 12.4436 1384.53 12.4931 1382.7 11.6919C1383.09 11.4276 1383.54 11.2702 1384.01 11.2355C1384.48 11.2008 1384.95 11.2899 1385.37 11.494V11.5039ZM1375.68 5.84584C1377.33 5.71852 1378.98 6.10557 1380.4 6.95371C1378.75 7.26036 1377.05 7.55711 1375.35 7.8044C1374.65 8.76418 1373.64 9.46052 1372.49 9.78275C1373.76 8.97163 1374.03 6.55804 1375.68 5.83595V5.84584ZM1366.15 11.7314C1365.02 12.7206 1364.28 12.7206 1363.96 11.8007C1365.12 10.8214 1365.86 10.8016 1366.15 11.7215V11.7314ZM1356.43 14.8968C1357.32 15.1144 1357.32 15.4309 1356.48 15.8365C1355.57 15.609 1355.57 15.3221 1356.43 14.8869V14.8968ZM1348 4.37197C1349.59 4.14446 1349.61 5.92497 1349.38 7.40873C1346.6 6.29097 1346.12 5.27212 1348 4.36208V4.37197ZM1349.35 7.57689C1349.24 8.15621 1349.1 8.72793 1348.92 9.28817C1346.41 10.0993 1342.77 11.0489 1342.77 12.0677C1340.53 11.5732 1346.27 8.12094 1349.35 7.567V7.57689ZM1341.77 3.18496C1343.68 3.33333 1344.28 3.71911 1343.5 4.3324C1341.39 4.27305 1340.8 3.89716 1341.77 3.17507V3.18496ZM1334.85 9.29806C1330.89 9.40687 1328.85 8.83315 1328.71 7.60657C1329.48 6.53826 1338.99 7.55711 1334.88 9.28817L1334.85 9.29806ZM1322.4 7.15155C1324.51 8.70455 1314.05 8.03191 1313.13 7.52744C1314.02 6.15248 1321.09 6.1327 1322.44 7.14166L1322.4 7.15155ZM1312.97 4.44121C1313.61 4.44121 1312.48 5.31168 1311.37 5.65789C1310.72 5.81616 1312.34 4.58959 1312.97 4.44121ZM1313.2 12.8888C1312.23 13.5515 1311.42 14.4153 1310.82 15.4211L1308.61 14.6891C1309.39 13.3438 1310.91 12.7602 1313.2 12.8888ZM1305.05 11.0885C1303.94 11.5237 1303.21 11.4149 1302.84 10.8016C1302.99 10.6583 1303.18 10.551 1303.38 10.4871C1303.58 10.4232 1303.8 10.4042 1304.01 10.4315C1304.22 10.4588 1304.42 10.5317 1304.6 10.6452C1304.78 10.7586 1304.94 10.9099 1305.05 11.0885ZM1303.07 14.7979C1305.45 15.5595 1303.07 17.7654 1301.48 16.1036C1301.98 15.6782 1302.51 15.2331 1303.05 14.7979H1303.07ZM1296.08 12.5722C1294.27 11.8402 1294.89 8.44737 1295.19 9.6047C1297.66 10.6334 1297.95 11.6226 1296.06 12.5722H1296.08ZM1296.38 4.83688C1297.67 5.66779 1297.37 8.09127 1293.03 7.20101C1291.74 6.1327 1292.87 5.35125 1296.36 4.83688H1296.38ZM1284.6 6.33053C1285.74 6.15248 1286.92 6.00411 1288.12 5.8953C1290.95 5.98432 1284.16 13.5218 1281.39 11.8303C1282.3 12.414 1285.19 6.63718 1284.58 6.33053H1284.6ZM1263.09 11.4446C1263.68 11.6325 1275.4 8.06159 1273.49 12.5623C1273.72 12.0183 1267.87 14.2736 1267.55 14.4319C1266.56 12.1271 1258.31 13.2943 1257.13 14.9364C1255.59 14.5506 1254.75 13.9472 1254.58 13.0767C1254.19 8.46715 1260.8 10.7719 1263.07 11.4446H1263.09ZM1248.25 8.85293C1249.11 9.40687 1248.82 9.8421 1247.41 10.03C1246.14 9.19914 1246.41 8.81336 1248.22 8.85293H1248.25ZM1240.45 9.32773C1243.57 7.97256 1247.01 11.5831 1243.42 11.8897C1240.82 11.7611 1239.84 10.9005 1240.42 9.32773H1240.45ZM1240.81 17.0928H1237.56C1237.26 16.7268 1237.56 16.3311 1239.48 15.6585C1240.55 16.1333 1240.98 16.5982 1240.82 17.0928H1240.81ZM1239.12 13.3438L1236.8 14.0758C1236.53 14.0608 1236.26 13.9907 1236.02 13.87C1235.78 13.7492 1235.57 13.5802 1235.39 13.3735C1235.89 12.8854 1236.56 12.6094 1237.25 12.6039C1237.95 12.5983 1238.62 12.8637 1239.12 13.3438ZM1234.97 8.51661C1233.22 9.056 1231.36 9.0903 1229.6 8.61553C1231.92 7.64614 1232.54 7.33949 1234.97 8.51661ZM1218.82 3.57074C1221.5 -0.385965 1224.92 4.00597 1227.81 5.42049C1227.97 4.29283 1229.05 3.44214 1231.05 2.78929C1231.98 3.38279 1228.45 6.04367 1229.07 8.45726C1225.37 7.46808 1221.58 5.23255 1218.84 3.57074H1218.82ZM1212.5 14.7088C1214.07 14.8177 1214.36 15.1639 1213.39 15.698C1211.88 15.6486 1211.58 15.3221 1212.5 14.7286V14.7088ZM1210.59 9.06066C1210.4 8.8925 1207.04 12.1766 1206.86 12.1469L1204.64 11.2863C1202.97 12.3546 1209.17 7.933 1210.59 9.08044V9.06066ZM1202.89 9.67394C1202.25 10.1565 1201.52 10.495 1200.74 10.6659C1199.96 10.8367 1199.16 10.8357 1198.38 10.6631C1198.29 10.6137 1199.16 6.91415 1202.89 9.69373V9.67394ZM1196.95 7.61646C1195.61 8.54629 1194.58 8.42758 1193.91 7.24057C1195.63 6.41956 1196.66 6.52837 1197 7.63624L1196.95 7.61646ZM1191.37 10.2081C1196.9 10.6829 1192.9 14.8275 1192.71 13.1756C1190.38 12.4337 1189.93 11.4347 1191.37 10.2081ZM1183.67 13.5317C1184.81 12.8888 1185.34 13.0272 1185.31 13.9571C1184.08 14.4517 1183.53 14.333 1183.64 13.5317H1183.67ZM1172.03 10.3763C1176.27 12.5426 1175.6 11.9985 1172.43 13.7592C1169.9 12.0875 1169.17 12.4337 1172.03 10.3763ZM1160.16 14.9265C1162.74 13.779 1164.11 15.4309 1164.81 17.0631H1161.38C1160.78 16.3113 1159.91 15.0748 1160.18 14.9561L1160.16 14.9265ZM1149.41 15.6585C1150.46 15.8761 1149.41 16.6476 1149.18 17.0631H1149.03C1148.64 16.618 1148.74 16.1431 1149.43 15.6881L1149.41 15.6585ZM1132.6 16.153C1132.72 16.2682 1132.81 16.4121 1132.86 16.5712C1132.91 16.7303 1132.92 16.8995 1132.89 17.0631H1131.68C1131.87 16.6559 1132.22 16.3401 1132.64 16.1827L1132.6 16.153ZM1126.66 3.29377C1126.15 3.59381 1125.57 3.78461 1124.98 3.85436C1124.39 3.92412 1123.78 3.87135 1123.21 3.69933C1123.57 2.72994 1124.71 2.59145 1126.67 3.28387L1126.66 3.29377ZM1119.64 7.65603C1121.06 7.62216 1122.46 7.41283 1123.82 7.03285C1123.73 6.8548 1124.29 8.91228 1123.04 8.56607C1118.45 7.34938 1120.48 8.14072 1117.11 7.57689C1117.51 7.38998 1117.95 7.29892 1118.39 7.31094C1118.83 7.32296 1119.26 7.43773 1119.65 7.64614L1119.64 7.65603ZM1115.57 11.2269C1115.22 11.5606 1114.76 11.7619 1114.28 11.7962C1113.8 11.8306 1113.32 11.6957 1112.92 11.4149C1113.3 11.134 1113.75 10.9663 1114.22 10.9313C1114.69 10.8963 1115.16 10.9954 1115.58 11.2171L1115.57 11.2269ZM1110.76 13.5317C1112.6 14.1549 1113.38 15.0254 1113.11 16.1333C1110.14 18.1314 1109.5 14.6 1110.77 13.5218L1110.76 13.5317ZM1099.8 4.96547C1100.02 4.24337 1100.72 4.12467 1101.87 4.57969C1101.68 5.21277 1100.96 5.35125 1099.81 4.95558L1099.8 4.96547ZM1106.57 9.47611C1106.57 10.0993 1100.12 13.7691 1100.31 12.681C1100.36 12.2854 1105.24 10.03 1106.58 9.46622L1106.57 9.47611ZM1091.54 16.0244C1093 16.1036 1093.3 16.3904 1092.4 16.9048C1090.82 16.8751 1090.55 16.5883 1091.55 16.0146L1091.54 16.0244ZM1069.32 14.5605C1070.24 13.8582 1071.48 11.4841 1073.05 11.1379C1077.77 10.0696 1076.15 12.5426 1074.61 13.7197C1072.36 14.076 1070.15 14.6661 1068.03 15.4804C1066.55 16.1153 1064.91 16.2911 1063.33 15.9849C1066.36 15.154 1067.33 16.0838 1069.33 14.5506L1069.32 14.5605ZM1045.58 16.6476C1046.23 16.7465 1046.43 16.9048 1046.32 17.1026H1036.94L1037.1 16.9642C1039.93 16.6376 1042.78 16.5284 1045.62 16.6377L1045.58 16.6476ZM1041.46 6.12281C1041.21 7.11198 1040.1 7.71538 1039.05 8.5265C1038.3 7.92222 1037.6 7.26079 1036.96 6.54815C1038.4 6.0081 1039.97 5.85802 1041.5 6.11292L1041.46 6.12281ZM1029.84 9.98059C1034.79 9.7333 1036.35 10.5642 1042.88 12.8888C1037.76 14.7583 1036.35 14.2637 1034.09 11.1379C1029.8 13.5614 1029.8 9.9707 1029.88 9.9707L1029.84 9.98059ZM1028.85 13.2745C1032.81 14.4912 1033.8 15.5991 1031.82 16.5685C1029.39 16.6872 1027.56 16.2421 1026.4 15.2529C1026.37 14.333 1027.21 13.6208 1028.88 13.2647L1028.85 13.2745ZM1015.74 12.7898C1015.74 12.6019 1015.74 12.4239 1015.81 12.2458C1023.18 12.2458 1021.52 12.4337 1020.08 14.3132C1018.26 16.6377 1015.14 12.6019 1015.77 12.78L1015.74 12.7898ZM1009.1 17.1026H1003.23C1005.5 15.5002 1009.57 15.0254 1009.13 17.0928L1009.1 17.1026ZM994.817 14.8374C996.617 15.3221 999.535 17.1422 994.569 16.9444C994.564 16.997 994.564 17.05 994.569 17.1026H994.431C994.625 16.3554 994.763 15.595 994.846 14.8275L994.817 14.8374ZM744.061 3.59052L744.179 3.71911L744.001 3.64987L744.061 3.59052ZM744.674 7.47798C746.138 7.95278 746.158 8.46715 744.674 8.99141C743.754 8.59574 743.754 8.09127 744.674 7.47798ZM732.121 16.1036C732.121 15.3221 736.078 9.55524 738.254 10.1685C739.926 10.584 739.006 13.1361 741.41 13.0371C741.932 12.9409 742.41 12.6811 742.775 12.2953C742.696 13.2844 744.1 13.868 740.114 15.5496C746.613 15.5496 746.919 16.1234 745.614 17.1422H740.42C738.689 15.4013 737.631 14.1252 732.121 16.1036ZM694.068 17.0928H692.633C692.366 17.0433 692.099 16.9839 691.812 16.9444C692.406 16.9642 693.177 17.0136 694.068 17.0928ZM679.586 7.00317C684.037 7.41863 679.745 8.19018 680.15 8.31878C678.7 8.04635 677.232 7.87776 675.758 7.8143C676.856 7.60657 677.598 6.82512 679.586 7.00317ZM673.651 7.51754C673.869 7.60508 674.094 7.67456 674.324 7.72527L671.851 7.60657C672.474 7.567 673.038 7.52744 673.671 7.51754H673.651ZM670.407 7.71538C670.941 8.48694 674.086 10.6829 672.791 10.7818C670.595 10.8906 668.25 8.14072 663.443 8.6452C665.678 8.33856 668.013 7.95278 670.426 7.71538H670.407ZM664.956 16.8455C665.274 16.8938 665.586 16.9767 665.886 17.0928H653.828C653.97 16.9621 654.079 16.7993 654.145 16.618C653.957 16.618 653.155 16.8554 652.077 17.0928H645.677C645.677 16.0146 650.9 15.6288 651.316 15.3617C657.122 18.1907 658.398 15.7475 664.976 16.8455H664.956ZM653.086 9.04087C653.007 9.04087 656.38 10.03 657.904 10.3763C657.973 10.6532 658.893 11.2665 658.893 11.2962C650.366 11.0786 643.254 11.9194 650.277 6.89436C651.701 7.6857 652.76 8.91228 653.126 9.04087H653.086ZM641.592 6.2514C641.839 6.06346 646.182 7.03285 646.132 7.02296C646.677 6.56327 647.353 6.2879 648.064 6.23636C648.775 6.18483 649.484 6.35977 650.089 6.7361C647.537 7.13177 638.842 8.33856 641.592 6.2514ZM643.244 12.0677C644.144 13.9274 646.726 14.0461 644.233 14.1945C643.837 13.2053 642.591 12.8789 641.008 12.9283C641.796 12.7685 642.552 12.4776 643.244 12.0677ZM638.298 8.44737C638.344 8.74467 638.464 9.02559 638.648 9.26417C638.831 9.50275 639.071 9.69131 639.347 9.81243C638.071 9.38708 636.933 8.95185 638.278 8.44737H638.298ZM637.428 11.5831C637.029 12.0183 636.717 12.5252 636.508 13.0767C637.135 13.1517 637.765 13.1946 638.397 13.2053C635.815 13.601 633.164 14.1945 632.215 13.6405C630.335 12.4535 636.092 11.5336 637.428 11.5831ZM627.318 17.0928H624.113C622.108 16.6959 620.164 16.0304 618.336 15.1144C623.421 13.1064 626.339 14.333 627.358 17.0928H627.318ZM602.302 11.7314C606.911 11.3951 611.026 14.966 609.968 17.0928H606.763C609.009 14.1252 603.529 11.0192 599.72 15.1144C605.655 16.0343 602.46 16.7663 599.72 17.0928H597.198C597.173 16.4002 597.287 15.7097 597.534 15.0621C597.781 14.4146 598.155 13.8232 598.635 13.3232C599.114 12.8231 599.69 12.4245 600.327 12.1511C600.963 11.8777 601.649 11.7349 602.342 11.7314H602.302ZM591.827 15.7475C593.637 16.1728 593.934 16.4696 592.667 16.6674C590.837 16.3113 590.57 15.9948 591.866 15.7475H591.827ZM578.68 9.81243C580.995 8.20007 584.615 12.7206 583.864 11.9392C583.235 11.8312 582.593 11.8312 581.965 11.9392C579.462 11.5929 578.334 10.9104 578.72 9.81243H578.68ZM580.224 12.78C583.547 13.2647 585.763 14.1945 586.861 15.5892C585.214 15.7802 583.617 16.2767 582.152 17.0532H579.432C578.868 16.8949 578.176 16.6773 577.276 16.3608C572.271 14.6297 575.743 14.4616 580.263 12.8195L580.224 12.78ZM570.5 15.1144C568.907 14.333 568.126 13.3537 568.096 12.1469C574.12 9.7333 572.399 14.0461 570.54 15.154L570.5 15.1144ZM567.236 10.6236C566.803 10.8501 566.311 10.9366 565.827 10.871C565.343 10.8054 564.892 10.5911 564.535 10.2576C565.762 9.49589 566.652 9.62449 567.275 10.6631L567.236 10.6236ZM560.776 6.88447C558.076 7.29993 556.622 7.10209 556.404 6.2514C557.097 5.43038 562.112 7.11198 560.816 6.92404L560.776 6.88447ZM537.521 10.218C536.977 11.1379 536.532 11.1181 536.304 10.1487C536.819 9.22882 537.224 9.2486 537.521 10.218ZM539.598 13.5218C537.471 13.7395 549.727 13.601 544.969 12.5327C546.267 12.6559 547.573 12.4234 548.748 11.86C549.262 11.9589 550.103 16.1432 558.145 13.8977C559.302 15.4606 559.134 16.4795 558.244 17.0532H552.23C550.937 16.6847 549.728 16.0701 548.669 15.243C548.263 16.8652 538.441 17.0631 535.632 16.1036C535.613 15.1145 535.938 14.1496 536.552 13.3735C535.859 13.5791 535.132 13.6396 534.416 13.5511C533.699 13.4626 533.008 13.227 532.387 12.8591C535.543 12.5426 536.245 13.868 539.568 13.5218H539.598ZM528.777 15.2529C527.204 16.7564 526.205 17.0037 525.809 15.9948C526.172 15.5959 526.644 15.3127 527.166 15.1808C527.689 15.0488 528.239 15.0739 528.747 15.2529H528.777ZM526.314 11.2269C525.779 11.9095 525.156 11.8501 524.503 11.039C525.265 10.4554 525.859 10.5246 526.284 11.2269H526.314ZM516.303 13.0272C514.819 13.5317 521.11 15.0056 513.899 15.8167C514.123 15.9518 514.311 16.1378 514.448 16.3596C514.586 16.5814 514.669 16.8327 514.691 17.0928H513.781C512.712 16.0937 514.77 13.5515 516.273 13.0272H516.303ZM497.895 10.495C498.187 10.775 498.521 11.0085 498.884 11.1874C507.47 10.1389 496.975 15.0649 504.403 17.1224H500.526C499.467 16.3608 500.011 14.7385 500.298 13.7296C495.679 13.7296 497.538 13.8186 493.71 15.2034C493.137 14.3824 498.518 11.9787 497.865 10.495H497.895ZM443.549 6.30086C444.675 7.68358 446.01 8.88177 447.506 9.852C445.392 10.3743 443.188 10.4148 441.057 9.9707C440.977 8.66499 441.838 7.40873 443.549 6.30086ZM443.549 13.6208C443.213 12.958 443.638 12.315 444.825 11.7215C446.626 12.4436 446.517 13.5911 443.549 13.6208ZM431.185 11.8897C432.352 11.8897 435.586 11.682 437.772 11.7611C440.473 11.8699 439.959 13.7395 443.49 13.7395C448.03 17.1323 453.669 12.1864 452.392 9.67394C459.465 9.17936 457.338 11.3061 460.791 13.1855C460.702 13.1262 447.189 16.6971 443.905 17.1422H443.213H439.593C437.792 15.7772 433.658 15.0452 431.501 16.064C432.817 15.1935 433.282 15.9255 432.995 12.8096C424.755 13.69 425.823 11.771 431.224 11.8897H431.185ZM420.452 9.53546C422.777 8.65509 425.526 6.98339 428.801 7.55711C430.255 7.8044 420.749 12.503 421.105 12.315C420.234 12.7107 417.781 9.2486 417.732 9.18925C418.642 9.28817 419.532 9.38708 420.452 9.53546ZM414.27 2.92777C414.923 3.36301 414.863 3.70922 414.082 3.9763C413.379 3.53117 413.459 3.18496 414.27 2.92777ZM410.679 5.8953C411.381 6.09313 413.844 7.23068 413.142 7.05263C410.906 7.28014 409.571 6.88447 410.679 5.85573V5.8953ZM408.414 9.99048C406.435 11.0984 403.596 11.1775 401.49 11.1478C402.756 10.6829 402.004 9.68384 408.414 9.95091V9.99048ZM404.744 6.41956C404.576 6.49869 403.686 7.89343 400.392 6.92404C401.751 6.29402 403.277 6.11718 404.744 6.41956ZM403.31 14.333C403.557 14.7286 403.794 15.1243 404.042 15.5002C406.38 14.7302 408.858 14.4804 411.302 14.7682C410.867 15.1836 406.416 17.162 405.278 16.7465C401.964 15.5002 395.485 15.5694 392.913 12.8591C390.342 10.1487 402.172 16.618 403.31 14.333ZM377.739 10.1487C383.14 11.6127 382.685 14.9957 376.849 15.7475C377.739 16.2223 377.66 16.618 376.602 16.9048C376.473 15.8563 377.037 14.788 373.773 15.5496C373.75 15.9011 373.62 16.2371 373.401 16.5128C373.181 16.7886 372.883 16.9909 372.546 17.0928H370.568C367.828 16.4795 364.633 13.9076 366.957 12.7898C373.555 9.54535 381.736 18.715 377.739 10.1487ZM360.459 5.48974C357.906 6.47891 355.157 5.96454 354.523 4.83688C357.155 4.19392 359.163 4.44121 360.459 5.48974ZM352.713 11.1775C352.605 11.3358 363.189 7.65603 364.643 6.50859C365.324 6.69628 365.926 7.09921 366.359 7.65722C366.792 8.21523 367.033 8.89839 367.046 9.6047C365.319 8.82871 363.427 8.48903 361.537 8.61553C361.487 10.7225 358.005 15.1935 358.896 16.8554C358.93 16.9243 358.97 16.9904 359.014 17.0532H355.236C356.561 15.3221 357.451 14.7187 352.634 14.3824C353.336 15.2529 352.496 16.252 353.119 17.0532H349.815C350.639 15.0224 351.618 13.058 352.743 11.1775H352.713ZM348.282 3.81803C347.421 5.06439 345.878 5.48973 343.672 5.11385C344.721 3.89716 346.264 3.45203 348.311 3.81803H348.282ZM344.83 14.333C343.484 15.2331 342.564 15.3221 342.109 14.4418C342.48 14.1119 342.954 13.9208 343.45 13.901C343.946 13.8811 344.434 14.0338 344.83 14.333ZM342.159 3.31355C341.377 3.95651 340.725 3.90705 340.27 3.16517C340.893 2.31448 341.536 2.36394 342.159 3.31355ZM341.407 8.8826C340.26 9.64427 338.657 9.75308 336.619 9.25849C337.326 8.80949 338.132 8.54046 338.966 8.47493C339.801 8.40941 340.639 8.54938 341.407 8.8826ZM340.537 6.11292L338.914 6.74599C338.002 6.57976 337.1 6.35844 336.214 6.08324C337.652 5.93521 339.101 5.94516 340.537 6.11292ZM336.491 9.31784H336.54C339.201 10.3565 342.09 11.9293 337.381 12.6415C332.93 13.324 332.138 10.2773 329.794 10.5642C327.717 10.8214 328.874 13.0371 327.984 13.868C326.451 13.235 324.769 10.2872 326.065 9.50578C326.253 9.06066 334.137 9.38708 336.491 9.31784ZM322.722 4.29283C323.938 3.90705 329.933 6.66685 329.013 7.46808L323.147 6.47891C323.285 6.55804 320.832 4.86655 322.722 4.29283ZM323.097 10.7324C323.582 11.8897 323.097 12.9976 321.624 14.0263C320.407 12.9679 319.457 12.1271 318.725 11.4742C320.115 10.9244 321.604 10.6717 323.097 10.7324ZM318.557 5.57876C317.38 6.11292 316.777 5.97443 316.777 5.18309C318.102 4.58959 318.696 4.71818 318.557 5.57876ZM302.226 16.9345C302.444 16.8462 302.68 16.8144 302.914 16.8421C303.147 16.8697 303.37 16.956 303.561 17.0928H301.969C302.031 17.0089 302.123 16.9522 302.226 16.9345ZM298.962 14.333C299.387 15.1144 297.854 15.5595 297.824 15.4606C297.527 13.8285 299.506 15.3914 298.714 12.6118C299.371 12.5369 300.032 12.5005 300.693 12.503C301.415 13.3932 302.097 14.333 298.962 14.333ZM301.207 7.40873C300.851 7.96267 300.218 7.86375 299.446 7.0922L297.072 6.7361C298.071 6.05357 299.318 7.12187 301.207 7.3296V7.40873ZM300.851 10.0795C302.087 11.5633 297.399 10.7423 296.825 10.4356C297.406 10.0325 298.079 9.78148 298.783 9.70545C299.486 9.62942 300.197 9.73081 300.851 10.0004V10.0795ZM292.621 5.33147C291.78 5.93486 291.236 5.96454 291.018 5.4106C291.483 4.65883 291.998 4.62915 292.621 5.33147ZM287.26 3.64987C287.804 4.27305 287.754 5.46995 285.4 5.31168C282.165 6.65696 286.627 4.08511 287.26 3.64987ZM285.835 15.8068L283.679 15.0254C284.678 13.1558 286.567 15.0649 285.815 15.8068H285.835ZM278.515 2.58156C279.702 2.78929 279.92 3.17507 279.158 3.68944C277.17 3.45203 276.962 3.05636 278.496 2.58156H278.515ZM273.312 4.86655C274.094 5.43038 273.777 5.74692 272.323 5.85573C271.611 5.30179 271.937 4.97536 273.312 4.86655ZM272.531 8.53639C274.796 7.76484 276.062 8.20997 276.606 8.53639C274.403 9.87385 271.929 10.705 269.365 10.9698C270.308 10.0214 271.372 9.203 272.531 8.53639ZM265.27 6.29097C264.103 6.21642 262.989 5.77697 262.085 5.03471C263.519 4.63904 268.94 7.40873 265.27 6.29097ZM261.007 14.7979C262.57 14.7979 263.242 15.1935 262.985 16.0047C261.541 16.064 260.809 15.6782 261.007 14.7979ZM249.582 3.729C251.095 4.25327 250.848 4.71818 248.85 5.18309C247.91 4.63904 248.148 4.14446 249.582 3.729ZM251.343 11.1577C249.994 10.2034 248.466 9.5306 246.852 9.17936C256.279 7.57689 250.591 10.3763 251.343 11.1577ZM235.219 1.72098C237.484 2.04741 237.811 2.55188 236.208 3.26409C234.19 2.87831 233.844 2.36394 235.219 1.72098ZM231.975 6.53826C231.065 7.01306 230.362 6.9735 229.848 6.42945C230.768 5.7667 231.49 5.80627 231.975 6.53826ZM225.12 3.93673C226.989 4.67861 226.791 5.25233 224.585 5.648C222.884 5.01493 223.072 4.44121 225.12 3.93673ZM216.86 4.11478C214.994 5.59195 213.184 5.97443 211.429 5.26222C211.647 4.44121 215.515 3.60041 216.86 4.11478ZM206.464 8.86282C207.018 9.29806 206.672 9.96081 205.979 10.7027C204.604 9.78275 204.772 9.16947 206.464 8.86282ZM203.872 5.57876C201.419 6.3701 200.42 5.48974 198.392 4.58959C197.235 4.95558 196.582 5.32158 195.563 4.8171C200.311 3.95651 199.391 3.39268 203.872 5.57876ZM197.245 16.9938C197.24 17.0267 197.24 17.0599 197.245 17.0928H195.603C195.286 16.7861 194.999 16.4399 194.772 16.1827C196.255 15.9552 197.136 16.2124 197.245 16.9938ZM190.914 12.3546C190.479 13.2152 189.776 13.2548 188.807 12.4931C189.727 11.4742 190.429 11.4347 190.914 12.3546ZM189.925 15.1836C188.161 15.3501 186.428 15.7526 184.771 16.3806C183.554 15.5694 182.367 14.7484 181.18 13.9274C183.396 13.413 188.342 14.333 189.915 15.2232L189.925 15.1836ZM169.38 11.039C168.193 12.0282 169.924 12.8393 164.948 11.3951C165.809 10.4653 167.263 10.3763 169.37 11.0786L169.38 11.039ZM122.888 7.46808C121.593 7.57689 115.41 8.51661 115.272 7.61646C116.666 6.47891 121.553 5.24244 122.878 7.50765L122.888 7.46808ZM113.165 2.24524C112.277 2.41133 111.377 2.50069 110.474 2.51232C111.322 2.14712 112.262 2.0538 113.165 2.24524ZM110.445 9.30795C110.445 10.4059 110.88 10.4653 110.712 10.4356C109.957 10.18 109.183 9.9848 108.397 9.852C109.052 9.62056 109.723 9.43869 110.405 9.30795H110.445ZM106.241 6.6075C105.218 6.90094 104.147 6.98211 103.092 6.84602C102.038 6.70993 101.022 6.35945 100.108 5.81616C103.599 4.63904 102.195 4.5698 106.241 6.6075ZM91.8876 3.27398C94.776 3.55095 92.402 5.58865 91.1853 6.03378C91.1853 7.15155 90.6413 7.33949 89.4048 6.6075C92.5603 5.8953 91.9173 4.89623 91.8876 3.27398ZM86.9417 3.04647C85.6459 3.57074 84.9634 3.42236 84.8645 2.63102C86.002 1.97816 86.7043 2.12654 86.9417 3.04647ZM84.7062 12.0776C85.4283 13.6109 82.2234 16.8751 79.3053 15.1738C80.7396 14.0956 82.0058 12.4931 84.7062 12.0776ZM65.8822 2.46286C68.1276 3.08604 68.0386 3.45203 65.6448 3.59052C65.4173 3.30366 64.2204 1.95838 65.8822 2.46286ZM65.8031 8.30888C63.5577 8.96174 61.0748 8.79358 59.5911 9.17936C61.596 8.53514 63.699 8.25049 65.8031 8.33856V8.30888ZM66.3768 14.8572C66.3768 14.8572 55.7926 14.4714 57.682 15.3221C51.4699 14.0164 67.8012 12.8492 66.3768 14.8869V14.8572ZM26.6021 13.779C25.4942 14.1945 24.8809 14.056 24.7127 13.3537C25.9294 12.9283 26.5724 13.0668 26.6021 13.779ZM149.932 17.0136L150.259 17.0928H150.19L149.932 17.0136Z" fill="white"/>
</g>
<defs>
<clipPath id="clip0_6_100">
<rect width="1900" height="26.5" fill="white" transform="translate(0.996094 0.484619)"/>
</clipPath>
</defs>
</svg>
