<svg width="1900" height="27" viewBox="0 0 1900 27" fill="none" xmlns="http://www.w3.org/2000/svg">
<path d="M760.391 19.363C758.205 19.1058 751.934 19.363 750.351 20.55C747.492 22.7163 753.071 22.7262 753.526 24.7243C752.606 24.0715 750.123 22.8053 749.698 22.4393C748.007 24.0814 747.324 25.6245 745.662 26.5246H760.609C759.333 25.4662 760.351 23.379 760.549 22.5679C762.686 25.9509 766.484 24.8727 765.218 21.9546C764.486 20.1444 765.841 20.006 760.391 19.363Z" fill="#A31521"/>
<path d="M1117.71 24.21C1113.75 27.3655 1105.11 22.0239 1103.46 23.5671C1101.21 25.6542 1108.04 25.0508 1109.34 26.5346H1127.46C1127.46 26.4456 1127.59 26.3565 1127.64 26.2576C1127.78 26.3589 1127.92 26.4515 1128.07 26.5346H1131.2C1129.88 24.9915 1124.43 23.0626 1123.29 22.5779C1121.57 24.0616 1121.54 25.3871 1117.71 24.21Z" fill="#A31521"/>
<path d="M1088.07 24.5759C1087.61 24.8528 1078.89 21.5292 1077.79 26.5542H1089.66C1092.43 26.5048 1094.96 26.4157 1094.91 26.2179C1095.02 26.2996 1095.1 26.4193 1095.13 26.5542H1105.42C1102.23 25.1231 1098.86 24.1602 1095.4 23.6955C1087.12 22.9042 1092.79 21.5688 1088.07 24.5759Z" fill="#A31521"/>
<path d="M1023.62 24.6946C1022.1 24.631 1020.65 24.0715 1019.49 23.1021C1020.86 22.1535 1022.43 21.5248 1024.08 21.2622C1024.08 21.2622 1026.21 16.2372 1022.73 16.1581C1022 16.1581 1016.17 18.2749 1015.89 17.8001C1015.88 17.4193 1015.77 17.0479 1015.58 16.7196C1015.39 16.3914 1015.11 16.1167 1014.79 15.9207C1014.96 15.9207 1012.6 15.9207 1012.69 15.98C1012.85 17.2956 1003.37 21.7271 1005.12 22.3404C1005.96 22.3899 1006.8 22.4294 1007.65 22.4393C1010.77 24.9716 1008.26 27.3852 1006.37 25.3277C1005.32 25.5725 1004.32 25.9762 1003.4 26.5246H1015.6C1016.19 25.5354 1016.06 24.2396 1014.74 22.5679C1013.52 22.5679 1008.86 22.4393 1007.71 22.4393C1008.58 20.7676 1011.98 20.6588 1014.64 22.4393C1016.33 23.7549 1018.44 25.4068 1020.16 26.5246H1028.88C1027.99 25.7432 1024.18 25.9014 1023.62 24.6946Z" fill="#A31521"/>
<path d="M1027.85 22.6768C1030.48 25.3872 1037.75 20.8271 1041.79 22.9736C1036.1 23.3594 1032.89 24.8431 1032.54 26.5247H1043.97C1048.81 25.13 1054.18 24.2694 1052.55 22.9043C1047.68 18.8191 1033.09 22.7758 1027.85 22.6768Z" fill="#A31521"/>
<path d="M1071.86 23.5077C1068.57 23.4022 1065.27 23.3297 1061.97 23.2901C1061.75 22.5413 1061.49 21.805 1061.19 21.0842C1059.98 21.1913 1058.77 21.3696 1057.58 21.6184C1057.58 21.6678 1059.22 24.6453 1059.41 24.9519C1057.93 24.3683 1056.26 25.3575 1055.1 26.5247H1072.25C1073.2 26.1741 1074.02 25.5597 1074.63 24.7541C1071.66 25.1003 1072.11 23.5769 1071.86 23.5077Z" fill="#A31521"/>
<path d="M1087.39 20.1444C1088.96 19.9169 1102.16 18.8782 1101.65 17.7902C1101 17.5537 1100.42 17.1711 1099.95 16.6724C1098.4 17.0186 1085.82 18.0177 1089.92 15.1985C1086.75 15.0897 1083 14.7732 1079.75 14.5259C1083.4 16.6625 1075.92 19.4124 1071.52 19.9268C1073.35 20.5104 1073.41 21.094 1071.73 21.6776C1071.37 21.46 1071.04 21.2721 1070.74 21.1039C1070.52 21.6875 1070.74 21.9051 1071.55 21.7271H1071.47C1072.76 21.371 1072.87 21.9546 1071.81 23.4779C1071.65 23.5373 1077.03 21.2721 1076.59 21.4996C1077.06 22.37 1078.33 22.07 1080.4 20.5994C1082.34 19.0167 1084.66 18.8684 1087.39 20.1444Z" fill="#A31521"/>
<path d="M983.885 13.2599C974.537 13.6061 985.28 15.535 985.557 15.9405C989.167 21.1436 991.63 25.4168 994.38 16.5736C995.33 15.4361 986.17 13.1708 983.885 13.2599Z" fill="#A31521"/>
<path d="M1189.26 22.5777C1185.98 23.0723 1184.78 23.0229 1185.61 22.4294C1185.61 22.37 1185.61 22.4294 1185.37 22.4986C1183.22 23.6263 1183.09 25.753 1180.49 26.4553H1193.5L1194.05 26.2575C1191.28 25.1298 1189.17 23.8538 1189.26 22.5777Z" fill="#A31521"/>
<path d="M1172.03 20.5105C1170.62 22.0932 1169.84 25.4069 1174.81 25.8718C1174.35 24.5265 1174.76 21.7865 1172.03 20.5105Z" fill="#A31521"/>
<path d="M1008.23 12.696C1005.42 13.527 1004.81 14.7733 1006.34 16.4648C1008.6 15.2481 1010.23 14.0908 1008.23 12.696Z" fill="#A31521"/>
<path d="M934.684 21.658L934.555 21.7272C934.713 21.8558 934.783 21.8657 934.684 21.658Z" fill="#A31521"/>
<path d="M1037.04 17.1671C1035.29 14.9613 1031.59 17.8793 1030.87 17.998C1028.75 18.364 1036.05 19.917 1037.04 17.1671Z" fill="#A31521"/>
<path d="M1041.39 15.4854C1039.12 16.7515 1039.41 16.1778 1044.01 18.2847C1044.12 18.3342 1047.92 15.8513 1041.39 15.4854Z" fill="#A31521"/>
<path d="M1058.69 13.9424C1058.23 14.3925 1057.88 14.9399 1057.66 15.5443C1057.44 16.1486 1057.36 16.7945 1057.42 17.4342C1065.52 16.8407 1060.53 16.1779 1058.69 13.9424Z" fill="#A31521"/>
<path d="M1036.69 13.7841C1037.7 13.8931 1038.72 13.6839 1039.61 13.1856C1040.49 12.6874 1041.2 11.9249 1041.63 11.0045L1037.74 10.9353C1037.62 11.1529 1035.95 13.705 1036.69 13.7841Z" fill="#A31521"/>
<path d="M1104.72 13.0818C1106.24 12.8741 1100.77 9.45155 1098.46 11.7761C1098.84 11.9542 1102.8 13.3489 1104.72 13.0818Z" fill="#A31521"/>
<path d="M969.948 16.2571L968.652 17.5925C969.166 17.4837 971.728 17.5133 972.994 17.2364C972.49 16.6033 971.461 16.267 969.948 16.2571Z" fill="#A31521"/>
<path d="M1180.01 23.0427C1181.27 23.0388 1182.53 23.1247 1183.78 23.2999C1182.98 23.8044 1184.69 22.835 1185.36 22.5085C1183.25 21.3512 1178.99 21.1039 1180.01 23.0427Z" fill="#A31521"/>
<path d="M1180.24 23.3988C1180.15 23.288 1180.07 23.1687 1180.01 23.0427C1179.63 23.0823 1179.71 23.201 1180.24 23.3988Z" fill="#A31521"/>
<path d="M1096.06 13.3587C1098.13 13.4478 1098.35 12.3201 1098.24 11.6672C1097.7 11.8255 1091.95 13.1807 1096.06 13.3587Z" fill="#A31521"/>
<path d="M1098.24 11.6575C1098.29 11.6575 1098.3 11.6475 1098.24 11.6575V11.6575Z" fill="#A31521"/>
<path d="M1047.38 14.7733C1050.35 14.4864 1049.02 13.1015 1047.73 12.241C1047.49 13.2895 1046.76 13.2697 1047.38 14.7733Z" fill="#A31521"/>
<path d="M1100.24 16.8406C1100.73 16.3757 1103.97 15.5843 1100.99 14.7534C1100.65 14.9674 1100.39 15.2892 1100.26 15.6674C1100.12 16.0457 1100.12 16.4587 1100.24 16.8406Z" fill="#A31521"/>
<path d="M968.652 17.5923L960.877 18.9573C963.548 19.4519 967 18.9573 968.652 17.5923Z" fill="#A31521"/>
<path d="M977.159 25.2684C976.269 25.0112 975.398 24.7738 974.538 24.5166C972.994 25.1299 975.992 25.7432 977.159 25.2684Z" fill="#A31521"/>
<path d="M960.551 24.121C960.719 25.1101 961.658 25.2387 963.36 24.6057C963.202 23.6659 962.252 23.5176 960.551 24.121Z" fill="#A31521"/>
<path d="M940.104 23.3098C939.679 24.6452 940.866 25.1991 943.725 24.9617C942.577 24.0517 943.25 23.3889 940.104 23.3098Z" fill="#A31521"/>
<path d="M884.879 22.2713C885.175 23.3495 886.145 23.4781 887.737 22.6472C887.144 21.414 886.191 21.2887 884.879 22.2713Z" fill="#A31521"/>
<path d="M1175.03 20.4412C1176.72 21.5491 1178 21.5689 1179.05 20.4412C1177.38 19.729 1176.02 19.7191 1175.03 20.4412Z" fill="#A31521"/>
<path d="M1057.82 21.4997C1056.3 20.7846 1054.66 20.3937 1052.99 20.3523C1053.86 21.3909 1055.2 21.6283 1057.82 21.4997Z" fill="#A31521"/>
<path d="M1049.24 19.0168C1047.13 19.2444 1046.73 19.6499 1048.11 20.2434C1050.13 19.9533 1050.51 19.5444 1049.24 19.0168Z" fill="#A31521"/>
<path d="M1052.5 17.345C1053.84 18.2551 1054.31 19.0069 1053.97 19.6102L1055.55 18.443C1054.85 18.1858 1052.07 17.1175 1052.5 17.345Z" fill="#A31521"/>
<path d="M1055.72 18.4826H1055.8C1057.78 18.0968 1058.31 17.721 1057.42 17.3945C1055.62 17.7407 1055.05 18.0771 1055.68 18.3837L1055.59 18.3342C1055.69 18.4826 1055.76 18.5024 1055.72 18.4826Z" fill="#A31521"/>
<path d="M1053.97 19.6104L1052.98 20.3522C1053.38 20.217 1053.73 19.957 1053.97 19.6104Z" fill="#A31521"/>
<path d="M1202.37 14.0016C1203.78 14.3874 1206.75 14.7138 1206.75 13.3488C1205.07 13.4378 1204 12.9432 1202.37 14.0016Z" fill="#A31521"/>
<path d="M979.018 13.0027C977.584 12.0828 976.377 12.0828 975.349 13.0027C975.804 14.3183 977.02 14.3183 979.018 13.0027Z" fill="#A31521"/>
<path d="M1121.37 10.8165C1120.21 11.3408 1119.39 10.9946 1118.76 12.3102C1121.39 12.5476 1123.17 12.1618 1121.41 10.8363L1121.6 10.9154L1121.51 10.5791C1121.21 10.6385 1121.12 10.7077 1121.37 10.8165Z" fill="#A31521"/>
<path d="M977.881 22.9044C977.97 23.6957 978.643 23.8243 979.859 23.3C979.77 22.6571 979.098 22.5285 977.881 22.9044Z" fill="#A31521"/>
<path d="M971.59 21.7864C972.836 21.7864 973.568 21.5292 973.756 20.9456C975.21 20.5499 968.464 21.3907 971.59 21.7864Z" fill="#A31521"/>
<path d="M1126.59 20.0159C1126.59 20.0159 1126.72 21.5788 1126.7 21.6282C1131.02 22.3602 1127.19 20.2434 1126.59 20.0159Z" fill="#A31521"/>
<path d="M980.067 20.4807C981.106 21.1929 981.976 21.1336 982.53 20.5598C981.708 20.5793 980.886 20.5529 980.067 20.4807Z" fill="#A31521"/>
<path d="M982.827 20.1445C982.75 20.2976 982.65 20.4377 982.53 20.56C983.213 20.5204 983.321 20.3918 982.827 20.1445Z" fill="#A31521"/>
<path d="M983.717 18.5222C982.312 18.7893 982.095 19.363 983.015 20.2434C983.311 19.7191 985.606 18.997 983.717 18.5222Z" fill="#A31521"/>
<path d="M1028.68 15.4064C1028.33 15.4064 1027.88 15.3075 1027.32 15.2185C1027.2 15.7131 1027.68 15.7724 1028.68 15.4064Z" fill="#A31521"/>
<path d="M1028.69 15.4063C1029.42 15.4854 1029.67 15.4063 1029.48 15.2974C1031.32 14.1302 1032.83 13.3784 1030.86 11.8254C1028.03 12.4849 1027.57 13.6356 1029.47 15.2777L1029.26 15.1689L1028.69 15.4063Z" fill="#A31521"/>
<path d="M1069.36 16.4648C1069.19 16.8012 1068 17.365 1069.22 17.5332C1069.25 17.1869 1069.3 16.8407 1069.36 16.4648Z" fill="#A31521"/>
<path d="M1070.79 21.1039C1070.98 20.682 1071.23 20.2864 1071.52 19.9268C1070.11 20.3422 1070.15 20.6489 1070.79 21.1039Z" fill="#A31521"/>
<path d="M1123.3 22.5283C1123.57 22.5283 1126.08 22.3997 1126.7 21.6282C1122.76 22.3107 1123.24 20.7973 1123.3 22.5283Z" fill="#A31521"/>
<path d="M1003.62 10.9056C1003.8 10.8808 1003.98 10.8411 1004.15 10.7869L1003.62 10.9056Z" fill="#A31521"/>
<path d="M917.225 15.7229C916.601 15.4361 915.385 13.5863 912.763 14.5953C913.654 15.535 915.138 15.9208 917.225 15.7229Z" fill="#A31521"/>
<path d="M1461.75 11.7266C1458.64 12.7751 1458.4 13.0125 1461.01 14.2687C1462.64 13.4576 1462.88 12.6102 1461.75 11.7266Z" fill="#A31521"/>
<path d="M828.832 24.9222C830.269 24.6769 831.626 24.09 832.789 23.2109C831.641 22.5284 827.902 22.835 825.578 22.8252C825.85 23.1931 826.101 23.5762 826.329 23.9726C826.547 24.3536 826.735 24.7504 826.893 25.1596C827.249 25.1596 827.566 25.0904 827.882 25.0508C827.882 25.7432 828.456 26.1785 829.208 26.5247H839.208C839.927 25.8722 840.698 25.28 841.513 24.754C837.287 24.5329 833.051 24.5891 828.832 24.9222Z" fill="#A31521"/>
<path d="M694.403 23.2209C693.835 23.186 693.264 23.2125 692.702 23.3L694.057 24.2892C694.799 23.7748 695.046 23.4385 694.789 23.3L696.589 22.4493C694.66 22.1526 693.948 22.4097 694.403 23.2209Z" fill="#A31521"/>
<path d="M1520.18 22.469C1519.98 23.1614 1520.47 23.745 1521.69 24.2099C1520.52 23.834 1521.12 24.1407 1523.46 25.0903C1530.14 24.5957 1521.44 21.4996 1520.18 22.469Z" fill="#A31521"/>
<path d="M1396.87 20.7972L1397.92 21.9051C1399.7 20.8566 1399.36 20.5005 1396.87 20.7972Z" fill="#A31521"/>
<path d="M1354.89 12.0234L1352.11 11.8354C1352.78 11.8948 1354.16 12.3696 1354.89 12.0234Z" fill="#A31521"/>
<path d="M1444.74 23.4187C1445.07 23.7679 1445.42 24.0982 1445.79 24.4079C1446.65 23.844 1446.3 23.5077 1444.74 23.4187Z" fill="#A31521"/>
<path d="M0.388 0.0246582V19.8082H0.645186C1.61812 19.9622 2.55793 20.28 3.42477 20.7479C4.73505 19.8473 6.09938 19.0281 7.51006 18.2947C7.78703 19.1949 6.58024 20.3621 4.91842 21.5293C6.25505 22.4008 7.68096 23.127 9.17188 23.6956C11.9515 24.5661 14.6717 24.2693 17.382 23.9033C17.204 23.3098 17.5898 22.5185 20.1517 22.7955C19.9662 23.1277 19.7094 23.4148 19.3999 23.6363C22.3675 23.2703 25.3845 23.1615 28.3718 24.8431C31.547 26.6335 33.8617 25.1695 37.1655 24.8925C40.6969 24.6057 44.2183 24.8925 47.7398 24.942C49.6455 24.9717 51.5464 25.1403 53.4276 25.4465C56.0588 23.2802 58.7394 21.3612 61.4498 21.4898C62.439 20.6885 63.3094 20.0752 63.3193 20.0653C69.6896 21.6876 70.4216 23.2406 76.9798 24.1902C73.3496 26.3367 69.284 24.8035 65.7923 23.755C65.9802 23.9528 66.1682 24.1407 66.3561 24.3584C66.8805 25.021 67.3161 25.7492 67.6519 26.5247H80.9266C81.1429 26.2243 81.3845 25.943 81.6487 25.6839C82.7768 24.4477 84.3041 23.6482 85.9628 23.4257C87.6215 23.2032 89.3055 23.5719 90.7195 24.4672C91.7779 25.0409 92.7967 25.852 93.8354 26.5247H95.3488C96.0815 24.8066 97.4289 23.4239 99.1275 22.6471C101.165 21.7766 102.926 23.0428 104.726 24.1111C104.835 22.9933 109.356 22.835 111.314 23.8341C109.835 24.4249 108.296 24.8528 106.724 25.1101L107.209 25.2486C110.068 25.9213 113.144 24.8826 116.112 24.3485C115.935 24.3245 115.759 24.2882 115.587 24.2397C115.854 23.6066 116.577 23.4681 117.724 23.8242C117.639 23.9571 117.528 24.0714 117.398 24.1605C117.724 24.1605 118.05 24.0814 118.387 24.0715C125.489 23.7649 132.473 24.9717 139.525 25.1299C142.859 25.1992 146.647 24.1902 149.882 25.7927C149.012 24.7244 150.723 22.6174 153.463 23.6264C153.928 24.6749 152.79 25.4563 150.189 25.9608C150.487 26.1313 150.774 26.3196 151.049 26.5247H157.528C158.024 25.3959 158.908 24.4831 160.021 23.9528C163.025 22.6918 166.323 22.3043 169.537 22.835C170.527 22.5624 171.54 22.3803 172.564 22.291C172.722 22.4394 171.763 22.6867 170.585 22.9735C175.136 23.7748 179.646 25.6245 184.206 26.5247H193.168C195.625 26.0838 198.14 26.0838 200.597 26.5247H207.986C208.255 25.8365 208.586 25.1743 208.975 24.5463C212.23 19.0861 218.551 20.7776 222.26 23.5571C223.231 24.32 223.926 25.3795 224.238 26.5741H224.377C226.08 26.5051 227.769 26.2395 229.412 25.7828C232.646 24.7936 235.485 23.5472 238.809 24.6353C240.195 25.2211 241.549 25.8815 242.865 26.6137H245.951C246.411 26.3857 246.843 26.1034 247.237 25.7729C247.751 25.2629 248.425 24.946 249.146 24.8757C249.867 24.8054 250.59 24.9861 251.193 25.3871H251.708C251.638 25.4662 251.559 25.5058 251.49 25.5751C251.86 25.8615 252.193 26.1939 252.479 26.5642H273.183C268.751 22.9735 286.22 23.6462 288.327 25.9015C288.528 25.1669 288.902 24.4914 289.418 23.9319C289.935 23.3724 290.578 22.9453 291.295 22.6867C294.316 21.8008 297.51 21.6751 300.593 22.3207C304.243 22.9933 307.23 22.1129 310.831 21.3315C313.689 20.7479 315.866 21.3315 318.339 23.8143C319.471 24.9639 320.814 25.8841 322.295 26.5247H328.537C328.815 26.0614 329.147 25.633 329.526 25.2486C330.515 24.2594 332.227 23.6462 333.364 24.388C333.941 24.7617 334.562 25.0609 335.214 25.2783C335.511 25.2783 335.807 25.3871 336.104 25.397C336.353 25.4086 336.6 25.4552 336.836 25.5355C337.766 23.478 339.151 22.0536 340.674 22.3404C342.652 22.7163 344.631 22.202 346.678 22.0536C349.013 21.9192 351.31 22.6918 353.088 24.21C354.74 24.1111 355.304 24.6947 357.045 25.0607C356.333 24.9618 354.908 24.8035 353.642 24.6749C354.179 25.2042 354.609 25.8323 354.908 26.5247H370.953C371.23 25.8483 371.689 25.262 372.279 24.8307C372.87 24.3994 373.568 24.1401 374.296 24.0814C377.729 24.0814 381.023 25.5355 384.376 26.5247H387.7C389.282 25.9015 393.635 24.3386 393.081 25.8718C392.981 26.0525 392.839 26.2063 392.666 26.32C392.494 26.4338 392.297 26.504 392.091 26.5247H397.829C399.738 26.1686 401.647 25.7828 403.596 25.5355C405.063 25.4107 406.54 25.5686 407.948 26.0004C407.904 25.6963 407.794 25.4056 407.626 25.1487C407.458 24.8917 407.235 24.6749 406.974 24.5136C406.712 24.3522 406.419 24.2503 406.114 24.2149C405.808 24.1795 405.499 24.2116 405.208 24.3089H405.139C405.396 24.2298 405.534 24.0122 405.693 23.3197C406.83 24.8431 412.043 24.8628 408.878 26.2873C409.115 26.3664 409.362 26.4356 409.6 26.5247H413.171C414.391 25.2452 415.983 24.3833 417.721 24.0616C416.999 23.9429 416.267 23.7846 415.495 23.6165C418.156 23.4483 420.975 23.3296 422.716 23.9033C421.896 24.14 421.048 24.2664 420.194 24.2792C420.787 24.4375 421.381 24.6551 421.965 24.8727C422.621 25.2323 423.363 25.4099 424.111 25.3871C423.122 25.0805 422.795 24.6254 423.063 24.0418C423.375 24.1438 423.657 24.3221 423.883 24.5604C424.109 24.7987 424.273 25.0896 424.358 25.4069C424.434 25.4021 424.51 25.4021 424.586 25.4069C426.91 23.9924 429.215 22.657 431.896 22.746C432.618 22.7806 433.311 23.0439 433.874 23.4978C436.139 23.6758 438.296 24.576 440.63 25.2585C443.232 26.0103 445.368 25.3673 447.96 24.754C450.314 24.1902 452.708 23.7649 455.003 25.1497C455.533 25.537 456.003 26.0003 456.398 26.5247H460.809C466.319 22.4592 472.343 24.487 478.387 26.5247H493.69C494.052 26.3183 494.458 26.2017 494.875 26.1845C495.291 26.1673 495.706 26.25 496.083 26.4257L494.788 26.5247H496.954C501.197 24.6551 505.293 22.6669 509.813 22.568C515.197 22.6247 520.55 23.3795 525.739 24.8134C528.212 25.4267 530.606 26.04 533.009 26.5148H548.223C550.938 26.1636 553.688 26.1636 556.403 26.5148H563.07C563.318 25.8026 563.783 25.12 565.514 24.3089C562.873 25.5553 578.017 24.0913 575.178 23.0724C579.104 24.4709 583.115 25.6206 587.186 26.5148H593.715C594.054 25.0601 594.891 23.7693 596.079 22.8647C595.407 22.6867 595.644 22.3602 596.801 21.8755C598.216 21.9547 598.78 22.1228 598.483 22.3701C602.944 22.4591 607.385 22.8548 611.857 23.201C612.361 22.4888 613.32 22.2119 615.111 23.1219C615.293 23.2124 615.466 23.3218 615.625 23.4483C616.703 23.5176 617.782 23.5967 618.86 23.6363C621.978 23.8368 625.062 24.4011 628.049 25.3179C629.039 24.1704 631.264 24.8134 631.818 26.307L632.53 26.495H639.969C640.633 26.0551 641.331 25.6682 642.056 25.3376C642.626 25.3275 643.189 25.4674 643.688 25.7432C643.949 25.1547 644.334 24.6297 644.818 24.2044C645.301 23.7792 645.871 23.4639 646.487 23.2802H646.131C639.207 24.2693 638.999 17.4638 648.664 20.7973C651.315 21.7074 652.126 22.8944 649.178 23.2208C651.587 23.2599 653.991 23.4383 656.379 23.755C656.735 23.3593 657.843 22.9537 660.059 22.3306C660.455 23.023 660.227 23.6363 659.406 24.1803C660.672 24.3781 661.948 24.5859 663.224 24.8134C663.923 24.5996 664.589 24.29 665.203 23.8935C666.103 24.6551 666.103 25.0805 665.203 25.1596C668.17 25.674 671.049 26.1488 673.987 26.5049H682.8C684.858 26.1784 686.885 25.7234 688.893 25.4366C686.599 25.2469 684.37 24.5726 682.355 23.4582C687.39 19.7389 692.029 25.4366 696.025 19.8972C700.318 20.6786 699.794 24.022 697.321 26.1784L697.895 26.4653H702.257L703.583 24.8233C705.205 24.4177 708.113 24.7738 709.33 24.1407C707.619 25.0805 707.203 25.8322 707.549 26.4653H713.88C713.672 26.2081 714.048 26.0004 715.067 25.8718L715.423 26.4653H729.41C730.587 25.2709 731.999 24.3348 733.557 23.7166C735.116 23.0984 736.786 22.8116 738.461 22.8746C739.201 22.7653 739.956 22.8935 740.617 23.2406C741.793 23.5831 742.884 24.1658 743.822 24.9519C744.485 23.6462 742.438 22.2217 743.1 20.6589C744.525 17.1868 751.488 16.6032 747.195 12.3893C750.658 11.875 759.837 13.8335 761.044 12.6564C758.423 14.2589 760.262 14.704 754.703 12.9829C753.783 15.2283 746.355 17.1077 750.331 18.6706C750.262 18.6706 753.299 18.0771 756.771 17.5133C756.771 18.0672 756.771 18.631 756.771 19.185C758.69 18.3541 760.055 17.7507 758.907 17.2066C761.365 16.7766 763.845 16.4925 766.336 16.3559C766.069 16.2372 763.368 14.892 763.952 14.7733C765.545 14.3974 771.618 16.8604 771.618 17.8001C771.133 16.4252 767.563 18.5321 767.731 18.9871C767.899 19.4422 772.133 19.4422 772.152 20.0357C772.212 22.014 766.158 19.8082 765.653 20.7578C765.406 21.2326 766.356 23.201 767.543 22.3207C767.543 22.3207 767.345 22.5976 767.058 22.9834C773.211 23.9726 779.373 25.5256 785.615 25.7828C785.861 25.6906 786.1 25.5781 786.327 25.4465C785.605 25.8817 790.996 25.2684 791.026 25.2684C792.866 24.754 790.838 22.4987 792.648 22.202C794.458 21.9052 795.991 24.3584 796.328 26.5049H801.432L801.373 26.4257C799.266 23.3593 808.297 20.8369 800.502 18.5123C801.328 18.6147 802.165 18.5947 802.985 18.453C803.232 19.7983 806.942 19.3136 804.686 20.9061C811.611 20.2731 808.524 17.1374 804.686 17.7902C804.829 17.7128 804.964 17.6235 805.092 17.5232C811.927 17.7804 808.93 13.3884 813.886 12.3893C813.816 13.1016 814.252 15.159 815.29 14.0907C816.487 13.339 816.101 12.7751 814.163 12.3795H814.459C822.046 8.80853 814.519 16.4351 817.427 16.9C813.836 18.6607 804.785 22.6867 811.729 24.9222C809.772 25.048 807.871 25.6307 806.18 26.6236H817.16C817.209 26.3961 817.269 26.1686 817.338 25.9509C817.491 24.98 817.826 24.0468 818.327 23.201C818.676 22.4697 819.229 21.8548 819.92 21.4304C820.172 21.1823 820.472 20.9885 820.802 20.8609C821.132 20.7333 821.485 20.6746 821.839 20.6885C822.129 20.7278 822.417 20.7873 822.699 20.8666C822.965 20.908 823.227 20.9742 823.481 21.0644C823.859 21.2528 824.211 21.4888 824.529 21.7667C825.144 21.418 825.778 21.1043 826.428 20.827C825.35 19.6499 825.726 18.0375 830.533 18.5024C834.075 18.8289 836.122 22.0536 838.763 23.201C840.188 23.8143 843.432 23.9033 845.885 24.487C847.092 24.3354 848.315 24.3822 849.506 24.6254C850.431 24.8557 851.257 25.3798 851.86 26.1191C851.797 25.7584 851.846 25.3871 852 25.0549C852.154 24.7226 852.405 24.4451 852.721 24.2594C848.705 23.6659 849.268 17.721 843.462 17.2165C843.729 18.4431 838.823 18.9179 836.825 19.0762C838.951 17.3055 831.879 15.2382 835.094 14.5062C838.061 13.8533 839.98 15.802 842.463 15.4954C846.42 15.0601 846.815 13.6555 850.455 12.7652C851.722 15.2777 852.641 18.2749 855.203 20.9853C857.17 22.8486 859.306 24.5243 861.584 25.9905C862.039 26.2279 862.405 26.4158 862.711 26.5939H873.75C875.917 26.0894 878.113 25.4465 878.449 24.0122C878.113 24.1012 869.25 25.7333 871.139 25.1992C870.748 23.7317 869.864 22.4431 868.636 21.5491C872.01 23.755 883.781 25.1497 879.161 21.0644C880.151 22.0536 873.404 22.5877 875.076 20.4709C878.044 16.7912 877.697 20.4709 884.236 19.5609C883.632 18.6409 881.15 18.0375 881.535 17.0879C882.04 15.802 884.325 16.4351 885.106 15.4657C885.093 15.6416 885.07 15.8166 885.037 15.9899C885.7 16.4754 886.5 16.7371 887.322 16.7371C888.144 16.7371 888.944 16.4754 889.607 15.9899C891.091 16.7022 894.088 16.712 895.809 17.5331C885.363 19.0267 895.73 18.9773 895.809 21.3908C895.868 23.478 887.549 22.6273 888.885 25.9213C891.991 25.9213 896.066 24.0122 899.528 24.4375C898.427 25.473 897.067 26.1938 895.591 26.5247H905.602C903.416 25.9312 899.311 23.1911 904.158 22.568C908.55 21.9942 907.758 25.2387 909.549 26.5247H910.607C913.674 25.5849 917.937 25.5355 919.698 26.5247H937.988C937.918 26.307 937.631 26.0696 936.998 25.7729C932.814 23.7945 928.986 26.9599 926.632 25.5553C924.584 24.3188 923.011 24.3386 919.262 22.7658C916.809 21.7766 912.942 20.7874 911.863 20.1247C913.753 20.5401 917.512 19.3334 918.511 19.1355C919.013 19.8712 919.674 20.4855 920.444 20.9338C921.214 21.3821 922.074 21.6532 922.962 21.7272C929.609 21.7272 931.736 14.1501 938.354 13.3587C934.14 13.0521 934.595 10.6088 928.956 10.9748C923.318 11.3408 928.877 11.4793 925.989 12.4586C925.722 12.5476 921.32 13.9424 921.261 14.1204C920.43 16.9297 924.614 15.891 924.614 15.9603C925.346 16.9494 917.561 15.7921 916.918 15.802C916.295 16.2966 905.523 21.3513 903.228 19.0267C904.365 20.1939 910.033 13.5467 909.331 13.9127C911.814 12.6169 915.563 13.2499 917.245 11.5288C915.593 11.143 923.367 11.8651 922.022 11.6178C922.008 11.2717 921.907 10.9348 921.729 10.6377C921.551 10.3405 921.302 10.0926 921.003 9.91641H938.482C937.641 10.9056 935.406 11.6475 938.195 13.24C941.44 14.1699 954.883 9.54052 944.674 15.1294C942.924 16.1185 940.52 14.5853 938.383 15.5448C936.247 16.5043 933.902 18.9278 932.824 19.9466L932.933 20.0456C927.206 19.6895 929.491 24.7145 934.555 21.7272C934.066 21.2689 933.607 20.7799 933.18 20.2632L934.723 21.6678C936.444 22.2613 938.235 22.8153 940.085 23.3098C940.846 20.916 946.02 21.0051 948.374 21.5392C950.046 23.0823 950.046 24.6353 948.374 26.1686C946.895 25.3399 945.209 24.9552 943.517 25.0607C943.35 25.2612 943.232 25.4982 943.174 25.7525C943.116 26.0068 943.118 26.2714 943.181 26.5247H951.915C952.904 25.308 951.292 24.4573 953.132 23.1219C954.121 22.3998 956.663 23.6857 957.613 22.746C958.628 21.7296 959.533 20.609 960.313 19.4026C959.711 19.5053 959.103 19.5746 958.493 19.6103C958.325 17.8793 957.178 15.0206 958.77 13.3686C962.826 14.8128 964.656 16.8307 965.952 13.8138C968.711 7.45336 958.879 11.1924 953.29 10.7077C953.617 10.4308 953.983 10.1736 954.349 9.91641H967.277C970.037 10.6286 973.529 10.7473 975.734 9.91641H986.813C986.625 11.509 990.988 13.0422 992.659 11.6079C994.331 10.1736 993.648 10.045 992.541 9.91641H999.247C998.99 10.9056 996.28 11.6475 997.269 12.6267C999.732 15.159 1001.69 13.4577 1002.21 11.7266L1002.41 11.7761C1002.41 11.5485 1002.41 11.3705 1002.35 11.232C1002.35 11.232 1002.35 11.1727 1002.35 11.143C1002.35 11.1133 1002.35 11.1924 1002.35 11.2221C1002.78 11.0783 1003.22 10.9594 1003.66 10.866C1003.23 10.9786 1002.77 10.9579 1002.35 10.8067C1002.35 10.8067 1002.35 10.7572 1002.35 10.7374C1004 10.8767 1005.65 10.5905 1007.15 9.90652H1019.02C1020.67 10.411 1021.69 10.7671 1020.82 10.688C1013.26 9.9263 1012.08 13.4379 1014 13.4478C1015.61 13.1609 1016.26 12.5476 1015.97 11.6277C1016.96 11.5782 1020.46 14.4073 1022.62 13.4873C1023.61 13.0818 1024.29 11.7563 1024.92 11.509C1022.06 12.3893 1024.64 10.866 1026.45 9.86695H1035.97C1036.53 10.24 1037.12 10.5706 1037.74 10.8561C1042.21 9.86695 1046.55 9.65922 1047.76 12.1618C1049.69 12.5114 1051.68 12.3512 1053.53 11.6969C1053.78 11.6969 1054.63 11.6079 1055.83 11.4595C1055.45 11.3394 1055.06 11.2977 1054.67 11.3368C1054.28 11.3759 1053.9 11.4952 1053.55 11.687C1054.36 10.9967 1055.22 10.3777 1056.13 9.83728H1068.09C1064.76 10.3121 1059.04 11.0737 1055.83 11.4595C1057.1 11.9554 1058.19 12.8243 1058.96 13.9522C1060.64 13.339 1069.84 11.4991 1070.66 9.83728H1083.99C1081.18 10.4209 1078.38 11.964 1079.96 14.3578C1080.65 12.874 1088.72 10.7869 1088.55 10.2132C1088.52 10.127 1088.47 10.0488 1088.4 9.98385C1088.34 9.91895 1088.26 9.86893 1088.17 9.83728H1103.54C1105.93 10.4394 1108.43 10.4394 1110.82 9.83728H1121.3C1121.4 10.0513 1121.48 10.273 1121.54 10.5C1122.27 10.4225 1123 10.3928 1123.73 10.411C1123.43 10.1799 1123.1 9.98717 1122.75 9.83728H1147.43C1139.91 16.6725 1150.49 10.6484 1153.36 14.8623C1154.5 16.5241 1148.18 16.4054 1148.27 16.0394C1148.58 14.5457 1145.59 19.2147 1147.74 17.81C1147.5 17.9683 1152.47 18.5717 1151.7 19.1652C1148.9 21.193 1142.35 18.3739 1139.37 20.8864C1139.69 20.9754 1143.44 22.7163 1144.48 23.1911C1144.26 23.4582 1141.08 26.1092 1141.63 25.5948C1138.2 23.6165 1137.88 23.0823 1139.07 20.649C1135.18 18.7695 1142.6 17.3649 1140.71 14.7139C1148.25 10.2428 1112.93 12.1618 1127.92 15.7031C1125.49 17.6814 1123.75 16.9 1120.43 15.9998C1115.49 14.6743 1119.52 15.4558 1119.44 13.5071C1119.36 11.9937 1106.92 14.6447 1106.7 17.1077C1106.51 18.908 1114.75 23.5176 1117.96 24.0319C1118.16 22.7757 1120.13 21.836 1123.1 21.7865C1121 21.3934 1119.03 20.5048 1117.34 19.1949C1120.05 18.9871 1124.66 19.9071 1126.58 20.0555C1128.41 19.5108 1130.29 19.1789 1132.19 19.0663C1129.04 15.436 1136.15 15.1096 1136.15 16.5538C1136.15 18.2552 1133.7 19.5905 1133.12 21.3216C1133.12 21.3908 1133.4 24.5364 1133.7 26.5247H1144.26C1144.33 25.3475 1144.42 24.1605 1144.49 23.2802L1144.64 23.3494C1145.24 23.5571 1150.08 25.3772 1149.38 25.3278C1154.49 25.5157 1149.24 20.649 1156.79 23.2703C1156.2 23.9528 1155.48 23.0329 1155.72 24.6254C1156.98 24.3485 1157.37 23.9528 1156.94 23.4186C1158.09 22.9145 1159.18 22.2982 1160.21 21.5788C1160.33 21.5788 1166.71 20.7182 1166.03 20.8864C1166.71 20.7182 1172.06 19.0861 1173.38 18.908C1175.97 18.6113 1183.18 19.7983 1184.58 19.551C1192.36 18.2057 1182.39 18.5618 1179.24 16.7417C1176.08 14.9216 1180.35 11.6475 1172.76 10.8759C1172.94 10.5746 1173.04 10.2358 1173.07 9.88673H1188.26C1185.29 11.8651 1191.46 13.6357 1191.55 14.4963C1190.31 14.8332 1189.05 15.0648 1187.77 15.1887C1188.01 14.9216 1191.96 19.2641 1192.3 19.7587C1192.36 19.8675 1188.28 22.7262 1188.96 22.4196C1197.94 21.1139 1194.19 24.4573 1202.37 21.559C1203.52 21.1534 1203.95 19.7587 1204.87 18.9179C1204.34 19.5609 1209.37 17.8595 1210.97 17.4638C1207.01 16.2966 1202.07 18.2848 1198.52 17.078C1195.49 16.0889 1199 12.5278 1194.87 12.2608C1198.75 12.8048 1201.48 11.3309 1205.15 12.053C1207.78 12.5773 1207.26 14.9019 1211.15 15.4459C1224.01 17.2561 1212.14 5.78166 1228.78 12.0728C1222.46 12.6267 1223.83 15.9405 1216.91 15.624C1217.42 18.3837 1217.28 20.5698 1214.13 21.6975C1209.59 20.2533 1208.88 20.3225 1205.32 21.3315C1204.1 21.6777 1201.66 24.9024 1201.06 26.495H1209.26C1210.05 25.2486 1210.32 23.9429 1215.66 23.2604C1218.55 22.8746 1220.76 24.2496 1223.46 24.1111C1225.03 24.0023 1226.68 21.0248 1228.86 21.7371C1232.59 22.9834 1221.54 25.1992 1221.44 25.2981C1221.23 25.4356 1221.06 25.6122 1220.92 25.8176C1220.78 26.023 1220.69 26.2532 1220.64 26.495H1225.87C1226.97 24.121 1228.69 22.5383 1230.81 23.0527C1232.44 23.4324 1234.1 23.723 1235.76 23.9231C1236.12 22.4493 1236.75 21.1831 1238.04 20.9061C1240.43 20.372 1243.61 23.2307 1240.43 24.2199V24.2891C1242.3 24.3386 1244.18 24.2891 1246.06 24.1902C1245.62 22.657 1244.3 20.5797 1245.92 20.1643C1246.7 21.1534 1247.98 22.7262 1247.68 24.0715C1248.74 23.9825 1249.79 23.8737 1250.84 23.7451C1249.97 23.0527 1250.81 22.7559 1253.37 22.8548C1253.54 22.6867 1253.28 23.0329 1252.92 23.4681C1259.17 22.568 1265.42 21.1238 1271.72 19.8774C1269.87 19.0861 1268.21 19.0168 1269.32 17.0978C1269.73 16.3955 1275.4 13.2895 1276.94 15.1689C1278.17 16.6824 1270.01 16.8901 1271.7 18.5123C1272.89 18.6292 1274.06 18.861 1275.21 19.2048C1276.61 18.9476 1278.01 18.7102 1279.4 18.5024C1279.74 18.2736 1280.12 18.1244 1280.52 18.0661C1280.93 18.0079 1281.34 18.0421 1281.73 18.1661C1283.96 17.8793 1286.19 17.6715 1288.42 17.5726C1293.79 17.355 1299.18 17.3847 1304.58 17.5726C1305.53 16.2486 1306.77 15.1537 1308.2 14.3677C1312.87 13.5862 1311.16 16.1086 1308.2 17.721C1318.9 18.3456 1329.55 19.6374 1340.1 21.5887C1344.16 22.3594 1348.28 22.8617 1352.41 23.0922C1352.24 22.5581 1352.9 22.1525 1354.39 21.8558C1354.85 21.4304 1354.2 22.4888 1353.31 23.1318C1356.71 23.2482 1360.11 23.0794 1363.47 22.6273C1359.23 20.4412 1355.96 18.1365 1358.12 18.1068C1361.02 18.1068 1363.21 20.8171 1365.77 22.2811H1365.89C1368.65 21.7766 1371.4 21.2919 1374.16 20.827C1374.02 20.7624 1373.89 20.6577 1373.8 20.5248C1373.71 20.3919 1373.66 20.2361 1373.65 20.0752C1371.81 19.9755 1369.98 19.7107 1368.19 19.2839C1369.87 18.1365 1375 19.7092 1376.63 20.4907C1377.93 20.3225 1379.24 20.1939 1380.58 20.1148C1380.86 19.7092 1381.57 19.4817 1382.86 19.4125C1382.59 19.6707 1382.29 19.8875 1381.96 20.0555C1384.78 19.935 1387.61 20.1508 1390.39 20.6984C1391.19 20.8666 1391.99 21.0644 1392.79 21.282C1395.07 21.3414 1396.9 21.1337 1397.87 19.4224C1399.65 22.8054 1405.12 19.363 1403.43 16.8802C1404.13 17.355 1405.78 17.6715 1408.97 17.7111C1414.21 17.7705 1412.93 18.2552 1414.37 16.079C1415.75 14.1006 1410.35 15.8317 1409.29 15.0898C1407.6 13.7841 1429.82 9.60976 1429.86 10.1439C1430.21 13.8335 1419.13 12.4388 1418.35 15.7328C1415.22 15.1689 1413.98 15.4855 1414.64 16.7219C1415.92 16.8964 1417.22 16.6126 1418.31 15.9207C1418.31 16.1284 1426.08 20.6391 1422.47 20.3621C1416.02 19.8576 1416.97 18.5024 1411.19 21.0248C1409.89 21.5206 1408.71 22.2974 1407.75 23.2999C1406.96 19.6004 1399.24 20.7874 1400.16 23.6857L1401.42 24.1407L1407.65 23.4186C1406.76 24.4078 1406.51 25.1101 1404.38 25.1992C1405.75 25.674 1407.12 26.1191 1408.5 26.5247H1431.78C1432.47 26.0004 1431.32 26.0499 1433.08 24.4375C1422.79 23.0823 1432.22 16.9 1432.38 13.4675C1436.64 15.0799 1433.59 17.8892 1434.45 19.5609C1436.16 19.9565 1437.95 20.2731 1439.75 20.55C1441.26 21.3809 1441.15 22.2613 1439.45 23.1812C1439.88 24.0913 1439.61 25.3376 1439.45 26.5444H1441.49C1442.86 26.3763 1444.25 26.2081 1445.63 26.0696C1444.44 25.7935 1443.38 25.0901 1442.66 24.0913C1443.4 23.774 1444.15 23.5192 1444.93 23.3296C1450.76 20.4412 1450.02 24.9123 1447.28 25.9312C1451.05 25.5751 1454.83 25.2783 1458.62 25.0904C1460.74 24.7612 1462.88 24.6783 1465.02 24.8431C1469.04 24.7375 1473.06 24.7375 1477.08 24.8431C1477.31 24.6469 1477.53 24.4354 1477.73 24.21C1479.25 22.4789 1475.75 21.5689 1480.7 19.9961C1479.71 21.1337 1480.94 23.1021 1482.42 25.0112C1485.17 25.1299 1487.93 25.2684 1490.67 25.4662C1491.56 25.5359 1492.4 25.9382 1493.01 26.5939H1496.76C1499.27 24.8181 1502.19 23.6962 1505.24 23.3296C1507.85 24.3979 1507.44 25.4959 1506.65 26.5939H1512.72C1512.21 24.5067 1514.15 23.4483 1510.1 21.1435C1511.48 21.8755 1516.03 18.087 1519.07 18.4134C1520.44 18.5717 1524.11 21.2919 1525.3 21.8261C1529.52 23.6956 1535.19 25.0904 1540.22 26.5939H1541.36C1541.23 24.6156 1549.57 25.9312 1551 26.5939H1575.56C1581.34 24.1309 1587.09 21.3612 1592.95 20.4412C1592.64 19.9961 1592.7 19.5114 1593.29 19.0861C1594.13 19.2076 1594.91 19.5878 1595.53 20.1742C1597.18 20.0693 1598.84 20.1556 1600.48 20.4313C1608.12 21.7766 1616.43 28.78 1624.08 25.8718C1629.36 23.8935 1633.49 23.1516 1638.03 26.5939H1642.16C1643.15 25.6641 1646.29 24.6156 1649.64 25.3179C1649.1 25.6766 1648.61 26.1058 1648.19 26.5939H1657.7C1656.31 25.9905 1654.73 25.4564 1655.28 24.7738C1655.82 24.0913 1660.71 24.2693 1660.46 24.2594C1660.36 24.5862 1660.33 24.9299 1660.36 25.2699C1660.4 25.6099 1660.5 25.9391 1660.67 26.2378C1668.04 25.2486 1675.51 24.8826 1682.79 24.487C1703.56 23.3494 1724.38 21.7074 1745.17 21.2622C1755.49 20.9363 1765.81 21.4424 1776.05 22.7757C1779.84 23.3406 1783.61 24.1267 1787.31 25.1299C1787.41 25.034 1787.52 24.9626 1787.65 24.9222C1787.79 25.0206 1787.9 25.1492 1787.98 25.2981C1789.6 25.7333 1791.22 26.1686 1792.84 26.6236H1816.39C1817.28 25.486 1820.17 23.5472 1821.1 24.5562C1820.43 25.6344 1820.17 26.2576 1819.9 26.6236H1845.24C1863.38 22.1228 1881.49 16.623 1899.58 22.6669V0.0246582H0.388ZM943.656 18.9575C940.164 17.8892 943.062 17.4341 942.251 16.9791C942.785 17.2957 944.546 19.7389 943.656 18.9575ZM953.933 13.0224C952.301 14.1204 956.357 18.7596 958.335 19.6202C957.741 19.7488 950.422 21.5986 951.806 19.4916C952.538 19.1751 953.29 18.8783 954.072 18.5915C955.268 17.2363 947.563 17.6023 949.126 17.5528C948.156 16.4944 949.373 12.6267 953.953 13.0323L953.933 13.0224ZM1111.34 16.2966C1111.61 15.6437 1112.33 15.5151 1113.5 15.9108C1113.21 16.5538 1112.5 16.6725 1111.34 16.3065V16.2966ZM1198.46 20.6687C1199.92 20.0357 1200.74 20.1544 1200.92 21.0051C1199.73 21.0545 1196.99 21.1633 1198.46 20.6786V20.6687ZM1412.12 26.0301C1412.6 25.8274 1413.12 25.7305 1413.64 25.7459C1414.16 25.7612 1414.68 25.8885 1415.15 26.1191C1414.14 26.3891 1413.09 26.3616 1412.1 26.04L1412.12 26.0301ZM1426.19 16.4647C1424.35 15.8515 1424.53 15.2481 1426.75 14.6249C1427.71 15.1788 1427.51 15.7954 1426.17 16.4746L1426.19 16.4647ZM1695.07 16.257C1696.46 14.8128 1699.25 13.0917 1700.02 12.1223C1701.37 12.8839 1699.26 16.8406 1695.05 16.2669L1695.07 16.257ZM1686.4 10.7077C1686.63 11.2419 1686.4 11.6969 1685.59 12.1025C1685.29 11.8341 1685.07 11.4868 1684.96 11.1003C1684.84 10.7137 1684.84 10.3035 1684.95 9.91641H1686.31C1686.63 10.3121 1686.82 10.7176 1686.38 10.7176L1686.4 10.7077ZM1582.04 13.0818C1581.18 13.2689 1580.28 13.2211 1579.44 12.9433C1580.3 12.7743 1581.19 12.8253 1582.02 13.0917L1582.04 13.0818ZM1568.49 10.6781C1567.01 10.6269 1565.56 10.3671 1564.16 9.90652H1571.43C1572.31 10.5693 1572 11.0144 1568.47 10.688L1568.49 10.6781ZM1554.94 18.2749C1557.29 19.2641 1557.1 19.7686 1554.37 19.8873C1554.15 19.4323 1553.91 18.9674 1553.7 18.5024C1554.09 18.3744 1554.5 18.3012 1554.92 18.2848L1554.94 18.2749ZM1558.34 9.91641C1558.13 10.1064 1557.9 10.2753 1557.66 10.4209C1557.05 10.3626 1556.45 10.1915 1555.91 9.91641H1558.34ZM1260.7 9.91641H1266.95C1266.14 10.5495 1260.91 10.9056 1258.25 11.6574C1259.03 11.0288 1259.85 10.4475 1260.7 9.91641ZM1233.24 13.1411C1233.1 13.5171 1233.02 13.9098 1232.99 14.3083C1232.46 13.8237 1233.29 12.5674 1233.98 12.1025C1234.97 12.607 1234.72 12.9532 1233.24 13.1411ZM828.328 10.5297C827.052 10.9155 826.349 10.7572 826.25 10.0846C826.483 10.0096 826.721 9.95333 826.963 9.91641H827.675C827.831 9.94559 827.975 10.0189 828.091 10.1275C828.207 10.2362 828.289 10.3758 828.328 10.5297ZM780.135 14.2094C781.728 14.615 781.945 15.0502 780.758 15.5448C780.076 14.9909 775.14 11.5881 775.516 11.2122C777.192 10.8047 778.946 10.849 780.6 11.3408C778.285 12.7158 777.098 12.973 780.125 14.2094H780.135ZM674.867 13.9226C668.042 13.339 669.723 11.4892 669.822 9.91641H673.284C674.118 11.1085 674.657 12.4815 674.857 13.9226H674.867ZM701.812 9.91641H703.395C702.996 10.02 702.589 10.0862 702.178 10.1142C701.862 10.134 701.782 10.0549 701.812 9.91641ZM589.936 11.509C588.284 11.82 586.601 11.9395 584.921 11.8651C585.376 10.6286 588.423 11.0836 589.936 11.509ZM581.034 14.1105C580.411 13.6654 580.381 13.2005 581.034 12.7158C582.607 13.0323 582.607 13.5071 581.034 14.1105ZM572.131 13.8731C571.794 14.043 571.423 14.1365 571.045 14.1467C570.667 14.157 570.292 14.0838 569.945 13.9325C570.245 13.669 570.628 13.5189 571.027 13.508C571.427 13.4972 571.817 13.6263 572.131 13.8731ZM608.572 9.91641C608.295 10.5 607.732 10.9056 606.525 10.7572C606.277 10.7479 606.039 10.662 605.842 10.5114C605.646 10.3608 605.5 10.1529 605.427 9.91641H608.572ZM361.091 10.8265C360.433 11.1676 359.71 11.366 358.971 11.4086C358.231 11.4512 357.49 11.3371 356.798 11.0737C357.817 10.0747 359.251 10.0054 361.061 10.8265H361.091ZM119.861 9.91641H121.512C121.099 10.4738 120.766 11.0865 120.523 11.7365C119.93 11.1232 119.495 10.4901 119.861 9.91641ZM1.60469 11.3408C2.19819 11.0441 2.76202 10.7176 3.35553 10.4209C4.92831 11.6574 4.49308 12.1816 1.60469 11.3408ZM5.94716 15.7031C4.89864 15.2481 5.08658 14.9117 6.55056 14.7139C8.3014 15.1096 8.05411 15.436 5.94716 15.7031ZM13.6924 14.1204C6.13511 13.4675 7.30233 9.48117 11.0216 10.8363C15.8587 12.5971 13.5045 12.8147 14.9783 15.0206C20.2309 23.2802 12.0009 20.3225 13.6924 14.1204ZM26.799 21.9349C27.0067 21.7272 25.4141 21.4007 27.254 20.55C28.5498 19.9862 29.3609 19.9565 29.7072 20.4907C25.1174 20.4511 28.4905 20.6292 26.799 21.9349ZM36.1566 17.6221C39.8363 17.2462 39.9649 16.9297 42.8236 17.5331C40.6969 20.2434 39.2329 19.8082 36.1566 17.6221ZM49.2236 12.9433L46.444 13.2895C43.5853 13.5862 47.2848 12.8147 49.2236 12.9433ZM50.6084 18.631L47.0672 17.1572C51.924 15.8515 53.5957 16.8406 50.6084 18.631ZM56.5435 19.729C55.2674 19.3136 55.2971 18.7399 56.6721 17.9089C58.5416 18.4134 58.5119 19.0168 56.5731 19.729H56.5435ZM54.5651 12.7356C55.7225 9.31301 59.1846 11.9343 59.511 12.5872C57.9022 12.0357 56.1478 12.0884 54.575 12.7356H54.5651ZM69.1456 17.6814C71.4602 18.087 72.8945 18.8091 73.488 19.8279C71.1734 19.7389 67.6519 19.1355 69.1555 17.7309L69.1456 17.6814ZM83.3106 17.0681C82.7208 17.2953 82.0906 17.3985 81.4592 17.3712C80.8277 17.344 80.2087 17.187 79.6407 16.9099C80.8602 16.6072 82.1427 16.6796 83.3204 17.1176L83.3106 17.0681ZM80.5112 23.7649C80.2738 23.1021 80.6497 22.5284 81.6685 22.0635C85.19 22.6273 80.6002 23.8242 80.5112 23.7649ZM83.8348 20.5303C82.4895 19.5609 81.5004 19.3235 80.6497 19.8082C82.2225 18.4827 83.182 17.7309 83.7062 17.3055C84.8932 18.3541 84.9427 19.4224 83.815 20.5006L83.8348 20.5303ZM88.7807 12.6169C89.5621 13.151 89.1862 13.4577 87.7025 13.5368C86.8122 12.9532 87.1584 12.6366 88.751 12.607L88.7807 12.6169ZM91.6196 20.0851C87.9003 20.0851 87.9795 12.2311 93.598 16.6725C94.1222 17.7309 96.6941 20.1049 91.5899 20.0752L91.6196 20.0851ZM93.8354 16.6725C94.5872 15.9306 95.7247 15.7723 97.2282 16.257C96.1215 16.5988 94.9617 16.7362 93.8057 16.6626L93.8354 16.6725ZM96.15 14.3776C92.9055 12.973 95.1609 10.9649 97.8119 9.9263H101.838C99.8565 11.307 97.9482 12.7895 96.1204 14.3677L96.15 14.3776ZM102.738 20.1445C103.233 19.7983 103.727 19.4619 104.222 19.1553C104.489 19.1256 103.974 20.2632 102.708 20.1346L102.738 20.1445ZM111.997 13.4082C110.384 11.8255 110.355 11.2815 113.322 10.0945C114.479 11.4595 114.054 12.5575 111.967 13.3983L111.997 13.4082ZM119.613 16.9692C119.317 16.5241 122.967 13.9325 123.768 15.891C124.721 15.5352 125.765 15.5073 126.735 15.8119C126.528 16.079 121.562 16.5142 119.584 16.9593L119.613 16.9692ZM131.76 16.6131C130.929 16.1878 130.979 15.7822 131.849 15.4063C132.631 15.8515 132.601 16.2076 131.731 16.6032L131.76 16.6131ZM145.045 23.9924C143.996 24.6057 145.906 22.3701 146.034 22.014C146.717 22.7757 146.4 23.4186 145.015 23.9825L145.045 23.9924ZM143.512 16.1581L148.764 17.9386C144.422 20.7973 143.818 16.257 143.482 16.1482L143.512 16.1581ZM151.583 17.1473C150.476 16.3955 150.716 15.7361 152.306 15.1689C153.601 14.6249 151.9 16.7516 151.554 17.1077L151.583 17.1473ZM157.004 14.4765C155.688 13.9621 155.026 13.3291 155.026 12.5773C154.957 12.785 158.973 13.5368 156.974 14.4369L157.004 14.4765ZM157.548 21.6975L155.194 21.8162C155.451 21.4106 158.933 18.0771 157.825 17.7111C159.23 18.1167 157.133 22.5185 157.518 21.6579L157.548 21.6975ZM166.807 18.6113C163.948 19.7785 163.671 16.8011 165.076 16.0592C167.034 16.7219 167.638 17.5825 166.777 18.5717L166.807 18.6113ZM165.016 15.8515C164.641 14.8623 165.402 14.2787 167.4 14.1501C167.351 14.9117 166.569 15.4756 165.016 15.8515ZM188.757 15.7921C187.599 15.0997 187.916 14.4369 189.746 13.8138C190.972 14.5655 190.616 15.2283 188.727 15.8515L188.757 15.7921ZM195.453 24.2496C193.208 24.4573 195.315 21.6183 195.453 21.5293C196.443 21.9646 197.511 22.3503 198.609 22.7064C199.311 22.3602 197.639 24.0715 195.424 24.2594L195.453 24.2496ZM197.076 13.3686L199.123 13.8929C197.016 14.4567 194.771 14.6743 197.046 13.3488L197.076 13.3686ZM218.62 19.2147C220.074 18.8487 221.024 19.1157 221.429 20.006C219.747 20.4214 218.798 20.1643 218.59 19.1949L218.62 19.2147ZM225.445 17.5825C224.456 16.9 225.336 14.9513 227.226 16.7714L225.445 17.5825ZM234.496 16.8901C236.183 16.8398 237.864 17.1221 239.442 17.721C236.86 18.7201 234.358 18.6409 234.466 16.8406L234.496 16.8901ZM255.823 20.184C255.17 19.8873 255.496 18.8783 256.278 18.2057C257.514 18.9179 257.356 19.5609 255.793 20.1643L255.823 20.184ZM267.05 22.5383C268.296 21.9646 269.028 22.103 269.345 22.9537C267.584 23.4483 266.832 23.3098 267.02 22.5185L267.05 22.5383ZM296.923 20.9556C298.068 20.9177 299.214 20.9441 300.355 21.0347C299.287 20.9754 297.754 20.9457 296.893 20.9358L296.923 20.9556ZM334.571 20.7973C334.304 20.4511 334.571 20.1049 334.897 19.8082C335.501 20.184 335.422 20.5006 334.571 20.7973ZM336.134 17.078C334.789 17.4836 333.226 14.7238 334.897 14.2193C336.915 14.5754 338.35 16.4252 336.134 17.078ZM342.86 19.9071C342.019 19.3828 342.296 19.0564 343.671 18.9179C344.562 19.4916 344.295 19.8082 342.86 19.9071ZM353.088 18.3244C359.251 18.7992 357.579 20.4709 358.677 22.2811C353.959 22.7757 353.336 19.8082 353.088 18.3244ZM359.765 12.7652C360.444 12.6327 361.132 12.5468 361.823 12.508C361.176 12.7909 360.461 12.8802 359.765 12.7652ZM374.128 23.7649C372.615 23.5571 372.535 23.1516 373.93 22.5482C376.275 22.6768 376.334 23.0823 374.128 23.7649ZM372.931 15.6141C371.635 15.1096 374.722 12.7751 375.345 12.8444C376.055 13.4467 376.698 14.1232 377.264 14.8623C375.965 15.6482 374.415 15.9066 372.931 15.5844V15.6141ZM389.322 22.5383C389.164 21.7272 389.757 21.5491 391.083 22.1327C390.944 22.8449 390.351 22.9834 389.322 22.5185V22.5383ZM402.982 24.665C403.586 24.4667 404.217 24.3665 404.852 24.3683C404.248 24.4573 403.625 24.5463 402.982 24.665ZM409.906 21.104C410.606 20.8127 411.358 20.6694 412.116 20.683C412.873 20.6966 413.62 20.8669 414.308 21.1831C412.162 22.2119 410.272 21.104 409.906 21.104ZM415.139 18.2947C412.281 17.3055 413.359 14.1204 417.414 14.5655C417.088 15.1096 416.761 15.6635 416.425 16.2076C417.751 17.5528 417.325 18.2453 415.129 18.2947H415.139ZM421.638 21.7865C419.699 21.4304 419.422 20.9391 420.807 20.3126C422.449 20.738 422.766 21.2326 421.638 21.7865ZM435.546 18.0672C430.679 17.9584 430.679 16.8406 433.647 15.2975C433.271 14.4468 433.884 13.8237 435.506 13.4478C435.813 13.6258 435.012 16.9593 435.546 18.087V18.0672ZM430.679 10.2428C433.103 10.1538 434.784 9.98565 436.802 9.96587C434.779 10.3003 432.724 10.3932 430.679 10.2428ZM440.828 13.9522C440.67 14.4765 439.938 14.7634 438.612 14.8524C437.712 15.1788 439.077 13.8731 440.808 13.9522H440.828ZM441.125 16.346C442.114 16.7912 442.114 17.2363 441.184 17.7012C440.057 17.2561 440.027 16.8406 441.105 16.346H441.125ZM440.393 23.4483C442.421 22.5284 443.667 22.6471 443.311 21.2128C444.775 21.4898 445.477 21.9843 445.418 22.6966C445.368 24.2397 442.213 23.933 440.373 23.4483H440.393ZM454.845 21.3117L450.74 21.8854C450.537 21.7242 450.386 21.5077 450.304 21.2622C452.342 20.5006 455.092 19.6103 454.825 21.3117H454.845ZM455.735 15.6734C456.727 15.538 457.736 15.7143 458.623 16.1779C459.899 16.2966 453.935 15.9405 455.715 15.6734H455.735ZM454.855 9.91641H459.454C459.967 10.6032 460.404 11.3426 460.76 12.1223H460.542C458.549 11.6695 456.632 10.9263 454.855 9.91641ZM460.602 24.8134C461.759 24.2792 462.303 24.4078 462.244 25.1596C461.007 25.7432 460.434 25.6344 460.602 24.8134ZM466.289 17.8298C466.685 17.3253 466.289 16.3955 466.369 16.2273C469.079 16.4944 467.16 17.2957 466.289 17.8298ZM463.322 12.5971C465.508 12.419 468.268 12.241 469.049 12.7356C470.642 13.8138 466.289 13.151 463.322 12.5971ZM475.281 23.567C472.739 23.0032 477.022 21.2622 477.695 20.9655C477.457 22.291 476.32 23.7649 475.281 23.567ZM477.714 20.7973C477.238 20.3601 476.933 19.7674 476.854 19.1256C477.606 19.3531 477.823 20.0456 477.714 20.7973ZM483.194 24.1407C481.661 23.5967 481.74 23.2703 483.491 23.1516C485.677 23.7649 485.598 24.1012 483.194 24.1605V24.1407ZM495.45 14.9216C498.131 11.598 501.633 17.5429 501.662 17.5924C501.039 17.4836 496.103 14.1204 495.45 14.9414V14.9216ZM515.62 15.4954C515.62 14.5556 516.46 14.5062 518.29 15.2975C517.905 15.5678 517.454 15.7304 516.985 15.7686C516.515 15.8069 516.044 15.7194 515.62 15.5151V15.4954ZM525.314 21.1534C523.663 21.2838 522.012 20.8928 520.595 20.0357C522.237 19.7389 523.939 19.4422 525.64 19.185C526.353 18.2431 527.358 17.5646 528.499 17.2561C527.233 18.0276 526.965 20.4511 525.314 21.1732V21.1534ZM534.839 15.2678C535.977 14.2787 536.709 14.2787 537.035 15.1986C535.868 16.1779 535.136 16.2076 534.839 15.2876V15.2678ZM544.563 12.0926C543.673 11.8849 543.673 11.5683 544.563 11.1628C545.424 11.3903 545.424 11.6969 544.563 12.1124V12.0926ZM553.04 22.6471C551.448 22.8647 551.428 21.0842 551.665 19.6004C554.395 20.7182 554.87 21.7865 552.991 22.6471H553.04ZM551.695 19.4422C551.798 18.8628 551.94 18.2911 552.12 17.7309C554.633 16.9198 558.273 15.9702 558.273 14.9513C560.459 15.436 554.722 18.8882 551.645 19.4422H551.695ZM559.272 23.8341C557.363 23.6857 556.759 23.2999 557.541 22.6768C559.598 22.7757 560.192 23.112 559.272 23.8341ZM566.196 17.7111C570.153 17.6122 572.191 18.1859 572.329 19.4125C571.508 20.461 562.002 19.4521 566.107 17.7111H566.196ZM578.64 19.8675C576.533 18.3145 586.989 18.9773 587.909 19.4916C586.969 20.8567 579.906 20.8666 578.551 19.8675H578.64ZM588.116 22.568C587.473 22.568 588.601 21.6876 589.709 21.3513C590.273 21.1831 588.65 22.4097 588.027 22.568H588.116ZM587.879 14.1204C588.846 13.4576 589.66 12.5939 590.263 11.5881L592.469 12.3201C591.598 13.6357 590.085 14.249 587.79 14.1204H587.879ZM596.03 15.9207C597.138 15.4855 597.87 15.5844 598.245 16.2076C598.087 16.3656 597.894 16.4854 597.683 16.5579C597.471 16.6304 597.245 16.6537 597.023 16.6261C596.801 16.5984 596.588 16.5205 596.401 16.3983C596.213 16.2761 596.056 16.1128 595.941 15.9207H596.03ZM598.008 12.2014C595.634 11.4397 598.008 9.23388 599.601 10.8957C599.017 11.3309 598.483 11.7761 597.939 12.2014H598.008ZM605.002 14.4369C606.812 15.1689 606.189 18.5618 605.892 17.4045C603.359 16.3691 603.04 15.38 604.932 14.4369H605.002ZM604.705 22.1723C603.409 21.3414 603.716 18.9179 608.048 19.8082C609.255 20.8666 608.117 21.6579 604.635 22.1723H604.705ZM616.486 20.6786C615.338 20.8567 614.161 21.0051 612.964 21.1139C610.135 21.0248 616.921 13.4873 619.691 15.1788C618.692 14.5952 615.803 20.372 616.417 20.6786H616.486ZM637.991 15.5646C637.397 15.3668 625.685 18.9476 627.594 14.4468C627.357 14.9909 633.213 12.7356 633.529 12.5674C634.518 14.8821 642.768 13.7148 643.955 12.0629C645.488 12.4586 646.329 13.0521 646.497 13.9226C646.804 18.542 640.196 16.2372 637.921 15.5646H637.991ZM652.828 18.1562C651.968 17.6023 652.264 17.1671 653.669 16.9791C654.856 17.8298 654.579 18.1958 652.769 18.1562H652.828ZM660.633 17.6814C657.507 19.0366 654.074 15.4261 657.665 15.1195C660.168 15.2481 661.157 16.1086 660.573 17.6814H660.633ZM660.168 9.91641H663.422C663.719 10.2824 663.422 10.6781 661.503 11.3408C660.445 10.9056 660.01 10.4011 660.168 9.91641ZM661.83 13.6654L664.154 12.9235C664.425 12.9397 664.689 13.0113 664.93 13.1338C665.172 13.2563 665.386 13.4271 665.559 13.6357C665.062 14.1078 664.405 14.3734 663.72 14.3789C663.035 14.3845 662.373 14.1294 661.869 13.6654H661.83ZM665.984 18.4827C667.731 17.9518 669.592 17.921 671.355 18.3936C669.07 19.363 668.447 19.6697 666.024 18.4827H665.984ZM682.137 23.4285C679.457 27.3852 676.034 22.9933 673.146 21.5788C672.978 22.7064 671.899 23.5571 669.901 24.21C668.971 23.6165 672.503 20.9556 671.88 18.542C675.579 19.5312 679.368 21.7667 682.108 23.4285H682.137ZM688.448 12.2904C686.885 12.1717 686.589 11.8354 687.558 11.3013C689.111 11.3606 689.408 11.7068 688.488 12.2805L688.448 12.2904ZM690.367 17.9386C690.555 18.1068 693.909 14.8227 694.096 14.8524C694.819 15.1294 695.58 15.4162 696.312 15.713C698.024 14.6249 691.821 19.0663 690.407 17.9287L690.367 17.9386ZM698.063 17.3154C698.698 16.8328 699.43 16.4944 700.209 16.3235C700.988 16.1527 701.795 16.1536 702.574 16.3263C702.702 16.3955 701.832 20.095 698.103 17.3055L698.063 17.3154ZM703.949 19.3828C705.294 18.4431 706.323 18.5717 706.995 19.7488C705.363 20.5995 704.334 20.4808 703.988 19.3729L703.949 19.3828ZM709.627 16.8406C704.097 16.3658 708.093 12.2212 708.281 13.8731C710.616 14.5754 711.061 15.5745 709.627 16.8406ZM717.322 13.5071C716.185 14.16 715.651 14.0215 715.68 13.0917C716.917 12.5575 717.461 12.696 717.352 13.4675L717.322 13.5071ZM728.935 16.6428C724.692 14.4765 725.364 15.0206 728.53 13.2598C731.092 14.9117 731.824 14.5754 728.965 16.6032L728.935 16.6428ZM740.805 12.0926C738.224 13.24 736.849 11.5881 736.156 9.95598H739.579C740.212 10.7176 741.082 11.8948 740.815 12.053L740.805 12.0926ZM751.548 11.3606C750.499 11.1331 751.548 10.322 751.785 9.95598H751.934C752.349 10.3912 752.25 10.9056 751.558 11.321L751.548 11.3606ZM768.364 10.866C768.243 10.7508 768.154 10.607 768.103 10.4479C768.053 10.2888 768.044 10.1195 768.077 9.95598H769.284C769.096 10.3538 768.763 10.665 768.354 10.8265L768.364 10.866ZM774.299 23.7253C774.818 23.4296 775.391 23.2413 775.984 23.1716C776.577 23.1019 777.178 23.1523 777.751 23.3197C777.425 24.2792 776.287 24.4177 774.319 23.7649L774.299 23.7253ZM781.322 19.3729C779.906 19.4019 778.5 19.6113 777.138 19.9961C777.237 20.1742 776.673 18.1167 777.919 18.4629C782.509 19.6796 780.481 18.8882 783.854 19.4521C783.457 19.6311 783.023 19.7163 782.588 19.7008C782.152 19.6854 781.726 19.5698 781.342 19.363L781.322 19.3729ZM785.397 15.802C785.746 15.4666 786.201 15.2641 786.684 15.2297C787.167 15.1954 787.646 15.3314 788.039 15.6141C787.661 15.8838 787.216 16.0433 786.753 16.0747C786.29 16.1062 785.828 16.0083 785.417 15.7921L785.397 15.802ZM790.205 13.4972C788.365 12.874 787.583 12.0036 787.851 10.8957C790.848 8.92723 791.491 12.4091 790.225 13.4873L790.205 13.4972ZM801.165 22.0536C800.947 22.7757 800.245 22.9043 799.088 22.4493C799.315 21.7865 800.027 21.6579 801.185 22.0437L801.165 22.0536ZM794.389 17.5429C794.389 16.9297 800.838 13.2499 800.651 14.338C800.631 14.7238 795.754 16.9791 794.409 17.5331L794.389 17.5429ZM809.424 10.9946C807.961 10.9254 807.664 10.6286 808.564 10.1241C810.176 10.1241 810.443 10.4209 809.444 10.9847L809.424 10.9946ZM831.641 12.4685C830.721 13.1609 829.485 15.5448 827.912 15.891C823.194 16.9494 824.816 14.4864 826.349 13.2994C827.131 13.3686 830.514 12.3893 832.937 11.5387C834.419 10.9085 836.054 10.7329 837.636 11.0342C834.629 11.8948 833.659 10.9056 831.661 12.4586L831.641 12.4685ZM855.382 10.3813C854.729 10.2725 854.531 10.1142 854.64 9.9263H864.027L863.859 10.0648C861.042 10.3833 858.204 10.4858 855.372 10.3714L855.382 10.3813ZM859.506 20.9061C859.754 19.917 860.862 19.3037 861.91 18.4926C862.659 19.1186 863.36 19.7997 864.007 20.5303C862.561 21.0419 861.006 21.168 859.497 20.8963L859.506 20.9061ZM871.119 17.0385C866.173 17.2957 864.611 16.4549 858.082 14.1402C863.206 12.2608 864.611 12.7553 866.876 15.891C871.189 13.4478 871.189 17.0286 871.109 17.0286L871.119 17.0385ZM872.109 13.7445C868.152 12.5278 867.163 11.4298 869.141 10.4506C871.574 10.3418 873.404 10.7869 874.562 11.7761C874.621 12.7257 873.83 13.3785 872.109 13.7346V13.7445ZM885.225 14.2391C885.225 14.4172 885.225 14.6051 885.156 14.7832C877.786 14.7337 879.438 14.5952 880.882 12.7059C882.732 10.3714 885.848 14.4073 885.225 14.2292V14.2391ZM891.862 9.91641H897.728C895.493 11.509 891.427 11.9838 891.862 9.91641ZM906.146 12.1816C904.346 11.6969 901.428 9.87684 906.393 10.0747C906.398 10.022 906.398 9.96905 906.393 9.91641H906.532C906.348 10.6611 906.22 11.4182 906.146 12.1816ZM1156.93 23.4186L1156.81 23.2901L1156.99 23.3494L1156.93 23.4186ZM1156.32 19.5312C1154.85 19.0564 1154.83 18.542 1156.32 18.0178C1157.24 18.4134 1157.24 18.9179 1156.32 19.5312ZM1168.87 10.9056C1168.87 11.6969 1164.91 17.4539 1162.74 16.9C1161.07 16.4845 1161.99 13.9325 1159.58 14.0215C1159.06 14.1249 1158.58 14.3875 1158.22 14.7733C1158.3 13.7841 1156.89 13.2005 1160.88 11.5189C1154.38 11.5189 1154.07 10.9353 1155.38 9.9263H1160.57C1162.3 11.598 1163.36 12.8839 1168.87 10.9056ZM1206.92 9.91641H1208.36C1208.63 9.96587 1208.89 10.0252 1209.18 10.0648C1208.59 10.045 1207.81 9.98565 1206.92 9.91641ZM1221.41 20.006C1216.95 19.5905 1221.25 18.819 1220.84 18.6904C1222.29 18.9632 1223.76 19.1285 1225.23 19.185C1224.14 19.3927 1223.39 20.184 1221.41 20.006ZM1227.34 19.4916C1227.12 19.4011 1226.9 19.3284 1226.67 19.274C1227.58 19.3334 1228.43 19.3729 1229.14 19.3927C1228.52 19.4323 1227.95 19.4817 1227.32 19.4916H1227.34ZM1230.59 19.2938C1230.05 18.5123 1226.91 16.2768 1228.2 16.2175C1230.4 16.1185 1232.74 18.8684 1237.55 18.364C1235.31 18.6706 1232.98 19.0564 1230.57 19.2938H1230.59ZM1236.04 10.1637C1235.72 10.1107 1235.41 10.0279 1235.11 9.91641H1247.18C1247.04 10.0437 1246.93 10.2076 1246.87 10.3912C1247.06 10.3912 1247.86 10.1538 1248.93 9.91641H1255.33C1255.33 10.9946 1250.11 11.3804 1249.7 11.6475C1243.87 8.81843 1242.59 11.2617 1236.02 10.1637H1236.04ZM1247.91 17.9683C1247.99 17.9683 1244.61 16.9791 1243.09 16.6329C1243.02 16.3559 1242.1 15.7427 1242.1 15.713C1250.63 15.9207 1257.74 15.0898 1250.72 20.1049C1249.29 19.3235 1248.23 18.0969 1247.87 17.9683H1247.91ZM1259.4 20.7973C1259.15 20.9853 1254.81 20.006 1254.86 20.0258C1254.31 20.4827 1253.64 20.7563 1252.93 20.8077C1252.22 20.8592 1251.51 20.686 1250.9 20.3126C1253.46 19.8774 1262.15 18.6706 1259.4 20.7973ZM1257.75 14.981C1256.85 13.1213 1254.27 13.0026 1256.76 12.8444C1257.15 13.8929 1258.4 14.1699 1259.98 14.1105C1259.2 14.2613 1258.44 14.5421 1257.75 14.9414V14.981ZM1262.69 18.6014C1262.65 18.3032 1262.53 18.0214 1262.34 17.7814C1262.16 17.5414 1261.92 17.3507 1261.65 17.2264C1262.92 17.632 1264.06 18.0573 1262.71 18.5618L1262.69 18.6014ZM1263.51 15.4657C1263.91 15.0283 1264.22 14.5178 1264.43 13.9621C1263.8 13.8902 1263.17 13.8506 1262.54 13.8434C1265.12 13.4478 1267.77 12.8543 1268.72 13.4082C1270.66 14.5457 1264.9 15.4756 1263.56 15.4261L1263.51 15.4657ZM1273.63 9.91641H1276.84C1278.84 10.3186 1280.79 10.9839 1282.62 11.8948C1277.57 13.8731 1274.65 12.7158 1273.63 9.91641ZM1298.65 15.2678C1294.04 15.6141 1289.93 12.0431 1290.98 9.91641H1294.23C1291.98 12.8839 1297.46 15.9899 1301.27 11.8948C1295.39 10.9748 1298.53 10.2527 1301.27 9.91641H1303.79C1303.82 10.6085 1303.71 11.2985 1303.46 11.9455C1303.21 12.5926 1302.84 13.1833 1302.36 13.6826C1301.88 14.1818 1301.3 14.5795 1300.66 14.8518C1300.03 15.1242 1299.34 15.2657 1298.65 15.2678ZM1309.13 11.2518C1307.32 10.8363 1307.02 10.5297 1308.29 10.3418C1310.15 10.7077 1310.42 11.0144 1309.13 11.2518ZM1322.27 17.1868C1319.96 18.7992 1316.34 14.2688 1317.09 15.0601C1317.72 15.1631 1318.36 15.1631 1318.99 15.0601C1321.53 15.4162 1322.66 16.0988 1322.27 17.1967V17.1868ZM1320.73 14.2193C1317.41 13.7346 1315.19 12.8048 1314.09 11.4101C1315.74 11.219 1317.34 10.7225 1318.8 9.94608H1321.52C1322.08 10.1044 1322.78 10.322 1323.68 10.6385C1328.72 12.3795 1325.25 12.5476 1320.73 14.1896V14.2193ZM1330.45 11.875C1332.05 12.6663 1332.83 13.6357 1332.86 14.8425C1326.87 17.2759 1328.59 12.9631 1330.45 11.8948V11.875ZM1333.72 16.3757C1334.15 16.1492 1334.64 16.0627 1335.13 16.1283C1335.61 16.1938 1336.06 16.4082 1336.42 16.7417C1335.23 17.5133 1334.34 17.3847 1333.72 16.346V16.3757ZM1340.18 20.1148C1342.88 19.6994 1344.33 19.8972 1344.55 20.7479C1343.9 21.6085 1338.88 19.8972 1340.18 20.0851V20.1148ZM1363.47 16.8406C1364.02 15.9108 1364.46 15.9405 1364.69 16.9C1364.17 17.8298 1363.77 17.7507 1363.47 16.8406ZM1361.39 13.5368C1363.52 13.3192 1351.26 13.4577 1356.02 14.526C1354.73 14.3981 1353.42 14.6309 1352.24 15.1986C1351.73 15.0898 1350.89 10.9155 1342.85 13.151C1341.69 11.598 1341.86 10.5792 1342.75 10.0054H1348.76C1350.05 10.3739 1351.26 10.9886 1352.32 11.8156C1352.73 10.1934 1362.55 9.98565 1365.36 10.955C1365.38 11.9439 1365.05 12.9083 1364.44 13.6852C1365.13 13.481 1365.86 13.4204 1366.58 13.5072C1367.29 13.5939 1367.98 13.8262 1368.61 14.1896C1365.45 14.4567 1364.75 13.1411 1361.42 13.4873L1361.39 13.5368ZM1372.22 11.7958C1373.79 10.3022 1374.79 10.0549 1375.18 11.0639C1374.81 11.4526 1374.34 11.7244 1373.82 11.8457C1373.29 11.967 1372.75 11.9325 1372.25 11.7464L1372.22 11.7958ZM1374.68 15.8218C1375.21 15.1393 1375.84 15.2085 1376.49 16.0196C1375.73 16.5538 1375.13 16.4845 1374.71 15.7723L1374.68 15.8218ZM1384.69 14.0314C1386.17 13.517 1379.88 12.053 1387.09 11.2419C1386.87 11.1068 1386.68 10.9208 1386.54 10.699C1386.41 10.4772 1386.32 10.226 1386.3 9.96587H1387.21C1388.28 10.9056 1386.22 13.4478 1384.72 13.9819L1384.69 14.0314ZM1403.1 16.5637C1402.81 16.2801 1402.47 16.0432 1402.11 15.8614C1393.52 16.9099 1404.02 11.9937 1396.59 9.9263H1400.47C1401.52 10.688 1400.98 12.3102 1400.69 13.3192C1405.31 13.3192 1403.45 13.2301 1407.28 11.8453C1407.86 12.6267 1402.47 15.0304 1403.13 16.5142L1403.1 16.5637ZM1457.44 20.7083C1456.32 19.3205 1454.99 18.1216 1453.49 17.1572C1455.6 16.6269 1457.8 16.5829 1459.94 17.0286C1460.01 18.3442 1459.15 19.5708 1457.44 20.7083ZM1457.44 13.3884C1457.78 14.0512 1457.35 14.6941 1456.17 15.2876C1454.37 14.5655 1454.48 13.4181 1457.44 13.3884ZM1469.81 15.1195C1468.64 15.1195 1465.41 15.3173 1463.22 15.2481C1460.52 15.1294 1461.03 13.2697 1457.5 13.2697C1452.96 9.87684 1447.32 14.8227 1448.6 17.3352C1441.53 17.8199 1443.65 15.6932 1440.2 13.8237C1440.29 13.8237 1453.8 10.3121 1457.09 9.86695H1457.78H1461.4C1463.2 11.232 1467.33 11.964 1469.49 10.9452C1468.18 11.8156 1467.71 11.0836 1468 14.1995C1476.24 13.3192 1475.17 15.2283 1469.77 15.1195H1469.81ZM1480.58 17.4737C1478.26 18.3442 1475.51 20.0159 1472.23 19.4521C1470.78 19.1949 1480.28 14.5062 1479.93 14.6941C1480.8 14.2985 1483.25 17.7507 1483.3 17.8199L1480.58 17.4737ZM1486.76 24.0715C1486.11 23.6462 1486.17 23.2999 1486.95 23.0823C1487.61 23.478 1487.53 23.8242 1486.72 24.0715H1486.76ZM1490.35 21.104C1489.65 20.916 1487.19 19.7785 1487.89 19.9565C1490.09 19.729 1491.42 20.1247 1490.31 21.1435L1490.35 21.104ZM1492.62 17.0187C1494.6 15.9108 1497.44 15.8317 1499.54 15.8614C1498.24 16.3263 1498.99 17.3253 1492.58 17.0583L1492.62 17.0187ZM1496.29 20.5303C1496.46 20.4511 1497.35 19.0564 1500.64 20.0159C1499.28 20.6761 1497.73 20.8707 1496.25 20.5698L1496.29 20.5303ZM1497.72 12.6169C1497.47 12.2311 1497.24 11.8354 1496.99 11.4595C1494.65 12.2295 1492.17 12.4793 1489.73 12.1915C1490.16 11.7761 1494.62 9.79771 1495.75 10.2132C1499.07 11.4694 1505.55 11.3903 1508.12 14.1105C1510.69 16.8307 1498.82 10.3912 1497.68 12.6564L1497.72 12.6169ZM1523.25 16.8406C1517.85 15.3865 1518.31 12.0036 1524.14 11.2419C1523.25 10.777 1523.33 10.3813 1524.39 10.0945C1524.52 11.143 1523.96 12.2113 1527.22 11.4496C1527.24 11.0978 1527.37 10.7611 1527.59 10.4851C1527.81 10.2091 1528.11 10.0071 1528.45 9.90652H1530.42C1533.16 10.5099 1536.36 13.0917 1534.03 14.2094C1527.44 17.4638 1519.26 8.29416 1523.25 16.8406ZM1540.53 21.5194C1543.09 20.5303 1545.84 21.0446 1546.47 22.1723C1543.84 22.7757 1541.83 22.6174 1540.53 21.5194ZM1548.25 15.8515C1548.36 15.6932 1537.77 19.3729 1536.32 20.5204C1535.64 20.3322 1535.03 19.9278 1534.6 19.3678C1534.17 18.8078 1533.93 18.1224 1533.92 17.4144C1535.64 18.1995 1537.54 18.5396 1539.43 18.4035C1539.43 16.3065 1542.96 11.8354 1542.07 10.1736C1542.03 10.1047 1541.99 10.0385 1541.95 9.97576H1545.73C1544.4 11.7068 1543.51 12.3102 1548.33 12.6465C1547.63 11.7761 1548.47 10.777 1547.84 9.97576H1551.15C1550.33 12.0046 1549.36 13.9688 1548.25 15.8515ZM1552.68 23.2109C1553.54 21.9646 1555.08 21.5392 1557.29 21.9151C1556.27 23.112 1554.73 23.5373 1552.68 23.1911V23.2109ZM1556.16 12.6762C1557.51 11.7859 1558.43 11.7464 1558.88 12.5773C1558.51 12.9046 1558.03 13.0915 1557.54 13.106C1557.04 13.1204 1556.55 12.9614 1556.16 12.6564V12.6762ZM1558.83 23.7154C1559.61 23.0724 1560.27 23.1219 1560.72 23.8638C1560.1 24.6947 1559.46 24.6452 1558.83 23.6956V23.7154ZM1559.59 18.1365C1560.73 17.3847 1562.34 17.2759 1564.37 17.7705C1563.66 18.2147 1562.86 18.4785 1562.02 18.5389C1561.19 18.5992 1560.35 18.4543 1559.59 18.1167V18.1365ZM1560.46 20.916L1562.08 20.283C1562.99 20.4445 1563.89 20.6658 1564.78 20.9457C1563.34 21.0823 1561.89 21.0657 1560.46 20.8963V20.916ZM1564.5 17.7111C1561.84 16.6725 1558.95 15.0898 1563.66 14.3875C1568.11 13.6951 1568.9 16.7516 1571.25 16.4647C1573.32 16.2076 1572.17 13.9918 1573.06 13.151C1574.59 13.7841 1576.27 16.7417 1574.98 17.5232C1574.74 17.9386 1566.86 17.6221 1564.5 17.6913V17.7111ZM1578.27 22.7361C1577.05 23.1219 1571.06 20.3522 1571.98 19.5609L1577.85 20.55C1577.71 20.4511 1580.16 22.1327 1578.27 22.7163V22.7361ZM1577.89 16.2867C1577.41 15.1393 1577.89 14.0314 1579.37 13.0026C1580.59 14.0611 1581.53 14.9019 1582.27 15.5547C1580.88 16.0944 1579.39 16.337 1577.89 16.2669V16.2867ZM1582.44 21.4502C1583.61 20.916 1584.22 21.0545 1584.22 21.836C1582.89 22.4097 1582.3 22.291 1582.44 21.4304V21.4502ZM1598.77 10.0945C1598.55 10.181 1598.31 10.2118 1598.08 10.1842C1597.85 10.1565 1597.62 10.0713 1597.43 9.93619H1599.02C1598.96 10.0127 1598.87 10.0621 1598.77 10.0747V10.0945ZM1602.03 12.7454C1601.61 11.9541 1603.14 11.5189 1603.17 11.6178C1603.46 13.2499 1601.49 11.6771 1602.28 14.4666C1601.62 14.5382 1600.96 14.5713 1600.3 14.5655C1599.58 13.606 1598.9 12.6861 1602.03 12.7257V12.7454ZM1599.79 19.6697C1600.14 19.1157 1600.77 19.2147 1601.55 19.9862L1603.92 20.3423C1602.92 20.9556 1601.67 19.8774 1599.79 19.6796V19.6697ZM1600.14 16.9989C1598.9 15.5151 1603.59 16.3362 1604.17 16.6428C1603.58 17.0297 1602.9 17.2655 1602.2 17.3293C1601.5 17.3932 1600.79 17.2831 1600.14 17.0088V16.9989ZM1608.37 21.6678C1609.21 21.0644 1609.76 21.0347 1609.97 21.5788C1609.51 22.3503 1608.99 22.38 1608.37 21.6777V21.6678ZM1613.75 23.3395C1613.21 22.7163 1613.26 21.5293 1615.61 21.6777C1618.83 20.3522 1614.37 22.9241 1613.73 23.3494L1613.75 23.3395ZM1615.18 11.1924C1615.91 11.4496 1616.61 11.7167 1617.33 11.964C1616.31 13.8731 1614.42 11.8948 1615.18 11.2023V11.1924ZM1622.5 24.4177C1621.31 24.2001 1621.09 23.8242 1621.85 23.2999C1623.82 23.567 1624.03 23.9429 1622.5 24.4276V24.4177ZM1627.68 22.1228C1626.9 21.5689 1627.22 21.2524 1628.67 21.1337C1629.38 21.7074 1629.05 22.0338 1627.68 22.1327V22.1228ZM1628.46 18.4629C1626.2 19.2344 1624.93 18.7893 1624.39 18.4629C1626.59 17.1254 1629.06 16.2943 1631.63 16.0295C1630.68 16.9809 1629.62 17.8025 1628.46 18.4728V18.4629ZM1635.72 20.7083C1636.89 20.7788 1638.01 21.2188 1638.91 21.9646C1637.47 22.3602 1632.05 19.64 1635.72 20.7182V20.7083ZM1639.99 12.1915C1638.42 12.1915 1637.75 11.8057 1638.01 10.9946C1639.5 10.9056 1640.18 11.3309 1639.99 12.2014V12.1915ZM1651.41 23.2703C1649.9 22.746 1650.14 22.2811 1652.14 21.8063C1653.08 22.3602 1652.84 22.8548 1651.41 23.2802V23.2703ZM1649.65 15.8515C1651 16.8018 1652.53 17.4742 1654.14 17.8298C1644.71 19.4323 1650.4 16.6131 1649.65 15.8515ZM1665.77 25.2882C1663.51 24.9618 1663.18 24.4573 1664.78 23.7451C1666.8 24.121 1667.15 24.6452 1665.77 25.2882ZM1669.02 20.461C1669.93 19.9961 1670.63 20.0357 1671.14 20.5797C1670.22 21.2326 1669.5 21.2029 1669.02 20.461ZM1675.87 23.0724C1674 22.3306 1674.2 21.7568 1676.41 21.3612C1678.11 21.9942 1677.92 22.568 1675.87 23.0724ZM1684.13 22.8944C1686.02 21.4106 1687.83 21.0347 1689.56 21.7469C1689.35 22.5581 1685.48 23.3989 1684.13 22.8944ZM1694.53 18.1463C1693.97 17.7111 1694.32 17.0484 1695.01 16.3065C1696.39 17.2264 1696.22 17.8298 1694.53 18.1463ZM1697.12 21.4304C1699.57 20.6391 1700.57 21.5194 1702.6 22.4196C1703.76 22.0536 1704.41 21.6777 1705.43 22.1921C1700.68 23.0527 1701.6 23.6165 1697.12 21.4304ZM1703.75 10.0153C1703.75 9.98246 1703.75 9.94927 1703.75 9.91641H1705.39C1705.71 10.2132 1705.99 10.5594 1706.22 10.8166C1704.74 11.0441 1703.86 10.7968 1703.75 10.0153ZM1710.12 14.615C1710.55 13.7544 1711.26 13.7148 1712.22 14.4765C1711.27 15.5349 1710.56 15.5745 1710.08 14.615H1710.12ZM1711.11 11.786C1712.87 11.6211 1714.61 11.215 1716.26 10.5792C1717.48 11.3903 1718.66 12.2212 1719.85 13.0422C1717.6 13.5961 1712.7 12.6762 1711.08 11.786H1711.11ZM1731.65 15.9306C1732.84 14.9414 1731.11 14.1303 1736.08 15.5745C1735.18 16.534 1733.73 16.6527 1731.62 15.9306H1731.65ZM1778.14 19.5015C1779.44 19.3828 1785.62 18.453 1785.76 19.3531C1784.33 20.5303 1779.44 21.7865 1778.11 19.5015H1778.14ZM1787.83 24.754C1788.72 24.5929 1789.62 24.5036 1790.52 24.487C1789.67 24.8621 1788.73 24.9557 1787.83 24.754ZM1790.55 17.7012C1790.55 16.6032 1790.11 16.534 1790.28 16.5736C1791.04 16.8292 1791.81 17.0244 1792.6 17.1572C1791.94 17.3886 1791.27 17.5705 1790.59 17.7012H1790.55ZM1794.7 20.4017C1795.72 20.1091 1796.79 20.0275 1797.85 20.1618C1798.9 20.2962 1799.92 20.6437 1800.84 21.1831C1797.39 22.3602 1798.8 22.4394 1794.75 20.4017H1794.7ZM1809.1 23.7649C1806.22 23.478 1808.59 21.4403 1809.81 20.9952C1809.81 19.8873 1810.35 19.6994 1811.59 20.4313C1808.43 21.1139 1809.08 22.1129 1809.1 23.7649ZM1814.05 23.9924C1815.35 23.4681 1816.03 23.6066 1816.13 24.4078C1814.99 25.0211 1814.29 24.8826 1814.05 23.9627V23.9924ZM1816.29 14.9612C1815.56 13.428 1818.77 10.1538 1821.69 11.8651C1820.25 12.8839 1818.99 14.5062 1816.29 14.9315V14.9612ZM1835.08 24.5463C1832.84 23.9231 1832.92 23.5571 1835.32 23.4088C1835.58 23.7055 1836.77 25.0508 1835.11 24.5166L1835.08 24.5463ZM1835.16 18.6904C1837.4 18.0474 1839.89 18.2156 1841.37 17.8298C1839.38 18.4757 1837.28 18.7571 1835.19 18.6607L1835.16 18.6904ZM1834.59 12.1421C1834.59 12.1421 1845.2 12.5674 1843.28 11.7662C1849.52 12.9927 1833.19 14.16 1834.62 12.1124L1834.59 12.1421ZM1874.36 13.2598C1875.47 12.8444 1876.08 12.9829 1876.25 13.6753C1875.06 14.0808 1874.42 13.9424 1874.39 13.2301L1874.36 13.2598ZM1751.03 10.0153L1750.7 9.94608H1750.77L1751.03 10.0153Z" fill="#A31521"/>
</svg>
